<?xml version="1.0" encoding="utf-8"?>
<!-- Generator: Adobe Illustrator 26.0.3, SVG Export Plug-In . SVG Version: 6.00 Build 0)  -->
<svg version="1.1" id="Calque_1" xmlns="http://www.w3.org/2000/svg" xmlns:xlink="http://www.w3.org/1999/xlink" x="0px" y="0px"
	 viewBox="0 0 259.61 1920" style="enable-background:new 0 0 259.61 1920;" xml:space="preserve">
<style type="text/css">
	.st0{fill:#1AB743;}
	.st1{fill:#F2F2F2;}
</style>
<polygon class="st0" points="259.61,0 259.61,960 259.61,1920 0,1920 0,0 "/>
<g>
	<path class="st1" d="M183.07,1672.57l-6.31,1.59c-1.7,0.15-3.34-0.15-5.18-0.93c-42.08-17.89-88.24,12.92-88.09,58.75
		c0,1.32-0.09,2.65,0.02,3.98c0.13,1.65,0.36,3.29,0.64,4.93c4.45,26.09,19.21,43.79,44.4,51.48c25.06,7.65,47.51,1.34,65.12-17.95
		c17.92-19.64,21.66-42.83,11.4-67.37c-3.26-7.79-3.27-14.93-1.84-22.61c0.32-1.69,0.72-3.36,1.18-5.02l0.09-0.31l3.62-12.85
		L183.07,1672.57z M151.23,1751.71c7.93-0.05,15.86,0.07,23.8-0.04c3.54-0.05,5.12,1.27,5.05,4.95
		c-0.27,14.14,1.87,12.59-12.17,12.66c-2.81,0.01-5.63,0-8.43,0c-5.29,0-10.59-0.05-15.87,0.02c-3.23,0.03-4.86-1.21-4.81-4.7
		C139.01,1749.8,137.11,1751.81,151.23,1751.71z M146.03,1693.84c8.05,0.88,16.08,2.09,24.05,3.55c7.09,1.3,10.74,5.35,11.64,12.94
		c1.41,12.01-0.98,23.77-2.87,35.54c-0.35,2.18-1.98,2.37-3.73,2.37H160.7c-1.32,0-2.66-0.13-3.98,0.02
		c-7.51,0.87-14-0.18-18.99-6.97c-4.21-5.71-10.51-5.33-16.79-3.77c-3.4,0.85-7.42,2.83-8.95-2.58c-1.2-4.28,2.11-8.26,7.45-9.19
		c3.75-0.65,7.49-1.45,11.28-1.73c4.7-0.36,6.28-3.08,6.3-7.26c0.03-4.97-0.14-9.94-0.03-14.91
		C137.12,1695.43,139.49,1693.13,146.03,1693.84z"/>
</g>
<path class="st1" d="M73.86,1733.22c0.16,2.41,0.08,4.88,0.53,7.25c0.56,2.9-0.74,4.33-2.95,5.98c-18.3,13.65-26.12,32-21.75,54.38
	c4.25,21.72,17.94,35.65,39.3,41.66c12.8,3.6,25.31,2.13,37.19-3.64c2.8-1.35,5.11-1.57,7.96-0.65c5.1,1.65,10.3,3,15.86,4.6
	c-0.43-2.86-0.52-5.2-1.15-7.37c-3.1-10.74,1.31-20.07,5.29-29.51c0.57-1.34,1.55-1.46,2.73-1.65c2.89-0.46,5.76-1.04,8.96-1.63
	c-0.37,4.23-1.33,8.21-3.28,11.47c-5.81,9.69-3.7,19.43-1.05,29.25c0.64,2.39,1.64,4.7,2.54,7.03l4.08,9.38l-29.38-9.09l-0.94-0.29
	c-0.71-0.22-1.42-0.44-2.13-0.66c-3.15-0.99-5.83-0.84-8.95,0.44c-31.3,12.88-66.94-0.75-82.19-31.27
	c-14.96-29.93-4.01-66.78,24.98-83.96C70.71,1734.22,71.84,1733.11,73.86,1733.22z"/>
<g>
	<path class="st1" d="M170.35,1542.14l-80.81,26.38v-11.27l39.81-12.59c10.91-3.48,20.74-6.48,30.22-8.63v-0.24
		c-9.35-2.28-19.54-5.64-30.1-9.23l-39.93-13.67v-11.15l80.81,28.9V1542.14z"/>
	<path class="st1" d="M129.1,1423.92c27.82,0,42.57,16.91,42.57,37.53c0,21.34-16.55,36.33-41.01,36.33
		c-25.66,0-42.45-15.95-42.45-37.53C88.22,1438.19,105.12,1423.92,129.1,1423.92z M130.42,1486.63c17.27,0,32.73-9.35,32.73-25.78
		c0-16.55-15.23-25.9-33.57-25.9c-16.07,0-32.85,8.39-32.85,25.78C96.73,1478,112.68,1486.63,130.42,1486.63z"/>
	<path class="st1" d="M98.41,1398.03v24.58h-8.87v-59.83h8.87v24.7h71.94v10.55H98.41z"/>
	<path class="st1" d="M90.61,1353.79c-1.08-5.28-1.68-12.83-1.68-20.02c0-11.15,2.04-18.35,6.59-23.38
		c3.6-4.08,9.11-6.35,15.35-6.35c10.67,0,17.75,6.71,20.62,15.23h0.36c2.16-6.23,7.91-9.95,16.31-11.87
		c11.27-2.64,19.06-4.56,22.18-6.24v10.79c-2.28,1.32-9.23,3.12-19.3,5.4c-11.15,2.4-15.35,6.71-15.71,16.19v9.83h35.01v10.43H90.61
		z M127.42,1343.36v-10.67c0-11.15-6.12-18.23-15.35-18.23c-10.43,0-14.99,7.55-15.11,18.58c0,5.04,0.48,8.63,0.96,10.31H127.42z"/>
	<path class="st1" d="M132.46,1247.44v31.41h29.14v-35.01h8.75v45.44H89.53v-43.65h8.75v33.21h25.54v-31.41H132.46z"/>
	<path class="st1" d="M144.93,1191.81l25.42,8.39v10.79l-80.81-27.46v-12.59l80.81-27.58v11.15l-25.42,8.63V1191.81z
		 M136.78,1165.31l-23.26,7.91c-5.28,1.8-10.07,3-14.75,4.2v0.24c4.8,1.2,9.71,2.52,14.63,4.08l23.38,7.91V1165.31z"/>
	<path class="st1" d="M170.35,1120.11l-80.81,26.38v-11.27l39.81-12.59c10.91-3.48,20.74-6.48,30.22-8.63v-0.24
		c-9.35-2.28-19.54-5.64-30.1-9.23l-39.93-13.67v-11.15l80.81,28.9V1120.11z"/>
	<path class="st1" d="M89.53,1060.52h80.81v10.43H89.53V1060.52z"/>
	<path class="st1" d="M157.64,1043.74c2.88-4.68,5.28-11.51,5.28-18.7c0-10.67-5.63-16.91-13.79-16.91
		c-7.55,0-11.87,4.32-16.07,15.23c-4.68,13.19-11.51,21.34-22.9,21.34c-12.59,0-21.94-10.43-21.94-26.14
		c0-8.27,1.92-14.27,3.96-17.87l8.51,2.88c-1.44,2.64-3.84,8.03-3.84,15.35c0,11.03,6.59,15.23,12.11,15.23
		c7.55,0,11.27-4.92,15.59-16.07c5.28-13.67,11.87-20.62,23.74-20.62c12.47,0,23.26,9.23,23.26,28.3c0,7.79-2.28,16.31-5.16,20.62
		L157.64,1043.74z"/>
	<path class="st1" d="M170.35,957.78H89.53v-11.39l40.89-25.9c9.47-6,17.99-10.67,26.26-14.51l-0.12-0.24
		c-10.79,0.96-20.62,1.2-33.21,1.2H89.53v-9.83h80.81v10.55l-41.01,25.66c-8.99,5.64-18.23,11.03-26.98,15.11l0.12,0.36
		c10.19-0.6,19.9-0.84,33.33-0.84h34.53V957.78z"/>
	<path class="st1" d="M129.1,809.82c27.82,0,42.57,16.91,42.57,37.53c0,21.34-16.55,36.33-41.01,36.33
		c-25.66,0-42.45-15.95-42.45-37.53C88.22,824.09,105.12,809.82,129.1,809.82z M130.42,872.53c17.27,0,32.73-9.35,32.73-25.78
		c0-16.55-15.23-25.9-33.57-25.9c-16.07,0-32.85,8.39-32.85,25.78C96.73,863.9,112.68,872.53,130.42,872.53z"/>
	<path class="st1" d="M89.53,785.85h47.84c18.11,0,25.78-8.03,25.78-18.83c0-11.99-7.91-19.66-25.78-19.66H89.53v-10.55h47.12
		c24.82,0,35.01,13.07,35.01,30.58c0,16.55-9.47,29.02-34.53,29.02h-47.6V785.85z"/>
	<path class="st1" d="M157.64,720.14c2.88-4.68,5.28-11.51,5.28-18.71c0-10.67-5.63-16.91-13.79-16.91
		c-7.55,0-11.87,4.32-16.07,15.23c-4.68,13.19-11.51,21.34-22.9,21.34c-12.59,0-21.94-10.43-21.94-26.14
		c0-8.27,1.92-14.27,3.96-17.87l8.51,2.88c-1.44,2.64-3.84,8.03-3.84,15.35c0,11.03,6.59,15.23,12.11,15.23
		c7.55,0,11.27-4.92,15.59-16.07c5.28-13.67,11.87-20.62,23.74-20.62c12.47,0,23.26,9.23,23.26,28.3c0,7.79-2.28,16.31-5.16,20.62
		L157.64,720.14z"/>
	<path class="st1" d="M89.53,623.75h80.81v10.43H89.53V623.75z"/>
	<path class="st1" d="M170.35,605.53H89.53v-11.39l40.89-25.9c9.47-6,17.99-10.67,26.26-14.51l-0.12-0.24
		c-10.79,0.96-20.62,1.2-33.21,1.2H89.53v-9.83h80.81v10.55l-41.01,25.66c-8.99,5.64-18.23,11.03-26.98,15.11l0.12,0.36
		c10.19-0.6,19.9-0.84,33.33-0.84h34.53V605.53z"/>
	<path class="st1" d="M98.41,511.29v24.58h-8.87v-59.83h8.87v24.7h71.94v10.55H98.41z"/>
	<path class="st1" d="M71.19,427.24l14.03,15.23v8.63l-14.03-11.15V427.24z M132.46,425.2v31.42h29.14v-35.01h8.75v45.44H89.53
		V423.4h8.75v33.21h25.54V425.2H132.46z"/>
	<path class="st1" d="M90.61,408.06c-1.08-5.28-1.68-12.83-1.68-20.02c0-11.15,2.04-18.34,6.59-23.38c3.6-4.08,9.11-6.36,15.35-6.36
		c10.67,0,17.75,6.71,20.62,15.23h0.36c2.16-6.24,7.91-9.95,16.31-11.87c11.27-2.64,19.06-4.56,22.18-6.23v10.79
		c-2.28,1.32-9.23,3.12-19.3,5.4c-11.15,2.4-15.35,6.71-15.71,16.19v9.83h35.01v10.43H90.61z M127.42,397.63v-10.67
		c0-11.15-6.12-18.23-15.35-18.23c-10.43,0-14.99,7.55-15.11,18.58c0,5.04,0.48,8.63,0.96,10.31H127.42z"/>
	<path class="st1" d="M132.46,301.71v31.42h29.14v-35.01h8.75v45.44H89.53v-43.65h8.75v33.21h25.54v-31.42H132.46z"/>
	<path class="st1" d="M157.64,286.01c2.88-4.68,5.28-11.51,5.28-18.71c0-10.67-5.63-16.91-13.79-16.91
		c-7.55,0-11.87,4.32-16.07,15.23c-4.68,13.19-11.51,21.34-22.9,21.34c-12.59,0-21.94-10.43-21.94-26.14
		c0-8.27,1.92-14.27,3.96-17.87l8.51,2.88c-1.44,2.64-3.84,8.03-3.84,15.35c0,11.03,6.59,15.23,12.11,15.23
		c7.55,0,11.27-4.92,15.59-16.07c5.28-13.67,11.87-20.62,23.74-20.62c12.47,0,23.26,9.23,23.26,28.3c0,7.79-2.28,16.31-5.16,20.62
		L157.64,286.01z"/>
	<path class="st1" d="M157.64,226.9c2.88-4.68,5.28-11.51,5.28-18.71c0-10.67-5.63-16.91-13.79-16.91
		c-7.55,0-11.87,4.32-16.07,15.23c-4.68,13.19-11.51,21.34-22.9,21.34c-12.59,0-21.94-10.43-21.94-26.14
		c0-8.27,1.92-14.27,3.96-17.87l8.51,2.88c-1.44,2.64-3.84,8.03-3.84,15.35c0,11.03,6.59,15.23,12.11,15.23
		c7.55,0,11.27-4.92,15.59-16.07c5.28-13.67,11.87-20.62,23.74-20.62c12.47,0,23.26,9.23,23.26,28.3c0,7.79-2.28,16.31-5.16,20.62
		L157.64,226.9z"/>
	<path class="st1" d="M132.46,124.51v31.42h29.14v-35.01h8.75v45.44H89.53v-43.65h8.75v33.21h25.54v-31.42H132.46z"/>
</g>
</svg>
