<?xml version="1.0" encoding="utf-8"?>
<!-- Generator: Adobe Illustrator 26.0.3, SVG Export Plug-In . SVG Version: 6.00 Build 0)  -->
<svg version="1.1" id="Calque_1" xmlns="http://www.w3.org/2000/svg" xmlns:xlink="http://www.w3.org/1999/xlink" x="0px" y="0px"
	 viewBox="0 0 711.4 638" style="enable-background:new 0 0 711.4 638;" xml:space="preserve">
<style type="text/css">
	.st0{fill:#9B1889;}
	.st1{fill:#F2F2F2;}
</style>
<path class="st0" d="M73.1-0.3v529c0,60.5,49,109.6,109.3,109.6H602c0.8,0,1.7,0,2.5,0c0.9,0,1.8-0.1,2.8-0.1
	c57.7-2.9,103.5-50.6,103.8-109V-0.3H73.1z M601.4,419.2h-0.1c-0.1,0.3-0.3,0.5-0.4,0.8c-23.9,45-61.8,81.3-108,103.2
	c-29.9,14.2-63.3,22.2-98.5,22.6c-0.9,0-1.8,0-2.7,0c-35.5,0-69.2-7.8-99.4-21.8c-9.5-4.4-18.6-9.4-27.4-15
	c-1.2-0.8-2.4-1.5-3.6-2.4c-1.1-0.7-2.2-1.5-3.3-2.2c-5-3.4-9.9-7-14.7-10.9c0,0,0,0,0,0c-2.4-1.9-4.8-3.9-7.1-5.9
	c-20.6-17.8-38-39.2-51.5-63.1c-0.8-1.5-1.7-3-2.5-4.5c0.1,0,0.3,0,0.4,0c0,0,0,0,0,0c-17.6-33.1-27.5-70.8-27.5-110.8
	C155.1,179.3,259.6,74,389,72.5c0.9,0,1.8,0,2.7,0c1.3,0,2.6,0,3.9,0c40,0.6,77.5,11.1,110.3,29.1c19.8,10.9,38,24.7,53.8,40.6
	c1.4,1.4,2.8,2.9,4.2,4.3c8.2,8.7,15.8,18.1,22.7,28c26.5,38.2,42,84.6,42,134.6C628.5,348.8,618.7,386.3,601.4,419.2z"/>
<path class="st1" d="M586.5,174.5c-6.8-9.9-14.4-19.3-22.7-28c-1.4-1.5-2.8-2.9-4.2-4.3c-15.8-16-33.9-29.7-53.8-40.6
	c-32.8-18.1-70.3-28.6-110.3-29.1c-1.3,0-2.6,0-3.9,0c-0.9,0-1.8,0-2.7,0C259.6,74,155.1,179.3,155.1,309.1c0,40,10,77.8,27.5,110.8
	c0,0,0,0,0,0c-0.1,0-0.3,0-0.4,0c0.8,1.5,1.6,3,2.5,4.5c13.5,23.9,30.9,45.2,51.5,63.1c2.3,2,4.7,4,7.1,5.9c0,0,0,0,0,0
	c4.7,3.8,9.6,7.4,14.7,10.9c1.1,0.8,2.2,1.5,3.3,2.2c1.2,0.8,2.4,1.6,3.6,2.4c8.8,5.6,17.9,10.6,27.4,15
	c30.2,14,63.9,21.8,99.4,21.8c0.9,0,1.8,0,2.7,0c35.2-0.4,68.6-8.5,98.5-22.6c46.2-21.9,84.2-58.2,108-103.2
	c0.1-0.3,0.3-0.5,0.4-0.8h0.1c17.3-32.9,27.1-70.3,27.1-110C628.5,259.1,613,212.7,586.5,174.5z M302.3,417.4
	c-18-0.3-28.9,0.4-35.4-0.7c-11.9-2.1-9.6-10.4-9.8-42.7c0-10.1,0-20.1,0-30.2c0-18.9,0.2-37.8,0-56.7c-0.1-11.5,4.3-17.4,16.8-17.2
	c40.3,0.6,45.7-3.2,46.2,17.3c0.1,6.4-0.2,15.2-0.1,27.2c0.2,28.3-0.2,56.7,0.2,85.1C320.2,412,315.5,417.7,302.3,417.4z
	 M526.7,295.8c-3.1,28.8-7.5,57.5-12.6,85.9c-4.7,25.3-19.1,38.4-46.2,41.6c-42.5,5-84.1-3.4-125.7-10.1c-0.5-0.1-0.9-0.1-1.3-0.2
	c-7.8-1.3-8.4-7.1-8.4-13.3v-51.5c0-4.8,0.4-9.5-0.1-14.2c-3.1-26.9,0.6-50,24.9-67.9c20.4-15,19.1-37.5,13.5-60
	c-3-12.1-10.2-26.5,9.2-32c14-3.9,27.1,5.7,31.8,21.9c0.4,1.5,0.8,3.1,1.1,4.7c2.3,13.4,5.2,26.8,6.2,40.3c0.8,9.7,4.3,15.7,10.1,19
	c4.2,2.4,9.6,3.5,15.9,3.5c17.7,0.1,35.5-0.5,53.3-0.1c18.4,0.4,27.4,6,28.8,20.3C527.3,287.2,527.2,291.2,526.7,295.8z"/>
<path class="st0" d="M320,399.4c0.2,12.6-4.6,18.3-17.7,18c-18-0.3-28.9,0.4-35.4-0.7c-11.9-2.1-9.6-10.4-9.8-42.7
	c0-10.1,0-20.1,0-30.2c0-18.9,0.2-37.8,0-56.7c-0.1-11.5,4.3-17.4,16.8-17.2c40.3,0.6,45.7-3.2,46.2,17.3c0.1,6.4-0.2,15.2-0.1,27.2
	C320.1,342.7,319.6,371,320,399.4z"/>
<path class="st0" d="M526.7,295.8c-3.1,28.8-7.5,57.5-12.6,85.9c-4.7,25.3-19.1,38.4-46.2,41.6c-42.5,5-84.1-3.4-125.7-10.1
	c-0.5-0.1-0.9-0.1-1.3-0.2c-7.8-1.3-8.4-7.1-8.4-13.3v-51.5c0-4.8,0.4-9.5-0.1-14.2c-3.1-26.9,0.6-50,24.9-67.9
	c20.4-15,19.1-37.5,13.5-60c-3-12.1-10.2-26.5,9.2-32c14-3.9,27.1,5.7,31.8,21.9c0.4,1.5,0.8,3.1,1.1,4.7
	c2.3,13.4,5.2,26.8,6.2,40.3c0.8,9.7,4.3,15.7,10.1,19c4.2,2.4,9.6,3.5,15.9,3.5c17.7,0.1,35.5-0.5,53.3-0.1
	c18.4,0.4,27.4,6,28.8,20.3C527.3,287.2,527.2,291.2,526.7,295.8z"/>
</svg>
