<?xml version="1.0" encoding="utf-8"?>
<!-- Generator: Adobe Illustrator 26.4.1, SVG Export Plug-In . SVG Version: 6.00 Build 0)  -->
<svg version="1.1" id="Calque_1" xmlns="http://www.w3.org/2000/svg" xmlns:xlink="http://www.w3.org/1999/xlink" x="0px" y="0px"
	 viewBox="0 0 482.2 2013.3" style="enable-background:new 0 0 482.2 2013.3;" xml:space="preserve">
<style type="text/css">
	.st0{fill:#FFFFFF;}
	.st1{fill:none;stroke:#FFFFFF;stroke-width:4;stroke-miterlimit:10;}
	.st2{fill:#9B1889;}
	.st3{fill:#1D1D1B;}
</style>
<g>
	<path d="M488,5v470.8v5h1.4v1527.5H275c-18.5,0-36-6.2-49.4-17.5c-13.3-11.3-20.8-26.3-21.4-42.5V54.5c5.6-23.8,26.6-42.6,53.8-48
		c5-1,10.3-1.5,15.5-1.5H488 M344.3,1743.4c-0.2,0-0.3,0-0.6,0c-0.1,0-0.2,0-0.3,0c-0.6,0-1.3,0-1.8,0.1c-0.1,0-0.2,0-0.5,0
		c-0.8,0-1.6,0.1-2.4,0.1c-1.8,0.1-3.7,0.3-5.6,0.5c-1,0.1-1.9,0.2-2.7,0.3c-0.7,0.1-1.5,0.2-2.2,0.3c-0.7,0.1-1.3,0.2-1.8,0.3
		c-0.7,0.1-1.3,0.2-1.9,0.3l0,0l0,0c-0.7,0.1-1.4,0.3-1.9,0.4c-0.7,0.1-1.4,0.3-1.9,0.4s-0.9,0.2-1.4,0.3c-0.8,0.2-1.7,0.4-2.7,0.7
		l-0.2,0.1c-0.1,0-0.3,0.1-0.5,0.1l0,0c-0.1,0-0.2,0-0.3,0.1h-0.1l-0.2,0.1c-0.2,0.1-0.5,0.1-0.7,0.2l-0.2,0.1
		c-0.6,0.2-1.1,0.3-1.7,0.5c-0.5,0.1-0.9,0.3-1.4,0.4h-0.1l-0.3,0.1l-0.3,0.1c-0.3,0.1-0.6,0.2-0.9,0.3h-0.1h-0.1
		c-0.5,0.2-0.9,0.3-1.4,0.5l-0.3,0.1h-0.1h-0.1l-0.6,0.2l-0.6,0.2c-0.6,0.2-1.1,0.4-1.6,0.6s-1,0.4-1.5,0.6
		c-0.2,0.1-0.3,0.1-0.6,0.2c-0.2,0.1-0.5,0.2-0.6,0.3l-0.3,0.1c-0.9,0.4-1.9,0.8-3.1,1.3c-0.7,0.3-1.4,0.6-2.1,0.9h-0.1l0,0
		c-0.1,0-0.2,0.1-0.3,0.2c-0.7,0.3-1.3,0.6-1.9,0.9s-1.3,0.6-1.8,0.9l0,0l-0.2,0.1l-0.1,0.1l-0.2,0.1c-0.7,0.4-1.4,0.7-2.1,1.1
		l-0.7,0.4c-0.2,0.1-0.5,0.3-0.8,0.4c-0.6,0.3-1.3,0.7-1.8,1c-1.3,0.7-2.5,1.5-3.7,2.3c-0.6,0.3-1,0.7-1.6,1l-0.1,0.1
		c-0.3,0.2-0.7,0.4-1,0.7c-0.3,0.3-0.8,0.5-1.3,0.9c-0.1,0.1-0.2,0.2-0.5,0.3l-0.1,0.1c-0.6,0.4-1.1,0.8-1.8,1.3
		c-0.6,0.4-1.1,0.9-1.7,1.3c-0.1,0.1-0.2,0.2-0.3,0.3l0,0l0,0l0,0c-1.1,0.9-2.3,1.9-3.4,2.9c-0.7,0.6-1.3,1.1-1.8,1.6
		c-0.7,0.6-1.3,1.2-1.8,1.7c-0.6,0.5-1.1,1.1-1.7,1.7l-0.5,0.4c-0.5,0.4-0.8,0.9-1.3,1.3c-0.6,0.6-1,1.2-1.6,1.7
		c-1,1.1-1.9,2.3-3,3.5v0.1v0.1l0,0c-0.5,0.6-0.9,1.2-1.5,1.8c-1,1.3-1.9,2.6-2.7,3.8c-0.5,0.6-0.9,1.3-1.3,1.9
		c-0.3,0.6-0.8,1.2-1.3,1.9l0,0l-0.1,0.2c-0.3,0.6-0.8,1.3-1.1,1.9c-0.3,0.7-0.8,1.3-1.1,2.1c-0.3,0.6-0.6,1.1-0.9,1.7
		c-0.1,0.2-0.2,0.4-0.3,0.6c-0.3,0.6-0.6,1.2-0.9,1.8c-0.3,0.7-0.7,1.4-1,2.1c-0.3,0.9-0.7,1.6-1,2.3l-0.1,0.3l-0.1,0.3
		c-0.2,0.5-0.5,1-0.6,1.5c-0.2,0.6-0.5,1.2-0.7,1.7c-0.1,0.2-0.2,0.5-0.2,0.7c-0.2,0.7-0.5,1.3-0.7,2c-0.2,0.6-0.3,1.2-0.6,1.8
		c-0.1,0.2-0.1,0.4-0.2,0.7c-0.2,0.7-0.3,1.4-0.6,2c-0.2,0.7-0.3,1.3-0.5,1.9c-0.1,0.2-0.1,0.4-0.1,0.7c-0.1,0.6-0.2,1.1-0.3,1.7
		l-0.1,0.3c-0.1,0.8-0.3,1.6-0.5,2.3v0.3c-0.1,0.6-0.2,1.2-0.3,1.8l0,0l0,0v0.3v0.2c-0.1,0.7-0.2,1.4-0.2,2.1
		c-0.1,0.7-0.1,1.4-0.2,2.1c0,0.1,0,0.2,0,0.3c0,0.1,0,0.2,0,0.3c0,0.6-0.1,1.3-0.1,1.9v0.1v0.1c0,0.8-0.1,1.5-0.1,2.3s0,1.6,0,2.4
		c0,0.4,0,0.7,0,1.1c0,0.7,0,1.4,0,2.1v0.1v0.1c0,0.1,0,0.2,0,0.3v0.1v0.1c0,0.7,0.1,1.4,0.1,2l0,0l0,0c0,0.2,0,0.3,0,0.5
		s0,0.4,0,0.6v0.6v0.6c0.1,0.7,0.1,1.5,0.2,2.2c0,0.1,0,0.2,0,0.3l0,0v0.1v0.1c0.1,0.7,0.2,1.4,0.3,2.2l0,0l0,0
		c0.1,0.7,0.2,1.4,0.3,2.2l0.1,0.5l0.1,0.6v0.1v0.1l0.1,0.4c0,0.2,0.1,0.4,0.1,0.6c0.1,0.6,0.2,1.2,0.5,1.8v0.1v0.1v0.1
		c0,0.1,0,0.2,0.1,0.3c0.1,0.6,0.3,1.3,0.5,1.9c0.5,1.5,0.9,3.1,1.4,4.6c0.1,0.4,0.2,0.8,0.3,1.2l0.2,0.5l0.2,0.5
		c0.2,0.7,0.6,1.4,0.8,2.1c0.1,0.4,0.3,0.8,0.5,1.1c0.1,0.4,0.3,0.7,0.5,1.1l0.1,0.4c0.2,0.6,0.5,1.1,0.8,1.7s0.6,1.3,1,2.1
		c0.3,0.6,0.7,1.3,1,2l0.1,0.2v0.1v0.1c0.3,0.6,0.7,1.2,0.9,1.7c0.3,0.5,0.6,1,0.8,1.4c0.1,0.1,0.1,0.3,0.2,0.4
		c0,0.1,0.1,0.2,0.1,0.3c0.2,0.5,0.6,0.9,0.8,1.4l0.2,0.4c0.2,0.3,0.3,0.5,0.5,0.8c0.6,0.8,1,1.6,1.7,2.6c0.2,0.4,0.6,0.9,0.9,1.4
		c0.2,0.3,0.3,0.5,0.6,0.8c0.1,0.1,0.2,0.3,0.3,0.4l0,0l0,0l0.1,0.2c0.2,0.4,0.6,0.8,0.8,1.1l0.2,0.3c0.2,0.3,0.6,0.7,0.8,1
		c0.3,0.4,0.6,0.8,0.9,1.1c0.3,0.4,0.7,0.8,1,1.2l0,0l0,0l0.3,0.3c0.2,0.3,0.5,0.6,0.8,0.9c0.5,0.5,0.9,1,1.4,1.5l0,0l0,0
		c0.2,0.2,0.5,0.4,0.6,0.7v0.1v0.1l1.1,1.2l0.1,0.1c0.3,0.3,0.7,0.7,1,1c0.5,0.5,0.9,0.9,1.4,1.3c0.5,0.5,0.9,0.9,1.4,1.3
		c0.3,0.3,0.6,0.5,0.9,0.8c0.9,0.8,1.7,1.5,2.4,2.1c0.8,0.7,1.7,1.4,2.6,2.1c0.6,0.4,1.1,0.9,1.8,1.4c1.5,1.1,2.7,2,4.1,2.9
		c0.7,0.5,1.4,0.9,2.1,1.4l0.1,0.1l0,0l0.1,0.1c0.5,0.3,0.9,0.6,1.4,0.8c0.1,0.1,0.2,0.1,0.2,0.2l0.1,0.1h0.1h0.1l0.2,0.1
		c0.1,0.1,0.2,0.1,0.2,0.2c0.5,0.3,1,0.6,1.6,1l0.2,0.1c0.2,0.2,0.6,0.3,0.8,0.5c0.3,0.2,0.7,0.4,1,0.6c0.7,0.4,1.5,0.8,2.2,1.2
		c0.7,0.3,1.3,0.7,1.9,1h0.1l0,0h0.1l0.2,0.1c0.7,0.4,1.5,0.7,2.2,1s1.4,0.6,2.1,1c0.8,0.3,1.6,0.7,2.5,1.1c0.7,0.3,1.5,0.6,2.2,0.9
		c0.1,0,0.2,0.1,0.3,0.1l0.2,0.1c0.7,0.2,1.3,0.5,1.9,0.7c0.8,0.3,1.6,0.6,2.4,0.8l0,0l0,0c0.9,0.3,1.8,0.6,2.6,0.8
		c1.3,0.4,2.6,0.8,4.1,1.2c1.3,0.3,2.4,0.6,3.5,0.9c0.8,0.2,1.5,0.4,2.3,0.5c0.9,0.2,1.7,0.4,2.5,0.5c0.5,0.1,0.9,0.2,1.4,0.3
		c0.2,0.1,0.5,0.1,0.8,0.1c0.5,0.1,0.9,0.2,1.4,0.2c0.7,0.1,1.4,0.2,2.1,0.3c0.6,0.1,1.1,0.2,1.7,0.3h0.2c0.3,0.1,0.8,0.1,1.1,0.1
		c0.1,0,0.3,0,0.5,0.1h0.1h0.1h0.1l0.8,0.1h0.1h0.1l0,0c0.1,0,0.1,0,0.2,0c0.8,0.1,1.6,0.2,2.4,0.2h0.3c0.1,0,0.3,0,0.5,0
		c0.7,0.1,1.4,0.1,2.2,0.2c0.7,0.1,1.5,0.1,2.2,0.1c0.3,0,0.8,0,1.1,0.1c0.1,0,0.1,0,0.2,0c0.7,0,1.3,0,1.8,0.1c0.9,0,1.8,0,2.7,0
		l0,0c0.5,0,0.9,0,1.4,0c0.7,0,1.3,0,1.9,0c0.3,0,0.7,0,0.9,0h0.1c0.8,0,1.5-0.1,2.3-0.1c0.9-0.1,1.8-0.1,2.7-0.2s1.8-0.1,2.7-0.2
		c0.8-0.1,1.7-0.2,2.5-0.3c0.7-0.1,1.5-0.2,2.2-0.3h0.1c0.3,0,0.6-0.1,0.9-0.1h0.1h0.1h0.2c0.6-0.1,1-0.2,1.6-0.3
		c0.1,0,0.3,0,0.5-0.1c0.7-0.1,1.3-0.2,1.8-0.3c0.1,0,0.1,0,0.2,0c0.2,0,0.3-0.1,0.6-0.1c0.8-0.2,1.6-0.3,2.4-0.5
		c0.9-0.2,1.7-0.4,2.5-0.6s1.7-0.4,2.5-0.6c0.7-0.2,1.5-0.4,2.2-0.6h0.1h0.1h0.1c0.1,0,0.2-0.1,0.3-0.1c0.7-0.2,1.5-0.4,2.2-0.6
		c0.8-0.2,1.6-0.5,2.5-0.8c0.8-0.2,1.5-0.5,2.2-0.8c0.1-0.1,0.3-0.1,0.5-0.2c0.6-0.2,1.3-0.4,1.7-0.6l0,0l0,0l0.5-0.2l0.5-0.2
		c0.6-0.2,1-0.4,1.6-0.6s1.1-0.5,1.7-0.7c0.5-0.2,1-0.4,1.4-0.6c0.6-0.2,1-0.5,1.6-0.7c0.3-0.2,0.8-0.4,1.1-0.5l0.3-0.2
		c0.7-0.3,1.3-0.6,1.8-0.9c0.9-0.5,1.8-0.9,2.6-1.3c0.1-0.1,0.2-0.1,0.3-0.2c0.8-0.4,1.5-0.8,2.1-1.1c0.5-0.3,0.9-0.5,1.4-0.8
		l0.5-0.3l0.1-0.1l0,0l0.1-0.1l0.2-0.1l0.2-0.2c0.2-0.1,0.3-0.2,0.6-0.3c0.2-0.1,0.3-0.2,0.5-0.3l0.1-0.1l0.2-0.2l0.2-0.1l0,0l0,0
		c0.6-0.3,1-0.6,1.4-0.9c0.2-0.1,0.5-0.3,0.6-0.4c0.7-0.4,1.3-0.8,1.9-1.3c0.1-0.1,0.3-0.2,0.5-0.3c0.1-0.1,0.3-0.2,0.5-0.3l0.3-0.2
		l0.1-0.1l0,0c0.1-0.1,0.2-0.2,0.3-0.2l0.1-0.1l0.1-0.1c0.1-0.1,0.1-0.1,0.2-0.2l0.2-0.2l0,0l0,0l0.1-0.1l0.1-0.1
		c0.8-0.5,1.5-1.1,2.2-1.7c0.7-0.5,1.4-1.1,2.1-1.6h0.1l0.1-0.1l0.2-0.2c0.5-0.4,1-0.8,1.6-1.3c0.2-0.2,0.5-0.4,0.8-0.6
		c0.6-0.5,1.1-1,1.7-1.5c0.1-0.1,0.2-0.2,0.3-0.3c0.2-0.2,0.6-0.5,0.8-0.7c0.1-0.1,0.3-0.3,0.5-0.4c0.1-0.2,0.3-0.3,0.5-0.5l0.2-0.2
		c0.3-0.3,0.6-0.6,0.9-0.8c0.5-0.4,0.8-0.8,1.3-1.2l0,0l0.1-0.1c0.5-0.4,0.8-0.9,1.3-1.3l0.3-0.3l0.1-0.1v-0.1
		c0.1-0.1,0.1-0.2,0.2-0.2l0,0l0,0l0.1-0.2l0.3-0.4l0.2-0.2l0.1-0.1l0.2-0.3c0.1-0.1,0.2-0.2,0.3-0.4c0.1-0.1,0.1-0.1,0.2-0.2
		l0.3-0.3l0.2-0.3c0.1-0.1,0.1-0.2,0.2-0.2l0.2-0.2l0.3-0.4c0.2-0.3,0.5-0.5,0.6-0.7l0.2-0.3l0.3-0.4c0.5-0.5,0.8-0.9,1-1.4
		c0.3-0.4,0.6-0.8,0.9-1.1c0.8-1.1,1.6-2.2,2.4-3.3c0.2-0.4,0.6-0.8,0.8-1.2c0.1-0.2,0.2-0.4,0.5-0.6l1.1-1v-0.8
		c0-0.1,0.1-0.1,0.1-0.2c0.2-0.4,0.6-0.9,0.8-1.3l0,0l0,0l0.2-0.4l0.1-0.1l0.1-0.3c0.1-0.3,0.3-0.5,0.5-0.8c0.6-1.1,1-1.9,1.5-2.7
		c0.2-0.3,0.3-0.7,0.6-1c0.1-0.2,0.1-0.3,0.2-0.5c0.2-0.4,0.5-0.8,0.6-1.2c0.2-0.4,0.5-0.9,0.6-1.3c0.2-0.4,0.3-0.9,0.6-1.3
		c0.3-0.7,0.6-1.4,0.9-2.1c0.5-1.1,0.9-2.2,1.4-3.6c0.2-0.7,0.5-1.3,0.7-2c0-0.2,0.1-0.3,0.1-0.5v-0.1v-0.1l0.1-0.5
		c0.1-0.4,0.2-0.8,0.3-1.2c0.2-0.8,0.5-1.5,0.6-2.3c0.1-0.5,0.2-1.1,0.5-1.6c0.1-0.5,0.2-1,0.3-1.5c0.2-0.9,0.3-1.8,0.6-2.9
		c0-0.2,0.1-0.4,0.1-0.6s0-0.3,0.1-0.5v-0.1v-0.1c0.1-0.7,0.2-1.3,0.3-2c0.1-0.7,0.2-1.3,0.2-2v-0.1l0,0c0-0.2,0-0.4,0.1-0.6
		c0.1-0.8,0.1-1.4,0.2-2c0-0.6,0.1-1.1,0.1-1.6s0.1-1,0.1-1.4c0-0.6,0.1-1.3,0.1-1.9c0-0.7,0-1.4,0-2.2c0-0.7,0-1.3,0-2
		c0-0.3,0-0.6,0-1c0-0.6,0-1.2-0.1-1.8v-0.1l0,0l-0.1-1.1c0-0.4,0-0.8-0.1-1.2v-0.2v-0.1c0-0.5-0.1-1.1-0.1-1.6l0,0l0,0
		c0-0.1,0-0.2,0-0.3c0-0.1,0-0.3,0-0.4c-0.1-0.6-0.1-1.1-0.2-1.7v-0.1c0-0.3-0.1-0.7-0.1-1c-0.1-0.5-0.1-1-0.2-1.4
		c-0.1-0.7-0.2-1.5-0.5-2.4c-0.1-0.4-0.1-0.7-0.2-1.1v-0.2v-0.1c-0.1-0.5-0.2-1-0.3-1.6c-0.1-0.7-0.3-1.3-0.5-2s-0.3-1.4-0.6-2.2
		c-0.2-0.9-0.6-1.8-0.8-2.6c-0.1-0.5-0.3-1-0.6-1.5c-0.1-0.2-0.1-0.4-0.2-0.6c-0.2-0.6-0.5-1.3-0.7-1.9c-0.1-0.3-0.2-0.5-0.3-0.7
		l-0.1-0.2l0,0l0,0l-0.2-0.4c-0.1-0.3-0.2-0.5-0.3-0.8l-0.1-0.2l0,0c-0.1-0.2-0.2-0.5-0.3-0.7l0,0l-0.3-0.9c-0.3-0.7-0.6-1.3-0.9-2
		c-0.1-0.3-0.2-0.5-0.3-0.7c-0.3-0.7-0.7-1.4-1-2c-0.1-0.1-0.1-0.3-0.3-0.5c-0.3-0.6-0.6-1.2-0.9-1.7c-0.1-0.2-0.2-0.4-0.3-0.5
		c-0.3-0.7-0.8-1.4-1.3-2.1c-0.5-0.9-1-1.7-1.5-2.5c-0.7-1-1.4-2-1.9-3c-0.1-0.1-0.1-0.2-0.2-0.3v-0.6l-1.3-1.1c0,0,0-0.1-0.1-0.1
		l-0.2-0.2l-0.2-0.2c-0.1-0.2-0.2-0.3-0.3-0.5c-0.2-0.4-0.6-0.8-0.8-1.1c-0.1-0.1-0.1-0.2-0.2-0.3l0,0c-0.1-0.1-0.1-0.2-0.2-0.3
		c-0.5-0.6-1-1.2-1.5-1.9c-0.5-0.6-0.9-1.1-1.5-1.7c-0.1-0.2-0.2-0.3-0.3-0.5c-0.2-0.2-0.3-0.4-0.5-0.6c-0.5-0.5-0.9-1.1-1.5-1.6
		l-0.1-0.1l-0.1-0.1v-0.1l-0.1-0.1c-0.1-0.2-0.3-0.3-0.5-0.5l-0.2-0.2l0,0l0,0c-1-1-2.1-2.1-3.1-3.1c-0.8-0.7-1.5-1.3-2.2-2
		c-0.8-0.7-1.4-1.3-2.1-1.8c-0.1-0.1-0.2-0.2-0.3-0.3c-1.3-1.1-2.7-2.2-4.1-3.3c-0.2-0.2-0.5-0.3-0.6-0.5c-0.5-0.4-1-0.7-1.5-1.1
		c-0.3-0.3-0.7-0.5-1-0.7c-0.6-0.4-1.3-0.9-1.9-1.3l-0.1-0.1c-0.7-0.5-1.4-0.9-2.4-1.5c-0.8-0.5-1.7-1-2.5-1.5
		c-0.7-0.4-1.4-0.8-1.9-1.1c0,0-0.1-0.1-0.2-0.1c-0.5-0.2-0.8-0.5-1.4-0.7c-0.3-0.2-0.7-0.4-1-0.5l0,0c-0.2-0.1-0.3-0.2-0.6-0.3
		l-0.2-0.1l-0.1-0.1l-0.1-0.1l-0.3-0.2l-0.2-0.1c-0.1-0.1-0.3-0.2-0.5-0.2s-0.1-0.1-0.2-0.1c-0.2-0.1-0.3-0.2-0.6-0.3
		c-0.1-0.1-0.3-0.2-0.5-0.2l0,0l0,0c-0.1-0.1-0.2-0.1-0.5-0.2l-0.2-0.1c-0.7-0.4-1.5-0.7-2.2-1h-0.1l-0.3-0.1
		c-0.7-0.3-1.3-0.6-2.1-0.9l-0.5-0.2l-0.5-0.2c-0.7-0.3-1.4-0.5-2.1-0.8s-1.4-0.5-2.1-0.8c-0.3-0.1-0.8-0.3-1.1-0.4l0,0l0,0
		l-0.5-0.1c-0.2-0.1-0.5-0.2-0.8-0.3c-0.8-0.3-1.6-0.6-2.4-0.8l0,0h-0.1h-0.1c-0.6-0.2-1.1-0.4-1.7-0.5l-0.5-0.1l-1.1-0.3
		c-0.2-0.1-0.6-0.2-0.8-0.2l-0.5-0.1h-0.1H377c-0.8-0.2-1.7-0.4-2.5-0.6s-1.5-0.4-2.3-0.6l-0.2-0.1h-0.2l0,0l0,0
		c-0.8-0.2-1.5-0.3-2.3-0.5l0,0h-0.1h-0.1c-0.1,0-0.2,0-0.3-0.1c-0.5-0.1-0.9-0.2-1.4-0.3c-0.2-0.1-0.6-0.1-0.8-0.1l-0.5-0.1
		c-0.5-0.1-0.9-0.2-1.3-0.2c-0.1,0-0.2,0-0.2,0c-0.1,0-0.3-0.1-0.5-0.1h-0.1l0,0c-0.1,0-0.1,0-0.2,0c-0.3-0.1-0.8-0.1-1.1-0.2
		c-0.5-0.1-0.9-0.1-1.3-0.2c-0.8-0.1-1.6-0.2-2.4-0.3c-0.1,0-0.2,0-0.5,0c0,0,0,0-0.1,0l0,0h-0.1c-0.5,0-0.8-0.1-1.3-0.1l-0.8-0.1
		c-0.2,0-0.3,0-0.5,0h-0.1c-0.2,0-0.6-0.1-0.9-0.1s-0.7-0.1-1-0.1c-0.2,0-0.5,0-0.7,0c-0.7-0.1-1.5-0.1-2.2-0.1
		c-0.8,0-1.5-0.1-2.3-0.1c-0.3,0-0.7,0-1,0c-0.8,0-1.6,0-2.4,0C345.9,1743.4,345.1,1743.4,344.3,1743.4 M493.8,0H273.6
		c-5.7,0-11.4,0.6-16.8,1.6c-29.4,5.8-52.4,26.4-58.3,52.3v1894.4c1.3,36,35,64.9,76.4,64.9h220.2V475.8h-1.4L493.8,0L493.8,0z
		 M346.8,1926.4c-0.9,0-1.7,0-2.6,0c-0.6,0-1.1,0-1.7-0.1c-0.1,0-0.1,0-0.2,0c-0.3,0-0.7,0-1-0.1c-0.7,0-1.4-0.1-2.1-0.1
		s-1.5-0.1-2.2-0.2c-0.1,0-0.2,0-0.3,0c-0.1,0-0.2,0-0.3,0c-0.8-0.1-1.5-0.2-2.3-0.2c-0.1,0-0.2,0-0.5,0c-0.2,0-0.5-0.1-0.7-0.1
		h-0.2c-0.2,0-0.3,0-0.6-0.1c-0.3,0-0.7-0.1-1-0.1c-0.7-0.1-1.3-0.2-1.9-0.3c-0.7-0.1-1.3-0.2-1.9-0.3c-0.5-0.1-0.8-0.1-1.3-0.2
		c-0.2,0-0.5-0.1-0.7-0.1c-0.5-0.1-0.9-0.2-1.3-0.3c-0.8-0.2-1.6-0.3-2.4-0.5c-0.7-0.1-1.4-0.3-2.1-0.5c-1.1-0.3-2.3-0.6-3.3-0.9
		c-1.3-0.4-2.6-0.7-3.9-1.1c-0.8-0.3-1.6-0.5-2.5-0.8c-0.8-0.3-1.5-0.5-2.3-0.8c-0.7-0.2-1.3-0.5-1.9-0.7c-0.1,0-0.2-0.1-0.3-0.1
		c0,0-0.1,0-0.1-0.1c-0.7-0.3-1.5-0.6-2.2-0.9c-0.8-0.3-1.6-0.7-2.4-1c-0.7-0.3-1.3-0.6-1.9-0.9s-1.4-0.7-2.1-1
		c-0.1,0-0.2-0.1-0.3-0.2c-0.6-0.3-1.3-0.6-1.8-0.9c-0.7-0.4-1.4-0.8-2.1-1.1c-0.3-0.2-0.7-0.4-1-0.6s-0.7-0.4-1-0.6
		c-0.5-0.3-1-0.6-1.5-0.9c-0.2-0.1-0.3-0.2-0.6-0.3c-0.1-0.1-0.3-0.2-0.5-0.3c-0.5-0.3-0.9-0.5-1.3-0.8c0,0-0.1-0.1-0.2-0.1
		c-0.7-0.4-1.3-0.8-1.9-1.3c-1.4-0.9-2.6-1.8-3.9-2.8c-0.6-0.4-1.1-0.9-1.7-1.3c-0.8-0.6-1.6-1.3-2.4-2s-1.6-1.4-2.3-2
		c-0.3-0.3-0.6-0.5-0.8-0.8c-0.5-0.4-0.9-0.8-1.3-1.2c-0.5-0.4-0.9-0.8-1.3-1.2c-0.3-0.4-0.7-0.7-1.1-1.1c-0.3-0.4-0.8-0.8-1.1-1.2
		c-0.2-0.3-0.5-0.5-0.7-0.8c-0.5-0.5-0.8-0.9-1.3-1.4c-0.3-0.4-0.7-0.8-1-1.2c-0.3-0.4-0.7-0.8-1-1.2c-0.3-0.4-0.6-0.7-0.9-1.1
		s-0.7-0.8-1-1.3c-0.3-0.4-0.6-0.8-0.9-1.2c-0.3-0.4-0.6-0.8-0.9-1.2c-0.3-0.4-0.6-0.8-0.9-1.2c-0.6-0.8-1.1-1.7-1.7-2.5
		c-0.2-0.4-0.6-0.8-0.8-1.2c-0.2-0.4-0.5-0.8-0.7-1.2c-0.1-0.2-0.3-0.5-0.5-0.7c-0.2-0.4-0.6-0.9-0.8-1.3c-0.3-0.6-0.7-1.1-0.9-1.7
		c0-0.1-0.1-0.2-0.1-0.3c-0.3-0.6-0.7-1.3-1-1.9c-0.3-0.7-0.7-1.3-0.9-2c-0.3-0.7-0.6-1.3-0.9-2c-0.1-0.3-0.3-0.7-0.5-1
		c-0.1-0.3-0.3-0.7-0.5-1c-0.2-0.7-0.6-1.4-0.8-2c-0.1-0.3-0.2-0.7-0.3-1s-0.2-0.7-0.3-1c-0.5-1.5-0.9-2.9-1.4-4.4
		c-0.2-0.6-0.3-1.3-0.5-1.9c0-0.2-0.1-0.3-0.1-0.5c-0.1-0.6-0.2-1.2-0.3-1.7c-0.1-0.4-0.1-0.7-0.2-1.1c-0.1-0.4-0.1-0.7-0.2-1.1
		c-0.1-0.7-0.2-1.4-0.3-2.1s-0.2-1.4-0.3-2.1c0-0.1,0-0.3,0-0.4c-0.1-0.7-0.1-1.4-0.2-2.1c0-0.4-0.1-0.8-0.1-1.1
		c0-0.4,0-0.8-0.1-1.1c0-0.7-0.1-1.3-0.1-2c0-0.2,0-0.4,0-0.6c0-0.7,0-1.3,0-2c0-0.3,0-0.7,0-1c0-0.8,0-1.5,0-2.3s0.1-1.5,0.1-2.3
		v-0.1c0-0.6,0.1-1.2,0.1-1.8c0-0.1,0-0.2,0-0.3c0-0.1,0-0.1,0-0.2c0-0.7,0.1-1.4,0.2-2.2c0.1-0.7,0.1-1.3,0.2-2
		c0-0.2,0-0.3,0.1-0.5c0.1-0.7,0.2-1.3,0.3-2s0.2-1.5,0.5-2.2c0.1-0.6,0.2-1.3,0.5-1.9c0-0.2,0.1-0.4,0.1-0.5
		c0.1-0.6,0.3-1.3,0.5-1.9c0.2-0.7,0.3-1.3,0.6-2c0-0.2,0.1-0.3,0.1-0.5c0.2-0.6,0.3-1.2,0.6-1.8c0.2-0.6,0.5-1.3,0.7-1.9
		c0.1-0.2,0.1-0.4,0.2-0.6c0.2-0.6,0.5-1.1,0.7-1.7c0.2-0.5,0.3-0.9,0.6-1.4c0.1-0.2,0.1-0.4,0.2-0.6c0.3-0.7,0.6-1.4,0.9-2.1
		c0.3-0.7,0.6-1.3,0.9-2c0.3-0.6,0.6-1.2,0.9-1.8c0.1-0.2,0.2-0.3,0.2-0.5c0.3-0.5,0.6-1.1,0.9-1.6c0.3-0.7,0.7-1.3,1.1-1.9
		c0.3-0.6,0.7-1.2,1-1.8c0,0,0-0.1,0.1-0.1c0.3-0.6,0.8-1.3,1.1-1.9c0.5-0.6,0.8-1.2,1.3-1.8c0.8-1.2,1.7-2.4,2.6-3.6
		c0.5-0.6,0.9-1.2,1.4-1.8c0,0,0-0.1,0.1-0.1c0.9-1.1,1.8-2.2,2.9-3.3c0.5-0.6,1-1.1,1.5-1.7s1-1.1,1.6-1.6s1-1.1,1.6-1.6
		s1.1-1,1.7-1.6c0.6-0.5,1.1-1,1.7-1.5c1-0.9,2.2-1.8,3.3-2.7c0.1-0.1,0.2-0.2,0.3-0.3c0.6-0.4,1.1-0.9,1.7-1.3s1-0.8,1.6-1.2
		c0.2-0.1,0.3-0.3,0.6-0.4c0.3-0.3,0.8-0.6,1.1-0.8c0.3-0.2,0.6-0.4,0.9-0.6c0.6-0.4,1.1-0.8,1.7-1.1c1.1-0.7,2.3-1.4,3.4-2.1
		c0.6-0.3,1.1-0.7,1.7-1c0.2-0.1,0.5-0.3,0.7-0.4l0.7-0.4c0.7-0.4,1.4-0.7,2.1-1.1c0,0,0,0,0.1-0.1c0.1,0,0.1-0.1,0.2-0.1
		c0.7-0.3,1.3-0.7,1.9-1s1.4-0.7,2.1-1c0.1-0.1,0.1-0.1,0.2-0.1c0.7-0.3,1.3-0.6,1.9-0.9c0.9-0.4,1.9-0.8,2.9-1.2
		c0.1-0.1,0.3-0.1,0.6-0.2c0.1,0,0.2-0.1,0.3-0.1c0.2-0.1,0.5-0.2,0.7-0.3c0.5-0.2,0.9-0.4,1.5-0.6c0.5-0.2,1-0.4,1.5-0.5
		c0.5-0.2,0.8-0.3,1.3-0.4c0.1,0,0.1-0.1,0.2-0.1c0.5-0.2,1-0.3,1.5-0.5c0.5-0.1,0.9-0.3,1.3-0.4c0,0,0,0,0.1,0h0.1
		c0.5-0.2,0.9-0.3,1.5-0.4c0.6-0.2,1-0.3,1.6-0.5c0.3-0.1,0.7-0.2,1-0.3c0.1,0,0.1,0,0.2-0.1c0.2-0.1,0.6-0.1,0.8-0.2
		c0.9-0.2,1.7-0.4,2.6-0.6c0.5-0.1,0.8-0.2,1.3-0.3c0.7-0.1,1.3-0.3,1.9-0.4s1.3-0.3,1.9-0.4s1.3-0.2,1.8-0.3
		c0.6-0.1,1.1-0.2,1.7-0.3c0.7-0.1,1.4-0.2,2.1-0.3c0.8-0.1,1.7-0.2,2.5-0.3c1.7-0.2,3.5-0.4,5.4-0.5c0.8-0.1,1.6-0.1,2.4-0.1
		c0.1,0,0.1,0,0.2,0c0.6,0,1.3-0.1,1.9-0.1c0.1,0,0.2,0,0.3,0c0.1,0,0.2,0,0.5,0c0.8,0,1.6,0,2.4,0l0,0l0,0l0,0c0.8,0,1.5,0,2.3,0
		c0.3,0,0.7,0,1,0c0.7,0,1.5,0,2.2,0.1c0.7,0,1.5,0.1,2.2,0.1c0.2,0,0.5,0,0.6,0c0.3,0,0.7,0.1,1,0.1s0.7,0.1,1,0.1h0.1
		c0.3,0,0.7,0.1,1,0.1s0.7,0.1,1,0.1c0.1,0,0.2,0,0.5,0.1h0.1c0.8,0.1,1.6,0.2,2.4,0.3c0.3,0.1,0.8,0.1,1.1,0.2
		c0.5,0.1,0.8,0.1,1.3,0.2c0.1,0,0.2,0,0.2,0c0.2,0,0.6,0.1,0.8,0.1c0.6,0.1,1,0.2,1.6,0.3c0.2,0,0.5,0.1,0.7,0.1
		c0.5,0.1,0.8,0.2,1.3,0.2c0.1,0,0.3,0.1,0.5,0.1c0.7,0.2,1.5,0.3,2.2,0.5c0.1,0,0.3,0.1,0.6,0.1c0.7,0.2,1.5,0.3,2.2,0.5
		c0.8,0.2,1.6,0.4,2.4,0.6c0.5,0.1,0.8,0.2,1.3,0.3c0.3,0.1,0.8,0.2,1.1,0.3c0.7,0.2,1.4,0.4,2.1,0.6c0.1,0,0.1,0.1,0.2,0.1
		c0.8,0.3,1.6,0.5,2.3,0.8c0.3,0.1,0.8,0.3,1.1,0.4c0.3,0.1,0.8,0.3,1.1,0.4c0.7,0.2,1.3,0.5,1.9,0.7s1.3,0.5,1.9,0.8
		c0.3,0.1,0.6,0.2,0.9,0.4c0.7,0.3,1.3,0.6,1.9,0.8c0,0,0.1,0,0.1,0.1c0.7,0.3,1.5,0.7,2.2,1c0.2,0.1,0.5,0.2,0.6,0.3
		c0.3,0.2,0.7,0.4,1,0.5c0.1,0.1,0.2,0.1,0.3,0.2c0,0,0.1,0,0.1,0.1c0.3,0.1,0.6,0.3,0.8,0.4c0.2,0.2,0.6,0.3,0.8,0.4
		c0,0,0.1,0.1,0.2,0.1c0.2,0.1,0.6,0.3,0.8,0.4c0.5,0.2,0.8,0.5,1.3,0.7c0.1,0,0.2,0.1,0.2,0.1c0.6,0.3,1.1,0.6,1.7,1
		c0.8,0.5,1.6,1,2.4,1.5s1.5,1,2.3,1.5l0.1,0.1c0.7,0.4,1.3,0.8,1.8,1.3c0.3,0.2,0.6,0.4,0.9,0.6c0.6,0.4,1,0.8,1.6,1.1
		c0.1,0.1,0.3,0.2,0.5,0.3c1.4,1.1,2.7,2.1,4.1,3.2l0.1,0.1c0.7,0.6,1.4,1.2,2.1,1.8c0.7,0.6,1.4,1.2,2.1,1.9c1,0.9,2.1,1.9,3,2.9
		c0.2,0.2,0.5,0.5,0.7,0.7c0.1,0.1,0.2,0.2,0.3,0.3c0.5,0.5,1,1.1,1.5,1.6c0.1,0.1,0.2,0.3,0.3,0.4c0.1,0.2,0.2,0.3,0.5,0.5
		c0.5,0.5,0.9,1.1,1.4,1.6c0.6,0.6,1,1.3,1.6,1.9c0.1,0.1,0.1,0.1,0.1,0.2c0.1,0.1,0.1,0.2,0.2,0.3c0.3,0.3,0.6,0.7,0.8,1.1
		c0.1,0.1,0.1,0.2,0.2,0.3c0.1,0.2,0.2,0.4,0.5,0.6c0.1,0.2,0.2,0.3,0.3,0.5l0,0c0.3,0.5,0.7,0.9,1,1.4c0.7,0.9,1.3,1.9,1.9,2.8
		c0.5,0.8,1,1.6,1.5,2.3c0.5,0.7,0.8,1.4,1.3,2.1c0.1,0.2,0.2,0.3,0.2,0.5c0.3,0.6,0.6,1.2,0.9,1.7c0.1,0.1,0.1,0.2,0.2,0.4
		c0.3,0.6,0.7,1.3,0.9,1.9c0.1,0.2,0.2,0.4,0.2,0.5c0.3,0.6,0.7,1.3,0.9,2c0,0,0,0,0,0.1c0.2,0.5,0.5,1,0.7,1.5c0,0.1,0,0.1,0.1,0.2
		c0.1,0.4,0.3,0.8,0.5,1.2c0.1,0.3,0.2,0.6,0.3,0.9c0.2,0.6,0.5,1.3,0.7,1.9c0.1,0.2,0.1,0.3,0.2,0.5c0.2,0.5,0.3,1,0.5,1.5
		c0.2,0.8,0.6,1.7,0.8,2.5c0.2,0.7,0.3,1.3,0.6,2c0.1,0.6,0.3,1.3,0.5,1.9c0.1,0.5,0.2,1,0.3,1.5c0,0.1,0,0.2,0,0.2
		c0.1,0.3,0.1,0.6,0.2,0.9c0.1,0.8,0.3,1.5,0.5,2.3c0.1,0.5,0.1,0.9,0.2,1.4c0,0.3,0.1,0.7,0.1,1c0.1,0.5,0.1,1.1,0.2,1.6
		c0,0.3,0,0.5,0.1,0.8c0.1,0.5,0.1,1,0.1,1.5c0,0.1,0,0.2,0,0.3c0,0.4,0,0.7,0.1,1.1c0,0.3,0,0.7,0.1,1.1c0,0.6,0.1,1.2,0.1,1.8
		c0,0.3,0,0.6,0,0.9c0,0.6,0,1.3,0,1.9l0,0l0,0c0,0.7,0,1.4,0,2.1c0,0.6,0,1.2-0.1,1.8c0,0.5,0,0.9-0.1,1.4c0,0.5-0.1,1-0.1,1.5
		c0,0.7-0.1,1.3-0.2,2c0,0.2,0,0.4,0,0.6c-0.1,0.7-0.1,1.3-0.2,1.9c-0.1,0.7-0.2,1.3-0.3,1.9c-0.1,0.3-0.1,0.7-0.2,1.1
		c-0.1,0.9-0.3,1.9-0.6,2.8c-0.1,0.5-0.2,0.9-0.3,1.4c-0.1,0.5-0.2,1.1-0.3,1.6c-0.2,0.7-0.3,1.4-0.6,2.1c-0.1,0.6-0.3,1.1-0.5,1.7
		c-0.1,0.2-0.1,0.4-0.2,0.7c-0.2,0.6-0.5,1.2-0.6,1.8c-0.5,1.2-0.8,2.3-1.3,3.4c-0.2,0.7-0.6,1.3-0.8,2c-0.2,0.4-0.3,0.9-0.6,1.3
		c-0.1,0.4-0.3,0.8-0.6,1.2c-0.2,0.4-0.3,0.8-0.6,1.2c-0.1,0.1-0.1,0.3-0.2,0.4c-0.2,0.3-0.3,0.7-0.6,1c-0.5,0.9-0.9,1.7-1.4,2.6
		c-0.1,0.2-0.2,0.5-0.5,0.7c-0.1,0.1-0.1,0.3-0.2,0.4s-0.1,0.3-0.2,0.4c-0.2,0.4-0.6,0.9-0.8,1.3c-0.2,0.4-0.5,0.8-0.8,1.2l0,0
		c-0.2,0.4-0.5,0.7-0.7,1.1s-0.5,0.7-0.7,1.1c-0.7,1.1-1.5,2.1-2.3,3.2c-0.2,0.4-0.6,0.7-0.8,1.1c-0.3,0.4-0.7,0.9-1,1.3
		c-0.2,0.2-0.5,0.5-0.6,0.7c-0.2,0.2-0.3,0.5-0.6,0.7c0,0.1-0.1,0.1-0.1,0.2s-0.1,0.1-0.1,0.2c-0.2,0.2-0.5,0.5-0.6,0.7
		c0,0,0,0,0,0.1c-0.2,0.3-0.5,0.6-0.8,0.9l0,0c-0.2,0.3-0.6,0.6-0.8,0.9c-0.1,0.1-0.1,0.2-0.2,0.3c-0.1,0.1-0.1,0.2-0.2,0.3
		c-0.5,0.5-0.9,1-1.4,1.5c-0.1,0.1-0.1,0.1-0.1,0.2c-0.3,0.4-0.8,0.8-1.1,1.2c-0.2,0.3-0.6,0.5-0.8,0.8c-0.2,0.2-0.5,0.5-0.7,0.7
		c-0.1,0.1-0.2,0.2-0.3,0.3c-0.2,0.3-0.6,0.5-0.8,0.8c-0.1,0.1-0.1,0.1-0.2,0.2c-0.6,0.5-1,1-1.6,1.5c-0.2,0.2-0.5,0.4-0.7,0.6
		c-0.6,0.5-1.1,1-1.7,1.4l0,0l0,0c-0.7,0.5-1.4,1.1-2.1,1.6s-1.4,1.1-2.1,1.6c-0.1,0.1-0.2,0.1-0.2,0.2c-0.2,0.2-0.5,0.3-0.6,0.4
		s-0.3,0.2-0.5,0.4l-0.1,0.1c-0.3,0.2-0.7,0.4-1,0.7c-0.7,0.4-1.3,0.9-1.9,1.3c-0.1,0.1-0.3,0.2-0.5,0.3c-0.5,0.3-0.9,0.6-1.4,0.9
		c-0.1,0.1-0.3,0.2-0.5,0.3c-0.2,0.1-0.3,0.2-0.6,0.3c-0.3,0.2-0.6,0.4-0.9,0.6c-0.1,0.1-0.2,0.2-0.5,0.2c-0.6,0.3-1.1,0.7-1.8,1
		c-0.7,0.4-1.4,0.8-2.1,1.1c-0.1,0-0.1,0.1-0.2,0.1c-0.9,0.5-1.7,0.9-2.6,1.3c-0.6,0.3-1.1,0.5-1.6,0.8c-0.5,0.2-1,0.5-1.5,0.7
		s-1,0.4-1.5,0.7c-0.5,0.2-0.9,0.4-1.4,0.6c-0.6,0.2-1.1,0.5-1.6,0.7s-0.9,0.4-1.5,0.6c-0.3,0.1-0.7,0.3-1,0.4
		c-0.6,0.2-1.1,0.4-1.7,0.6c0,0-0.1,0-0.1,0.1c-0.7,0.3-1.5,0.5-2.3,0.8s-1.6,0.5-2.3,0.7s-1.4,0.4-2.2,0.6c-0.1,0-0.3,0.1-0.5,0.1
		c-0.7,0.2-1.4,0.4-2.2,0.6c-0.8,0.2-1.6,0.4-2.4,0.6s-1.6,0.4-2.4,0.5c-0.8,0.2-1.6,0.3-2.4,0.5c-0.1,0-0.2,0.1-0.5,0.1
		c-0.1,0-0.1,0-0.2,0c-0.6,0.1-1.1,0.2-1.7,0.3h-0.1h-0.1c-0.6,0.1-1.1,0.2-1.7,0.3c-0.1,0-0.2,0-0.3,0c-0.3,0.1-0.6,0.1-0.9,0.1
		c-0.7,0.1-1.4,0.2-2.1,0.3c-0.8,0.1-1.6,0.2-2.4,0.3c-0.8,0.1-1.7,0.2-2.5,0.2c-0.9,0.1-1.7,0.1-2.6,0.2c-0.8,0-1.6,0.1-2.3,0.1
		c-0.2,0-0.6,0-0.8,0c-0.7,0-1.3,0-1.9,0C347.6,1926.4,347.3,1926.4,346.8,1926.4L346.8,1926.4L346.8,1926.4z"/>
</g>
<g>
	<path class="st0" d="M337.4,1928.9c-0.8,0-1.6,0-2.3,0c-0.5,0-1.1,0-1.6,0c-0.1,0-0.1,0-0.2,0c-0.4,0-0.7,0-1-0.1
		c-0.6,0-1.3-0.1-1.9-0.1s-1.2-0.1-1.8-0.2c-0.1,0-0.3,0-0.4,0H328c-0.7-0.1-1.4-0.2-2.1-0.3c0,0-0.7-0.1-0.8-0.1
		c-0.1,0-0.3,0-0.4-0.1c-0.2,0-0.3,0-0.5-0.1c-0.3,0-0.6-0.1-0.9-0.1h-0.1c-0.5-0.1-1-0.2-1.5-0.3c-0.5-0.1-1.1-0.2-1.7-0.3
		c-0.4-0.1-0.8-0.1-1.1-0.2c-0.2,0-0.4-0.1-0.6-0.1c-0.3-0.1-0.7-0.2-1.1-0.2c-0.7-0.2-1.5-0.3-2.2-0.5c-0.6-0.2-1.3-0.3-1.9-0.5
		c-1-0.3-2-0.6-3-0.9c-1.3-0.4-2.4-0.8-3.5-1.2c-0.7-0.3-1.5-0.5-2.2-0.8l-0.2-0.1c-0.6-0.3-1.3-0.5-1.9-0.8
		c-0.5-0.2-1.1-0.5-1.7-0.7l-0.3-0.1c-0.1,0-0.2-0.1-0.2-0.1c-0.6-0.3-1.2-0.6-1.9-0.9c-0.7-0.3-1.4-0.7-2.1-1
		c-0.6-0.3-1.2-0.6-1.8-0.9c-0.6-0.3-1.2-0.7-1.8-1l-0.3-0.2c-0.6-0.3-1.1-0.7-1.7-1c-0.6-0.4-1.2-0.8-1.9-1.1
		c-0.6-0.4-1.2-0.8-1.8-1.2c-0.4-0.2-0.7-0.5-1-0.7l-1.3-0.9c-0.3-0.2-0.7-0.5-1-0.7c0,0-0.2-0.2-0.3-0.2c-0.6-0.4-1.2-0.9-1.7-1.3
		c-1.1-0.9-2.3-1.8-3.5-2.8c-0.5-0.5-1-0.9-1.5-1.4c-0.7-0.6-1.4-1.3-2.2-2c-0.7-0.7-1.4-1.4-2.1-2.1c-0.2-0.2-0.5-0.5-0.7-0.7
		c-0.4-0.4-0.8-0.9-1.2-1.3c-0.4-0.4-0.8-0.8-1.2-1.3c-0.3-0.3-0.6-0.7-0.9-1l-1.1-1.3c-0.2-0.3-0.4-0.5-0.6-0.8
		c-0.4-0.5-0.8-1-1.2-1.5c-0.2-0.2-0.4-0.5-0.6-0.8l-0.3-0.4c-0.3-0.4-0.6-0.8-0.9-1.2c-0.3-0.4-0.5-0.8-0.8-1.1
		c-0.2-0.3-0.4-0.6-0.7-1l-0.2-0.3c-0.2-0.3-0.5-0.7-0.7-1.1l-0.4-0.7c-0.2-0.3-0.3-0.5-0.5-0.8c-0.2-0.4-0.5-0.8-0.8-1.3
		c-0.5-0.8-1-1.7-1.5-2.6c-0.1-0.2-0.3-0.5-0.4-0.7l-0.3-0.5c-0.2-0.4-0.5-0.9-0.7-1.3c0,0-0.3-0.6-0.4-0.7
		c-0.2-0.4-0.5-0.9-0.7-1.4c-0.3-0.5-0.5-1.1-0.8-1.7l-0.1-0.3c-0.3-0.7-0.6-1.3-0.9-2s-0.6-1.4-0.9-2.1c-0.2-0.5-0.4-1-0.6-1.6
		l-0.2-0.4c-0.1-0.4-0.3-0.7-0.4-1.1c-0.1-0.3-0.3-0.7-0.4-1.1c-0.2-0.6-0.5-1.3-0.7-2.1l-0.3-1.1c-0.1-0.4-0.2-0.7-0.3-1.1
		c-0.5-1.5-0.8-3-1.2-4.5c-0.2-0.6-0.3-1.3-0.4-1.9c-0.2-0.8-0.3-1.5-0.5-2.3l-0.2-1.1l-0.2-1.1c-0.1-0.7-0.2-1.4-0.3-2.1
		s-0.2-1.4-0.3-2.1c0,0,0-0.4,0-0.5c-0.1-0.7-0.1-1.4-0.2-2.1l-0.1-1.1l-0.1-1.1c0-0.7-0.1-1.4-0.1-2v-0.1c0-0.2,0-0.3,0-0.5
		c0-0.7,0-1.4,0-2.1c0-0.3,0-0.7,0-1c0-0.8,0-1.6,0-2.4s0.1-1.5,0.1-2.3v-0.1c0-0.6,0.1-1.3,0.1-1.9c0-0.1,0-0.2,0-0.3
		c0-0.1,0-0.2,0-0.2c0.1-0.7,0.1-1.4,0.2-2.1s0.1-1.4,0.2-2l0.1-0.7c0.1-0.6,0.2-1.2,0.3-1.9c0.1-0.7,0.2-1.5,0.4-2.2l0.1-0.3
		c0.1-0.6,0.2-1.1,0.3-1.7c0-0.2,0.1-0.4,0.1-0.6c0.1-0.6,0.3-1.2,0.4-1.9c0.1-0.7,0.3-1.3,0.5-2c0-0.2,0.1-0.4,0.2-0.6
		c0.1-0.6,0.3-1.2,0.5-1.8c0.2-0.6,0.3-1.2,0.5-1.8v-0.1c0.1-0.3,0.1-0.5,0.2-0.7c0.2-0.5,0.4-1.1,0.6-1.7c0.2-0.5,0.3-1,0.5-1.4
		l0.2-0.6c0.3-0.7,0.5-1.5,0.8-2.2s0.6-1.4,0.9-2.1c0.2-0.6,0.5-1.2,0.8-1.8c0.1-0.2,0.2-0.4,0.3-0.6c0.2-0.5,0.5-1.1,0.8-1.6
		c0.3-0.7,0.6-1.3,1-2c0.3-0.6,0.6-1.2,0.9-1.8l0.1-0.2l0.2-0.3c0.3-0.5,0.6-1.1,0.9-1.6c0.4-0.7,0.8-1.3,1.1-1.9
		c0.7-1.2,1.5-2.5,2.4-3.7c0.4-0.6,0.8-1.2,1.3-1.8l0.1-0.1c0.9-1.2,1.7-2.4,2.6-3.4c0.4-0.6,0.9-1.1,1.4-1.7c0.3-0.4,0.7-0.8,1-1.2
		l0.4-0.4c0.5-0.6,1-1.1,1.5-1.7c0.5-0.5,1-1.1,1.5-1.6s1-1,1.5-1.6c0.9-0.9,1.9-1.9,2.9-2.8l0.1-0.1c0.1-0.1,0.2-0.2,0.3-0.3
		c0.5-0.4,1-0.9,1.5-1.3s1-0.9,1.5-1.3l0.1-0.1c0.1-0.1,0.2-0.2,0.3-0.3c0.3-0.3,0.7-0.6,1-0.8c0.2-0.2,0.5-0.4,0.8-0.6h0.1
		c0.5-0.4,0.9-0.7,1.4-1.1c1-0.7,2-1.4,3.1-2.2c0.5-0.4,1.1-0.7,1.6-1.1c0.1-0.1,0.3-0.2,0.5-0.3l0.6-0.4c0.6-0.4,1.3-0.8,1.9-1.2
		c0.6-0.4,1.3-0.8,1.9-1.1c0.6-0.3,1.2-0.7,1.8-1c0.6-0.3,1.3-0.7,2-1c0.9-0.4,1.7-0.9,2.6-1.3l0.9-0.4c0.1-0.1,0.3-0.1,0.4-0.2
		c0.4-0.2,0.8-0.4,1.3-0.6c0.4-0.2,0.9-0.4,1.3-0.6l1.1-0.5h0.1l0.1-0.1c0.4-0.1,0.8-0.3,1.2-0.5h0.1c0.3-0.1,0.6-0.2,0.9-0.3
		l0.1-0.1l0.3-0.1c0.4-0.1,0.8-0.3,1.2-0.4c0.5-0.2,1-0.3,1.5-0.5h0.1c0.2-0.1,0.5-0.1,0.7-0.2h0.2c0.1,0,0.2-0.1,0.3-0.1l0.6-0.2
		c0.8-0.2,1.6-0.4,2.3-0.7c0.9-0.2,1.9-0.5,2.8-0.7c0.6-0.1,1.1-0.3,1.7-0.4s1.1-0.2,1.7-0.3c0.5-0.1,1-0.2,1.6-0.3
		c0.6-0.1,1.2-0.2,1.8-0.3c0.7-0.1,1.5-0.2,2.3-0.3c1.6-0.2,3.2-0.4,4.8-0.5c0.7,0,1.4-0.1,2.1-0.1c0.1,0,0.2,0,0.3,0
		c0.5,0,1.1,0,1.6-0.1c0.1,0,0.2,0,0.3,0c0.1,0,0.3,0,0.5,0c0.7,0,1.4,0,2.1,0s1.4,0,2.1,0l0,0c0.2,0,0.5,0,0.8,0c0.6,0,1.3,0,2,0.1
		c0.6,0,1.3,0.1,1.9,0.1c0.2,0,0.4,0,0.6,0c0.3,0,0.6,0,0.9,0.1c0.3,0,0.5,0,0.7,0.1h0.2c0.1,0,0.2,0,0.3,0l0.8,0.1
		c0.3,0,0.7,0.1,1,0.1l-0.1,2.5l0.2-1.5v-0.9h0.1l0,0h0.1c0.1,0,0.2,0,0.3,0c0.7,0.1,1.4,0.2,2.1,0.3c0.3,0,0.7,0.1,1.1,0.2
		c0,0,1.1,0.2,1.2,0.2l1.3,0.2l1.5,0.3l1.8,0.4c0.6,0.1,1.2,0.3,1.8,0.4l0.5,0.1c0.7,0.2,1.3,0.4,1.9,0.5c0.7,0.2,1.4,0.4,2.1,0.6
		l1.2,0.4l1.4,0.5c0.5,0.2,1,0.3,1.5,0.5l0.2,0.1c0.7,0.3,1.4,0.5,2.1,0.8c0.2,0.1,1,0.4,1,0.4l1.1,0.4c0.6,0.2,1.2,0.5,1.7,0.8
		c0.6,0.2,1.1,0.5,1.7,0.8l0.8,0.4c0.6,0.3,1.9,0.9,1.9,0.9l0,0c0.7,0.3,1.3,0.7,1.9,1l0.5,0.3c0.3,0.2,0.6,0.4,1,0.6
		c0,0,0.1,0.1,0.2,0.1c0.1,0.1,0.2,0.1,0.3,0.2l0.7,0.4l0.2,0.1c0.2,0.1,0.3,0.2,0.5,0.3l0.2,0.1c0.2,0.1,0.4,0.2,0.6,0.4
		c0.4,0.2,0.8,0.5,1.2,0.7l0.1,0.1c0.6,0.4,1.1,0.7,1.6,1.1c0.7,0.5,1.5,1,2.2,1.5s1.4,1,2,1.5l0.1,0.1c0.6,0.4,1.1,0.8,1.6,1.3
		c0.3,0.2,0.6,0.5,0.9,0.7c0.4,0.4,0.9,0.7,1.3,1.1c0.2,0.1,0.3,0.3,0.5,0.4c1.2,1,2.4,2.1,3.6,3.2c0.1,0.1,0.2,0.2,0.3,0.3
		c0.6,0.6,1.2,1.2,1.8,1.8c0.6,0.6,1.2,1.3,1.8,1.9c0.5,0.5,1,1.1,1.5,1.7l0.3,0.3c0.3,0.3,0.6,0.6,0.9,1l0.1,0.1
		c0.3,0.3,0.5,0.6,0.8,0.9l0.1,0.2c0.4,0.5,0.8,1,1.2,1.5c0.1,0.1,0.2,0.3,0.4,0.4c0.1,0.2,0.2,0.3,0.4,0.5c0.4,0.5,0.8,1.1,1.2,1.6
		c0.5,0.6,0.9,1.2,1.3,1.9c0.1,0.1,0.1,0.2,0.2,0.3l0.2,0.3c0.3,0.4,0.5,0.8,0.8,1.2c0.1,0.1,0.1,0.2,0.2,0.3h1.1v1.8
		c0.1,0.2,0.5,0.8,0.5,0.8c0.6,1,1.2,2,1.7,2.9c0.5,0.8,0.9,1.6,1.3,2.4c0.4,0.7,0.7,1.4,1.1,2.1c0.1,0.2,0.2,0.4,0.3,0.5
		c0.3,0.5,0.5,1.1,0.8,1.7c0.1,0.2,0.2,0.3,0.2,0.5c0.3,0.7,0.6,1.3,0.9,2c0.1,0.2,0.2,0.4,0.2,0.6c0.3,0.6,0.5,1.3,0.8,2l0.2,0.4
		l0,0c0.2,0.4,0.3,0.8,0.4,1.1l0.5,1.4c0.1,0.3,0.2,0.6,0.3,1c0.2,0.6,0.4,1.2,0.6,1.9c0.1,0.2,0.1,0.4,0.2,0.6
		c0.2,0.5,0.3,1,0.5,1.5c0.2,0.8,0.5,1.7,0.7,2.6c0.2,0.7,0.3,1.4,0.5,2.1c0.2,0.6,0.3,1.3,0.4,2c0.1,0.5,0.2,1,0.3,1.5l0.1,0.3
		c0.1,0.3,0.1,0.7,0.2,1c0.1,0.8,0.3,1.5,0.4,2.3c0.1,0.5,0.1,0.9,0.2,1.4c0,0.3,0.1,0.6,0.1,1c0.1,0.6,0.1,1.2,0.2,1.7l0.1,0.7v0.6
		c0,0.3,0.1,0.7,0.1,1v0.2c0,0.3,0.1,0.7,0.1,1.1l0.1,1.2c0,0.6,0.1,1.2,0.1,1.8c0,0.3,0,0.7,0,1c0,0.6,0,1.2,0,1.9
		c0,0.8,0,1.5,0,2.2c0,0.6,0,1.2-0.1,1.9c0,0.5,0,1-0.1,1.4c0,0.5-0.1,1-0.1,1.6c0,0.7-0.1,1.3-0.2,2c0,0.2,0,0.4,0,0.5
		c-0.1,0.8-0.2,1.4-0.3,2.1c-0.1,0.6-0.2,1.3-0.3,1.9l-0.2,1.1c-0.2,0.9-0.3,1.9-0.5,2.8c-0.1,0.5-0.2,1-0.3,1.4
		c-0.1,0.5-0.2,1-0.3,1.6c-0.2,0.7-0.3,1.5-0.5,2.2c-0.1,0.4-0.2,0.8-0.3,1.1l-0.2,0.7v0.1c-0.1,0.2-0.1,0.3-0.1,0.5
		c-0.2,0.7-0.4,1.3-0.6,2c-0.4,1.4-0.8,2.5-1.2,3.5c-0.2,0.7-0.5,1.3-0.7,2c-0.2,0.4-0.3,0.9-0.5,1.3c-0.1,0.4-0.3,0.8-0.5,1.2
		c-0.2,0.4-0.3,0.8-0.5,1.2c-0.1,0.1-0.5,1.2-0.6,1.5c-0.4,0.9-0.8,1.8-1.3,2.6c-0.1,0.2-0.2,0.5-0.4,0.8l-0.4,0.8
		c-0.3,0.5-0.5,0.9-0.7,1.4c-0.1,0.2-0.2,0.4-0.3,0.6v0.1v0.3l-0.5,0.5c-0.2,0.3-0.4,0.6-0.5,0.9c-0.2,0.3-0.4,0.7-0.6,1.1
		c-0.7,1.1-1.4,2.2-2.1,3.3c-0.2,0.4-0.5,0.7-0.8,1.1s-0.6,0.8-0.9,1.3l-0.5,0.7c-0.2,0.2-0.3,0.5-0.5,0.7l-0.2,0.3
		c0,0-0.4,0.5-0.5,0.6l-0.1,0.2l-0.2,0.2c-0.1,0.2-0.5,0.6-0.5,0.6l-0.1,0.1l-0.2,0.2l-0.6,0.8l-0.4,0.5c-0.4,0.5-0.8,1-1.2,1.5
		l-0.1,0.1l-0.1,0.1c-0.3,0.4-0.7,0.8-1,1.2c-0.2,0.3-0.5,0.5-0.7,0.8c0,0-0.5,0.5-0.6,0.7c-0.1,0.1-0.3,0.3-0.3,0.3
		c-0.3,0.3-0.5,0.5-0.7,0.8c-0.1,0.1-0.2,0.2-0.3,0.3c-0.6,0.6-1.2,1.2-1.8,1.8c-0.5,0.5-1,1-1.6,1.5l0,0l-0.3,0.3
		c-1.3,1.2-2.5,2.3-3.7,3.2l-0.2,0.2l-0.2,0.2c-0.1,0.1-0.2,0.2-0.3,0.2l-0.1,0.1l-0.1,0.1c-0.1,0-0.1,0.1-0.2,0.2l-0.2,0.1
		c-0.2,0.2-0.5,0.4-0.7,0.6l-0.3,0.2c-0.7,0.6-1.4,1.1-2.1,1.6s-1.4,1-2.2,1.5c-0.9,0.6-1.9,1.3-2.8,1.9c-0.6,0.4-1.2,0.8-1.8,1.1
		c-0.1,0.1-0.2,0.1-0.3,0.2c-0.8,0.4-1.5,0.9-2.3,1.3c-0.5,0.3-1,0.5-1.5,0.8l-0.3,0.2c-0.3,0.2-0.7,0.4-1,0.5
		c-0.4,0.2-0.9,0.5-1.3,0.7s-0.8,0.4-1.2,0.6c-0.5,0.2-1,0.5-1.5,0.7c-0.4,0.2-0.9,0.4-1.3,0.6l-0.8,0.4c-0.5,0.2-1,0.4-1.5,0.6
		c-0.1,0-0.2,0.1-0.3,0.1c-0.6,0.3-1.3,0.5-1.9,0.7c-0.7,0.3-1.4,0.5-2.1,0.8c-0.6,0.2-1.3,0.4-1.9,0.6l-0.5,0.2
		c-0.6,0.2-1.3,0.4-1.9,0.6c-0.7,0.2-1.4,0.4-2.2,0.6c-0.7,0.2-1.5,0.4-2.2,0.6h-0.1c-0.7,0.2-1.3,0.3-2,0.4c-0.1,0-0.2,0-0.4,0.1
		c-0.1,0-0.2,0-0.3,0c-0.5,0.1-1,0.2-1.5,0.3h-0.1c-0.1,0-0.2,0-0.3,0.1c-0.5,0.1-0.9,0.2-1.4,0.3c0,0-0.2,0-0.3,0
		c-0.2,0-0.5,0.1-0.8,0.1c-0.7,0.1-1.3,0.2-1.9,0.3h-0.2c-0.7,0.1-1.3,0.2-2,0.2c-0.8,0.1-1.5,0.2-2.3,0.2c-0.7,0.1-1.5,0.1-2.3,0.2
		c-0.7,0-1.4,0.1-2.1,0.1c-0.3,0-0.6,0-0.8,0c-0.4,0-1,0-1.5,0h-0.2C338.2,1928.9,337.8,1928.9,337.4,1928.9L337.4,1928.9z
		 M335.1,1791.3c-0.6,0-1.1,0.1-1.7,0.2c-1.5,0.4-2.4,1-2.8,1.7c-0.7,1.2,0,3.4,0.6,5.5c0.2,0.6,0.4,1.2,0.5,1.8
		c2,8.2,3.2,18.4-6,25.2c-7.2,5.3-9.7,12-8.4,23.2c0.2,1.4,0.1,2.7,0.1,4c0,0.5,0,1.1,0,1.6v19.4c0,2.4,0.3,2.4,1.1,2.5
		c1.9,0.3,3.8,0.6,5.6,0.9c10.4,1.7,21.1,3.5,31.6,3.5c3.5,0,6.7-0.2,9.9-0.6c9.1-1.1,13.7-5.2,15.2-13.6
		c2.1-11.3,3.6-21.8,4.7-32.1c0.4-3.6,0-6-1.1-7.3c-1.2-1.3-3.5-2-7.2-2.1c-1.6,0-3.3,0-4.9,0c-2.2,0-4.5,0-6.7,0s-4.5,0-6.7,0h-1.7
		c-7.6,0-11.7-3.7-12.2-10.8c-0.3-3.8-1-7.7-1.7-11.5c-0.2-1.1-0.4-2.3-0.6-3.4C341.8,1794.7,338.7,1791.3,335.1,1791.3z
		 M299.4,1878.2c1.3,0,2.7,0,4.2,0h0.3c1.5,0,2.5-0.3,3-0.8c0.5-0.6,0.8-1.7,0.8-3.5c-0.1-6.2-0.1-12.4-0.1-18.4c0-4.5,0-9.1,0-13.6
		c0-2.3,0-4.3,0-6c0-3.7,0.1-6.9-0.5-7.6c-0.6-0.6-4.3-0.6-6.5-0.6h-3.7c-1.3,0-2.7,0-4.2,0h-0.2c-1.4,0-2.4,0.2-2.8,0.7
		c-0.5,0.5-0.8,1.6-0.8,3.2c0.1,5,0,10,0,14.9c0,2.2,0,4.3,0,6.5v3.8c0,2.5,0,5,0,7.6c0,1.9,0,3.6,0,5.1c0,4.1-0.1,7.5,0.6,8.2
		c0.6,0.6,3.8,0.6,5.6,0.6C295.2,1878.2,298.6,1878.2,299.4,1878.2z"/>
	<path d="M337.4,1748.4c0.7,0,1.3,0,2,0c0.3,0,0.6,0,0.9,0c0.6,0,1.3,0,1.9,0.1c0.6,0,1.3,0.1,1.9,0.1c0.2,0,0.4,0,0.6,0
		c0.3,0,0.6,0.1,0.9,0.1s0.6,0.1,0.9,0.1h0.1c0.3,0,0.6,0.1,0.9,0.1s0.6,0.1,0.9,0.1c0.1,0,0.2,0,0.4,0.1h0.1
		c0.7,0.1,1.4,0.2,2.1,0.3c0.3,0.1,0.7,0.1,1,0.2c0.4,0.1,0.7,0.1,1.1,0.2c0.1,0,0.2,0,0.2,0c0.2,0,0.5,0.1,0.7,0.1
		c0.5,0.1,0.9,0.2,1.4,0.3c0.2,0,0.4,0.1,0.6,0.1c0.4,0.1,0.7,0.2,1.1,0.2c0.2,0,0.3,0.1,0.4,0.1c0.6,0.2,1.3,0.3,1.9,0.5
		c0.2,0,0.3,0.1,0.5,0.1c0.6,0.2,1.3,0.3,1.9,0.5c0.7,0.2,1.4,0.4,2.1,0.6c0.4,0.1,0.7,0.2,1.1,0.3c0.3,0.1,0.7,0.2,1,0.3
		c0.6,0.2,1.2,0.4,1.8,0.6c0.1,0,0.1,0.1,0.2,0.1c0.7,0.3,1.4,0.5,2,0.8c0.3,0.1,0.7,0.3,1,0.4s0.7,0.3,1,0.4
		c0.6,0.2,1.1,0.5,1.7,0.7s1.1,0.5,1.7,0.8c0.3,0.1,0.5,0.2,0.8,0.4c0.6,0.3,1.1,0.6,1.7,0.8c0,0,0.1,0,0.1,0.1
		c0.6,0.3,1.3,0.7,1.9,1c0.2,0.1,0.4,0.2,0.5,0.3c0.3,0.2,0.6,0.3,0.9,0.5c0.1,0.1,0.2,0.1,0.3,0.2c0,0,0.1,0,0.1,0.1
		c0.3,0.1,0.5,0.3,0.7,0.4s0.5,0.3,0.7,0.4c0,0,0.1,0.1,0.2,0.1c0.2,0.1,0.5,0.3,0.7,0.4c0.4,0.2,0.7,0.4,1.1,0.7
		c0.1,0.1,0.1,0.1,0.2,0.2c0.5,0.3,1,0.6,1.5,1c0.7,0.5,1.4,1,2.1,1.5s1.3,1,2,1.5l0.1,0.1c0.5,0.4,1.1,0.8,1.6,1.3
		c0.3,0.2,0.5,0.4,0.8,0.6c0.5,0.4,0.9,0.8,1.4,1.1c0.1,0.1,0.3,0.2,0.4,0.3c1.2,1,2.4,2.1,3.6,3.2l0.1,0.1c0.6,0.6,1.2,1.2,1.8,1.8
		c0.6,0.6,1.2,1.2,1.8,1.9c0.5,0.5,1,1.1,1.5,1.7c0.1,0.1,0.1,0.2,0.2,0.2c0.3,0.3,0.6,0.6,0.8,1c0.3,0.3,0.6,0.7,0.8,1
		c0.4,0.5,0.9,1.1,1.3,1.6c0.1,0.1,0.2,0.3,0.3,0.4c0.1,0.1,0.2,0.3,0.4,0.5c0.4,0.5,0.8,1.1,1.2,1.6c0.5,0.6,0.9,1.3,1.4,1.9
		c0.1,0.1,0.1,0.1,0.1,0.2c0.1,0.1,0.1,0.2,0.2,0.3c0.3,0.3,0.5,0.7,0.7,1.1c0.1,0.1,0.1,0.2,0.2,0.3c0.1,0.2,0.2,0.4,0.4,0.6
		c0.1,0.2,0.2,0.3,0.3,0.5l0,0c0.3,0.5,0.6,0.9,0.9,1.4c0.6,0.9,1.1,1.9,1.7,2.8c0.4,0.8,0.9,1.5,1.3,2.3c0.4,0.7,0.7,1.4,1,2.1
		c0.1,0.2,0.2,0.3,0.2,0.5c0.3,0.6,0.5,1.2,0.8,1.7c0.1,0.1,0.1,0.2,0.2,0.4c0.3,0.6,0.6,1.3,0.8,1.9c0.1,0.2,0.2,0.4,0.2,0.5
		c0.3,0.6,0.5,1.3,0.8,2c0,0,0,0,0,0.1c0.2,0.5,0.4,1,0.6,1.5c0,0.1,0,0.1,0.1,0.2c0.1,0.4,0.3,0.8,0.4,1.2c0.1,0.3,0.2,0.6,0.3,0.9
		c0.2,0.6,0.4,1.3,0.6,1.9c0.1,0.2,0.1,0.4,0.2,0.5c0.2,0.5,0.3,1,0.4,1.5c0.2,0.8,0.5,1.7,0.7,2.5c0.2,0.7,0.3,1.3,0.5,2
		c0.2,0.6,0.3,1.3,0.4,1.9c0.1,0.5,0.2,1,0.3,1.5c0,0.1,0,0.2,0.1,0.2c0.1,0.3,0.1,0.6,0.2,0.9c0.1,0.8,0.3,1.5,0.4,2.3
		c0.1,0.5,0.1,0.9,0.2,1.4c0,0.3,0.1,0.7,0.1,1c0.1,0.5,0.1,1.1,0.2,1.6c0,0.3,0,0.5,0.1,0.8c0,0.5,0.1,1,0.1,1.5c0,0.1,0,0.2,0,0.3
		c0,0.4,0,0.7,0.1,1.1c0,0.4,0,0.7,0.1,1.1c0,0.6,0.1,1.2,0.1,1.8c0,0.3,0,0.6,0,0.9c0,0.6,0,1.3,0,1.9l0,0l0,0c0,0.7,0,1.4,0,2.1
		c0,0.6,0,1.2-0.1,1.8c0,0.5,0,0.9-0.1,1.4c0,0.5-0.1,1-0.1,1.5c0,0.7-0.1,1.3-0.2,2c0,0.2,0,0.4,0,0.6c-0.1,0.6-0.1,1.3-0.2,1.9
		c-0.1,0.7-0.2,1.3-0.3,1.9c-0.1,0.4-0.1,0.7-0.2,1.1c-0.2,0.9-0.3,1.8-0.5,2.8c-0.1,0.5-0.2,0.9-0.3,1.4c-0.1,0.5-0.2,1-0.3,1.6
		c-0.2,0.7-0.3,1.4-0.5,2.1c-0.1,0.6-0.3,1.1-0.5,1.7c-0.1,0.2-0.1,0.4-0.2,0.7c-0.2,0.6-0.4,1.2-0.5,1.8c-0.4,1.2-0.7,2.3-1.1,3.4
		c-0.2,0.7-0.5,1.3-0.7,2c-0.2,0.4-0.3,0.9-0.5,1.3c-0.1,0.4-0.3,0.8-0.5,1.2c-0.2,0.4-0.3,0.8-0.5,1.2c-0.1,0.1-0.1,0.3-0.2,0.4
		c-0.2,0.3-0.3,0.7-0.5,1c-0.4,0.9-0.8,1.7-1.2,2.6c-0.1,0.2-0.2,0.5-0.4,0.7c-0.1,0.1-0.1,0.3-0.2,0.4s-0.1,0.3-0.2,0.4
		c-0.2,0.4-0.5,0.9-0.7,1.3c-0.1,0.2-0.2,0.4-0.4,0.7c-0.1,0.2-0.2,0.4-0.3,0.5l0,0c-0.2,0.4-0.4,0.7-0.6,1.1s-0.4,0.7-0.6,1.1
		c-0.6,1.1-1.3,2.1-2,3.2c-0.2,0.4-0.5,0.7-0.7,1.1c-0.3,0.4-0.6,0.9-0.9,1.3c-0.2,0.2-0.4,0.5-0.5,0.7c-0.2,0.2-0.3,0.5-0.5,0.7
		c0,0.1-0.1,0.1-0.2,0.2c0,0-0.1,0.1-0.1,0.2c-0.2,0.2-0.4,0.5-0.6,0.7c0,0,0,0,0,0.1c-0.2,0.3-0.5,0.6-0.7,0.9l0,0
		c-0.2,0.3-0.5,0.6-0.7,0.9c-0.1,0.1-0.1,0.2-0.2,0.3c-0.1,0.1-0.1,0.2-0.2,0.3c-0.4,0.5-0.8,1-1.2,1.5c0,0-0.1,0.1-0.1,0.2
		c-0.3,0.4-0.7,0.8-1,1.1c-0.2,0.3-0.5,0.5-0.7,0.8c-0.2,0.2-0.4,0.5-0.6,0.7c-0.1,0.1-0.2,0.2-0.3,0.3c-0.2,0.3-0.5,0.5-0.7,0.8
		c-0.1,0.1-0.1,0.1-0.2,0.2c-0.6,0.6-1.2,1.2-1.8,1.8c-0.6,0.6-1.2,1.2-1.8,1.7l0,0l0,0c-1.2,1.1-2.4,2.1-3.6,3.2
		c-0.1,0.1-0.2,0.1-0.2,0.2c-0.2,0.2-0.4,0.3-0.5,0.4c-0.2,0.1-0.3,0.2-0.4,0.4c-0.3,0.3-0.7,0.5-1,0.8c-0.7,0.5-1.4,1.1-2.1,1.6
		s-1.4,1-2.1,1.5c-0.9,0.6-1.8,1.2-2.7,1.8c-0.6,0.4-1.2,0.8-1.8,1.1c-0.1,0-0.1,0.1-0.2,0.1c-0.8,0.5-1.5,0.9-2.3,1.3
		c-0.5,0.3-1,0.5-1.4,0.8c-0.4,0.2-0.8,0.5-1.3,0.7c-0.4,0.2-0.9,0.4-1.3,0.7c-0.4,0.2-0.8,0.4-1.2,0.6c-0.5,0.2-1,0.5-1.4,0.7
		s-0.8,0.4-1.3,0.6c-0.3,0.1-0.6,0.3-0.9,0.4c-0.5,0.2-1,0.4-1.5,0.6h-0.1c-0.7,0.3-1.3,0.5-2,0.8s-1.4,0.5-2,0.7s-1.2,0.4-1.9,0.6
		c-0.1,0.1-0.3,0.1-0.4,0.1c-0.6,0.2-1.2,0.4-1.9,0.6c-0.7,0.2-1.4,0.4-2.1,0.6s-1.4,0.4-2.1,0.5c-0.7,0.2-1.4,0.3-2,0.5
		c-0.1,0-0.2,0.1-0.4,0.1c-0.1,0-0.1,0-0.2,0c-0.5,0.1-1,0.2-1.5,0.3h-0.1h-0.1c-0.5,0.1-1,0.2-1.5,0.3c-0.1,0-0.2,0-0.3,0
		c-0.3,0-0.5,0.1-0.8,0.1c-0.6,0.1-1.2,0.2-1.8,0.3c-0.7,0.1-1.4,0.2-2.1,0.3c-0.7,0.1-1.5,0.2-2.2,0.2c-0.8,0.1-1.5,0.1-2.3,0.2
		c-0.7,0-1.3,0.1-2,0.1c-0.2,0-0.5,0-0.7,0c-0.6,0-1.1,0-1.7,0c-0.4,0-0.7,0-1.1,0l0,0c-0.8,0-1.5,0-2.3,0c-0.5,0-1,0-1.5-0.1
		c-0.1,0-0.2,0-0.2,0c-0.3,0-0.6,0-0.9-0.1c-0.6,0-1.2-0.1-1.8-0.1c-0.6,0-1.3-0.1-1.9-0.2c-0.1,0-0.2,0-0.3,0c-0.1,0-0.2,0-0.3,0
		c-0.7-0.1-1.4-0.2-2-0.2c-0.3,0-0.6-0.1-0.8-0.1c-0.1,0-0.2,0-0.4-0.1c-0.2,0-0.3,0-0.5-0.1c-0.3,0-0.6-0.1-0.8-0.1
		c-0.6-0.1-1.1-0.2-1.7-0.3c-0.6-0.1-1.1-0.2-1.7-0.3c-0.4-0.1-0.7-0.1-1.1-0.2c-0.2,0-0.4-0.1-0.6-0.1c-0.4-0.1-0.8-0.2-1.2-0.3
		c-0.7-0.2-1.4-0.3-2.1-0.5c-0.6-0.2-1.2-0.3-1.8-0.5c-1-0.3-2-0.6-2.9-0.9c-1.1-0.4-2.3-0.7-3.4-1.1c-0.7-0.3-1.5-0.5-2.2-0.8
		s-1.3-0.5-2-0.8c-0.6-0.2-1.1-0.5-1.7-0.7c-0.1,0-0.2-0.1-0.3-0.1c-0.1,0-0.1,0-0.1-0.1c-0.6-0.3-1.3-0.6-1.9-0.9
		c-0.7-0.3-1.4-0.7-2.1-1c-0.6-0.3-1.1-0.6-1.7-0.9s-1.2-0.7-1.8-1c-0.1-0.1-0.2-0.1-0.3-0.2c-0.5-0.3-1.1-0.6-1.6-0.9
		c-0.6-0.4-1.2-0.8-1.8-1.1c-0.6-0.4-1.2-0.8-1.8-1.2c-0.4-0.3-0.9-0.6-1.3-0.9c-0.2-0.1-0.3-0.2-0.5-0.3c-0.2-0.1-0.3-0.2-0.5-0.3
		c-0.4-0.3-0.8-0.5-1.1-0.8c0,0-0.1-0.1-0.2-0.1c-0.6-0.4-1.1-0.8-1.7-1.3c-1.2-0.9-2.3-1.8-3.4-2.8c-0.5-0.4-1-0.9-1.5-1.3
		c-0.7-0.6-1.4-1.3-2.1-2s-1.4-1.3-2-2c-0.3-0.3-0.5-0.5-0.7-0.8c-0.4-0.4-0.8-0.8-1.1-1.2c-0.4-0.4-0.8-0.8-1.1-1.2
		c-0.3-0.4-0.6-0.7-0.9-1.1s-0.7-0.8-1-1.2c-0.2-0.3-0.4-0.5-0.6-0.8c-0.4-0.5-0.7-0.9-1.1-1.4c-0.3-0.4-0.6-0.8-0.9-1.2
		c-0.3-0.4-0.6-0.8-0.9-1.2c-0.3-0.4-0.5-0.7-0.8-1.1s-0.6-0.8-0.9-1.3c-0.3-0.4-0.5-0.8-0.8-1.2c-0.3-0.4-0.5-0.8-0.8-1.2
		c-0.3-0.4-0.5-0.8-0.8-1.2c-0.5-0.8-1-1.7-1.5-2.5c-0.2-0.4-0.5-0.8-0.7-1.2c-0.2-0.4-0.4-0.8-0.7-1.2c-0.1-0.2-0.3-0.5-0.4-0.7
		c-0.2-0.4-0.5-0.9-0.7-1.3c-0.3-0.6-0.6-1.1-0.8-1.7c0-0.1-0.1-0.2-0.1-0.3c-0.3-0.6-0.6-1.3-0.9-1.9c-0.3-0.7-0.6-1.3-0.8-2
		c-0.3-0.7-0.5-1.3-0.8-2c-0.1-0.3-0.3-0.7-0.4-1s-0.3-0.7-0.4-1c-0.2-0.7-0.5-1.4-0.7-2c-0.1-0.4-0.2-0.7-0.3-1
		c-0.1-0.4-0.2-0.7-0.3-1c-0.4-1.5-0.8-2.9-1.2-4.4c-0.1-0.6-0.3-1.3-0.4-1.9c-0.2-0.7-0.3-1.5-0.5-2.2c-0.1-0.4-0.1-0.7-0.2-1.1
		s-0.1-0.7-0.2-1.1c-0.1-0.7-0.2-1.4-0.3-2.1s-0.2-1.4-0.3-2.1c0-0.1,0-0.3,0-0.4c-0.1-0.7-0.1-1.4-0.2-2.1c0-0.4-0.1-0.8-0.1-1.1
		c0-0.4,0-0.8-0.1-1.1c0-0.7-0.1-1.3-0.1-2c0-0.2,0-0.4,0-0.6c0-0.7,0-1.3,0-2c0-0.3,0-0.7,0-1c0-0.8,0-1.5,0-2.3s0.1-1.5,0.1-2.3
		v-0.1c0-0.6,0.1-1.2,0.1-1.8c0-0.1,0-0.2,0-0.3c0-0.1,0-0.1,0-0.2c0-0.7,0.1-1.4,0.2-2.2c0.1-0.7,0.1-1.3,0.2-2
		c0-0.2,0-0.3,0.1-0.5c0.1-0.7,0.2-1.3,0.3-2s0.2-1.5,0.4-2.2c0.1-0.6,0.2-1.3,0.4-1.9c0-0.2,0.1-0.4,0.1-0.5
		c0.1-0.6,0.3-1.3,0.4-1.9c0.1-0.7,0.3-1.3,0.5-2c0-0.2,0.1-0.3,0.1-0.5c0.2-0.6,0.3-1.2,0.5-1.8c0.2-0.6,0.4-1.3,0.6-1.9
		c0.1-0.2,0.1-0.4,0.2-0.6c0.2-0.6,0.4-1.1,0.5-1.7c0.2-0.5,0.3-0.9,0.5-1.4c0.1-0.2,0.1-0.4,0.2-0.6c0.3-0.7,0.5-1.4,0.8-2.1
		s0.5-1.3,0.8-2c0.3-0.6,0.5-1.2,0.8-1.8c0.1-0.2,0.2-0.3,0.2-0.5c0.3-0.5,0.5-1.1,0.8-1.6c0.3-0.7,0.6-1.3,1-1.9
		c0.3-0.6,0.6-1.2,1-1.8v-0.1c0.4-0.6,0.7-1.3,1.1-1.9s0.7-1.2,1.1-1.9c0.7-1.2,1.5-2.4,2.3-3.6c0.4-0.6,0.8-1.2,1.2-1.8
		c0,0,0-0.1,0.1-0.1c0.8-1.1,1.6-2.2,2.5-3.3c0.4-0.6,0.9-1.1,1.3-1.7s0.9-1.1,1.4-1.6s0.9-1.1,1.4-1.6s1-1.1,1.5-1.6s1-1,1.5-1.5
		c0.9-0.9,1.9-1.8,2.9-2.7c0.1-0.1,0.2-0.2,0.3-0.3c0.5-0.4,1-0.9,1.5-1.3s1-0.8,1.4-1.2c0.2-0.1,0.3-0.3,0.5-0.4
		c0.3-0.3,0.7-0.6,1-0.8c0.3-0.2,0.5-0.4,0.8-0.6c0.5-0.4,1-0.8,1.5-1.1c1-0.7,2-1.4,3-2.1c0.5-0.3,1-0.7,1.5-1
		c0.2-0.1,0.4-0.3,0.6-0.4l0.6-0.4c0.6-0.4,1.2-0.8,1.9-1.1c0.6-0.4,1.3-0.7,1.9-1.1c0.6-0.3,1.2-0.7,1.8-1c0.6-0.3,1.3-0.7,1.9-1
		c0.8-0.4,1.7-0.8,2.5-1.2c0.1-0.1,0.3-0.1,0.4-0.2c0.1,0,0.2-0.1,0.3-0.1c0.2-0.1,0.4-0.2,0.6-0.3c0.4-0.2,0.9-0.4,1.3-0.6
		s0.9-0.4,1.3-0.5c0.4-0.2,0.7-0.3,1.1-0.5c0.1,0,0.1,0,0.2-0.1c0.4-0.2,0.9-0.3,1.3-0.5c0.4-0.1,0.8-0.3,1.1-0.4c0,0,0,0,0.1,0h0.1
		c0.4-0.2,0.9-0.3,1.3-0.4c0.5-0.2,0.9-0.3,1.4-0.5c0.3-0.1,0.6-0.2,0.9-0.3c0.1,0,0.2-0.1,0.2-0.1c0.2-0.1,0.5-0.1,0.7-0.2
		c0.8-0.2,1.5-0.4,2.3-0.6c0.9-0.2,1.8-0.5,2.8-0.7c0.5-0.1,1.1-0.3,1.7-0.4c0.5-0.1,1.1-0.2,1.6-0.3c0.5-0.1,1-0.2,1.5-0.3
		c0.6-0.1,1.2-0.2,1.8-0.3c0.7-0.1,1.5-0.2,2.2-0.3c1.5-0.2,3.1-0.4,4.7-0.5c0.7,0,1.4-0.1,2.1-0.1c0,0,0.1,0,0.2,0
		c0.6,0,1.1,0,1.7-0.1c0.1,0,0.2,0,0.3,0c0.1,0,0.2,0,0.4,0C336,1748.4,336.7,1748.4,337.4,1748.4L337.4,1748.4L337.4,1748.4
		L337.4,1748.4 M355.7,1883.5c3.4,0,6.8-0.2,10.1-0.6c10.2-1.2,15.6-6.1,17.4-15.7c2-10.7,3.6-21.5,4.8-32.3c1-8.8-2.1-12-10.8-12.2
		c-1.6,0-3.3,0-5,0c-4.5,0-8.9,0.1-13.4,0.1c-0.6,0-1.1,0-1.7,0c-5.6,0-9.3-2.2-9.8-8.5c-0.4-5.1-1.5-10.1-2.3-15.2
		c-1.1-6.2-5.2-10.3-10-10.3c-0.8,0-1.6,0.1-2.3,0.3c-7.3,2.1-4.6,7.5-3.5,12.1c2.1,8.5,2.6,16.9-5.1,22.6
		c-9.1,6.7-10.5,15.4-9.4,25.5c0.2,1.8,0,3.6,0,5.3v19.4c0,2.3,0.3,4.5,3.2,5C330.6,1881.1,343,1883.5,355.7,1883.5 M295.3,1880.7
		c1.2,0,2.6,0,4.2,0c1.3,0,2.6,0,4.2,0c0.1,0,0.2,0,0.3,0c4.7,0,6.4-2.1,6.3-6.8c-0.2-10.7,0-21.3-0.1-32c-0.1-16,1.8-16.7-9.5-16.7
		c-1.1,0-2.3,0-3.7,0c-1.3,0-2.6,0-4.1,0c-0.1,0-0.1,0-0.2,0c-4.5,0-6.1,2.2-6.1,6.5c0.1,7.1,0,14.2,0,21.3c0,3.8,0,7.6,0,11.3
		C286.7,1879.8,285.3,1880.7,295.3,1880.7 M337.4,1743.4L337.4,1743.4c-0.8,0-1.5,0-2.2,0c-0.2,0-0.3,0-0.5,0c-0.1,0-0.2,0-0.3,0
		c-0.5,0-1.1,0-1.6,0.1c-0.1,0-0.2,0-0.4,0c-0.7,0-1.4,0.1-2.1,0.1c-1.6,0.1-3.2,0.3-4.9,0.5c-0.8,0.1-1.6,0.2-2.3,0.3
		c-0.6,0.1-1.2,0.2-1.9,0.3c-0.6,0.1-1.1,0.2-1.6,0.3c-0.6,0.1-1.1,0.2-1.7,0.3l0,0l0,0c-0.6,0.1-1.2,0.3-1.8,0.4
		c-1,0.2-1.9,0.5-2.9,0.7c-0.7,0.2-1.5,0.4-2.4,0.7l-0.2,0.1c-0.1,0-0.2,0.1-0.4,0.1c-0.1,0-0.2,0.1-0.3,0.1h-0.1l-0.2,0.1
		c-0.2,0.1-0.4,0.1-0.6,0.2l-0.2,0.1c-0.5,0.2-1,0.3-1.6,0.5c-0.4,0.1-0.8,0.3-1.1,0.4c-0.1,0-0.2,0.1-0.3,0.1
		c-0.1,0-0.2,0.1-0.2,0.1c-0.3,0.1-0.6,0.2-0.9,0.3h-0.1h-0.1c-0.4,0.2-0.8,0.3-1.2,0.5h-0.1h-0.1l0,0l-0.1,0.1l-0.6,0.2l-0.5,0.2
		c-0.4,0.2-0.9,0.4-1.4,0.6c-0.4,0.2-0.9,0.4-1.3,0.6c-0.1,0.1-0.3,0.1-0.4,0.2l-0.2,0.1c-0.1,0.1-0.3,0.1-0.4,0.2h-0.1l-0.3,0.1
		c-0.9,0.4-1.8,0.8-2.6,1.3l0,0l0,0c-0.7,0.3-1.3,0.7-2,1c-0.6,0.3-1.2,0.7-1.9,1c-0.7,0.4-1.3,0.8-2,1.1c-0.7,0.4-1.3,0.8-2,1.2
		l-0.5,0.3c-0.2,0.1-0.4,0.3-0.7,0.4c-0.5,0.3-1.1,0.7-1.6,1.1c-1.1,0.7-2.2,1.5-3.1,2.2c-0.4,0.3-0.9,0.7-1.4,1l-0.1,0.1
		c-0.3,0.2-0.6,0.4-0.9,0.7c-0.3,0.3-0.7,0.5-1,0.8c-0.1,0.1-0.2,0.2-0.4,0.3l-0.1,0.1c-0.5,0.4-1,0.8-1.6,1.3
		c-0.5,0.5-1,0.9-1.5,1.3c-0.1,0.1-0.2,0.2-0.3,0.3l0,0c-1.1,1-2.1,1.9-3,2.9c-0.6,0.6-1.1,1.1-1.6,1.6c-0.6,0.6-1.1,1.1-1.5,1.6
		c-0.5,0.6-1,1.1-1.5,1.7l0,0l0,0l-0.3,0.4c-0.4,0.4-0.7,0.9-1.1,1.3c-0.5,0.6-0.9,1.2-1.4,1.7c-0.9,1.1-1.8,2.3-2.6,3.5v0.1v0.1
		l0,0c-0.4,0.6-0.8,1.2-1.3,1.8c-0.8,1.2-1.7,2.5-2.4,3.8c-0.4,0.6-0.8,1.3-1.1,1.9l0,0l0,0c-0.3,0.6-0.7,1.2-1,1.8l0,0l-0.1,0.2
		c-0.3,0.6-0.7,1.3-1,1.9s-0.7,1.3-1,2.1c-0.3,0.5-0.5,1.1-0.8,1.7c-0.1,0.2-0.2,0.4-0.3,0.6c-0.3,0.6-0.5,1.2-0.8,1.9
		c-0.3,0.7-0.6,1.4-0.9,2.1c-0.4,0.9-0.6,1.6-0.9,2.3l-0.1,0.3l-0.1,0.3c-0.2,0.5-0.4,1-0.5,1.5c-0.2,0.6-0.4,1.2-0.6,1.7
		c-0.1,0.2-0.2,0.5-0.2,0.7c-0.2,0.7-0.4,1.3-0.6,2c-0.2,0.6-0.3,1.2-0.5,1.8c-0.1,0.2-0.1,0.4-0.2,0.7c-0.2,0.7-0.3,1.4-0.5,2
		c-0.2,0.7-0.3,1.3-0.4,1.9c-0.1,0.2-0.1,0.4-0.1,0.7c-0.1,0.6-0.2,1.1-0.3,1.7v0.3c-0.1,0.8-0.3,1.6-0.4,2.3
		c-0.1,0.7-0.2,1.3-0.3,2v0.1l0,0l0,0v0.3v0.2c-0.1,0.7-0.2,1.4-0.2,2.1c-0.1,0.8-0.1,1.5-0.2,2.2c0,0.1,0,0.2,0,0.3
		c0,0.1,0,0.2,0,0.3c0,0.6-0.1,1.2-0.1,1.9v0.1v0.1c0,0.8-0.1,1.5-0.1,2.3s0,1.6,0,2.4c0,0.4,0,0.7,0,1.1c0,0.7,0,1.3,0,2v0.1v0.1
		c0,0.1,0,0.2,0,0.3v0.1v0.1c0,0.7,0.1,1.4,0.1,2l0,0l0,0c0,0.2,0,0.3,0,0.5s0,0.4,0,0.6v0.6v0.6c0.1,0.8,0.1,1.5,0.2,2.2
		c0,0.1,0,0.2,0,0.3l0,0v0.1l0,0c0.1,0.7,0.2,1.4,0.3,2.2l0,0l0,0c0.1,0.7,0.2,1.4,0.3,2.2l0.1,0.6l0.1,0.6v0.1v0.1l0.1,0.4
		c0,0.2,0.1,0.4,0.1,0.7c0.1,0.7,0.3,1.5,0.5,2.3c0.2,0.7,0.3,1.3,0.5,2c0.4,1.5,0.8,3.1,1.2,4.7c0.1,0.4,0.2,0.7,0.3,1.1l0.2,0.5
		l0.2,0.5c0.2,0.7,0.5,1.4,0.7,2.2c0.1,0.4,0.3,0.8,0.4,1.1c0.1,0.4,0.3,0.7,0.4,1.1l0.1,0.4c0.2,0.6,0.4,1.1,0.7,1.7
		s0.5,1.3,0.9,2.1c0.3,0.6,0.6,1.3,0.9,2l0.1,0.2v0.1v0.1c0.3,0.6,0.6,1.2,0.8,1.7c0.3,0.5,0.5,1,0.7,1.4c0.1,0.1,0.1,0.3,0.2,0.4
		c0,0.1,0.1,0.2,0.1,0.2c0.3,0.5,0.5,1,0.7,1.4l0.3,0.5c0.2,0.3,0.3,0.5,0.5,0.8c0.4,0.8,0.9,1.6,1.5,2.6c0.2,0.3,0.5,0.8,0.8,1.3
		c0.2,0.3,0.3,0.5,0.5,0.8c0.1,0.1,0.2,0.3,0.3,0.4l0,0l0,0l0.1,0.2c0.2,0.4,0.5,0.8,0.7,1.1l0.2,0.3c0.2,0.3,0.5,0.7,0.7,1
		c0.3,0.4,0.5,0.8,0.8,1.1c0.3,0.4,0.6,0.8,0.9,1.2l0,0l0,0l0.3,0.3c0.2,0.3,0.4,0.6,0.7,0.9c0.4,0.5,0.8,1,1.2,1.5l0,0l0,0
		c0.2,0.2,0.4,0.4,0.5,0.7v0.1v0.1l0.7,0.8l0.3,0.4l0.1,0.2c0.3,0.3,0.6,0.7,0.9,1c0.4,0.5,0.8,0.9,1.2,1.3c0.4,0.5,0.8,0.9,1.2,1.3
		c0.3,0.3,0.5,0.5,0.8,0.8c0.8,0.8,1.5,1.5,2.2,2.1c0.7,0.7,1.5,1.4,2.2,2.1c0.5,0.4,1,0.9,1.6,1.4c1.3,1.1,2.4,2,3.6,2.9
		c0.6,0.5,1.2,0.9,1.7,1.3l0.1,0.1l0,0l0.1,0.1c0.4,0.3,0.8,0.6,1.2,0.8c0.1,0.1,0.2,0.1,0.2,0.2l0.1,0.1h0.1h0.1l0.2,0.1
		c0.1,0.1,0.2,0.1,0.3,0.2l0.3,0.2c0.3,0.2,0.7,0.5,1,0.7c0.7,0.4,1.3,0.8,1.9,1.2c0.6,0.4,1.3,0.8,1.9,1.2c0.5,0.3,1.1,0.7,1.6,1
		l0,0l0,0h0.1l0.2,0.1c0.6,0.4,1.3,0.7,1.9,1.1c0.6,0.3,1.2,0.6,1.8,0.9c0.7,0.4,1.5,0.7,2.2,1.1c0.6,0.3,1.3,0.6,1.9,0.9
		c0.1,0,0.2,0.1,0.3,0.1l0.2,0.1c0.6,0.3,1.2,0.5,1.8,0.8c0.7,0.3,1.4,0.6,2.1,0.8l0,0l0,0c0.8,0.3,1.6,0.6,2.3,0.9
		c1.1,0.4,2.2,0.8,3.6,1.2c1,0.3,2.1,0.6,3.1,0.9c0.6,0.2,1.3,0.4,2,0.5c0.7,0.2,1.5,0.4,2.2,0.5c0.4,0.1,0.8,0.2,1.2,0.3
		c0.2,0.1,0.4,0.1,0.7,0.1c0.4,0.1,0.8,0.2,1.2,0.2c0.6,0.1,1.2,0.2,1.8,0.3c0.5,0.1,1,0.2,1.5,0.3h0.2c0.3,0.1,0.7,0.1,1,0.1
		c0.2,0,0.3,0,0.5,0.1c0.2,0,0.3,0,0.5,0.1c0.1,0,0.3,0,0.4,0.1c0.1,0,0.2,0,0.3,0c0.7,0.1,1.5,0.2,2.2,0.3h0.2l0,0
		c0.1,0,0.3,0,0.4,0c0.6,0.1,1.2,0.1,1.9,0.2c0.6,0.1,1.3,0.1,1.9,0.1c0.3,0,0.7,0,1,0.1c0.1,0,0.1,0,0.2,0c0.6,0,1.1,0,1.7,0.1
		c0.8,0,1.6,0,2.4,0c0.4,0,0.8,0,1.3,0s1.1,0,1.7,0c0.3,0,0.6,0,0.8,0h0.1c0.7,0,1.4-0.1,2-0.1c0.8-0.1,1.6-0.1,2.4-0.2
		s1.6-0.1,2.3-0.2c0.8-0.1,1.5-0.2,2.2-0.3c0.7-0.1,1.3-0.2,1.9-0.3l0,0c0.3,0,0.5-0.1,0.8-0.1h0.1l0,0h0.2c0.4-0.1,0.9-0.2,1.3-0.2
		l0,0h0.2c0.1,0,0.1,0,0.2,0h0.1c0.5-0.1,1-0.2,1.5-0.3c0.1,0,0.2,0,0.3-0.1c0.2,0,0.3-0.1,0.5-0.1c0.7-0.2,1.4-0.3,2.1-0.5
		c0.8-0.2,1.6-0.4,2.3-0.6c0.7-0.2,1.4-0.4,2.2-0.6c0.6-0.2,1.2-0.4,1.9-0.6h0.1h0.1h0.1c0.1,0,0.2-0.1,0.3-0.1
		c0.6-0.2,1.3-0.4,1.9-0.6c0.7-0.2,1.4-0.5,2.2-0.8c0.6-0.2,1.3-0.5,1.9-0.7c0.2-0.1,0.3-0.1,0.4-0.2c0.5-0.2,1-0.4,1.5-0.6l0,0l0,0
		l0.4-0.2l0.4-0.2c0.5-0.2,0.9-0.4,1.4-0.6s1-0.5,1.5-0.7c0.4-0.2,0.8-0.4,1.3-0.6c0.4-0.2,0.9-0.5,1.4-0.7c0.3-0.2,0.7-0.4,1-0.5
		l0.3-0.2c0.5-0.3,1-0.6,1.5-0.8c0.8-0.4,1.5-0.9,2.3-1.3c0.1-0.1,0.2-0.1,0.4-0.2c0.7-0.4,1.3-0.8,1.8-1.2c0.9-0.6,1.8-1.2,2.9-1.9
		c0.8-0.5,1.5-1.1,2.2-1.6c0.8-0.6,1.5-1.1,2.2-1.6l0.3-0.2c0.3-0.2,0.5-0.4,0.8-0.6l0,0l0.2-0.1l0.1-0.1l0.2-0.1l0.2-0.1
		c0.1-0.1,0.1-0.1,0.2-0.2l0.2-0.2l0,0l0,0l0.1-0.1l0.1-0.1c1.2-1,2.4-2.1,3.7-3.3l0.7-0.6v-0.1c0.4-0.4,0.9-0.8,1.3-1.2
		c0.6-0.5,1.1-1.1,1.8-1.8c0.1-0.1,0.2-0.2,0.3-0.3c0.3-0.3,0.5-0.5,0.7-0.8l0.1-0.1c0.1-0.1,0.2-0.2,0.3-0.3
		c0.1-0.2,0.3-0.3,0.4-0.5l0.2-0.2c0.2-0.3,0.5-0.6,0.8-0.8c0.3-0.4,0.7-0.8,1-1.2l0,0l0.1-0.2c0.4-0.5,0.8-1,1.3-1.5l0,0v-0.1
		c0.1-0.1,0.1-0.2,0.2-0.3l0,0l0,0l0.1-0.2l0.3-0.4l0.2-0.2l0.4-0.4l0.2-0.3c0.1-0.2,0.3-0.3,0.4-0.5c0-0.1,0.1-0.1,0.1-0.2
		c0.1-0.2,0.3-0.4,0.4-0.6l0.1-0.2l0.1-0.1c0.1-0.1,0.1-0.2,0.2-0.2c0.2-0.3,0.4-0.5,0.6-0.8l0.2-0.3l0.3-0.4
		c0.3-0.5,0.7-0.9,0.9-1.4c0.3-0.4,0.5-0.8,0.8-1.1c0.7-1.1,1.4-2.2,2.1-3.3c0.2-0.4,0.4-0.8,0.7-1.1c0.1-0.2,0.2-0.4,0.3-0.6l1-1
		v-0.8c0-0.1,0.1-0.1,0.1-0.2c0.2-0.5,0.5-0.9,0.7-1.4l0,0l0,0l0.2-0.4l0.1-0.1l0.1-0.2l0,0c0.1-0.3,0.3-0.6,0.4-0.9
		c0.5-1.1,0.9-1.9,1.3-2.7c0.1-0.3,0.3-0.7,0.4-1c0.1-0.2,0.1-0.3,0.2-0.5c0.2-0.4,0.3-0.8,0.5-1.2c0.2-0.4,0.4-0.9,0.5-1.3
		c0.2-0.4,0.4-0.9,0.5-1.3c0.2-0.6,0.5-1.3,0.8-2.1c0.4-1.1,0.8-2.2,1.2-3.6c0.2-0.7,0.4-1.3,0.6-2c0-0.2,0.1-0.3,0.1-0.5v-0.1v-0.1
		l0.1-0.5c0.1-0.4,0.2-0.8,0.3-1.2c0.2-0.7,0.4-1.5,0.5-2.2c0.1-0.5,0.2-1.1,0.4-1.6c0.1-0.5,0.2-1,0.3-1.5c0.2-0.9,0.3-1.8,0.5-2.9
		c0-0.2,0.1-0.4,0.1-0.6s0-0.3,0.1-0.5v-0.1v-0.1c0.1-0.7,0.2-1.3,0.3-2c0.1-0.7,0.2-1.3,0.2-2l0,0v-0.1c0-0.2,0-0.4,0.1-0.6
		c0.1-0.7,0.1-1.4,0.2-2c0-0.6,0.1-1.1,0.1-1.6s0.1-1,0.1-1.4c0-0.6,0.1-1.3,0.1-1.9c0-0.7,0-1.4,0-2.2c0-0.7,0-1.4,0-2
		c0-0.3,0-0.6,0-1c0-0.6,0-1.2-0.1-1.8l0,0l0,0l-0.1-1.1c0-0.4,0-0.8-0.1-1.2v-0.2v-0.1c0-0.3-0.1-0.7-0.1-1v-0.5v-0.1v-0.1
		c0-0.1,0-0.2,0-0.3c0-0.1,0-0.3,0-0.4c-0.1-0.6-0.1-1.1-0.2-1.7v-0.1c0-0.3-0.1-0.7-0.1-1c-0.1-0.5-0.1-1-0.2-1.4
		c-0.1-0.7-0.2-1.5-0.4-2.3c-0.1-0.4-0.1-0.7-0.2-1.1v-0.2v-0.1c-0.1-0.5-0.2-1-0.3-1.6c-0.1-0.7-0.3-1.3-0.4-2.1
		c-0.1-0.7-0.3-1.4-0.5-2.1c-0.2-1-0.5-1.8-0.7-2.7c-0.1-0.5-0.3-1-0.5-1.5c-0.1-0.2-0.1-0.4-0.2-0.6c-0.2-0.6-0.4-1.3-0.6-1.9
		c-0.1-0.3-0.2-0.7-0.3-1l-0.2-0.4c-0.1-0.3-0.2-0.5-0.3-0.8l-0.1-0.2l0,0c-0.1-0.2-0.2-0.5-0.3-0.7l0,0l-0.3-0.9
		c-0.3-0.7-0.5-1.3-0.8-2c-0.1-0.3-0.2-0.5-0.3-0.7c-0.3-0.7-0.6-1.4-0.9-2c-0.1-0.1-0.1-0.3-0.3-0.5c-0.3-0.6-0.5-1.2-0.8-1.7
		c-0.1-0.2-0.2-0.4-0.3-0.6c-0.3-0.7-0.7-1.4-1.1-2.1c-0.4-0.9-0.9-1.7-1.3-2.5c-0.6-1-1.2-2-1.8-3l0,0l0,0c0-0.1-0.1-0.1-0.1-0.2
		v-3.5H415c-0.1-0.1-0.1-0.2-0.2-0.3c-0.1-0.1-0.1-0.2-0.2-0.3c-0.1-0.1-0.2-0.2-0.3-0.4c-0.5-0.7-0.9-1.3-1.3-1.9s-0.8-1.1-1.2-1.7
		c-0.1-0.2-0.2-0.3-0.3-0.5c-0.2-0.2-0.3-0.4-0.4-0.6c-0.4-0.5-0.8-1-1.3-1.6c-0.3-0.4-0.6-0.7-0.9-1.1s-0.6-0.7-0.9-1.1l-0.2-0.2
		l0,0l0,0c-0.5-0.6-1-1.2-1.6-1.8c-0.7-0.7-1.3-1.4-1.9-2s-1.1-1.1-1.8-1.7c-0.1-0.1-0.2-0.2-0.4-0.4c-1.2-1.2-2.4-2.3-3.6-3.3
		c-0.2-0.2-0.3-0.3-0.5-0.4c-0.4-0.4-0.9-0.7-1.3-1.1c-0.3-0.3-0.6-0.5-0.9-0.7c-0.5-0.4-1.1-0.9-1.6-1.3l-0.1-0.1
		c-0.6-0.5-1.2-0.9-2.1-1.5c-0.7-0.5-1.5-1.1-2.3-1.6c-0.5-0.3-1.1-0.7-1.6-1c-0.1,0-0.1-0.1-0.2-0.1c-0.4-0.2-0.8-0.5-1.2-0.7
		c-0.3-0.2-0.5-0.3-0.7-0.4l-0.1-0.1c0,0-0.1,0-0.1-0.1c-0.2-0.1-0.3-0.2-0.5-0.3l-0.2-0.1l-0.1-0.1l-0.1-0.1l-0.3-0.2l-0.2-0.1
		c-0.1-0.1-0.3-0.2-0.4-0.2s-0.1-0.1-0.2-0.1c-0.3-0.2-0.7-0.4-1-0.6c-0.1-0.1-0.2-0.1-0.3-0.2l-0.2-0.1c-0.6-0.4-1.3-0.7-1.9-1l0,0
		l-0.3-0.1c-0.6-0.3-1.1-0.6-1.7-0.9l-0.5-0.2l-0.3-0.2c-0.6-0.3-1.2-0.6-1.8-0.8c-0.6-0.3-1.2-0.5-1.8-0.8c-0.3-0.1-0.7-0.3-1-0.4
		l0,0l0,0l-0.4-0.1c-0.2-0.1-0.4-0.2-0.7-0.3c-0.7-0.3-1.4-0.6-2.1-0.8l0,0l0,0l-0.2-0.1c-0.5-0.2-1-0.4-1.5-0.5l-0.4-0.1l-0.2-0.1
		l-0.8-0.3c-0.2-0.1-0.4-0.1-0.6-0.2c-0.2,0-0.3-0.1-0.5-0.1h-0.1h-0.1c-0.7-0.2-1.5-0.4-2.2-0.6c-0.6-0.2-1.3-0.4-2-0.5l-0.3-0.1
		h-0.2l0,0l0,0c-0.7-0.2-1.3-0.3-2-0.5h-0.1h-0.1l0,0c-0.1,0-0.2-0.1-0.4-0.1l-0.5-0.1l-0.6-0.1h-0.1h-0.1h-0.2
		c-0.1,0-0.3-0.1-0.4-0.1c-0.4-0.1-0.9-0.2-1.3-0.3h-0.1h-0.1c-0.1,0-0.2,0-0.2,0c-0.1,0-0.3-0.1-0.4-0.1H354l0,0
		c-0.1,0-0.1,0-0.2,0c-0.3-0.1-0.7-0.1-1-0.2s-0.7-0.1-1.1-0.2c-0.7-0.1-1.4-0.2-2.1-0.3c-0.1,0-0.2,0-0.3,0c0,0,0,0-0.1,0l0,0l0,0
		h-0.1H349c-0.4,0-0.7-0.1-1.1-0.1h-0.4h-0.3c-0.2,0-0.3,0-0.4,0h-0.1c-0.2,0-0.5-0.1-0.8-0.1s-0.6-0.1-0.9-0.1c-0.2,0-0.4,0-0.6,0
		c-0.7-0.1-1.3-0.1-1.9-0.1c-0.7,0-1.3-0.1-2-0.1c-0.3,0-0.6,0-0.9,0C338.8,1743.4,338.1,1743.4,337.4,1743.4L337.4,1743.4z
		 M332.8,1794.5c0.2-0.1,0.5-0.3,1.3-0.5c0.3-0.1,0.7-0.1,1-0.1c2.3,0,4.5,2.6,5.1,6.2c0.2,1.1,0.4,2.3,0.6,3.4
		c0.7,3.9,1.4,7.6,1.7,11.2c0.4,4.9,2.8,13.1,14.7,13.1c0.6,0,1.2,0,1.7,0c2.3,0,4.5,0,6.7,0s4.4,0,6.6,0c1.8,0,3.4,0,4.8,0
		c4,0.1,5.1,0.9,5.4,1.2c0.3,0.3,0.9,1.5,0.5,5.4c-1.1,10.3-2.7,20.7-4.7,32c-1.4,7.4-5,10.6-13.1,11.6c-3.1,0.4-6.2,0.5-9.6,0.5
		c-10.4,0-20.5-1.7-31.2-3.5c-1.5-0.3-3.1-0.5-4.6-0.8c0-0.1,0-0.1,0-0.2v-19.4c0-0.5,0-1,0-1.5c0-1.3,0.1-2.8-0.1-4.4
		c-1.2-10.3,0.9-16.2,7.4-20.9c11.7-8.6,8.3-22.6,7-27.8c-0.2-0.6-0.3-1.3-0.5-1.9C333.3,1797,332.8,1795.2,332.8,1794.5
		L332.8,1794.5z M291.7,1830.3c0.2,0,0.5-0.1,1-0.1h0.1c1.5,0,2.9,0,4.2,0c0.7,0,1.4,0,2.1,0h1.6c1.1,0,3.2,0,4.5,0.1
		c0.1,1.2,0.1,3.4,0.1,5.5c0,1.8,0,3.7,0,6.1c0,4.5,0,9.1,0,13.6c0,6,0,12.3,0.1,18.5c0,0.8-0.1,1.3-0.1,1.6c-0.2,0-0.6,0.1-1.2,0.1
		h-0.2c-1.4,0-2.7,0-4.3,0l0,0c-0.8,0-1.6,0-2.4,0c-0.6,0-1.2,0-1.8,0c-0.8,0-2.5,0-3.6-0.1c-0.1-1.3-0.1-3.8-0.1-6.2
		c0-1.5,0-3.2,0-5.1c0-2.5,0-5,0-7.5v-3.8c0-2.2,0-4.3,0-6.5c0-4.9,0-9.9,0-14.9C291.6,1831,291.6,1830.5,291.7,1830.3L291.7,1830.3
		z"/>
</g>
<line class="st1" x1="445.4" y1="1692.8" x2="227" y2="1692.8"/>
<rect x="233.1" y="1697.6" class="st0" width="227" height="252.4"/>
<path class="st2" d="M284.6,1902.1l27.5-26.4c1.2-1.2,2.8-1.7,4.3-1.7h27.2c-4.9,2.4-9,6-12.1,12.5h-12.6l-35.9,34.4
	c-1.1,1.3-2.8,2.1-4.6,2.1c-3.5,0-6.3-2.8-6.3-6.3v-30.2h-18.5c-4.2,0-8-1.7-10.7-4.5c-2.8-2.8-4.5-6.6-4.5-10.7v-112.2
	c0-4.1,1.7-7.9,4.5-10.7c2.7-2.8,6.5-4.5,10.7-4.5h142.2c4.1,0,8,1.7,10.7,4.5c2.7,2.7,4.5,6.5,4.5,10.7v38.6
	c-4-2.8-8.2-4.5-12.5-5.2v-33.3c0-0.7-0.3-1.4-0.8-1.9s-1.2-0.8-1.9-0.8H253.6c-0.7,0-1.4,0.3-1.9,0.8s-0.8,1.2-0.8,1.9v112.2
	c0,0.7,0.3,1.4,0.8,1.9s1.2,0.8,1.9,0.8h24.8c3.5,0,6.3,2.8,6.3,6.3L284.6,1902.1L284.6,1902.1z M343,1909.4c-0.9,0-1.6-0.7-1.6-1.6
	c0-0.5,0.1-0.9,0.2-1.3c2.5-20,11.4-20.3,22.5-23.2c3.3-0.9,9.4-2.7,12.9-5.8c1.9-1.7,3.1-3.8,2.6-6.3c-2.7-2.5-4.8-5.2-5.2-10.3
	h-0.3c-0.7,0-1.5-0.2-2.1-0.6c-1.5-0.8-2.3-2.5-2.7-4.3c-0.5-2.2-1-8.5,2-9.8l0,0c-0.4-6.9,0.8-17.9-6.3-20.1
	c14.1-17.4,30.3-26.8,42.5-11.4c13.6,0.7,19.6,20.7,11.2,31.5h-0.4c3,1.3,2.4,7.6,2,9.8c-0.4,1.8-1.2,3.5-2.7,4.3
	c-0.7,0.4-1.4,0.5-2.1,0.6h-0.3c-0.5,5.1-2.5,7.8-5.2,10.3c-0.5,2.5,0.7,4.6,2.6,6.3c3.5,3.1,9.6,4.9,12.9,5.8
	c11.1,2.9,20,3.3,22.5,23.2c0.1,0.4,0.2,0.9,0.2,1.3c0,0.9-0.7,1.6-1.6,1.6H343L343,1909.4z M281.3,1800.1c-3.5,0-6.3-2.8-6.3-6.3
	s2.8-6.3,6.3-6.3h85.2c3.5,0,6.3,2.8,6.3,6.3s-2.8,6.3-6.3,6.3H281.3L281.3,1800.1z M281.3,1837.1c-3.5,0-6.3-2.8-6.3-6.3
	s2.8-6.2,6.3-6.2h58c3.5,0,6.3,2.8,6.3,6.2c0,3.5-2.8,6.3-6.3,6.3H281.3L281.3,1837.1z"/>
<g>
	<path class="st3" d="M288.9,1613.6h80.8v10.4h-80.8V1613.6z"/>
	<path class="st3" d="M284.6,1594.6V1584h36.2v-0.2c-3-1.7-5.6-4.3-7.4-7.6c-1.8-3.1-3-6.8-3-10.8c0-7.8,4.8-20.3,24.8-20.3h34.5
		v10.6h-33.3c-9.4,0-17.3,3.5-17.3,13.4c0,6.8,4.8,12.2,10.5,14.2c1.4,0.6,3,0.7,5,0.7h35v10.6L284.6,1594.6L284.6,1594.6z"/>
	<path class="st3" d="M329.8,1528c-6.8,0-12.7,0.1-18.1,0.5v-9.2l11.4-0.4v-0.5c-7.8-2.6-12.7-9-12.7-16.1c0-1.2,0.1-2,0.4-3h10
		c-0.2,1.1-0.4,2.2-0.4,3.6c0,7.4,5.6,12.7,13.5,14.2c1.4,0.2,3.1,0.5,4.9,0.5h30.9v10.4L329.8,1528L329.8,1528z"/>
	<path class="st3" d="M342.6,1484.1c14.3-0.2,20.1-9.3,20.1-19.9c0-7.6-1.3-12.1-3-16.1l7.5-1.8c1.7,3.7,3.6,10.1,3.6,19.3
		c0,17.9-11.8,28.5-29.3,28.5s-31.3-10.3-31.3-27.2c0-18.9,16.7-24,27.3-24c2.2,0,3.8,0.2,4.9,0.4L342.6,1484.1L342.6,1484.1z
		 M335.1,1453.2c-6.7-0.1-17.2,2.8-17.2,14.6c0,10.7,9.8,15.3,17.2,16.2V1453.2z"/>
	<path class="st3" d="M334.2,1310.6c-11.3,0.6-24.8,1.3-34.9,1.2v0.4c9.5,2.8,19.5,6.1,30.7,10.2l39.2,14.3v7.9l-38.5,13.1
		c-11.4,3.8-21.8,7.1-31.4,9.3v0.2c10.1,0.2,23.6,0.8,35.7,1.6l34.6,2.2v9.9l-80.8-5.6v-13.3l39.1-13.8c10-3.4,18.8-6.1,27.2-8.2
		v-0.4c-8.1-2-17-4.9-27.2-8.5l-39.1-14.4v-13.3l80.8-5v10.2L334.2,1310.6z"/>
	<path class="st3" d="M342.6,1276.1c14.3-0.2,20.1-9.3,20.1-19.9c0-7.6-1.3-12.1-3-16.1l7.5-1.8c1.7,3.7,3.6,10.1,3.6,19.3
		c0,17.9-11.8,28.5-29.3,28.5s-31.3-10.3-31.3-27.2c0-18.9,16.7-24,27.3-24c2.2,0,3.8,0.2,4.9,0.4L342.6,1276.1L342.6,1276.1z
		 M335.1,1245.2c-6.7-0.1-17.2,2.8-17.2,14.6c0,10.7,9.8,15.3,17.2,16.2V1245.2z"/>
	<path class="st3" d="M295.4,1210.2c3.6-0.1,6.5,2.5,6.5,6.7c0,3.7-2.9,6.3-6.5,6.3c-3.7,0-6.6-2.8-6.6-6.6
		C288.8,1212.7,291.7,1210.2,295.4,1210.2z M369.7,1221.9h-58v-10.6h58L369.7,1221.9L369.7,1221.9z"/>
	<path class="st3" d="M327.4,1193.9c-6,0-10.9,0.1-15.7,0.5v-9.3l9.6-0.6v-0.2c-5.5-2.9-10.9-9.6-10.9-19.2c0-8,4.8-20.5,24.7-20.5
		h34.6v10.6h-33.5c-9.3,0-17.1,3.5-17.1,13.4c0,6.9,4.9,12.3,10.8,14.2c1.3,0.5,3.1,0.7,4.9,0.7h34.9v10.5H327.4z"/>
	<path class="st3" d="M353.9,1078.8c6,0,11.3-0.1,15.8-0.5v9.3l-9.5,0.6v0.2c4.7,2.8,10.8,8.9,10.8,19.2c0,9.1-5,20-25.4,20h-33.9
		v-10.6h32.1c11,0,18.5-3.4,18.5-12.9c0-7.1-4.9-12-9.6-13.9c-1.6-0.6-3.5-1-5.4-1h-35.6v-10.6L353.9,1078.8L353.9,1078.8z"/>
	<path class="st3" d="M327.4,1061.3c-6,0-10.9,0.1-15.7,0.5v-9.3l9.6-0.6v-0.2c-5.5-2.9-10.9-9.6-10.9-19.2c0-8,4.8-20.5,24.7-20.5
		h34.6v10.6h-33.5c-9.3,0-17.1,3.5-17.1,13.4c0,7,4.9,12.3,10.8,14.2c1.3,0.5,3.1,0.7,4.9,0.7h34.9v10.6L327.4,1061.3L327.4,1061.3z
		"/>
	<path class="st3" d="M311.7,944.7c4.2,0.2,8.9,0.5,16,0.5h33.7c13.3,0,21.5,2.6,26.5,8.3c5.3,5.6,7,13.8,7,21.1
		c0,7-1.7,14.6-4.8,19.3l-8-2.6c2.4-3.8,4.6-9.8,4.6-17c0-10.8-5.6-18.7-20.3-18.7h-6.5v0.2c5.4,3.2,9.7,9.5,9.7,18.5
		c0,14.4-12.2,24.7-28.3,24.7c-19.7,0-30.8-12.8-30.8-26.1c0-10.1,5.3-15.6,10.1-18.1v-0.2l-8.8-0.5L311.7,944.7L311.7,944.7z
		 M334.6,955.6c-1.8,0-3.4,0.1-4.8,0.6c-6.1,1.9-11.1,7.1-11.1,14.8c0,10.1,8.5,17.3,21.9,17.3c11.4,0,20.9-5.8,20.9-17.2
		c0-6.5-4.1-12.3-10.8-14.6c-1.8-0.6-3.8-0.8-5.6-0.8L334.6,955.6L334.6,955.6z"/>
	<path class="st3" d="M295.4,865.1c3.6-0.1,6.5,2.5,6.5,6.7c0,3.7-2.9,6.4-6.5,6.4c-3.7,0-6.6-2.8-6.6-6.6
		C288.8,867.6,291.7,865.1,295.4,865.1z M369.7,876.9h-58v-10.5h58L369.7,876.9L369.7,876.9z"/>
	<path class="st3" d="M359,850.2c2-3.1,4.2-8.6,4.2-13.9c0-7.7-3.8-11.3-8.6-11.3c-5,0-7.8,3-10.7,10.8
		c-3.7,10.4-9.5,15.3-16.4,15.3c-9.3,0-17-7.5-17-20c0-5.9,1.7-11,3.6-14.3l7.7,2.6c-1.4,2.3-3.4,6.5-3.4,11.9
		c0,6.2,3.6,9.7,7.9,9.7c4.8,0,7-3.5,9.8-11c3.8-10.1,8.9-15.2,17.5-15.2c10.2,0,17.4,7.9,17.4,21.7c0,6.4-1.6,12.2-4,16.3
		L359,850.2z"/>
	<path class="st3" d="M295,788.6h16.7v-15.1h8v15.1H351c7.2,0,11.3-2,11.3-7.9c0-2.8-0.4-4.8-0.7-6.1l7.9-0.5c0.8,2,1.4,5.3,1.4,9.3
		c0,4.9-1.6,8.9-4.4,11.4c-3.1,3-8.3,4.1-15.1,4.1h-31.6v9h-8v-9h-13.9L295,788.6z"/>
	<path class="st3" d="M353.9,662.3c6,0,11.3-0.1,15.8-0.5v9.3l-9.5,0.6v0.2c4.7,2.8,10.8,8.9,10.8,19.2c0,9.1-5,20-25.4,20h-33.9
		v-10.5h32.1c11,0,18.5-3.4,18.5-13c0-7.1-4.9-12-9.6-13.9c-1.6-0.6-3.5-1-5.4-1h-35.6v-10.5L353.9,662.3L353.9,662.3z"/>
	<path class="st3" d="M327.4,644.8c-6,0-10.9,0.1-15.7,0.5v-9.3l9.6-0.6V635c-5.5-2.9-10.9-9.6-10.9-19.2c0-8,4.8-20.5,24.7-20.5
		h34.6v10.5h-33.5c-9.3,0-17.1,3.5-17.1,13.4c0,7,4.9,12.3,10.8,14.2c1.3,0.5,3.1,0.7,4.9,0.7h34.9v10.5L327.4,644.8L327.4,644.8z"
		/>
	<path class="st3" d="M359,579.6c2-3.1,4.2-8.6,4.2-13.9c0-7.7-3.8-11.3-8.6-11.3c-5,0-7.8,3-10.7,10.8
		c-3.7,10.4-9.5,15.3-16.4,15.3c-9.3,0-17-7.5-17-20c0-5.9,1.7-11,3.6-14.3l7.7,2.6c-1.4,2.3-3.4,6.5-3.4,11.9
		c0,6.2,3.6,9.7,7.9,9.7c4.8,0,7-3.5,9.8-11c3.8-10.1,8.9-15.2,17.5-15.2c10.2,0,17.4,7.9,17.4,21.7c0,6.4-1.6,12.2-4,16.3
		L359,579.6z"/>
	<path class="st3" d="M311.7,475.7l29.5-7.7c6.5-1.7,12.5-3.2,18.5-4.3v-0.4c-5.9-1.3-12.1-3.2-18.3-5.2l-29.6-9.5v-8.9l29-9
		c7-2.2,13.1-3.8,19-5.2v-0.4c-5.9-1-12-2.5-18.8-4.4l-29.1-8.3v-10.4l58,18.7v9.6l-27.7,8.9c-6.5,2-12.2,3.7-19.1,5.2v0.2
		c7,1.4,13,3.2,19.2,5.3l27.6,9.4v9.6l-58,17.5V475.7z"/>
	<path class="st3" d="M295.4,379.9c3.6-0.1,6.5,2.5,6.5,6.7c0,3.7-2.9,6.4-6.5,6.4c-3.7,0-6.6-2.8-6.6-6.6
		C288.8,382.4,291.7,379.9,295.4,379.9z M369.7,391.7h-58v-10.5h58L369.7,391.7L369.7,391.7z"/>
	<path class="st3" d="M367.6,322.2c1.4,2.8,3.4,8.9,3.4,16.7c0,17.5-11.9,28.9-29.6,28.9c-17.9,0-30.8-12.2-30.8-31.2
		c0-6.2,1.6-11.8,3-14.6l8.1,2.4c-1.4,2.5-2.8,6.5-2.8,12.2c0,13.3,9.8,20.5,21.9,20.5c13.4,0,21.7-8.6,21.7-20.1c0-6-1.6-10-2.9-13
		L367.6,322.2z"/>
	<path class="st3" d="M284.6,309.9v-10.5h36.2v-0.2c-3-1.7-5.6-4.3-7.4-7.5c-1.8-3.1-3-6.8-3-10.8c0-7.8,4.8-20.3,24.8-20.3h34.5
		V271h-33.3c-9.4,0-17.3,3.5-17.3,13.4c0,6.8,4.8,12.2,10.5,14.1c1.4,0.6,3,0.7,5,0.7h35v10.5L284.6,309.9L284.6,309.9z"/>
	<path class="st3" d="M295,231.1h16.7V216h8v15.1H351c7.2,0,11.3-2,11.3-7.9c0-2.8-0.4-4.8-0.7-6.1l7.9-0.5c0.8,2,1.4,5.3,1.4,9.4
		c0,4.9-1.6,8.9-4.4,11.4c-3.1,3-8.3,4.1-15.1,4.1h-31.6v9h-8v-9h-13.9L295,231.1z"/>
	<path class="st3" d="M295.4,192.4c3.6-0.1,6.5,2.5,6.5,6.7c0,3.7-2.9,6.4-6.5,6.4c-3.7,0-6.6-2.8-6.6-6.6
		C288.8,194.9,291.7,192.4,295.4,192.4z M369.7,204.1h-58v-10.6h58L369.7,204.1L369.7,204.1z"/>
	<path class="st3" d="M311.7,126.1c4.2,0.2,8.9,0.5,16,0.5h33.7c13.3,0,21.5,2.6,26.5,8.3c5.3,5.6,7,13.8,7,21.1
		c0,6.9-1.7,14.6-4.8,19.3l-8-2.6c2.4-3.8,4.6-9.8,4.6-17c0-10.8-5.6-18.7-20.3-18.7h-6.5v0.2c5.4,3.2,9.7,9.5,9.7,18.5
		c0,14.4-12.2,24.7-28.3,24.7c-19.7,0-30.8-12.8-30.8-26.1c0-10.1,5.3-15.6,10.1-18.1v-0.2l-8.8-0.5L311.7,126.1L311.7,126.1z
		 M334.6,137c-1.8,0-3.4,0.1-4.8,0.6c-6.1,1.9-11.1,7.1-11.1,14.8c0,10.1,8.5,17.3,21.9,17.3c11.4,0,20.9-5.8,20.9-17.1
		c0-6.5-4.1-12.4-10.8-14.6c-1.8-0.6-3.8-0.8-5.6-0.8L334.6,137L334.6,137z"/>
	<path class="st3" d="M346.5,82.7l-57.5,1.7V72.9l57.5,1.7V82.7z M363.6,85.7c-4.3,0-7.4-3-7.4-7.1c0-4.3,3.1-7.1,7.4-7.1
		c4.2,0,7.4,2.8,7.4,7.1C371.1,82.8,367.8,85.7,363.6,85.7z"/>
</g>
</svg>
