<?xml version="1.0" encoding="utf-8"?>
<!-- Generator: Adobe Illustrator 26.0.3, SVG Export Plug-In . SVG Version: 6.00 Build 0)  -->
<svg version="1.1" id="Calque_1" xmlns="http://www.w3.org/2000/svg" xmlns:xlink="http://www.w3.org/1999/xlink" x="0px" y="0px"
	 viewBox="0 0 711.4 638" style="enable-background:new 0 0 711.4 638;" xml:space="preserve">
<style type="text/css">
	.st0{fill:#9B1889;}
	.st1{fill:#F2F2F2;}
</style>
<path class="st0" d="M329.8,415.8c0.2,12.6-4.6,18.3-17.7,18c-50.5-1-45,6.7-45.2-43.5c0-10.1,0-20.1,0-30.1c0-18.9,0.2-37.8,0-56.7
	c-0.1-11.5,4.3-17.4,16.8-17.2c52.9,0.8,45.7-6,46.1,44.4C329.9,359.1,329.4,387.4,329.8,415.8z"/>
<path class="st0" d="M536.5,312.2c-3.1,28.8-7.5,57.5-12.7,85.9c-4.7,25.3-19.1,38.4-46.2,41.6c-42.9,5-85-3.5-127.1-10.3
	c-7.8-1.3-8.5-7.1-8.5-13.3v-51.5c0-4.8,0.5-9.5-0.1-14.2c-3.1-26.8,0.6-50,24.9-67.9c20.4-15,19.1-37.5,13.5-60
	c-3-12.2-10.2-26.5,9.2-32c15.3-4.3,29.5,7.6,32.8,26.6c2.3,13.4,5.2,26.8,6.2,40.3c1.3,16.8,11,22.5,25.9,22.5
	c17.7,0.1,35.5-0.5,53.3-0.1C530.8,280.3,539,288.8,536.5,312.2z"/>
<path class="st0" d="M401.9,82c-40,0-77.8,10-110.8,27.5c0,0,0,0,0,0c0,0.2,0,0.4,0,0.5c33.1-17.5,70.8-27.5,110.8-27.5
	c129.7,0,235,104.2,236.6,233.3C637.1,186.5,531.7,82,401.9,82z"/>
<path class="st0" d="M182.3,0C121.8,0,72.8,49,72.8,109.3v419.6c0,0.8,0,1.7,0,2.5c0,0.9,0.1,1.8,0.1,2.8
	c2.9,57.7,50.6,103.5,109,103.8h529.4V0H182.3z M638.6,322.5c-0.6,40-11.1,77.5-29.1,110.3c-17.8,32.2-42.8,59.8-72.9,80.6
	c-38.2,26.5-84.6,42-134.6,42c-39.7,0-77.2-9.8-110-27.1v-0.1c-0.3-0.1-0.5-0.3-0.8-0.4c-45-23.9-81.3-61.8-103.2-108
	c-14.2-29.9-22.2-63.3-22.6-98.5c0-0.9,0-1.8,0-2.7c0-35.5,7.8-69.2,21.8-99.4c4.4-9.5,9.4-18.6,15-27.4c0.8-1.2,1.5-2.4,2.3-3.6
	c0.7-1.1,1.5-2.2,2.2-3.3c20.6-30.1,47.9-55.3,79.9-73.3c1.5-0.8,3-1.7,4.5-2.5c0,0.1,0,0.3,0,0.4c0,0,0,0,0,0
	C324.2,92,361.9,82,401.9,82c129.8,0,235.2,104.5,236.6,233.9c0,0.9,0,1.8,0,2.7C638.6,319.9,638.6,321.2,638.6,322.5z"/>
<path class="st0" d="M291.9,528.2c-0.3-0.1-0.5-0.3-0.8-0.4c-45-23.9-81.3-61.8-103.2-108c-14.2-29.9-22.2-63.3-22.6-98.5
	c0-0.9,0-1.8,0-2.7c0-35.5,7.8-69.2,21.8-99.4c4.4-9.5,9.4-18.6,15-27.4c-5.4,8.6-10.3,17.5-14.6,26.7c-14.1,30.3-21.9,64-21.9,99.6
	c0,0.9,0,1.8,0,2.7c0.4,35.3,8.5,68.7,22.7,98.6c21.9,46.3,58.4,84.3,103.6,108.2C291.9,527.8,291.9,528,291.9,528.2z"/>
<path class="st1" d="M638.6,315.9C637.1,186.5,531.7,82,401.9,82c-40,0-77.8,10-110.8,27.5c0,0,0,0,0,0c-1.8,0.9-3.5,1.9-5.3,2.9
	c-31.6,17.8-58.7,42.7-79.1,72.4c-0.8,1.1-1.5,2.2-2.2,3.3c-0.8,1.2-1.6,2.4-2.3,3.6c-5.6,8.8-10.6,17.9-15,27.4
	c-14,30.2-21.8,63.9-21.8,99.4c0,0.9,0,1.8,0,2.7c0.4,35.2,8.5,68.6,22.6,98.5c21.8,46.2,58.2,84.1,103.2,108
	c0.3,0.1,0.5,0.3,0.8,0.4c32.9,17.3,70.3,27.1,110,27.1c50,0,96.4-15.5,134.6-42c30.1-20.8,55.1-48.5,72.9-80.7
	c18-32.8,28.5-70.2,29.1-110.1c0-1.3,0-2.6,0-3.9C638.6,317.7,638.6,316.8,638.6,315.9z M312.1,433.8c-50.5-1-45,6.7-45.2-43.5
	c0-10.1,0-20.1,0-30.1c0-18.9,0.2-37.8,0-56.7c-0.1-11.5,4.3-17.4,16.8-17.2c52.9,0.8,45.7-6,46.1,44.4c0.2,28.3-0.2,56.7,0.2,85.1
	C330,428.4,325.3,434.1,312.1,433.8z M536.5,312.2c-3.1,28.8-7.5,57.5-12.7,85.9c-4.7,25.3-19.1,38.4-46.2,41.6
	c-42.9,5-85-3.5-127.1-10.3c-7.8-1.3-8.5-7.1-8.5-13.3v-51.5c0-4.8,0.5-9.5-0.1-14.2c-3.1-26.8,0.6-50,24.9-67.9
	c20.4-15,19.1-37.5,13.5-60c-3-12.2-10.2-26.5,9.2-32c15.3-4.3,29.5,7.6,32.8,26.6c2.3,13.4,5.2,26.8,6.2,40.3
	c1.3,16.8,11,22.5,25.9,22.5c17.7,0.1,35.5-0.5,53.3-0.1C530.8,280.3,539,288.8,536.5,312.2z"/>
</svg>
