<?xml version="1.0" encoding="utf-8"?>
<!-- Generator: Adobe Illustrator 26.0.3, SVG Export Plug-In . SVG Version: 6.00 Build 0)  -->
<svg version="1.1" id="Calque_1" xmlns="http://www.w3.org/2000/svg" xmlns:xlink="http://www.w3.org/1999/xlink" x="0px" y="0px"
	 viewBox="0 0 482.2 2013.29" style="enable-background:new 0 0 482.2 2013.29;" xml:space="preserve">
<style type="text/css">
	.st0{fill:#9B1889;}
	.st1{fill:#F2F2F2;}
	.st2{fill:none;stroke:#FFFFFF;stroke-width:4;stroke-miterlimit:10;}
</style>
<path class="st0" d="M441.42,1837.39c0,48.84-39.32,88.49-88.04,89.02c-0.33,0.01-0.67,0.01-1,0.01
	c-33.29,0-62.31-18.27-77.57-45.34c-7.29-12.91-11.45-27.82-11.45-43.69c0-49.17,39.86-89.03,89.02-89.03
	c15.54,0,30.14,3.98,42.86,10.97c12.13,6.68,22.53,16.09,30.37,27.42C435.59,1801.12,441.42,1818.57,441.42,1837.39z"/>
<path class="st0" d="M480.97,475.83V0H288.28c-5.05,0-9.96,0.56-14.69,1.62c-29.89,6.69-52.22,33.39-52.22,65.3v1403.63
	c0,4.36,0.42,8.62,1.22,12.75v463.08c0,36.95,29.95,66.91,66.91,66.91h192.69V475.83H480.97z M353.38,1926.41
	c-0.33,0.01-0.67,0.01-1,0.01c-33.29,0-62.31-18.27-77.57-45.34c-7.29-12.91-11.45-27.82-11.45-43.69
	c0-49.17,39.86-89.03,89.02-89.03c15.54,0,30.14,3.98,42.86,10.97c12.13,6.68,22.53,16.09,30.37,27.42
	c9.98,14.37,15.81,31.82,15.81,50.64C441.42,1886.23,402.1,1925.88,353.38,1926.41z"/>
<g>
	<path class="st1" d="M392.94,1623.43l-80.81,26.38v-11.27l39.81-12.59c10.91-3.48,20.74-6.48,30.22-8.63v-0.24
		c-9.35-2.28-19.54-5.64-30.1-9.23l-39.93-13.67v-11.15l80.81,28.9V1623.43z"/>
	<path class="st1" d="M351.69,1505.21c27.82,0,42.57,16.91,42.57,37.53c0,21.34-16.55,36.33-41.01,36.33
		c-25.66,0-42.45-15.95-42.45-37.53C310.8,1519.48,327.71,1505.21,351.69,1505.21z M353.01,1567.92c17.27,0,32.73-9.35,32.73-25.78
		c0-16.55-15.23-25.9-33.57-25.9c-16.07,0-32.85,8.39-32.85,25.78C319.32,1559.29,335.26,1567.92,353.01,1567.92z"/>
	<path class="st1" d="M320.99,1479.32v24.58h-8.87v-59.83h8.87v24.7h71.94v10.55H320.99z"/>
	<path class="st1" d="M313.2,1435.08c-1.08-5.28-1.68-12.83-1.68-20.02c0-11.15,2.04-18.35,6.59-23.38
		c3.6-4.08,9.11-6.35,15.35-6.35c10.67,0,17.75,6.71,20.62,15.23h0.36c2.16-6.23,7.91-9.95,16.31-11.87
		c11.27-2.64,19.06-4.56,22.18-6.24v10.79c-2.28,1.32-9.23,3.12-19.3,5.4c-11.15,2.4-15.35,6.71-15.71,16.19v9.83h35.01v10.43H313.2
		z M350.01,1424.65v-10.67c0-11.15-6.12-18.23-15.35-18.23c-10.43,0-14.99,7.55-15.11,18.58c0,5.04,0.48,8.63,0.96,10.31H350.01z"/>
	<path class="st1" d="M355.05,1328.73v31.41h29.14v-35.01h8.75v45.44h-80.81v-43.65h8.75v33.21h25.54v-31.41H355.05z"/>
	<path class="st1" d="M367.52,1247.68l25.42,8.39v10.79l-80.81-27.46v-12.59l80.81-27.58v11.15l-25.42,8.63V1247.68z
		 M359.36,1221.19l-23.26,7.91c-5.28,1.8-10.07,3-14.75,4.2v0.24c4.8,1.2,9.71,2.52,14.63,4.08l23.38,7.91V1221.19z"/>
	<path class="st1" d="M392.94,1175.99l-80.81,26.38v-11.27l39.81-12.59c10.91-3.48,20.74-6.48,30.22-8.63v-0.24
		c-9.35-2.28-19.54-5.64-30.1-9.23l-39.93-13.67v-11.15l80.81,28.9V1175.99z"/>
	<path class="st1" d="M312.12,1116.4h80.81v10.43h-80.81V1116.4z"/>
	<path class="st1" d="M380.23,1099.61c2.88-4.68,5.28-11.51,5.28-18.71c0-10.67-5.64-16.91-13.79-16.91
		c-7.55,0-11.87,4.32-16.07,15.23c-4.68,13.19-11.51,21.34-22.9,21.34c-12.59,0-21.94-10.43-21.94-26.14
		c0-8.27,1.92-14.27,3.96-17.87l8.51,2.88c-1.44,2.64-3.84,8.03-3.84,15.35c0,11.03,6.59,15.23,12.11,15.23
		c7.55,0,11.27-4.92,15.59-16.07c5.28-13.67,11.87-20.62,23.74-20.62c12.47,0,23.26,9.23,23.26,28.3c0,7.79-2.28,16.31-5.16,20.62
		L380.23,1099.61z"/>
	<path class="st1" d="M392.94,988.23h-80.81v-11.39l40.89-25.9c9.47-6,17.98-10.67,26.26-14.51l-0.12-0.24
		c-10.79,0.96-20.62,1.2-33.21,1.2h-33.81v-9.83h80.81v10.55l-41.01,25.66c-8.99,5.64-18.23,11.03-26.98,15.11l0.12,0.36
		c10.19-0.6,19.9-0.84,33.33-0.84h34.53V988.23z"/>
	<path class="st1" d="M351.69,840.28c27.82,0,42.57,16.91,42.57,37.53c0,21.34-16.55,36.33-41.01,36.33
		c-25.66,0-42.45-15.95-42.45-37.53C310.8,854.55,327.71,840.28,351.69,840.28z M353.01,902.99c17.27,0,32.73-9.35,32.73-25.78
		c0-16.55-15.23-25.9-33.57-25.9c-16.07,0-32.85,8.39-32.85,25.78C319.32,894.35,335.26,902.99,353.01,902.99z"/>
	<path class="st1" d="M312.12,816.3h47.84c18.11,0,25.78-8.03,25.78-18.83c0-11.99-7.91-19.66-25.78-19.66h-47.84v-10.55h47.12
		c24.82,0,35.01,13.07,35.01,30.58c0,16.55-9.47,29.02-34.53,29.02h-47.6V816.3z"/>
	<path class="st1" d="M380.23,750.6c2.88-4.68,5.28-11.51,5.28-18.71c0-10.67-5.64-16.91-13.79-16.91
		c-7.55,0-11.87,4.32-16.07,15.23c-4.68,13.19-11.51,21.34-22.9,21.34c-12.59,0-21.94-10.43-21.94-26.14
		c0-8.27,1.92-14.27,3.96-17.87l8.51,2.88c-1.44,2.64-3.84,8.03-3.84,15.35c0,11.03,6.59,15.23,12.11,15.23
		c7.55,0,11.27-4.92,15.59-16.07c5.28-13.67,11.87-20.62,23.74-20.62c12.47,0,23.26,9.23,23.26,28.3c0,7.79-2.28,16.31-5.16,20.62
		L380.23,750.6z"/>
	<path class="st1" d="M312.12,628.79h80.81v10.43h-80.81V628.79z"/>
	<path class="st1" d="M392.94,610.57h-80.81v-11.39l40.89-25.9c9.47-6,17.98-10.67,26.26-14.51l-0.12-0.24
		c-10.79,0.96-20.62,1.2-33.21,1.2h-33.81v-9.83h80.81v10.55l-41.01,25.66c-8.99,5.64-18.23,11.03-26.98,15.11l0.12,0.36
		c10.19-0.6,19.9-0.84,33.33-0.84h34.53V610.57z"/>
	<path class="st1" d="M320.99,516.33v24.58h-8.87v-59.83h8.87v24.7h71.94v10.55H320.99z"/>
	<path class="st1" d="M293.78,432.28l14.03,15.23v8.63l-14.03-11.15V432.28z M355.05,430.24v31.42h29.14v-35.01h8.75v45.44h-80.81
		v-43.65h8.75v33.21h25.54v-31.42H355.05z"/>
	<path class="st1" d="M313.2,413.1c-1.08-5.28-1.68-12.83-1.68-20.02c0-11.15,2.04-18.34,6.59-23.38c3.6-4.08,9.11-6.36,15.35-6.36
		c10.67,0,17.75,6.71,20.62,15.23h0.36c2.16-6.24,7.91-9.95,16.31-11.87c11.27-2.64,19.06-4.56,22.18-6.23v10.79
		c-2.28,1.32-9.23,3.12-19.3,5.4c-11.15,2.4-15.35,6.71-15.71,16.19v9.83h35.01v10.43H313.2z M350.01,402.67V392
		c0-11.15-6.12-18.23-15.35-18.23c-10.43,0-14.99,7.55-15.11,18.58c0,5.04,0.48,8.63,0.96,10.31H350.01z"/>
	<path class="st1" d="M355.05,306.75v31.42h29.14v-35.01h8.75v45.44h-80.81v-43.65h8.75v33.21h25.54v-31.42H355.05z"/>
	<path class="st1" d="M380.23,291.05c2.88-4.68,5.28-11.51,5.28-18.71c0-10.67-5.64-16.91-13.79-16.91
		c-7.55,0-11.87,4.32-16.07,15.23c-4.68,13.19-11.51,21.34-22.9,21.34c-12.59,0-21.94-10.43-21.94-26.14
		c0-8.27,1.92-14.27,3.96-17.87l8.51,2.88c-1.44,2.64-3.84,8.03-3.84,15.35c0,11.03,6.59,15.23,12.11,15.23
		c7.55,0,11.27-4.92,15.59-16.07c5.28-13.67,11.87-20.62,23.74-20.62c12.47,0,23.26,9.23,23.26,28.3c0,7.79-2.28,16.31-5.16,20.62
		L380.23,291.05z"/>
	<path class="st1" d="M380.23,231.94c2.88-4.68,5.28-11.51,5.28-18.71c0-10.67-5.64-16.91-13.79-16.91
		c-7.55,0-11.87,4.32-16.07,15.23c-4.68,13.19-11.51,21.34-22.9,21.34c-12.59,0-21.94-10.43-21.94-26.14
		c0-8.27,1.92-14.27,3.96-17.87l8.51,2.88c-1.44,2.64-3.84,8.03-3.84,15.35c0,11.03,6.59,15.23,12.11,15.23
		c7.55,0,11.27-4.92,15.59-16.07c5.28-13.67,11.87-20.62,23.74-20.62c12.47,0,23.26,9.23,23.26,28.3c0,7.79-2.28,16.31-5.16,20.62
		L380.23,231.94z"/>
	<path class="st1" d="M355.05,129.55v31.42h29.14v-35.01h8.75v45.44h-80.81v-43.65h8.75v33.21h25.54v-31.42H355.05z"/>
	<path class="st1" d="M369.68,86.39l-57.55,1.68V76.56l57.55,1.68V86.39z M386.82,89.39c-4.32,0-7.43-3-7.43-7.07
		c0-4.32,3.12-7.07,7.43-7.07c4.2,0,7.43,2.76,7.43,7.07C394.26,86.51,391.02,89.39,386.82,89.39z"/>
</g>
<path class="st1" d="M425.61,1786.75c-7.84-11.33-18.24-20.74-30.37-27.42c-12.72-6.99-27.32-10.97-42.86-10.97
	c-49.16,0-89.02,39.86-89.02,89.03c0,15.87,4.16,30.78,11.45,43.69c15.26,27.07,44.28,45.34,77.57,45.34c0.33,0,0.67,0,1-0.01
	c48.72-0.53,88.04-40.18,88.04-89.02C441.42,1818.57,435.59,1801.12,425.61,1786.75z M379.36,1888.2c-3.79,0.01-7.56,0-11.34,0
	c-7.1,0-14.23-0.07-21.34,0.02c-4.34,0.04-6.53-1.62-6.46-6.31c0.29-19.9-2.26-17.2,16.72-17.33c10.66-0.07,21.32,0.09,32-0.06
	c4.74-0.06,6.87,1.72,6.77,6.66C395.35,1890.19,398.24,1888.1,379.36,1888.2z M394.06,1856.73c-0.47,2.93-2.66,3.18-5,3.18h-19.39
	c-1.79,0-3.59-0.17-5.35,0.03c-10.1,1.17-18.82-0.24-25.53-9.37c-5.64-7.68-14.11-7.17-22.57-5.07c-4.57,1.14-9.98,3.82-12.05-3.47
	c-1.61-5.75,2.85-11.1,10.02-12.35c5.04-0.88,10.08-1.97,15.16-2.34c6.32-0.49,8.45-4.14,8.47-9.76c0.04-6.67-0.18-13.37-0.04-20.05
	c0.19-8.61,3.38-11.71,12.17-10.75c10.84,1.18,21.63,2.81,32.33,4.76c9.53,1.76,14.43,7.19,15.65,17.39
	C399.83,1825.08,396.6,1840.89,394.06,1856.73z"/>
<line class="st2" x1="460.35" y1="1692.79" x2="242" y2="1692.79"/>
</svg>
