<?xml version="1.0" encoding="utf-8"?>
<!-- Generator: Adobe Illustrator 26.4.1, SVG Export Plug-In . SVG Version: 6.00 Build 0)  -->
<svg version="1.1" id="Calque_1" xmlns="http://www.w3.org/2000/svg" xmlns:xlink="http://www.w3.org/1999/xlink" x="0px" y="0px"
	 viewBox="0 0 711.4 638" style="enable-background:new 0 0 711.4 638;" xml:space="preserve">
<style type="text/css">
	.st0{fill:#9B1889;}
	.st1{fill:#FFFFFF;}
</style>
<path class="st0" d="M711.1-0.3v529.5c-0.3,58.4-46.1,106.1-103.8,109c-1,0-1.9,0.1-2.8,0.1H182.4c-60.3,0-109.3-49.1-109.3-109.6
	v-529H711.1z"/>
<path class="st0" d="M320,399.4c0.2,12.6-4.6,18.3-17.7,18c-18-0.3-28.9,0.4-35.4-0.7c-11.9-2.1-9.6-10.4-9.8-42.7
	c0-10.1,0-20.1,0-30.2c0-18.9,0.2-37.8,0-56.7c-0.1-11.5,4.3-17.4,16.8-17.2c40.3,0.6,45.7-3.2,46.2,17.3c0.1,6.4-0.2,15.2-0.1,27.2
	C320.1,342.7,319.6,371,320,399.4z"/>
<path class="st1" d="M250.4,468.1l69.1-66.3c3-3,7-4.3,10.8-4.3h68.3c-12.3,6-22.6,15.1-30.4,31.4h-31.6l-90.2,86.4
	c-2.8,3.3-7,5.3-11.6,5.3c-8.8,0-15.8-7-15.8-15.8v-75.9h-46.5c-10.5,0-20.1-4.3-26.9-11.3c-7-7-11.3-16.6-11.3-26.9V108.9
	c0-10.3,4.3-19.8,11.3-26.9c6.8-7,16.3-11.3,26.9-11.3h357.2c10.3,0,20.1,4.3,26.9,11.3c6.8,6.8,11.3,16.3,11.3,26.9v97
	c-10-7-20.6-11.3-31.4-13.1v-83.6c0-1.8-0.8-3.5-2-4.8c-1.3-1.3-3-2-4.8-2H172.6c-1.8,0-3.5,0.8-4.8,2c-1.3,1.3-2,3-2,4.8V391
	c0,1.8,0.8,3.5,2,4.8s3,2,4.8,2h62.3c8.8,0,15.8,7,15.8,15.8v54.5H250.4z M397.1,486.4c-2.3,0-4-1.8-4-4c0-1.3,0.3-2.3,0.5-3.3
	c6.3-50.2,28.6-51,56.5-58.3c8.3-2.3,23.6-6.8,32.4-14.6c4.8-4.3,7.8-9.5,6.5-15.8c-6.8-6.3-12.1-13.1-13.1-25.9h-0.8
	c-1.8,0-3.8-0.5-5.3-1.5c-3.8-2-5.8-6.3-6.8-10.8c-1.3-5.5-2.5-21.4,5-24.6l0,0c-1-17.3,2-45-15.8-50.5
	c35.4-43.7,76.1-67.3,106.8-28.6c34.2,1.8,49.2,52,28.1,79.1h-1c7.5,3.3,6,19.1,5,24.6c-1,4.5-3,8.8-6.8,10.8
	c-1.8,1-3.5,1.3-5.3,1.5h-0.8c-1.3,12.8-6.3,19.6-13.1,25.9c-1.3,6.3,1.8,11.6,6.5,15.8c8.8,7.8,24.1,12.3,32.4,14.6
	c27.9,7.3,50.2,8.3,56.5,58.3c0.3,1,0.5,2.3,0.5,3.3c0,2.3-1.8,4-4,4H397.1L397.1,486.4z M242.1,211.9c-8.8,0-15.8-7-15.8-15.8
	c0-8.8,7-15.8,15.8-15.8h214c8.8,0,15.8,7,15.8,15.8c0,8.8-7,15.8-15.8,15.8H242.1L242.1,211.9z M242.1,304.8
	c-8.8,0-15.8-7-15.8-15.8c0-8.8,7-15.6,15.8-15.6h145.7c8.8,0,15.8,7,15.8,15.6c0,8.8-7,15.8-15.8,15.8H242.1L242.1,304.8z"/>
</svg>
