<?xml version="1.0" encoding="utf-8"?>
<!-- Generator: Adobe Illustrator 26.3.1, SVG Export Plug-In . SVG Version: 6.00 Build 0)  -->
<svg version="1.1" id="Calque_1" xmlns="http://www.w3.org/2000/svg" xmlns:xlink="http://www.w3.org/1999/xlink" x="0px" y="0px"
	 viewBox="0 0 482.2 2013.3" style="enable-background:new 0 0 482.2 2013.3;" xml:space="preserve">
<style type="text/css">
	.st0{fill:#1D1D1B;}
	.st1{fill:#FFFFFF;}
	.st2{fill:none;stroke:#FFFFFF;stroke-width:4;stroke-miterlimit:10;}
	.st3{fill:#9B1889;}
</style>
<g>
	<path d="M488,5v470.8v5h1.4v1527.5H275c-18.5,0-36-6.2-49.4-17.5c-13.3-11.3-20.8-26.3-21.4-42.5V54.5c5.6-23.8,26.6-42.6,53.8-48
		c5-1,10.3-1.5,15.5-1.5H488 M344.3,1743.4c-0.2,0-0.3,0-0.6,0c-0.1,0-0.2,0-0.3,0c-0.6,0-1.3,0-1.8,0.1c-0.1,0-0.2,0-0.5,0
		c-0.8,0-1.6,0.1-2.4,0.1c-1.8,0.1-3.7,0.3-5.6,0.5c-1,0.1-1.9,0.2-2.7,0.3c-0.7,0.1-1.5,0.2-2.2,0.3c-0.7,0.1-1.3,0.2-1.8,0.3
		c-0.7,0.1-1.3,0.2-1.9,0.3l0,0l0,0c-0.7,0.1-1.4,0.3-1.9,0.4c-0.7,0.1-1.4,0.3-1.9,0.4c-0.5,0.1-0.9,0.2-1.4,0.3
		c-0.8,0.2-1.7,0.4-2.7,0.7l-0.2,0.1c-0.1,0-0.3,0.1-0.5,0.1l0,0c-0.1,0-0.2,0-0.3,0.1h-0.1l-0.2,0.1c-0.2,0.1-0.5,0.1-0.7,0.2
		l-0.2,0.1c-0.6,0.2-1.1,0.3-1.7,0.5c-0.5,0.1-0.9,0.3-1.4,0.4h-0.1l-0.3,0.1l-0.3,0.1c-0.3,0.1-0.6,0.2-0.9,0.3h-0.1h-0.1
		c-0.5,0.2-0.9,0.3-1.4,0.5l-0.3,0.1h-0.1h-0.1l-0.6,0.2l-0.6,0.2c-0.6,0.2-1.1,0.4-1.6,0.6c-0.5,0.2-1,0.4-1.5,0.6
		c-0.2,0.1-0.3,0.1-0.6,0.2c-0.2,0.1-0.5,0.2-0.6,0.3l-0.3,0.1c-0.9,0.4-1.9,0.8-3.1,1.3c-0.7,0.3-1.4,0.6-2.1,0.9h-0.1l0,0
		c-0.1,0-0.2,0.1-0.3,0.2c-0.7,0.3-1.3,0.6-1.9,0.9c-0.6,0.3-1.3,0.6-1.8,0.9l0,0l-0.2,0.1l-0.1,0.1l-0.2,0.1
		c-0.7,0.4-1.4,0.7-2.1,1.1l-0.7,0.4c-0.2,0.1-0.5,0.3-0.8,0.4c-0.6,0.3-1.3,0.7-1.8,1c-1.3,0.7-2.5,1.5-3.7,2.3
		c-0.6,0.3-1,0.7-1.6,1l-0.1,0.1c-0.3,0.2-0.7,0.4-1,0.7c-0.3,0.3-0.8,0.5-1.3,0.9c-0.1,0.1-0.2,0.2-0.5,0.3l-0.1,0.1
		c-0.6,0.4-1.1,0.8-1.8,1.3c-0.6,0.4-1.1,0.9-1.7,1.3c-0.1,0.1-0.2,0.2-0.3,0.3l0,0l0,0l0,0c-1.1,0.9-2.3,1.9-3.4,2.9
		c-0.7,0.6-1.3,1.1-1.8,1.6c-0.7,0.6-1.3,1.2-1.8,1.7c-0.6,0.5-1.1,1.1-1.7,1.7l-0.5,0.4c-0.5,0.4-0.8,0.9-1.3,1.3
		c-0.6,0.6-1,1.2-1.6,1.7c-1,1.1-1.9,2.3-3,3.5v0.1v0.1l0,0c-0.5,0.6-0.9,1.2-1.5,1.8c-1,1.3-1.9,2.6-2.7,3.8
		c-0.5,0.6-0.9,1.3-1.3,1.9c-0.3,0.6-0.8,1.2-1.3,1.9l0,0l-0.1,0.2c-0.3,0.6-0.8,1.3-1.1,1.9c-0.3,0.7-0.8,1.3-1.1,2.1
		c-0.3,0.6-0.6,1.1-0.9,1.7c-0.1,0.2-0.2,0.4-0.3,0.6c-0.3,0.6-0.6,1.2-0.9,1.8c-0.3,0.7-0.7,1.4-1,2.1c-0.3,0.9-0.7,1.6-1,2.3
		l-0.1,0.3l-0.1,0.3c-0.2,0.5-0.5,1-0.6,1.5c-0.2,0.6-0.5,1.2-0.7,1.7c-0.1,0.2-0.2,0.5-0.2,0.7c-0.2,0.7-0.5,1.3-0.7,2
		c-0.2,0.6-0.3,1.2-0.6,1.8c-0.1,0.2-0.1,0.4-0.2,0.7c-0.2,0.7-0.3,1.4-0.6,2c-0.2,0.7-0.3,1.3-0.5,1.9c-0.1,0.2-0.1,0.4-0.1,0.7
		c-0.1,0.6-0.2,1.1-0.3,1.7l-0.1,0.3c-0.1,0.8-0.3,1.6-0.5,2.3v0.3c-0.1,0.6-0.2,1.2-0.3,1.8l0,0l0,0v0.3v0.2
		c-0.1,0.7-0.2,1.4-0.2,2.1c-0.1,0.7-0.1,1.4-0.2,2.1c0,0.1,0,0.2,0,0.3c0,0.1,0,0.2,0,0.3c0,0.6-0.1,1.3-0.1,1.9v0.1v0.1
		c0,0.8-0.1,1.5-0.1,2.3s0,1.6,0,2.4c0,0.4,0,0.7,0,1.1c0,0.7,0,1.4,0,2.1v0.1v0.1c0,0.1,0,0.2,0,0.3v0.1v0.1c0,0.7,0.1,1.4,0.1,2
		l0,0l0,0c0,0.2,0,0.3,0,0.5s0,0.4,0,0.6v0.6v0.6c0.1,0.7,0.1,1.5,0.2,2.2c0,0.1,0,0.2,0,0.3l0,0v0.1v0.1c0.1,0.7,0.2,1.4,0.3,2.2
		l0,0l0,0c0.1,0.7,0.2,1.4,0.3,2.2l0.1,0.5l0.1,0.6v0.1v0.1l0.1,0.4c0,0.2,0.1,0.4,0.1,0.6c0.1,0.6,0.2,1.2,0.5,1.8v0.1v0.1v0.1
		c0,0.1,0,0.2,0.1,0.3c0.1,0.6,0.3,1.3,0.5,1.9c0.5,1.5,0.9,3.1,1.4,4.6c0.1,0.4,0.2,0.8,0.3,1.2l0.2,0.5l0.2,0.5
		c0.2,0.7,0.6,1.4,0.8,2.1c0.1,0.4,0.3,0.8,0.5,1.1c0.1,0.4,0.3,0.7,0.5,1.1l0.1,0.4c0.2,0.6,0.5,1.1,0.8,1.7c0.3,0.6,0.6,1.3,1,2.1
		c0.3,0.6,0.7,1.3,1,2l0.1,0.2v0.1v0.1c0.3,0.6,0.7,1.2,0.9,1.7c0.3,0.5,0.6,1,0.8,1.4c0.1,0.1,0.1,0.3,0.2,0.4
		c0,0.1,0.1,0.2,0.1,0.3c0.2,0.5,0.6,0.9,0.8,1.4l0.2,0.4c0.2,0.3,0.3,0.5,0.5,0.8c0.6,0.8,1,1.6,1.7,2.6c0.2,0.4,0.6,0.9,0.9,1.4
		c0.2,0.3,0.3,0.5,0.6,0.8c0.1,0.1,0.2,0.3,0.3,0.4l0,0l0,0l0.1,0.2c0.2,0.4,0.6,0.8,0.8,1.1l0.2,0.3c0.2,0.3,0.6,0.7,0.8,1
		c0.3,0.4,0.6,0.8,0.9,1.1c0.3,0.4,0.7,0.8,1,1.2l0,0l0,0l0.3,0.3c0.2,0.3,0.5,0.6,0.8,0.9c0.5,0.5,0.9,1,1.4,1.5l0,0l0,0
		c0.2,0.2,0.5,0.4,0.6,0.7v0.1v0.1l1.1,1.2l0.1,0.1c0.3,0.3,0.7,0.7,1,1c0.5,0.5,0.9,0.9,1.4,1.3c0.5,0.5,0.9,0.9,1.4,1.3
		c0.3,0.3,0.6,0.5,0.9,0.8c0.9,0.8,1.7,1.5,2.4,2.1c0.8,0.7,1.7,1.4,2.6,2.1c0.6,0.4,1.1,0.9,1.8,1.4c1.5,1.1,2.7,2,4.1,2.9
		c0.7,0.5,1.4,0.9,2.1,1.4l0.1,0.1l0,0l0.1,0.1c0.5,0.3,0.9,0.6,1.4,0.8c0.1,0.1,0.2,0.1,0.2,0.2l0.1,0.1h0.1h0.1l0.2,0.1
		c0.1,0.1,0.2,0.1,0.2,0.2c0.5,0.3,1,0.6,1.6,1l0.2,0.1c0.2,0.2,0.6,0.3,0.8,0.5c0.3,0.2,0.7,0.4,1,0.6c0.7,0.4,1.5,0.8,2.2,1.2
		c0.7,0.3,1.3,0.7,1.9,1h0.1l0,0h0.1l0.2,0.1c0.7,0.4,1.5,0.7,2.2,1s1.4,0.6,2.1,1c0.8,0.3,1.6,0.7,2.5,1.1c0.7,0.3,1.5,0.6,2.2,0.9
		c0.1,0,0.2,0.1,0.3,0.1l0.2,0.1c0.7,0.2,1.3,0.5,1.9,0.7c0.8,0.3,1.6,0.6,2.4,0.8l0,0l0,0c0.9,0.3,1.8,0.6,2.6,0.8
		c1.3,0.4,2.6,0.8,4.1,1.2c1.3,0.3,2.4,0.6,3.5,0.9c0.8,0.2,1.5,0.4,2.3,0.5c0.9,0.2,1.7,0.4,2.5,0.5c0.5,0.1,0.9,0.2,1.4,0.3
		c0.2,0.1,0.5,0.1,0.8,0.1c0.5,0.1,0.9,0.2,1.4,0.2c0.7,0.1,1.4,0.2,2.1,0.3c0.6,0.1,1.1,0.2,1.7,0.3h0.2c0.3,0.1,0.8,0.1,1.1,0.1
		c0.1,0,0.3,0,0.5,0.1h0.1h0.1h0.1l0.8,0.1h0.1h0.1l0,0c0.1,0,0.1,0,0.2,0c0.8,0.1,1.6,0.2,2.4,0.2h0.3c0.1,0,0.3,0,0.5,0
		c0.7,0.1,1.4,0.1,2.2,0.2c0.7,0.1,1.5,0.1,2.2,0.1c0.3,0,0.8,0,1.1,0.1c0.1,0,0.1,0,0.2,0c0.7,0,1.3,0,1.8,0.1c0.9,0,1.8,0,2.7,0
		l0,0c0.5,0,0.9,0,1.4,0c0.7,0,1.3,0,1.9,0c0.3,0,0.7,0,0.9,0h0.1c0.8,0,1.5-0.1,2.3-0.1c0.9-0.1,1.8-0.1,2.7-0.2s1.8-0.1,2.7-0.2
		c0.8-0.1,1.7-0.2,2.5-0.3c0.7-0.1,1.5-0.2,2.2-0.3h0.1c0.3,0,0.6-0.1,0.9-0.1h0.1h0.1h0.2c0.6-0.1,1-0.2,1.6-0.3
		c0.1,0,0.3,0,0.5-0.1c0.7-0.1,1.3-0.2,1.8-0.3c0.1,0,0.1,0,0.2,0c0.2,0,0.3-0.1,0.6-0.1c0.8-0.2,1.6-0.3,2.4-0.5
		c0.9-0.2,1.7-0.4,2.5-0.6s1.7-0.4,2.5-0.6c0.7-0.2,1.5-0.4,2.2-0.6h0.1h0.1h0.1c0.1,0,0.2-0.1,0.3-0.1c0.7-0.2,1.5-0.4,2.2-0.6
		c0.8-0.2,1.6-0.5,2.5-0.8c0.8-0.2,1.5-0.5,2.2-0.8c0.1-0.1,0.3-0.1,0.5-0.2c0.6-0.2,1.3-0.4,1.7-0.6l0,0l0,0l0.5-0.2l0.5-0.2
		c0.6-0.2,1-0.4,1.6-0.6s1.1-0.5,1.7-0.7c0.5-0.2,1-0.4,1.4-0.6c0.6-0.2,1-0.5,1.6-0.7c0.3-0.2,0.8-0.4,1.1-0.5l0.3-0.2
		c0.7-0.3,1.3-0.6,1.8-0.9c0.9-0.5,1.8-0.9,2.6-1.3c0.1-0.1,0.2-0.1,0.3-0.2c0.8-0.4,1.5-0.8,2.1-1.1c0.5-0.3,0.9-0.5,1.4-0.8
		l0.5-0.3l0.1-0.1l0,0l0.1-0.1l0.2-0.1l0.2-0.2c0.2-0.1,0.3-0.2,0.6-0.3c0.2-0.1,0.3-0.2,0.5-0.3l0.1-0.1l0.2-0.2l0.2-0.1l0,0l0,0
		c0.6-0.3,1-0.6,1.4-0.9c0.2-0.1,0.5-0.3,0.6-0.4c0.7-0.4,1.3-0.8,1.9-1.3c0.1-0.1,0.3-0.2,0.5-0.3c0.1-0.1,0.3-0.2,0.5-0.3l0.3-0.2
		l0.1-0.1l0,0c0.1-0.1,0.2-0.2,0.3-0.2l0.1-0.1l0.1-0.1c0.1-0.1,0.1-0.1,0.2-0.2l0.2-0.2l0,0l0,0l0.1-0.1l0.1-0.1
		c0.8-0.5,1.5-1.1,2.2-1.7c0.7-0.5,1.4-1.1,2.1-1.6h0.1l0.1-0.1l0.2-0.2c0.5-0.4,1-0.8,1.6-1.3c0.2-0.2,0.5-0.4,0.8-0.6
		c0.6-0.5,1.1-1,1.7-1.5c0.1-0.1,0.2-0.2,0.3-0.3c0.2-0.2,0.6-0.5,0.8-0.7c0.1-0.1,0.3-0.3,0.5-0.4c0.1-0.2,0.3-0.3,0.5-0.5l0.2-0.2
		c0.3-0.3,0.6-0.6,0.9-0.8c0.5-0.4,0.8-0.8,1.3-1.2l0,0l0.1-0.1c0.5-0.4,0.8-0.9,1.3-1.3l0.3-0.3l0.1-0.1v-0.1
		c0.1-0.1,0.1-0.2,0.2-0.2l0,0l0,0l0.1-0.2l0.3-0.4l0.2-0.2l0.1-0.1l0.2-0.3c0.1-0.1,0.2-0.2,0.3-0.4c0.1-0.1,0.1-0.1,0.2-0.2
		l0.3-0.3l0.2-0.3c0.1-0.1,0.1-0.2,0.2-0.2l0.2-0.2l0.3-0.4c0.2-0.3,0.5-0.5,0.6-0.7l0.2-0.3l0.3-0.4c0.5-0.5,0.8-0.9,1-1.4
		c0.3-0.4,0.6-0.8,0.9-1.1c0.8-1.1,1.6-2.2,2.4-3.3c0.2-0.4,0.6-0.8,0.8-1.2c0.1-0.2,0.2-0.4,0.5-0.6l1.1-1v-0.8
		c0-0.1,0.1-0.1,0.1-0.2c0.2-0.4,0.6-0.9,0.8-1.3l0,0l0,0l0.2-0.4l0.1-0.1l0.1-0.3c0.1-0.3,0.3-0.5,0.5-0.8c0.6-1.1,1-1.9,1.5-2.7
		c0.2-0.3,0.3-0.7,0.6-1c0.1-0.2,0.1-0.3,0.2-0.5c0.2-0.4,0.5-0.8,0.6-1.2c0.2-0.4,0.5-0.9,0.6-1.3c0.2-0.4,0.3-0.9,0.6-1.3
		c0.3-0.7,0.6-1.4,0.9-2.1c0.5-1.1,0.9-2.2,1.4-3.6c0.2-0.7,0.5-1.3,0.7-2c0-0.2,0.1-0.3,0.1-0.5v-0.1v-0.1l0.1-0.5
		c0.1-0.4,0.2-0.8,0.3-1.2c0.2-0.8,0.5-1.5,0.6-2.3c0.1-0.5,0.2-1.1,0.5-1.6c0.1-0.5,0.2-1,0.3-1.5c0.2-0.9,0.3-1.8,0.6-2.9
		c0-0.2,0.1-0.4,0.1-0.6s0-0.3,0.1-0.5v-0.1v-0.1c0.1-0.7,0.2-1.3,0.3-2c0.1-0.7,0.2-1.3,0.2-2v-0.1l0,0c0-0.2,0-0.4,0.1-0.6
		c0.1-0.8,0.1-1.4,0.2-2c0-0.6,0.1-1.1,0.1-1.6s0.1-1,0.1-1.4c0-0.6,0.1-1.3,0.1-1.9c0-0.7,0-1.4,0-2.2c0-0.7,0-1.3,0-2
		c0-0.3,0-0.6,0-1c0-0.6,0-1.2-0.1-1.8v-0.1l0,0l-0.1-1.1c0-0.4,0-0.8-0.1-1.2v-0.2v-0.1c0-0.5-0.1-1.1-0.1-1.6l0,0l0,0
		c0-0.1,0-0.2,0-0.3c0-0.1,0-0.3,0-0.4c-0.1-0.6-0.1-1.1-0.2-1.7v-0.1c0-0.3-0.1-0.7-0.1-1c-0.1-0.5-0.1-1-0.2-1.4
		c-0.1-0.7-0.2-1.5-0.5-2.4c-0.1-0.4-0.1-0.7-0.2-1.1v-0.2v-0.1c-0.1-0.5-0.2-1-0.3-1.6c-0.1-0.7-0.3-1.3-0.5-2
		c-0.2-0.7-0.3-1.4-0.6-2.2c-0.2-0.9-0.6-1.8-0.8-2.6c-0.1-0.5-0.3-1-0.6-1.5c-0.1-0.2-0.1-0.4-0.2-0.6c-0.2-0.6-0.5-1.3-0.7-1.9
		c-0.1-0.3-0.2-0.5-0.3-0.7l-0.1-0.2l0,0l0,0l-0.2-0.4c-0.1-0.3-0.2-0.5-0.3-0.8l-0.1-0.2l0,0c-0.1-0.2-0.2-0.5-0.3-0.7l0,0
		l-0.3-0.9c-0.3-0.7-0.6-1.3-0.9-2c-0.1-0.3-0.2-0.5-0.3-0.7c-0.3-0.7-0.7-1.4-1-2c-0.1-0.1-0.1-0.3-0.3-0.5
		c-0.3-0.6-0.6-1.2-0.9-1.7c-0.1-0.2-0.2-0.4-0.3-0.5c-0.3-0.7-0.8-1.4-1.3-2.1c-0.5-0.9-1-1.7-1.5-2.5c-0.7-1-1.4-2-1.9-3
		c-0.1-0.1-0.1-0.2-0.2-0.3v-0.6l-1.3-1.1c0,0,0-0.1-0.1-0.1l-0.2-0.2l-0.2-0.2c-0.1-0.2-0.2-0.3-0.3-0.5c-0.2-0.4-0.6-0.8-0.8-1.1
		c-0.1-0.1-0.1-0.2-0.2-0.3l0,0c-0.1-0.1-0.1-0.2-0.2-0.3c-0.5-0.6-1-1.2-1.5-1.9c-0.5-0.6-0.9-1.1-1.5-1.7
		c-0.1-0.2-0.2-0.3-0.3-0.5c-0.2-0.2-0.3-0.4-0.5-0.6c-0.5-0.5-0.9-1.1-1.5-1.6l-0.1-0.1l-0.1-0.1v-0.1l-0.1-0.1
		c-0.1-0.2-0.3-0.3-0.5-0.5l-0.2-0.2l0,0l0,0c-1-1-2.1-2.1-3.1-3.1c-0.8-0.7-1.5-1.3-2.2-2c-0.8-0.7-1.4-1.3-2.1-1.8
		c-0.1-0.1-0.2-0.2-0.3-0.3c-1.3-1.1-2.7-2.2-4.1-3.3c-0.2-0.2-0.5-0.3-0.6-0.5c-0.5-0.4-1-0.7-1.5-1.1c-0.3-0.3-0.7-0.5-1-0.7
		c-0.6-0.4-1.3-0.9-1.9-1.3l-0.1-0.1c-0.7-0.5-1.4-0.9-2.4-1.5c-0.8-0.5-1.7-1-2.5-1.5c-0.7-0.4-1.4-0.8-1.9-1.1
		c0,0-0.1-0.1-0.2-0.1c-0.5-0.2-0.8-0.5-1.4-0.7c-0.3-0.2-0.7-0.4-1-0.5l0,0c-0.2-0.1-0.3-0.2-0.6-0.3l-0.2-0.1l-0.1-0.1l-0.1-0.1
		l-0.3-0.2l-0.2-0.1c-0.1-0.1-0.3-0.2-0.5-0.2s-0.1-0.1-0.2-0.1c-0.2-0.1-0.3-0.2-0.6-0.3c-0.1-0.1-0.3-0.2-0.5-0.2l0,0l0,0
		c-0.1-0.1-0.2-0.1-0.5-0.2l-0.2-0.1c-0.7-0.4-1.5-0.7-2.2-1h-0.1l-0.3-0.1c-0.7-0.3-1.3-0.6-2.1-0.9l-0.5-0.2l-0.5-0.2
		c-0.7-0.3-1.4-0.5-2.1-0.8s-1.4-0.5-2.1-0.8c-0.3-0.1-0.8-0.3-1.1-0.4l0,0l0,0l-0.5-0.1c-0.2-0.1-0.5-0.2-0.8-0.3
		c-0.8-0.3-1.6-0.6-2.4-0.8l0,0h-0.1h-0.1c-0.6-0.2-1.1-0.4-1.7-0.5l-0.5-0.1l-1.1-0.3c-0.2-0.1-0.6-0.2-0.8-0.2l-0.5-0.1h-0.1h-0.1
		c-0.8-0.2-1.7-0.4-2.5-0.6s-1.5-0.4-2.3-0.6l-0.2-0.1h-0.2l0,0l0,0c-0.8-0.2-1.5-0.3-2.3-0.5l0,0h-0.1h-0.1c-0.1,0-0.2,0-0.3-0.1
		c-0.5-0.1-0.9-0.2-1.4-0.3c-0.2-0.1-0.6-0.1-0.8-0.1l-0.5-0.1c-0.5-0.1-0.9-0.2-1.3-0.2c-0.1,0-0.2,0-0.2,0c-0.1,0-0.3-0.1-0.5-0.1
		h-0.1l0,0c-0.1,0-0.1,0-0.2,0c-0.3-0.1-0.8-0.1-1.1-0.2c-0.5-0.1-0.9-0.1-1.3-0.2c-0.8-0.1-1.6-0.2-2.4-0.3c-0.1,0-0.2,0-0.5,0
		c0,0,0,0-0.1,0l0,0h-0.1c-0.5,0-0.8-0.1-1.3-0.1l-0.8-0.1c-0.2,0-0.3,0-0.5,0h-0.1c-0.2,0-0.6-0.1-0.9-0.1c-0.3,0-0.7-0.1-1-0.1
		c-0.2,0-0.5,0-0.7,0c-0.7-0.1-1.5-0.1-2.2-0.1c-0.8,0-1.5-0.1-2.3-0.1c-0.3,0-0.7,0-1,0c-0.8,0-1.6,0-2.4,0
		C345.9,1743.4,345.1,1743.4,344.3,1743.4 M493.8,0H273.6c-5.7,0-11.4,0.6-16.8,1.6c-29.4,5.8-52.4,26.4-58.3,52.3v1894.4
		c1.3,36,35,64.9,76.4,64.9h220.2V475.8h-1.4V0L493.8,0z M346.8,1926.4c-0.9,0-1.7,0-2.6,0c-0.6,0-1.1,0-1.7-0.1c-0.1,0-0.1,0-0.2,0
		c-0.3,0-0.7,0-1-0.1c-0.7,0-1.4-0.1-2.1-0.1c-0.7,0-1.5-0.1-2.2-0.2c-0.1,0-0.2,0-0.3,0c-0.1,0-0.2,0-0.3,0
		c-0.8-0.1-1.5-0.2-2.3-0.2c-0.1,0-0.2,0-0.5,0c-0.2,0-0.5-0.1-0.7-0.1h-0.2c-0.2,0-0.3,0-0.6-0.1c-0.3,0-0.7-0.1-1-0.1
		c-0.7-0.1-1.3-0.2-1.9-0.3c-0.7-0.1-1.3-0.2-1.9-0.3c-0.5-0.1-0.8-0.1-1.3-0.2c-0.2,0-0.5-0.1-0.7-0.1c-0.5-0.1-0.9-0.2-1.3-0.3
		c-0.8-0.2-1.6-0.3-2.4-0.5c-0.7-0.1-1.4-0.3-2.1-0.5c-1.1-0.3-2.3-0.6-3.3-0.9c-1.3-0.4-2.6-0.7-3.9-1.1c-0.8-0.3-1.6-0.5-2.5-0.8
		c-0.8-0.3-1.5-0.5-2.3-0.8c-0.7-0.2-1.3-0.5-1.9-0.7c-0.1,0-0.2-0.1-0.3-0.1c0,0-0.1,0-0.1-0.1c-0.7-0.3-1.5-0.6-2.2-0.9
		c-0.8-0.3-1.6-0.7-2.4-1c-0.7-0.3-1.3-0.6-1.9-0.9s-1.4-0.7-2.1-1c-0.1,0-0.2-0.1-0.3-0.2c-0.6-0.3-1.3-0.6-1.8-0.9
		c-0.7-0.4-1.4-0.8-2.1-1.1c-0.3-0.2-0.7-0.4-1-0.6c-0.3-0.2-0.7-0.4-1-0.6c-0.5-0.3-1-0.6-1.5-0.9c-0.2-0.1-0.3-0.2-0.6-0.3
		c-0.1-0.1-0.3-0.2-0.5-0.3c-0.5-0.3-0.9-0.5-1.3-0.8c0,0-0.1-0.1-0.2-0.1c-0.7-0.4-1.3-0.8-1.9-1.3c-1.4-0.9-2.6-1.8-3.9-2.8
		c-0.6-0.4-1.1-0.9-1.7-1.3c-0.8-0.6-1.6-1.3-2.4-2c-0.8-0.7-1.6-1.4-2.3-2c-0.3-0.3-0.6-0.5-0.8-0.8c-0.5-0.4-0.9-0.8-1.3-1.2
		c-0.5-0.4-0.9-0.8-1.3-1.2c-0.3-0.4-0.7-0.7-1.1-1.1c-0.3-0.4-0.8-0.8-1.1-1.2c-0.2-0.3-0.5-0.5-0.7-0.8c-0.5-0.5-0.8-0.9-1.3-1.4
		c-0.3-0.4-0.7-0.8-1-1.2c-0.3-0.4-0.7-0.8-1-1.2c-0.3-0.4-0.6-0.7-0.9-1.1c-0.3-0.4-0.7-0.8-1-1.3c-0.3-0.4-0.6-0.8-0.9-1.2
		c-0.3-0.4-0.6-0.8-0.9-1.2c-0.3-0.4-0.6-0.8-0.9-1.2c-0.6-0.8-1.1-1.7-1.7-2.5c-0.2-0.4-0.6-0.8-0.8-1.2c-0.2-0.4-0.5-0.8-0.7-1.2
		c-0.1-0.2-0.3-0.5-0.5-0.7c-0.2-0.4-0.6-0.9-0.8-1.3c-0.3-0.6-0.7-1.1-0.9-1.7c0-0.1-0.1-0.2-0.1-0.3c-0.3-0.6-0.7-1.3-1-1.9
		c-0.3-0.7-0.7-1.3-0.9-2c-0.3-0.7-0.6-1.3-0.9-2c-0.1-0.3-0.3-0.7-0.5-1c-0.1-0.3-0.3-0.7-0.5-1c-0.2-0.7-0.6-1.4-0.8-2
		c-0.1-0.3-0.2-0.7-0.3-1c-0.1-0.3-0.2-0.7-0.3-1c-0.5-1.5-0.9-2.9-1.4-4.4c-0.2-0.6-0.3-1.3-0.5-1.9c0-0.2-0.1-0.3-0.1-0.5
		c-0.1-0.6-0.2-1.2-0.3-1.7c-0.1-0.4-0.1-0.7-0.2-1.1c-0.1-0.4-0.1-0.7-0.2-1.1c-0.1-0.7-0.2-1.4-0.3-2.1c-0.1-0.7-0.2-1.4-0.3-2.1
		c0-0.1,0-0.3,0-0.4c-0.1-0.7-0.1-1.4-0.2-2.1c0-0.4-0.1-0.8-0.1-1.1c0-0.4,0-0.8-0.1-1.1c0-0.7-0.1-1.3-0.1-2c0-0.2,0-0.4,0-0.6
		c0-0.7,0-1.3,0-2c0-0.3,0-0.7,0-1c0-0.8,0-1.5,0-2.3s0.1-1.5,0.1-2.3v-0.1c0-0.6,0.1-1.2,0.1-1.8c0-0.1,0-0.2,0-0.3
		c0-0.1,0-0.1,0-0.2c0-0.7,0.1-1.4,0.2-2.2c0.1-0.7,0.1-1.3,0.2-2c0-0.2,0-0.3,0.1-0.5c0.1-0.7,0.2-1.3,0.3-2
		c0.1-0.7,0.2-1.5,0.5-2.2c0.1-0.6,0.2-1.3,0.5-1.9c0-0.2,0.1-0.4,0.1-0.5c0.1-0.6,0.3-1.3,0.5-1.9c0.2-0.7,0.3-1.3,0.6-2
		c0-0.2,0.1-0.3,0.1-0.5c0.2-0.6,0.3-1.2,0.6-1.8c0.2-0.6,0.5-1.3,0.7-1.9c0.1-0.2,0.1-0.4,0.2-0.6c0.2-0.6,0.5-1.1,0.7-1.7
		c0.2-0.5,0.3-0.9,0.6-1.4c0.1-0.2,0.1-0.4,0.2-0.6c0.3-0.7,0.6-1.4,0.9-2.1c0.3-0.7,0.6-1.3,0.9-2c0.3-0.6,0.6-1.2,0.9-1.8
		c0.1-0.2,0.2-0.3,0.2-0.5c0.3-0.5,0.6-1.1,0.9-1.6c0.3-0.7,0.7-1.3,1.1-1.9c0.3-0.6,0.7-1.2,1-1.8c0,0,0-0.1,0.1-0.1
		c0.3-0.6,0.8-1.3,1.1-1.9c0.5-0.6,0.8-1.2,1.3-1.8c0.8-1.2,1.7-2.4,2.6-3.6c0.5-0.6,0.9-1.2,1.4-1.8c0,0,0-0.1,0.1-0.1
		c0.9-1.1,1.8-2.2,2.9-3.3c0.5-0.6,1-1.1,1.5-1.7c0.5-0.6,1-1.1,1.6-1.6s1-1.1,1.6-1.6c0.6-0.5,1.1-1,1.7-1.6c0.6-0.5,1.1-1,1.7-1.5
		c1-0.9,2.2-1.8,3.3-2.7c0.1-0.1,0.2-0.2,0.3-0.3c0.6-0.4,1.1-0.9,1.7-1.3c0.6-0.4,1-0.8,1.6-1.2c0.2-0.1,0.3-0.3,0.6-0.4
		c0.3-0.3,0.8-0.6,1.1-0.8c0.3-0.2,0.6-0.4,0.9-0.6c0.6-0.4,1.1-0.8,1.7-1.1c1.1-0.7,2.3-1.4,3.4-2.1c0.6-0.3,1.1-0.7,1.7-1
		c0.2-0.1,0.5-0.3,0.7-0.4l0.7-0.4c0.7-0.4,1.4-0.7,2.1-1.1c0,0,0,0,0.1-0.1c0.1,0,0.1-0.1,0.2-0.1c0.7-0.3,1.3-0.7,1.9-1
		s1.4-0.7,2.1-1c0.1-0.1,0.1-0.1,0.2-0.1c0.7-0.3,1.3-0.6,1.9-0.9c0.9-0.4,1.9-0.8,2.9-1.2c0.1-0.1,0.3-0.1,0.6-0.2
		c0.1,0,0.2-0.1,0.3-0.1c0.2-0.1,0.5-0.2,0.7-0.3c0.5-0.2,0.9-0.4,1.5-0.6c0.5-0.2,1-0.4,1.5-0.5c0.5-0.2,0.8-0.3,1.3-0.4
		c0.1,0,0.1-0.1,0.2-0.1c0.5-0.2,1-0.3,1.5-0.5c0.5-0.1,0.9-0.3,1.3-0.4c0,0,0,0,0.1,0h0.1c0.5-0.2,0.9-0.3,1.5-0.4
		c0.6-0.2,1-0.3,1.6-0.5c0.3-0.1,0.7-0.2,1-0.3c0.1,0,0.1,0,0.2-0.1c0.2-0.1,0.6-0.1,0.8-0.2c0.9-0.2,1.7-0.4,2.6-0.6
		c0.5-0.1,0.8-0.2,1.3-0.3c0.7-0.1,1.3-0.3,1.9-0.4c0.6-0.1,1.3-0.3,1.9-0.4c0.6-0.1,1.3-0.2,1.8-0.3c0.6-0.1,1.1-0.2,1.7-0.3
		c0.7-0.1,1.4-0.2,2.1-0.3c0.8-0.1,1.7-0.2,2.5-0.3c1.7-0.2,3.5-0.4,5.4-0.5c0.8-0.1,1.6-0.1,2.4-0.1c0.1,0,0.1,0,0.2,0
		c0.6,0,1.3-0.1,1.9-0.1c0.1,0,0.2,0,0.3,0c0.1,0,0.2,0,0.5,0c0.8,0,1.6,0,2.4,0l0,0l0,0l0,0c0.8,0,1.5,0,2.3,0c0.3,0,0.7,0,1,0
		c0.7,0,1.5,0,2.2,0.1c0.7,0,1.5,0.1,2.2,0.1c0.2,0,0.5,0,0.6,0c0.3,0,0.7,0.1,1,0.1s0.7,0.1,1,0.1h0.1c0.3,0,0.7,0.1,1,0.1
		c0.3,0,0.7,0.1,1,0.1c0.1,0,0.2,0,0.5,0.1h0.1c0.8,0.1,1.6,0.2,2.4,0.3c0.3,0.1,0.8,0.1,1.1,0.2c0.5,0.1,0.8,0.1,1.3,0.2
		c0.1,0,0.2,0,0.2,0c0.2,0,0.6,0.1,0.8,0.1c0.6,0.1,1,0.2,1.6,0.3c0.2,0,0.5,0.1,0.7,0.1c0.5,0.1,0.8,0.2,1.3,0.2
		c0.1,0,0.3,0.1,0.5,0.1c0.7,0.2,1.5,0.3,2.2,0.5c0.1,0,0.3,0.1,0.6,0.1c0.7,0.2,1.5,0.3,2.2,0.5c0.8,0.2,1.6,0.4,2.4,0.6
		c0.5,0.1,0.8,0.2,1.3,0.3c0.3,0.1,0.8,0.2,1.1,0.3c0.7,0.2,1.4,0.4,2.1,0.6c0.1,0,0.1,0.1,0.2,0.1c0.8,0.3,1.6,0.5,2.3,0.8
		c0.3,0.1,0.8,0.3,1.1,0.4c0.3,0.1,0.8,0.3,1.1,0.4c0.7,0.2,1.3,0.5,1.9,0.7s1.3,0.5,1.9,0.8c0.3,0.1,0.6,0.2,0.9,0.4
		c0.7,0.3,1.3,0.6,1.9,0.8c0,0,0.1,0,0.1,0.1c0.7,0.3,1.5,0.7,2.2,1c0.2,0.1,0.5,0.2,0.6,0.3c0.3,0.2,0.7,0.4,1,0.5
		c0.1,0.1,0.2,0.1,0.3,0.2c0,0,0.1,0,0.1,0.1c0.3,0.1,0.6,0.3,0.8,0.4c0.2,0.2,0.6,0.3,0.8,0.4c0,0,0.1,0.1,0.2,0.1
		c0.2,0.1,0.6,0.3,0.8,0.4c0.5,0.2,0.8,0.5,1.3,0.7c0.1,0,0.2,0.1,0.2,0.1c0.6,0.3,1.1,0.6,1.7,1c0.8,0.5,1.6,1,2.4,1.5
		s1.5,1,2.3,1.5l0.1,0.1c0.7,0.4,1.3,0.8,1.8,1.3c0.3,0.2,0.6,0.4,0.9,0.6c0.6,0.4,1,0.8,1.6,1.1c0.1,0.1,0.3,0.2,0.5,0.3
		c1.4,1.1,2.7,2.1,4.1,3.2l0.1,0.1c0.7,0.6,1.4,1.2,2.1,1.8c0.7,0.6,1.4,1.2,2.1,1.9c1,0.9,2.1,1.9,3,2.9c0.2,0.2,0.5,0.5,0.7,0.7
		c0.1,0.1,0.2,0.2,0.3,0.3c0.5,0.5,1,1.1,1.5,1.6c0.1,0.1,0.2,0.3,0.3,0.4c0.1,0.2,0.2,0.3,0.5,0.5c0.5,0.5,0.9,1.1,1.4,1.6
		c0.6,0.6,1,1.3,1.6,1.9c0.1,0.1,0.1,0.1,0.1,0.2c0.1,0.1,0.1,0.2,0.2,0.3c0.3,0.3,0.6,0.7,0.8,1.1c0.1,0.1,0.1,0.2,0.2,0.3
		c0.1,0.2,0.2,0.4,0.5,0.6c0.1,0.2,0.2,0.3,0.3,0.5l0,0c0.3,0.5,0.7,0.9,1,1.4c0.7,0.9,1.3,1.9,1.9,2.8c0.5,0.8,1,1.6,1.5,2.3
		c0.5,0.7,0.8,1.4,1.3,2.1c0.1,0.2,0.2,0.3,0.2,0.5c0.3,0.6,0.6,1.2,0.9,1.7c0.1,0.1,0.1,0.2,0.2,0.4c0.3,0.6,0.7,1.3,0.9,1.9
		c0.1,0.2,0.2,0.4,0.2,0.5c0.3,0.6,0.7,1.3,0.9,2c0,0,0,0,0,0.1c0.2,0.5,0.5,1,0.7,1.5c0,0.1,0,0.1,0.1,0.2c0.1,0.4,0.3,0.8,0.5,1.2
		c0.1,0.3,0.2,0.6,0.3,0.9c0.2,0.6,0.5,1.3,0.7,1.9c0.1,0.2,0.1,0.3,0.2,0.5c0.2,0.5,0.3,1,0.5,1.5c0.2,0.8,0.6,1.7,0.8,2.5
		c0.2,0.7,0.3,1.3,0.6,2c0.1,0.6,0.3,1.3,0.5,1.9c0.1,0.5,0.2,1,0.3,1.5c0,0.1,0,0.2,0,0.2c0.1,0.3,0.1,0.6,0.2,0.9
		c0.1,0.8,0.3,1.5,0.5,2.3c0.1,0.5,0.1,0.9,0.2,1.4c0,0.3,0.1,0.7,0.1,1c0.1,0.5,0.1,1.1,0.2,1.6c0,0.3,0,0.5,0.1,0.8
		c0.1,0.5,0.1,1,0.1,1.5c0,0.1,0,0.2,0,0.3c0,0.4,0,0.7,0.1,1.1c0,0.3,0,0.7,0.1,1.1c0,0.6,0.1,1.2,0.1,1.8c0,0.3,0,0.6,0,0.9
		c0,0.6,0,1.3,0,1.9l0,0l0,0c0,0.7,0,1.4,0,2.1c0,0.6,0,1.2-0.1,1.8c0,0.5,0,0.9-0.1,1.4c0,0.5-0.1,1-0.1,1.5c0,0.7-0.1,1.3-0.2,2
		c0,0.2,0,0.4,0,0.6c-0.1,0.7-0.1,1.3-0.2,1.9c-0.1,0.7-0.2,1.3-0.3,1.9c-0.1,0.3-0.1,0.7-0.2,1.1c-0.1,0.9-0.3,1.9-0.6,2.8
		c-0.1,0.5-0.2,0.9-0.3,1.4c-0.1,0.5-0.2,1.1-0.3,1.6c-0.2,0.7-0.3,1.4-0.6,2.1c-0.1,0.6-0.3,1.1-0.5,1.7c-0.1,0.2-0.1,0.4-0.2,0.7
		c-0.2,0.6-0.5,1.2-0.6,1.8c-0.5,1.2-0.8,2.3-1.3,3.4c-0.2,0.7-0.6,1.3-0.8,2c-0.2,0.4-0.3,0.9-0.6,1.3c-0.1,0.4-0.3,0.8-0.6,1.2
		c-0.2,0.4-0.3,0.8-0.6,1.2c-0.1,0.1-0.1,0.3-0.2,0.4c-0.2,0.3-0.3,0.7-0.6,1c-0.5,0.9-0.9,1.7-1.4,2.6c-0.1,0.2-0.2,0.5-0.5,0.7
		c-0.1,0.1-0.1,0.3-0.2,0.4s-0.1,0.3-0.2,0.4c-0.2,0.4-0.6,0.9-0.8,1.3c-0.2,0.4-0.5,0.8-0.8,1.2l0,0c-0.2,0.4-0.5,0.7-0.7,1.1
		c-0.2,0.4-0.5,0.7-0.7,1.1c-0.7,1.1-1.5,2.1-2.3,3.2c-0.2,0.4-0.6,0.7-0.8,1.1c-0.3,0.4-0.7,0.9-1,1.3c-0.2,0.2-0.5,0.5-0.6,0.7
		c-0.2,0.2-0.3,0.5-0.6,0.7c0,0.1-0.1,0.1-0.1,0.2s-0.1,0.1-0.1,0.2c-0.2,0.2-0.5,0.5-0.6,0.7c0,0,0,0,0,0.1
		c-0.2,0.3-0.5,0.6-0.8,0.9l0,0c-0.2,0.3-0.6,0.6-0.8,0.9c-0.1,0.1-0.1,0.2-0.2,0.3c-0.1,0.1-0.1,0.2-0.2,0.3
		c-0.5,0.5-0.9,1-1.4,1.5c-0.1,0.1-0.1,0.1-0.1,0.2c-0.3,0.4-0.8,0.8-1.1,1.2c-0.2,0.3-0.6,0.5-0.8,0.8c-0.2,0.2-0.5,0.5-0.7,0.7
		c-0.1,0.1-0.2,0.2-0.3,0.3c-0.2,0.3-0.6,0.5-0.8,0.8c-0.1,0.1-0.1,0.1-0.2,0.2c-0.6,0.5-1,1-1.6,1.5c-0.2,0.2-0.5,0.4-0.7,0.6
		c-0.6,0.5-1.1,1-1.7,1.4l0,0l0,0c-0.7,0.5-1.4,1.1-2.1,1.6c-0.7,0.5-1.4,1.1-2.1,1.6c-0.1,0.1-0.2,0.1-0.2,0.2
		c-0.2,0.2-0.5,0.3-0.6,0.4s-0.3,0.2-0.5,0.4l-0.1,0.1c-0.3,0.2-0.7,0.4-1,0.7c-0.7,0.4-1.3,0.9-1.9,1.3c-0.1,0.1-0.3,0.2-0.5,0.3
		c-0.5,0.3-0.9,0.6-1.4,0.9c-0.1,0.1-0.3,0.2-0.5,0.3c-0.2,0.1-0.3,0.2-0.6,0.3c-0.3,0.2-0.6,0.4-0.9,0.6c-0.1,0.1-0.2,0.2-0.5,0.2
		c-0.6,0.3-1.1,0.7-1.8,1c-0.7,0.4-1.4,0.8-2.1,1.1c-0.1,0-0.1,0.1-0.2,0.1c-0.9,0.5-1.7,0.9-2.6,1.3c-0.6,0.3-1.1,0.5-1.6,0.8
		c-0.5,0.2-1,0.5-1.5,0.7c-0.5,0.2-1,0.4-1.5,0.7c-0.5,0.2-0.9,0.4-1.4,0.6c-0.6,0.2-1.1,0.5-1.6,0.7c-0.5,0.2-0.9,0.4-1.5,0.6
		c-0.3,0.1-0.7,0.3-1,0.4c-0.6,0.2-1.1,0.4-1.7,0.6c0,0-0.1,0-0.1,0.1c-0.7,0.3-1.5,0.5-2.3,0.8s-1.6,0.5-2.3,0.7s-1.4,0.4-2.2,0.6
		c-0.1,0-0.3,0.1-0.5,0.1c-0.7,0.2-1.4,0.4-2.2,0.6c-0.8,0.2-1.6,0.4-2.4,0.6s-1.6,0.4-2.4,0.5c-0.8,0.2-1.6,0.3-2.4,0.5
		c-0.1,0-0.2,0.1-0.5,0.1c-0.1,0-0.1,0-0.2,0c-0.6,0.1-1.1,0.2-1.7,0.3h-0.1h-0.1c-0.6,0.1-1.1,0.2-1.7,0.3c-0.1,0-0.2,0-0.3,0
		c-0.3,0.1-0.6,0.1-0.9,0.1c-0.7,0.1-1.4,0.2-2.1,0.3c-0.8,0.1-1.6,0.2-2.4,0.3c-0.8,0.1-1.7,0.2-2.5,0.2c-0.9,0.1-1.7,0.1-2.6,0.2
		c-0.8,0-1.6,0.1-2.3,0.1c-0.2,0-0.6,0-0.8,0c-0.7,0-1.3,0-1.9,0C347.6,1926.4,347.3,1926.4,346.8,1926.4L346.8,1926.4L346.8,1926.4
		z"/>
</g>
<g>
	<path class="st0" d="M377.9,1612.9l-94.4,30.8v-13.2l46.5-14.7c12.7-4.1,24.2-7.6,35.3-10.1v-0.3c-10.9-2.7-22.8-6.6-35.1-10.8
		l-46.6-16v-13l94.4,33.7L377.9,1612.9L377.9,1612.9z"/>
	<path class="st0" d="M343.5,1499.3c-20.7,0-34.9,13.2-34.9,32.6c0,18.8,13.3,33.6,36,33.6c21.4,0,34.9-14.1,34.9-32.5
		C379.5,1516.6,368.6,1499.3,343.5,1499.3z M344.2,1553c-12.9,0-26.3-6.3-26.3-20.9s14.6-20.3,26-20.3c15.3,0,26.3,8.8,26.3,20.6
		C370.2,1544.5,359,1553,344.2,1553z"/>
	<path class="st0" d="M290.7,1468.9h19.5v-17.6h9.4v17.6h36.5c8.4,0,13.2-2.4,13.2-9.2c0-3.2-0.4-5.6-0.8-7.1l9.2-0.6
		c1,2.4,1.7,6.2,1.7,10.9c0,5.7-1.8,10.4-5.2,13.3c-3.6,3.5-9.7,4.8-17.6,4.8h-37v10.5h-9.4V1481H294L290.7,1468.9z"/>
	<path class="st0" d="M331.3,1437.4c-8,0-14.8,0.1-21.1,0.6v-10.8l13.3-0.4v-0.6c-9.1-3.1-14.8-10.5-14.8-18.8
		c0-1.4,0.1-2.4,0.4-3.5h11.6c-0.3,1.3-0.4,2.5-0.4,4.2c0,8.7,6.6,14.8,15.8,16.5c1.7,0.3,3.6,0.6,5.7,0.6h36.1v12.2L331.3,1437.4
		L331.3,1437.4z"/>
	<path class="st0" d="M375.1,1342l-8.8,2.1c2,4.6,3.5,9.9,3.5,18.8c0,12.3-6.9,23-23.5,23.2v-47.6c-1.3-0.1-3.2-0.4-5.7-0.4
		c-12.5,0-31.9,5.9-31.9,28c0,19.7,16.1,31.8,36.5,31.8s34.2-12.5,34.2-33.3C379.3,1353.8,377.1,1346.4,375.1,1342z M337.5,1386
		c-8.5-1-20-6.4-20-18.9c0-13.9,12.2-17.2,20-17.1V1386z"/>
	<path class="st0" d="M369.4,1227.4v-0.4l8.5-1v-11.2c-4.6,0.8-10.4,1.1-16.2,1.1h-25.3c-13.6,0-27.7,5-27.7,25.8
		c0,8.5,2.4,16.7,6,22.3l8.1-2.8c-3.1-4.8-5-11.3-5-17.6c0-13.9,10.1-15.4,15.7-15.4h1.4c-0.1,26.2,8.8,40.7,25.2,40.7
		c9.8,0,19.5-7,19.5-20.7C379.5,1238.4,374.7,1231.2,369.4,1227.4z M358.6,1256.5c-13.2,0-15.5-15.3-15.3-28.7h11.8
		c1.3,0,2.7,0.3,3.9,0.7c5.7,2,11.3,7.6,11.3,16.4C370.4,1251.2,366.6,1256.5,358.6,1256.5z"/>
	<path class="st0" d="M310.2,1192.4l38.1-13.3c6.2-2.2,11.8-4.1,17.4-5.5v-0.4c-5.6-1.5-11.2-3.5-17.4-5.7l-38.1-13.2v-12.9
		L378,1168v11.8l-67.8,25.8V1192.4z"/>
	<path class="st0" d="M291.1,1116.1c-4.3,0-7.7,2.9-7.7,7.6c0,4.5,3.4,7.7,7.7,7.7c4.2,0,7.6-3.1,7.6-7.4
		C298.7,1119,295.3,1115.9,291.1,1116.1z M310.2,1117.5v12.3H378v-12.3H310.2z"/>
	<path class="st0" d="M365.3,1098.7c2.4-3.6,4.9-10.1,4.9-16.2c0-9-4.5-13.2-10.1-13.2c-5.9,0-9.1,3.5-12.5,12.6
		c-4.3,12.2-11.1,17.9-19.2,17.9c-10.9,0-19.9-8.8-19.9-23.4c0-6.9,2-12.9,4.2-16.7l9,3.1c-1.7,2.7-3.9,7.6-3.9,13.9
		c0,7.3,4.2,11.3,9.2,11.3c5.6,0,8.1-4.1,11.5-12.9c4.5-11.8,10.4-17.8,20.4-17.8c11.9,0,20.3,9.2,20.3,25.3c0,7.4-1.8,14.3-4.6,19
		L365.3,1098.7z"/>
	<path class="st0" d="M328.5,982.2c-7,0-12.7,0.1-18.3,0.6v-10.9l11.2-0.7v-0.3c-6.4-3.4-12.7-11.2-12.7-22.4
		c0-9.4,5.6-23.9,28.8-23.9H378v12.3h-39.1c-10.9,0-20,4.1-20,15.7c0,8.1,5.7,14.4,12.6,16.5c1.5,0.6,3.6,0.8,5.7,0.8h40.7v12.3
		L328.5,982.2L328.5,982.2z"/>
	<path class="st0" d="M343.5,843.2c-20.7,0-34.9,13.2-34.9,32.6c0,18.8,13.3,33.6,36,33.6c21.4,0,34.9-14.1,34.9-32.5
		C379.5,860.6,368.6,843.2,343.5,843.2z M344.2,897c-12.9,0-26.3-6.3-26.3-20.9c0-14.6,14.6-20.3,26-20.3c15.3,0,26.3,8.8,26.3,20.6
		C370.2,888.4,359,897,344.2,897z"/>
	<path class="st0" d="M359.5,771c7,0,13.2-0.1,18.5-0.6v10.9l-11.1,0.7v0.3c5.5,3.2,12.6,10.4,12.6,22.4c0,10.6-5.9,23.4-29.7,23.4
		h-39.6v-12.3h37.5c12.9,0,21.6-3.9,21.6-15.1c0-8.3-5.7-14-11.2-16.2c-1.8-0.7-4.1-1.1-6.3-1.1h-41.6V771H359.5L359.5,771z"/>
	<path class="st0" d="M365.3,752.2c2.4-3.6,4.9-10.1,4.9-16.2c0-9-4.5-13.2-10.1-13.2c-5.9,0-9.1,3.5-12.5,12.6
		c-4.3,12.2-11.1,17.9-19.2,17.9c-10.9,0-19.9-8.8-19.9-23.4c0-6.9,2-12.9,4.2-16.7l9,3.1c-1.7,2.7-3.9,7.6-3.9,13.9
		c0,7.3,4.2,11.3,9.2,11.3c5.6,0,8.1-4.1,11.5-12.9c4.5-11.8,10.4-17.8,20.4-17.8c11.9,0,20.3,9.2,20.3,25.3c0,7.4-1.8,14.3-4.6,19
		L365.3,752.2z"/>
	<path class="st0" d="M291.1,622c-4.3,0-7.7,2.9-7.7,7.6c0,4.5,3.4,7.7,7.7,7.7c4.2,0,7.6-3.1,7.6-7.4
		C298.7,625,295.3,621.9,291.1,622z M310.2,623.4v12.3H378v-12.3H310.2z"/>
	<path class="st0" d="M328.5,603c-7,0-12.7,0.1-18.3,0.6v-10.9l11.2-0.7v-0.3c-6.4-3.4-12.7-11.2-12.7-22.4
		c0-9.4,5.6-23.9,28.8-23.9H378v12.3h-39.1c-10.9,0-20,4.1-20,15.7c0,8.1,5.7,14.4,12.6,16.5c1.5,0.6,3.6,0.8,5.7,0.8h40.7V603
		H328.5z"/>
	<path class="st0" d="M290.7,511h19.5v-17.6h9.4V511h36.5c8.4,0,13.2-2.4,13.2-9.2c0-3.2-0.4-5.6-0.8-7.1l9.2-0.6
		c1,2.4,1.7,6.2,1.7,10.9c0,5.7-1.8,10.4-5.2,13.3c-3.6,3.5-9.7,4.8-17.6,4.8h-37v10.5h-9.4v-10.5H294L290.7,511z"/>
	<path class="st0" d="M280.9,434.4V448l20,12.3v-8.8L280.9,434.4z M375.1,429.4l-8.8,2.1c2,4.6,3.5,9.9,3.5,18.8
		c0,12.3-6.9,23-23.5,23.2v-47.6c-1.3-0.1-3.2-0.4-5.7-0.4c-12.5,0-31.9,5.9-31.9,28c0,19.7,16.1,31.8,36.5,31.8
		s34.2-12.5,34.2-33.3C379.3,441.2,377.1,433.7,375.1,429.4z M337.5,473.4c-8.5-1-20-6.4-20-18.9c0-13.9,12.2-17.2,20-17.1V473.4z"
		/>
	<path class="st0" d="M331.3,410.2c-8,0-14.8,0.1-21.1,0.6V400l13.3-0.4V399c-9.1-3.1-14.8-10.5-14.8-18.8c0-1.4,0.1-2.4,0.4-3.5
		h11.6c-0.3,1.3-0.4,2.5-0.4,4.2c0,8.7,6.6,14.8,15.8,16.5c1.7,0.3,3.6,0.6,5.7,0.6h36.1v12.2L331.3,410.2L331.3,410.2z"/>
	<path class="st0" d="M375.1,314.9l-8.8,2.1c2,4.6,3.5,9.9,3.5,18.8c0,12.3-6.9,23-23.5,23.2v-47.6c-1.3-0.1-3.2-0.4-5.7-0.4
		c-12.5,0-31.9,5.9-31.9,28c0,19.7,16.1,31.8,36.5,31.8s34.2-12.5,34.2-33.3C379.3,326.6,377.1,319.2,375.1,314.9z M337.5,358.8
		c-8.5-1-20-6.4-20-18.9c0-13.9,12.2-17.2,20-17.1V358.8z"/>
	<path class="st0" d="M365.3,297.4c2.4-3.6,4.9-10.1,4.9-16.2c0-9-4.5-13.2-10.1-13.2c-5.9,0-9.1,3.5-12.5,12.6
		c-4.3,12.2-11.1,17.9-19.2,17.9c-10.9,0-19.9-8.8-19.9-23.4c0-6.9,2-12.9,4.2-16.7l9,3.1c-1.7,2.7-3.9,7.6-3.9,13.9
		c0,7.3,4.2,11.3,9.2,11.3c5.6,0,8.1-4.1,11.5-12.9C343,262,348.9,256,358.9,256c11.9,0,20.3,9.2,20.3,25.3c0,7.4-1.8,14.3-4.6,19
		L365.3,297.4z"/>
	<path class="st0" d="M365.3,241.9c2.4-3.6,4.9-10.1,4.9-16.2c0-9-4.5-13.2-10.1-13.2c-5.9,0-9.1,3.5-12.5,12.6
		c-4.3,12.2-11.1,17.9-19.2,17.9c-10.9,0-19.9-8.8-19.9-23.4c0-6.9,2-12.9,4.2-16.7l9,3.1c-1.7,2.7-3.9,7.6-3.9,13.9
		c0,7.3,4.2,11.3,9.2,11.3c5.6,0,8.1-4.1,11.5-12.9c4.5-11.8,10.4-17.8,20.4-17.8c11.9,0,20.3,9.2,20.3,25.3c0,7.4-1.8,14.3-4.6,19
		L365.3,241.9z"/>
	<path class="st0" d="M375.1,133.9l-8.8,2.1c2,4.6,3.5,9.9,3.5,18.8c0,12.3-6.9,23-23.5,23.2v-47.6c-1.3-0.1-3.2-0.4-5.7-0.4
		c-12.5,0-31.9,5.9-31.9,28c0,19.7,16.1,31.8,36.5,31.8s34.2-12.5,34.2-33.3C379.3,145.6,377.1,138.2,375.1,133.9z M337.5,177.8
		c-8.5-1-20-6.4-20-18.9c0-13.9,12.2-17.2,20-17.1V177.8z"/>
	<path class="st0" d="M283.6,72.4v13.4l67.2-2v-9.5L283.6,72.4z M370.8,70.9c-5,0-8.7,3.2-8.7,8.3c0,4.8,3.6,8.3,8.7,8.3
		c4.9,0,8.7-3.4,8.7-8.3C379.5,74.1,375.7,70.9,370.8,70.9z"/>
</g>
<g>
	<path class="st1" d="M337.4,1928.9c-0.8,0-1.6,0-2.3,0c-0.5,0-1.1,0-1.6,0c-0.1,0-0.1,0-0.2,0c-0.4,0-0.7,0-1-0.1
		c-0.6,0-1.3-0.1-1.9-0.1s-1.2-0.1-1.8-0.2c-0.1,0-0.3,0-0.4,0H328c-0.7-0.1-1.4-0.2-2.1-0.3c0,0-0.7-0.1-0.8-0.1
		c-0.1,0-0.3,0-0.4-0.1c-0.2,0-0.3,0-0.5-0.1c-0.3,0-0.6-0.1-0.9-0.1h-0.1c-0.5-0.1-1-0.2-1.5-0.3c-0.5-0.1-1.1-0.2-1.7-0.3
		c-0.4-0.1-0.8-0.1-1.1-0.2c-0.2,0-0.4-0.1-0.6-0.1c-0.3-0.1-0.7-0.2-1.1-0.2c-0.7-0.2-1.5-0.3-2.2-0.5c-0.6-0.2-1.3-0.3-1.9-0.5
		c-1-0.3-2-0.6-3-0.9c-1.3-0.4-2.4-0.8-3.5-1.2c-0.7-0.3-1.5-0.5-2.2-0.8l-0.2-0.1c-0.6-0.3-1.3-0.5-1.9-0.8
		c-0.5-0.2-1.1-0.5-1.7-0.7l-0.3-0.1c-0.1,0-0.2-0.1-0.2-0.1c-0.6-0.3-1.2-0.6-1.9-0.9c-0.7-0.3-1.4-0.7-2.1-1
		c-0.6-0.3-1.2-0.6-1.8-0.9c-0.6-0.3-1.2-0.7-1.8-1l-0.3-0.2c-0.6-0.3-1.1-0.7-1.7-1c-0.6-0.4-1.2-0.8-1.9-1.1
		c-0.6-0.4-1.2-0.8-1.8-1.2c-0.4-0.2-0.7-0.5-1-0.7l-1.3-0.9c-0.3-0.2-0.7-0.5-1-0.7c0,0-0.2-0.2-0.3-0.2c-0.6-0.4-1.2-0.9-1.7-1.3
		c-1.1-0.9-2.3-1.8-3.5-2.8c-0.5-0.5-1-0.9-1.5-1.4c-0.7-0.6-1.4-1.3-2.2-2c-0.7-0.7-1.4-1.4-2.1-2.1c-0.2-0.2-0.5-0.5-0.7-0.7
		c-0.4-0.4-0.8-0.9-1.2-1.3c-0.4-0.4-0.8-0.8-1.2-1.3c-0.3-0.3-0.6-0.7-0.9-1l-1.1-1.3c-0.2-0.3-0.4-0.5-0.6-0.8
		c-0.4-0.5-0.8-1-1.2-1.5c-0.2-0.2-0.4-0.5-0.6-0.8l-0.3-0.4c-0.3-0.4-0.6-0.8-0.9-1.2c-0.3-0.4-0.5-0.8-0.8-1.1
		c-0.2-0.3-0.4-0.6-0.7-1l-0.2-0.3c-0.2-0.3-0.5-0.7-0.7-1.1l-0.4-0.7c-0.2-0.3-0.3-0.5-0.5-0.8c-0.2-0.4-0.5-0.8-0.8-1.3
		c-0.5-0.8-1-1.7-1.5-2.6c-0.1-0.2-0.3-0.5-0.4-0.7l-0.3-0.5c-0.2-0.4-0.5-0.9-0.7-1.3c0,0-0.3-0.6-0.4-0.7
		c-0.2-0.4-0.5-0.9-0.7-1.4c-0.3-0.5-0.5-1.1-0.8-1.7l-0.1-0.3c-0.3-0.7-0.6-1.3-0.9-2s-0.6-1.4-0.9-2.1c-0.2-0.5-0.4-1-0.6-1.6
		l-0.2-0.4c-0.1-0.4-0.3-0.7-0.4-1.1c-0.1-0.3-0.3-0.7-0.4-1.1c-0.2-0.6-0.5-1.3-0.7-2.1l-0.3-1.1c-0.1-0.4-0.2-0.7-0.3-1.1
		c-0.5-1.5-0.8-3-1.2-4.5c-0.2-0.6-0.3-1.3-0.4-1.9c-0.2-0.8-0.3-1.5-0.5-2.3l-0.2-1.1l-0.2-1.1c-0.1-0.7-0.2-1.4-0.3-2.1
		c-0.1-0.7-0.2-1.4-0.3-2.1c0,0,0-0.4,0-0.5c-0.1-0.7-0.1-1.4-0.2-2.1l-0.1-1.1l-0.1-1.1c0-0.7-0.1-1.4-0.1-2v-0.1
		c0-0.2,0-0.3,0-0.5c0-0.7,0-1.4,0-2.1c0-0.3,0-0.7,0-1c0-0.8,0-1.6,0-2.4s0.1-1.5,0.1-2.3v-0.1c0-0.6,0.1-1.3,0.1-1.9
		c0-0.1,0-0.2,0-0.3c0-0.1,0-0.2,0-0.2c0.1-0.7,0.1-1.4,0.2-2.1s0.1-1.4,0.2-2l0.1-0.7c0.1-0.6,0.2-1.2,0.3-1.9
		c0.1-0.7,0.2-1.5,0.4-2.2l0.1-0.3c0.1-0.6,0.2-1.1,0.3-1.7c0-0.2,0.1-0.4,0.1-0.6c0.1-0.6,0.3-1.2,0.4-1.9c0.1-0.7,0.3-1.3,0.5-2
		c0-0.2,0.1-0.4,0.2-0.6c0.1-0.6,0.3-1.2,0.5-1.8c0.2-0.6,0.3-1.2,0.5-1.8v-0.1c0.1-0.3,0.1-0.5,0.2-0.7c0.2-0.5,0.4-1.1,0.6-1.7
		c0.2-0.5,0.3-1,0.5-1.4l0.2-0.6c0.3-0.7,0.5-1.5,0.8-2.2s0.6-1.4,0.9-2.1c0.2-0.6,0.5-1.2,0.8-1.8c0.1-0.2,0.2-0.4,0.3-0.6
		c0.2-0.5,0.5-1.1,0.8-1.6c0.3-0.7,0.6-1.3,1-2c0.3-0.6,0.6-1.2,0.9-1.8l0.1-0.2l0.2-0.3c0.3-0.5,0.6-1.1,0.9-1.6
		c0.4-0.7,0.8-1.3,1.1-1.9c0.7-1.2,1.5-2.5,2.4-3.7c0.4-0.6,0.8-1.2,1.3-1.8l0.1-0.1c0.9-1.2,1.7-2.4,2.6-3.4
		c0.4-0.6,0.9-1.1,1.4-1.7c0.3-0.4,0.7-0.8,1-1.2l0.4-0.4c0.5-0.6,1-1.1,1.5-1.7c0.5-0.5,1-1.1,1.5-1.6s1-1,1.5-1.6
		c0.9-0.9,1.9-1.9,2.9-2.8l0.1-0.1c0.1-0.1,0.2-0.2,0.3-0.3c0.5-0.4,1-0.9,1.5-1.3s1-0.9,1.5-1.3l0.1-0.1c0.1-0.1,0.2-0.2,0.3-0.3
		c0.3-0.3,0.7-0.6,1-0.8c0.2-0.2,0.5-0.4,0.8-0.6h0.1c0.5-0.4,0.9-0.7,1.4-1.1c1-0.7,2-1.4,3.1-2.2c0.5-0.4,1.1-0.7,1.6-1.1
		c0.1-0.1,0.3-0.2,0.5-0.3l0.6-0.4c0.6-0.4,1.3-0.8,1.9-1.2c0.6-0.4,1.3-0.8,1.9-1.1c0.6-0.3,1.2-0.7,1.8-1c0.6-0.3,1.3-0.7,2-1
		c0.9-0.4,1.7-0.9,2.6-1.3l0.9-0.4c0.1-0.1,0.3-0.1,0.4-0.2c0.4-0.2,0.8-0.4,1.3-0.6c0.4-0.2,0.9-0.4,1.3-0.6l1.1-0.5h0.1l0.1-0.1
		c0.4-0.1,0.8-0.3,1.2-0.5h0.1c0.3-0.1,0.6-0.2,0.9-0.3l0.1-0.1l0.3-0.1c0.4-0.1,0.8-0.3,1.2-0.4c0.5-0.2,1-0.3,1.5-0.5h0.1
		c0.2-0.1,0.5-0.1,0.7-0.2h0.2c0.1,0,0.2-0.1,0.3-0.1l0.6-0.2c0.8-0.2,1.6-0.4,2.3-0.7c0.9-0.2,1.9-0.5,2.8-0.7
		c0.6-0.1,1.1-0.3,1.7-0.4s1.1-0.2,1.7-0.3c0.5-0.1,1-0.2,1.6-0.3c0.6-0.1,1.2-0.2,1.8-0.3c0.7-0.1,1.5-0.2,2.3-0.3
		c1.6-0.2,3.2-0.4,4.8-0.5c0.7,0,1.4-0.1,2.1-0.1c0.1,0,0.2,0,0.3,0c0.5,0,1.1,0,1.6-0.1c0.1,0,0.2,0,0.3,0c0.1,0,0.3,0,0.5,0
		c0.7,0,1.4,0,2.1,0s1.4,0,2.1,0l0,0c0.2,0,0.5,0,0.8,0c0.6,0,1.3,0,2,0.1c0.6,0,1.3,0.1,1.9,0.1c0.2,0,0.4,0,0.6,0
		c0.3,0,0.6,0,0.9,0.1c0.3,0,0.5,0,0.7,0.1h0.2c0.1,0,0.2,0,0.3,0l0.8,0.1c0.3,0,0.7,0.1,1,0.1l-0.1,2.5l0.2-1.5v-0.9h0.1l0,0h0.1
		c0.1,0,0.2,0,0.3,0c0.7,0.1,1.4,0.2,2.1,0.3c0.3,0,0.7,0.1,1.1,0.2c0,0,1.1,0.2,1.2,0.2l1.3,0.2l1.5,0.3l1.8,0.4
		c0.6,0.1,1.2,0.3,1.8,0.4l0.5,0.1c0.7,0.2,1.3,0.4,1.9,0.5c0.7,0.2,1.4,0.4,2.1,0.6l1.2,0.4l1.4,0.5c0.5,0.2,1,0.3,1.5,0.5l0.2,0.1
		c0.7,0.3,1.4,0.5,2.1,0.8c0.2,0.1,1,0.4,1,0.4l1.1,0.4c0.6,0.2,1.2,0.5,1.7,0.8c0.6,0.2,1.1,0.5,1.7,0.8l0.8,0.4
		c0.6,0.3,1.9,0.9,1.9,0.9l0,0c0.7,0.3,1.3,0.7,1.9,1l0.5,0.3c0.3,0.2,0.6,0.4,1,0.6c0,0,0.1,0.1,0.2,0.1c0.1,0.1,0.2,0.1,0.3,0.2
		l0.7,0.4l0.2,0.1c0.2,0.1,0.3,0.2,0.5,0.3l0.2,0.1c0.2,0.1,0.4,0.2,0.6,0.4c0.4,0.2,0.8,0.5,1.2,0.7l0.1,0.1
		c0.6,0.4,1.1,0.7,1.6,1.1c0.7,0.5,1.5,1,2.2,1.5s1.4,1,2,1.5l0.1,0.1c0.6,0.4,1.1,0.8,1.6,1.3c0.3,0.2,0.6,0.5,0.9,0.7
		c0.4,0.4,0.9,0.7,1.3,1.1c0.2,0.1,0.3,0.3,0.5,0.4c1.2,1,2.4,2.1,3.6,3.2c0.1,0.1,0.2,0.2,0.3,0.3c0.6,0.6,1.2,1.2,1.8,1.8
		c0.6,0.6,1.2,1.3,1.8,1.9c0.5,0.5,1,1.1,1.5,1.7l0.3,0.3c0.3,0.3,0.6,0.6,0.9,1l0.1,0.1c0.3,0.3,0.5,0.6,0.8,0.9l0.1,0.2
		c0.4,0.5,0.8,1,1.2,1.5c0.1,0.1,0.2,0.3,0.4,0.4c0.1,0.2,0.2,0.3,0.4,0.5c0.4,0.5,0.8,1.1,1.2,1.6c0.5,0.6,0.9,1.2,1.3,1.9
		c0.1,0.1,0.1,0.2,0.2,0.3l0.2,0.3c0.3,0.4,0.5,0.8,0.8,1.2c0.1,0.1,0.1,0.2,0.2,0.3h1.1v1.8c0.1,0.2,0.5,0.8,0.5,0.8
		c0.6,1,1.2,2,1.7,2.9c0.5,0.8,0.9,1.6,1.3,2.4c0.4,0.7,0.7,1.4,1.1,2.1c0.1,0.2,0.2,0.4,0.3,0.5c0.3,0.5,0.5,1.1,0.8,1.7
		c0.1,0.2,0.2,0.3,0.2,0.5c0.3,0.7,0.6,1.3,0.9,2c0.1,0.2,0.2,0.4,0.2,0.6c0.3,0.6,0.5,1.3,0.8,2l0.2,0.4l0,0
		c0.2,0.4,0.3,0.8,0.4,1.1l0.5,1.4c0.1,0.3,0.2,0.6,0.3,1c0.2,0.6,0.4,1.2,0.6,1.9c0.1,0.2,0.1,0.4,0.2,0.6c0.2,0.5,0.3,1,0.5,1.5
		c0.2,0.8,0.5,1.7,0.7,2.6c0.2,0.7,0.3,1.4,0.5,2.1c0.2,0.6,0.3,1.3,0.4,2c0.1,0.5,0.2,1,0.3,1.5l0.1,0.3c0.1,0.3,0.1,0.7,0.2,1
		c0.1,0.8,0.3,1.5,0.4,2.3c0.1,0.5,0.1,0.9,0.2,1.4c0,0.3,0.1,0.6,0.1,1c0.1,0.6,0.1,1.2,0.2,1.7l0.1,0.7v0.6c0,0.3,0.1,0.7,0.1,1
		v0.2c0,0.3,0.1,0.7,0.1,1.1l0.1,1.2c0,0.6,0.1,1.2,0.1,1.8c0,0.3,0,0.7,0,1c0,0.6,0,1.2,0,1.9c0,0.8,0,1.5,0,2.2
		c0,0.6,0,1.2-0.1,1.9c0,0.5,0,1-0.1,1.4c0,0.5-0.1,1-0.1,1.6c0,0.7-0.1,1.3-0.2,2c0,0.2,0,0.4,0,0.5c-0.1,0.8-0.2,1.4-0.3,2.1
		c-0.1,0.6-0.2,1.3-0.3,1.9l-0.2,1.1c-0.2,0.9-0.3,1.9-0.5,2.8c-0.1,0.5-0.2,1-0.3,1.4c-0.1,0.5-0.2,1-0.3,1.6
		c-0.2,0.7-0.3,1.5-0.5,2.2c-0.1,0.4-0.2,0.8-0.3,1.1l-0.2,0.7v0.1c-0.1,0.2-0.1,0.3-0.1,0.5c-0.2,0.7-0.4,1.3-0.6,2
		c-0.4,1.4-0.8,2.5-1.2,3.5c-0.2,0.7-0.5,1.3-0.7,2c-0.2,0.4-0.3,0.9-0.5,1.3c-0.1,0.4-0.3,0.8-0.5,1.2c-0.2,0.4-0.3,0.8-0.5,1.2
		c-0.1,0.1-0.5,1.2-0.6,1.5c-0.4,0.9-0.8,1.8-1.3,2.6c-0.1,0.2-0.2,0.5-0.4,0.8l-0.4,0.8c-0.3,0.5-0.5,0.9-0.7,1.4
		c-0.1,0.2-0.2,0.4-0.3,0.6v0.1v0.3l-0.5,0.5c-0.2,0.3-0.4,0.6-0.5,0.9c-0.2,0.3-0.4,0.7-0.6,1.1c-0.7,1.1-1.4,2.2-2.1,3.3
		c-0.2,0.4-0.5,0.7-0.8,1.1s-0.6,0.8-0.9,1.3l-0.5,0.7c-0.2,0.2-0.3,0.5-0.5,0.7l-0.2,0.3c0,0-0.4,0.5-0.5,0.6l-0.1,0.2l-0.2,0.2
		c-0.1,0.2-0.5,0.6-0.5,0.6l-0.1,0.1l-0.2,0.2l-0.6,0.8l-0.4,0.5c-0.4,0.5-0.8,1-1.2,1.5l-0.1,0.1l-0.1,0.1c-0.3,0.4-0.7,0.8-1,1.2
		c-0.2,0.3-0.5,0.5-0.7,0.8c0,0-0.5,0.5-0.6,0.7c-0.1,0.1-0.3,0.3-0.3,0.3c-0.3,0.3-0.5,0.5-0.7,0.8c-0.1,0.1-0.2,0.2-0.3,0.3
		c-0.6,0.6-1.2,1.2-1.8,1.8c-0.5,0.5-1,1-1.6,1.5l0,0l-0.3,0.3c-1.3,1.2-2.5,2.3-3.7,3.2l-0.2,0.2l-0.2,0.2
		c-0.1,0.1-0.2,0.2-0.3,0.2l-0.1,0.1l-0.1,0.1c-0.1,0-0.1,0.1-0.2,0.2l-0.2,0.1c-0.2,0.2-0.5,0.4-0.7,0.6l-0.3,0.2
		c-0.7,0.6-1.4,1.1-2.1,1.6s-1.4,1-2.2,1.5c-0.9,0.6-1.9,1.3-2.8,1.9c-0.6,0.4-1.2,0.8-1.8,1.1c-0.1,0.1-0.2,0.1-0.3,0.2
		c-0.8,0.4-1.5,0.9-2.3,1.3c-0.5,0.3-1,0.5-1.5,0.8l-0.3,0.2c-0.3,0.2-0.7,0.4-1,0.5c-0.4,0.2-0.9,0.5-1.3,0.7s-0.8,0.4-1.2,0.6
		c-0.5,0.2-1,0.5-1.5,0.7c-0.4,0.2-0.9,0.4-1.3,0.6l-0.8,0.4c-0.5,0.2-1,0.4-1.5,0.6c-0.1,0-0.2,0.1-0.3,0.1
		c-0.6,0.3-1.3,0.5-1.9,0.7c-0.7,0.3-1.4,0.5-2.1,0.8c-0.6,0.2-1.3,0.4-1.9,0.6l-0.5,0.2c-0.6,0.2-1.3,0.4-1.9,0.6
		c-0.7,0.2-1.4,0.4-2.2,0.6c-0.7,0.2-1.5,0.4-2.2,0.6h-0.1c-0.7,0.2-1.3,0.3-2,0.4c-0.1,0-0.2,0-0.4,0.1c-0.1,0-0.2,0-0.3,0
		c-0.5,0.1-1,0.2-1.5,0.3h-0.1c-0.1,0-0.2,0-0.3,0.1c-0.5,0.1-0.9,0.2-1.4,0.3c0,0-0.2,0-0.3,0c-0.2,0-0.5,0.1-0.8,0.1
		c-0.7,0.1-1.3,0.2-1.9,0.3h-0.2c-0.7,0.1-1.3,0.2-2,0.2c-0.8,0.1-1.5,0.2-2.3,0.2c-0.7,0.1-1.5,0.1-2.3,0.2c-0.7,0-1.4,0.1-2.1,0.1
		c-0.3,0-0.6,0-0.8,0c-0.4,0-1,0-1.5,0h-0.2C338.2,1928.9,337.8,1928.9,337.4,1928.9L337.4,1928.9z M335.1,1791.3
		c-0.6,0-1.1,0.1-1.7,0.2c-1.5,0.4-2.4,1-2.8,1.7c-0.7,1.2,0,3.4,0.6,5.5c0.2,0.6,0.4,1.2,0.5,1.8c2,8.2,3.2,18.4-6,25.2
		c-7.2,5.3-9.7,12-8.4,23.2c0.2,1.4,0.1,2.7,0.1,4c0,0.5,0,1.1,0,1.6v19.4c0,2.4,0.3,2.4,1.1,2.5c1.9,0.3,3.8,0.6,5.6,0.9
		c10.4,1.7,21.1,3.5,31.6,3.5c3.5,0,6.7-0.2,9.9-0.6c9.1-1.1,13.7-5.2,15.2-13.6c2.1-11.3,3.6-21.8,4.7-32.1c0.4-3.6,0-6-1.1-7.3
		c-1.2-1.3-3.5-2-7.2-2.1c-1.6,0-3.3,0-4.9,0c-2.2,0-4.5,0-6.7,0s-4.5,0-6.7,0h-1.7c-7.6,0-11.7-3.7-12.2-10.8
		c-0.3-3.8-1-7.7-1.7-11.5c-0.2-1.1-0.4-2.3-0.6-3.4C341.8,1794.7,338.7,1791.3,335.1,1791.3z M299.4,1878.2c1.3,0,2.7,0,4.2,0h0.3
		c1.5,0,2.5-0.3,3-0.8c0.5-0.6,0.8-1.7,0.8-3.5c-0.1-6.2-0.1-12.4-0.1-18.4c0-4.5,0-9.1,0-13.6c0-2.3,0-4.3,0-6
		c0-3.7,0.1-6.9-0.5-7.6c-0.6-0.6-4.3-0.6-6.5-0.6h-3.7c-1.3,0-2.7,0-4.2,0h-0.2c-1.4,0-2.4,0.2-2.8,0.7c-0.5,0.5-0.8,1.6-0.8,3.2
		c0.1,5,0,10,0,14.9c0,2.2,0,4.3,0,6.5v3.8c0,2.5,0,5,0,7.6c0,1.9,0,3.6,0,5.1c0,4.1-0.1,7.5,0.6,8.2c0.6,0.6,3.8,0.6,5.6,0.6
		C295.2,1878.2,298.6,1878.2,299.4,1878.2z"/>
	<path d="M337.4,1748.4c0.7,0,1.3,0,2,0c0.3,0,0.6,0,0.9,0c0.6,0,1.3,0,1.9,0.1c0.6,0,1.3,0.1,1.9,0.1c0.2,0,0.4,0,0.6,0
		c0.3,0,0.6,0.1,0.9,0.1s0.6,0.1,0.9,0.1h0.1c0.3,0,0.6,0.1,0.9,0.1s0.6,0.1,0.9,0.1c0.1,0,0.2,0,0.4,0.1h0.1
		c0.7,0.1,1.4,0.2,2.1,0.3c0.3,0.1,0.7,0.1,1,0.2c0.4,0.1,0.7,0.1,1.1,0.2c0.1,0,0.2,0,0.2,0c0.2,0,0.5,0.1,0.7,0.1
		c0.5,0.1,0.9,0.2,1.4,0.3c0.2,0,0.4,0.1,0.6,0.1c0.4,0.1,0.7,0.2,1.1,0.2c0.2,0,0.3,0.1,0.4,0.1c0.6,0.2,1.3,0.3,1.9,0.5
		c0.2,0,0.3,0.1,0.5,0.1c0.6,0.2,1.3,0.3,1.9,0.5c0.7,0.2,1.4,0.4,2.1,0.6c0.4,0.1,0.7,0.2,1.1,0.3c0.3,0.1,0.7,0.2,1,0.3
		c0.6,0.2,1.2,0.4,1.8,0.6c0.1,0,0.1,0.1,0.2,0.1c0.7,0.3,1.4,0.5,2,0.8c0.3,0.1,0.7,0.3,1,0.4s0.7,0.3,1,0.4
		c0.6,0.2,1.1,0.5,1.7,0.7s1.1,0.5,1.7,0.8c0.3,0.1,0.5,0.2,0.8,0.4c0.6,0.3,1.1,0.6,1.7,0.8c0,0,0.1,0,0.1,0.1
		c0.6,0.3,1.3,0.7,1.9,1c0.2,0.1,0.4,0.2,0.5,0.3c0.3,0.2,0.6,0.3,0.9,0.5c0.1,0.1,0.2,0.1,0.3,0.2c0,0,0.1,0,0.1,0.1
		c0.3,0.1,0.5,0.3,0.7,0.4s0.5,0.3,0.7,0.4c0,0,0.1,0.1,0.2,0.1c0.2,0.1,0.5,0.3,0.7,0.4c0.4,0.2,0.7,0.4,1.1,0.7
		c0.1,0.1,0.1,0.1,0.2,0.2c0.5,0.3,1,0.6,1.5,1c0.7,0.5,1.4,1,2.1,1.5s1.3,1,2,1.5l0.1,0.1c0.5,0.4,1.1,0.8,1.6,1.3
		c0.3,0.2,0.5,0.4,0.8,0.6c0.5,0.4,0.9,0.8,1.4,1.1c0.1,0.1,0.3,0.2,0.4,0.3c1.2,1,2.4,2.1,3.6,3.2l0.1,0.1c0.6,0.6,1.2,1.2,1.8,1.8
		c0.6,0.6,1.2,1.2,1.8,1.9c0.5,0.5,1,1.1,1.5,1.7c0.1,0.1,0.1,0.2,0.2,0.2c0.3,0.3,0.6,0.6,0.8,1c0.3,0.3,0.6,0.7,0.8,1
		c0.4,0.5,0.9,1.1,1.3,1.6c0.1,0.1,0.2,0.3,0.3,0.4c0.1,0.1,0.2,0.3,0.4,0.5c0.4,0.5,0.8,1.1,1.2,1.6c0.5,0.6,0.9,1.3,1.4,1.9
		c0.1,0.1,0.1,0.1,0.1,0.2c0.1,0.1,0.1,0.2,0.2,0.3c0.3,0.3,0.5,0.7,0.7,1.1c0.1,0.1,0.1,0.2,0.2,0.3c0.1,0.2,0.2,0.4,0.4,0.6
		c0.1,0.2,0.2,0.3,0.3,0.5l0,0c0.3,0.5,0.6,0.9,0.9,1.4c0.6,0.9,1.1,1.9,1.7,2.8c0.4,0.8,0.9,1.5,1.3,2.3c0.4,0.7,0.7,1.4,1,2.1
		c0.1,0.2,0.2,0.3,0.2,0.5c0.3,0.6,0.5,1.2,0.8,1.7c0.1,0.1,0.1,0.2,0.2,0.4c0.3,0.6,0.6,1.3,0.8,1.9c0.1,0.2,0.2,0.4,0.2,0.5
		c0.3,0.6,0.5,1.3,0.8,2c0,0,0,0,0,0.1c0.2,0.5,0.4,1,0.6,1.5c0,0.1,0,0.1,0.1,0.2c0.1,0.4,0.3,0.8,0.4,1.2c0.1,0.3,0.2,0.6,0.3,0.9
		c0.2,0.6,0.4,1.3,0.6,1.9c0.1,0.2,0.1,0.4,0.2,0.5c0.2,0.5,0.3,1,0.4,1.5c0.2,0.8,0.5,1.7,0.7,2.5c0.2,0.7,0.3,1.3,0.5,2
		c0.2,0.6,0.3,1.3,0.4,1.9c0.1,0.5,0.2,1,0.3,1.5c0,0.1,0,0.2,0.1,0.2c0.1,0.3,0.1,0.6,0.2,0.9c0.1,0.8,0.3,1.5,0.4,2.3
		c0.1,0.5,0.1,0.9,0.2,1.4c0,0.3,0.1,0.7,0.1,1c0.1,0.5,0.1,1.1,0.2,1.6c0,0.3,0,0.5,0.1,0.8c0,0.5,0.1,1,0.1,1.5c0,0.1,0,0.2,0,0.3
		c0,0.4,0,0.7,0.1,1.1c0,0.4,0,0.7,0.1,1.1c0,0.6,0.1,1.2,0.1,1.8c0,0.3,0,0.6,0,0.9c0,0.6,0,1.3,0,1.9l0,0l0,0c0,0.7,0,1.4,0,2.1
		c0,0.6,0,1.2-0.1,1.8c0,0.5,0,0.9-0.1,1.4c0,0.5-0.1,1-0.1,1.5c0,0.7-0.1,1.3-0.2,2c0,0.2,0,0.4,0,0.6c-0.1,0.6-0.1,1.3-0.2,1.9
		c-0.1,0.7-0.2,1.3-0.3,1.9c-0.1,0.4-0.1,0.7-0.2,1.1c-0.2,0.9-0.3,1.8-0.5,2.8c-0.1,0.5-0.2,0.9-0.3,1.4c-0.1,0.5-0.2,1-0.3,1.6
		c-0.2,0.7-0.3,1.4-0.5,2.1c-0.1,0.6-0.3,1.1-0.5,1.7c-0.1,0.2-0.1,0.4-0.2,0.7c-0.2,0.6-0.4,1.2-0.5,1.8c-0.4,1.2-0.7,2.3-1.1,3.4
		c-0.2,0.7-0.5,1.3-0.7,2c-0.2,0.4-0.3,0.9-0.5,1.3c-0.1,0.4-0.3,0.8-0.5,1.2c-0.2,0.4-0.3,0.8-0.5,1.2c-0.1,0.1-0.1,0.3-0.2,0.4
		c-0.2,0.3-0.3,0.7-0.5,1c-0.4,0.9-0.8,1.7-1.2,2.6c-0.1,0.2-0.2,0.5-0.4,0.7c-0.1,0.1-0.1,0.3-0.2,0.4s-0.1,0.3-0.2,0.4
		c-0.2,0.4-0.5,0.9-0.7,1.3c-0.1,0.2-0.2,0.4-0.4,0.7c-0.1,0.2-0.2,0.4-0.3,0.5l0,0c-0.2,0.4-0.4,0.7-0.6,1.1s-0.4,0.7-0.6,1.1
		c-0.6,1.1-1.3,2.1-2,3.2c-0.2,0.4-0.5,0.7-0.7,1.1c-0.3,0.4-0.6,0.9-0.9,1.3c-0.2,0.2-0.4,0.5-0.5,0.7c-0.2,0.2-0.3,0.5-0.5,0.7
		c0,0.1-0.1,0.1-0.2,0.2c0,0-0.1,0.1-0.1,0.2c-0.2,0.2-0.4,0.5-0.6,0.7c0,0,0,0,0,0.1c-0.2,0.3-0.5,0.6-0.7,0.9l0,0
		c-0.2,0.3-0.5,0.6-0.7,0.9c-0.1,0.1-0.1,0.2-0.2,0.3c-0.1,0.1-0.1,0.2-0.2,0.3c-0.4,0.5-0.8,1-1.2,1.5c0,0-0.1,0.1-0.1,0.2
		c-0.3,0.4-0.7,0.8-1,1.1c-0.2,0.3-0.5,0.5-0.7,0.8c-0.2,0.2-0.4,0.5-0.6,0.7c-0.1,0.1-0.2,0.2-0.3,0.3c-0.2,0.3-0.5,0.5-0.7,0.8
		c-0.1,0.1-0.1,0.1-0.2,0.2c-0.6,0.6-1.2,1.2-1.8,1.8c-0.6,0.6-1.2,1.2-1.8,1.7l0,0l0,0c-1.2,1.1-2.4,2.1-3.6,3.2
		c-0.1,0.1-0.2,0.1-0.2,0.2c-0.2,0.2-0.4,0.3-0.5,0.4c-0.2,0.1-0.3,0.2-0.4,0.4c-0.3,0.3-0.7,0.5-1,0.8c-0.7,0.5-1.4,1.1-2.1,1.6
		s-1.4,1-2.1,1.5c-0.9,0.6-1.8,1.2-2.7,1.8c-0.6,0.4-1.2,0.8-1.8,1.1c-0.1,0-0.1,0.1-0.2,0.1c-0.8,0.5-1.5,0.9-2.3,1.3
		c-0.5,0.3-1,0.5-1.4,0.8c-0.4,0.2-0.8,0.5-1.3,0.7c-0.4,0.2-0.9,0.4-1.3,0.7c-0.4,0.2-0.8,0.4-1.2,0.6c-0.5,0.2-1,0.5-1.4,0.7
		s-0.8,0.4-1.3,0.6c-0.3,0.1-0.6,0.3-0.9,0.4c-0.5,0.2-1,0.4-1.5,0.6h-0.1c-0.7,0.3-1.3,0.5-2,0.8s-1.4,0.5-2,0.7s-1.2,0.4-1.9,0.6
		c-0.1,0.1-0.3,0.1-0.4,0.1c-0.6,0.2-1.2,0.4-1.9,0.6c-0.7,0.2-1.4,0.4-2.1,0.6s-1.4,0.4-2.1,0.5c-0.7,0.2-1.4,0.3-2,0.5
		c-0.1,0-0.2,0.1-0.4,0.1c-0.1,0-0.1,0-0.2,0c-0.5,0.1-1,0.2-1.5,0.3h-0.1h-0.1c-0.5,0.1-1,0.2-1.5,0.3c-0.1,0-0.2,0-0.3,0
		c-0.3,0-0.5,0.1-0.8,0.1c-0.6,0.1-1.2,0.2-1.8,0.3c-0.7,0.1-1.4,0.2-2.1,0.3c-0.7,0.1-1.5,0.2-2.2,0.2c-0.8,0.1-1.5,0.1-2.3,0.2
		c-0.7,0-1.3,0.1-2,0.1c-0.2,0-0.5,0-0.7,0c-0.6,0-1.1,0-1.7,0c-0.4,0-0.7,0-1.1,0l0,0c-0.8,0-1.5,0-2.3,0c-0.5,0-1,0-1.5-0.1
		c-0.1,0-0.2,0-0.2,0c-0.3,0-0.6,0-0.9-0.1c-0.6,0-1.2-0.1-1.8-0.1c-0.6,0-1.3-0.1-1.9-0.2c-0.1,0-0.2,0-0.3,0c-0.1,0-0.2,0-0.3,0
		c-0.7-0.1-1.4-0.2-2-0.2c-0.3,0-0.6-0.1-0.8-0.1c-0.1,0-0.2,0-0.4-0.1c-0.2,0-0.3,0-0.5-0.1c-0.3,0-0.6-0.1-0.8-0.1
		c-0.6-0.1-1.1-0.2-1.7-0.3c-0.6-0.1-1.1-0.2-1.7-0.3c-0.4-0.1-0.7-0.1-1.1-0.2c-0.2,0-0.4-0.1-0.6-0.1c-0.4-0.1-0.8-0.2-1.2-0.3
		c-0.7-0.2-1.4-0.3-2.1-0.5c-0.6-0.2-1.2-0.3-1.8-0.5c-1-0.3-2-0.6-2.9-0.9c-1.1-0.4-2.3-0.7-3.4-1.1c-0.7-0.3-1.5-0.5-2.2-0.8
		s-1.3-0.5-2-0.8c-0.6-0.2-1.1-0.5-1.7-0.7c-0.1,0-0.2-0.1-0.3-0.1c-0.1,0-0.1,0-0.1-0.1c-0.6-0.3-1.3-0.6-1.9-0.9
		c-0.7-0.3-1.4-0.7-2.1-1c-0.6-0.3-1.1-0.6-1.7-0.9s-1.2-0.7-1.8-1c-0.1-0.1-0.2-0.1-0.3-0.2c-0.5-0.3-1.1-0.6-1.6-0.9
		c-0.6-0.4-1.2-0.8-1.8-1.1c-0.6-0.4-1.2-0.8-1.8-1.2c-0.4-0.3-0.9-0.6-1.3-0.9c-0.2-0.1-0.3-0.2-0.5-0.3c-0.2-0.1-0.3-0.2-0.5-0.3
		c-0.4-0.3-0.8-0.5-1.1-0.8c0,0-0.1-0.1-0.2-0.1c-0.6-0.4-1.1-0.8-1.7-1.3c-1.2-0.9-2.3-1.8-3.4-2.8c-0.5-0.4-1-0.9-1.5-1.3
		c-0.7-0.6-1.4-1.3-2.1-2s-1.4-1.3-2-2c-0.3-0.3-0.5-0.5-0.7-0.8c-0.4-0.4-0.8-0.8-1.1-1.2c-0.4-0.4-0.8-0.8-1.1-1.2
		c-0.3-0.4-0.6-0.7-0.9-1.1s-0.7-0.8-1-1.2c-0.2-0.3-0.4-0.5-0.6-0.8c-0.4-0.5-0.7-0.9-1.1-1.4c-0.3-0.4-0.6-0.8-0.9-1.2
		c-0.3-0.4-0.6-0.8-0.9-1.2c-0.3-0.4-0.5-0.7-0.8-1.1s-0.6-0.8-0.9-1.3c-0.3-0.4-0.5-0.8-0.8-1.2c-0.3-0.4-0.5-0.8-0.8-1.2
		c-0.3-0.4-0.5-0.8-0.8-1.2c-0.5-0.8-1-1.7-1.5-2.5c-0.2-0.4-0.5-0.8-0.7-1.2c-0.2-0.4-0.4-0.8-0.7-1.2c-0.1-0.2-0.3-0.5-0.4-0.7
		c-0.2-0.4-0.5-0.9-0.7-1.3c-0.3-0.6-0.6-1.1-0.8-1.7c0-0.1-0.1-0.2-0.1-0.3c-0.3-0.6-0.6-1.3-0.9-1.9c-0.3-0.7-0.6-1.3-0.8-2
		c-0.3-0.7-0.5-1.3-0.8-2c-0.1-0.3-0.3-0.7-0.4-1s-0.3-0.7-0.4-1c-0.2-0.7-0.5-1.4-0.7-2c-0.1-0.4-0.2-0.7-0.3-1
		c-0.1-0.4-0.2-0.7-0.3-1c-0.4-1.5-0.8-2.9-1.2-4.4c-0.1-0.6-0.3-1.3-0.4-1.9c-0.2-0.7-0.3-1.5-0.5-2.2c-0.1-0.4-0.1-0.7-0.2-1.1
		s-0.1-0.7-0.2-1.1c-0.1-0.7-0.2-1.4-0.3-2.1c-0.1-0.7-0.2-1.4-0.3-2.1c0-0.1,0-0.3,0-0.4c-0.1-0.7-0.1-1.4-0.2-2.1
		c0-0.4-0.1-0.8-0.1-1.1c0-0.4,0-0.8-0.1-1.1c0-0.7-0.1-1.3-0.1-2c0-0.2,0-0.4,0-0.6c0-0.7,0-1.3,0-2c0-0.3,0-0.7,0-1
		c0-0.8,0-1.5,0-2.3s0.1-1.5,0.1-2.3v-0.1c0-0.6,0.1-1.2,0.1-1.8c0-0.1,0-0.2,0-0.3c0-0.1,0-0.1,0-0.2c0-0.7,0.1-1.4,0.2-2.2
		c0.1-0.7,0.1-1.3,0.2-2c0-0.2,0-0.3,0.1-0.5c0.1-0.7,0.2-1.3,0.3-2c0.1-0.7,0.2-1.5,0.4-2.2c0.1-0.6,0.2-1.3,0.4-1.9
		c0-0.2,0.1-0.4,0.1-0.5c0.1-0.6,0.3-1.3,0.4-1.9c0.1-0.7,0.3-1.3,0.5-2c0-0.2,0.1-0.3,0.1-0.5c0.2-0.6,0.3-1.2,0.5-1.8
		c0.2-0.6,0.4-1.3,0.6-1.9c0.1-0.2,0.1-0.4,0.2-0.6c0.2-0.6,0.4-1.1,0.5-1.7c0.2-0.5,0.3-0.9,0.5-1.4c0.1-0.2,0.1-0.4,0.2-0.6
		c0.3-0.7,0.5-1.4,0.8-2.1s0.5-1.3,0.8-2c0.3-0.6,0.5-1.2,0.8-1.8c0.1-0.2,0.2-0.3,0.2-0.5c0.3-0.5,0.5-1.1,0.8-1.6
		c0.3-0.7,0.6-1.3,1-1.9c0.3-0.6,0.6-1.2,1-1.8v-0.1c0.4-0.6,0.7-1.3,1.1-1.9s0.7-1.2,1.1-1.9c0.7-1.2,1.5-2.4,2.3-3.6
		c0.4-0.6,0.8-1.2,1.2-1.8c0,0,0-0.1,0.1-0.1c0.8-1.1,1.6-2.2,2.5-3.3c0.4-0.6,0.9-1.1,1.3-1.7s0.9-1.1,1.4-1.6s0.9-1.1,1.4-1.6
		s1-1.1,1.5-1.6s1-1,1.5-1.5c0.9-0.9,1.9-1.8,2.9-2.7c0.1-0.1,0.2-0.2,0.3-0.3c0.5-0.4,1-0.9,1.5-1.3s1-0.8,1.4-1.2
		c0.2-0.1,0.3-0.3,0.5-0.4c0.3-0.3,0.7-0.6,1-0.8c0.3-0.2,0.5-0.4,0.8-0.6c0.5-0.4,1-0.8,1.5-1.1c1-0.7,2-1.4,3-2.1
		c0.5-0.3,1-0.7,1.5-1c0.2-0.1,0.4-0.3,0.6-0.4l0.6-0.4c0.6-0.4,1.2-0.8,1.9-1.1c0.6-0.4,1.3-0.7,1.9-1.1c0.6-0.3,1.2-0.7,1.8-1
		c0.6-0.3,1.3-0.7,1.9-1c0.8-0.4,1.7-0.8,2.5-1.2c0.1-0.1,0.3-0.1,0.4-0.2c0.1,0,0.2-0.1,0.3-0.1c0.2-0.1,0.4-0.2,0.6-0.3
		c0.4-0.2,0.9-0.4,1.3-0.6s0.9-0.4,1.3-0.5c0.4-0.2,0.7-0.3,1.1-0.5c0.1,0,0.1,0,0.2-0.1c0.4-0.2,0.9-0.3,1.3-0.5
		c0.4-0.1,0.8-0.3,1.1-0.4c0,0,0,0,0.1,0h0.1c0.4-0.2,0.9-0.3,1.3-0.4c0.5-0.2,0.9-0.3,1.4-0.5c0.3-0.1,0.6-0.2,0.9-0.3
		c0.1,0,0.2-0.1,0.2-0.1c0.2-0.1,0.5-0.1,0.7-0.2c0.8-0.2,1.5-0.4,2.3-0.6c0.9-0.2,1.8-0.5,2.8-0.7c0.5-0.1,1.1-0.3,1.7-0.4
		c0.5-0.1,1.1-0.2,1.6-0.3c0.5-0.1,1-0.2,1.5-0.3c0.6-0.1,1.2-0.2,1.8-0.3c0.7-0.1,1.5-0.2,2.2-0.3c1.5-0.2,3.1-0.4,4.7-0.5
		c0.7,0,1.4-0.1,2.1-0.1c0,0,0.1,0,0.2,0c0.6,0,1.1,0,1.7-0.1c0.1,0,0.2,0,0.3,0c0.1,0,0.2,0,0.4,0
		C336,1748.4,336.7,1748.4,337.4,1748.4L337.4,1748.4L337.4,1748.4L337.4,1748.4 M355.7,1883.5c3.4,0,6.8-0.2,10.1-0.6
		c10.2-1.2,15.6-6.1,17.4-15.7c2-10.7,3.6-21.5,4.8-32.3c1-8.8-2.1-12-10.8-12.2c-1.6,0-3.3,0-5,0c-4.5,0-8.9,0.1-13.4,0.1
		c-0.6,0-1.1,0-1.7,0c-5.6,0-9.3-2.2-9.8-8.5c-0.4-5.1-1.5-10.1-2.3-15.2c-1.1-6.2-5.2-10.3-10-10.3c-0.8,0-1.6,0.1-2.3,0.3
		c-7.3,2.1-4.6,7.5-3.5,12.1c2.1,8.5,2.6,16.9-5.1,22.6c-9.1,6.7-10.5,15.4-9.4,25.5c0.2,1.8,0,3.6,0,5.3v19.4c0,2.3,0.3,4.5,3.2,5
		C330.6,1881.1,343,1883.5,355.7,1883.5 M295.3,1880.7c1.2,0,2.6,0,4.2,0c1.3,0,2.6,0,4.2,0c0.1,0,0.2,0,0.3,0
		c4.7,0,6.4-2.1,6.3-6.8c-0.2-10.7,0-21.3-0.1-32c-0.1-16,1.8-16.7-9.5-16.7c-1.1,0-2.3,0-3.7,0c-1.3,0-2.6,0-4.1,0
		c-0.1,0-0.1,0-0.2,0c-4.5,0-6.1,2.2-6.1,6.5c0.1,7.1,0,14.2,0,21.3c0,3.8,0,7.6,0,11.3C286.7,1879.8,285.3,1880.7,295.3,1880.7
		 M337.4,1743.4L337.4,1743.4c-0.8,0-1.5,0-2.2,0c-0.2,0-0.3,0-0.5,0c-0.1,0-0.2,0-0.3,0c-0.5,0-1.1,0-1.6,0.1c-0.1,0-0.2,0-0.4,0
		c-0.7,0-1.4,0.1-2.1,0.1c-1.6,0.1-3.2,0.3-4.9,0.5c-0.8,0.1-1.6,0.2-2.3,0.3c-0.6,0.1-1.2,0.2-1.9,0.3c-0.6,0.1-1.1,0.2-1.6,0.3
		c-0.6,0.1-1.1,0.2-1.7,0.3l0,0l0,0c-0.6,0.1-1.2,0.3-1.8,0.4c-1,0.2-1.9,0.5-2.9,0.7c-0.7,0.2-1.5,0.4-2.4,0.7l-0.2,0.1
		c-0.1,0-0.2,0.1-0.4,0.1c-0.1,0-0.2,0.1-0.3,0.1h-0.1l-0.2,0.1c-0.2,0.1-0.4,0.1-0.6,0.2l-0.2,0.1c-0.5,0.2-1,0.3-1.6,0.5
		c-0.4,0.1-0.8,0.3-1.1,0.4c-0.1,0-0.2,0.1-0.3,0.1c-0.1,0-0.2,0.1-0.2,0.1c-0.3,0.1-0.6,0.2-0.9,0.3h-0.1h-0.1
		c-0.4,0.2-0.8,0.3-1.2,0.5h-0.1h-0.1l0,0l-0.1,0.1l-0.6,0.2l-0.5,0.2c-0.4,0.2-0.9,0.4-1.4,0.6c-0.4,0.2-0.9,0.4-1.3,0.6
		c-0.1,0.1-0.3,0.1-0.4,0.2l-0.2,0.1c-0.1,0.1-0.3,0.1-0.4,0.2h-0.1l-0.3,0.1c-0.9,0.4-1.8,0.8-2.6,1.3l0,0l0,0
		c-0.7,0.3-1.3,0.7-2,1c-0.6,0.3-1.2,0.7-1.9,1c-0.7,0.4-1.3,0.8-2,1.1c-0.7,0.4-1.3,0.8-2,1.2l-0.5,0.3c-0.2,0.1-0.4,0.3-0.7,0.4
		c-0.5,0.3-1.1,0.7-1.6,1.1c-1.1,0.7-2.2,1.5-3.1,2.2c-0.4,0.3-0.9,0.7-1.4,1l-0.1,0.1c-0.3,0.2-0.6,0.4-0.9,0.7
		c-0.3,0.3-0.7,0.5-1,0.8c-0.1,0.1-0.2,0.2-0.4,0.3l-0.1,0.1c-0.5,0.4-1,0.8-1.6,1.3c-0.5,0.5-1,0.9-1.5,1.3
		c-0.1,0.1-0.2,0.2-0.3,0.3l0,0c-1.1,1-2.1,1.9-3,2.9c-0.6,0.6-1.1,1.1-1.6,1.6c-0.6,0.6-1.1,1.1-1.5,1.6c-0.5,0.6-1,1.1-1.5,1.7
		l0,0l0,0l-0.3,0.4c-0.4,0.4-0.7,0.9-1.1,1.3c-0.5,0.6-0.9,1.2-1.4,1.7c-0.9,1.1-1.8,2.3-2.6,3.5v0.1v0.1l0,0
		c-0.4,0.6-0.8,1.2-1.3,1.8c-0.8,1.2-1.7,2.5-2.4,3.8c-0.4,0.6-0.8,1.3-1.1,1.9l0,0l0,0c-0.3,0.6-0.7,1.2-1,1.8l0,0l-0.1,0.2
		c-0.3,0.6-0.7,1.3-1,1.9s-0.7,1.3-1,2.1c-0.3,0.5-0.5,1.1-0.8,1.7c-0.1,0.2-0.2,0.4-0.3,0.6c-0.3,0.6-0.5,1.2-0.8,1.9
		c-0.3,0.7-0.6,1.4-0.9,2.1c-0.4,0.9-0.6,1.6-0.9,2.3l-0.1,0.3l-0.1,0.3c-0.2,0.5-0.4,1-0.5,1.5c-0.2,0.6-0.4,1.2-0.6,1.7
		c-0.1,0.2-0.2,0.5-0.2,0.7c-0.2,0.7-0.4,1.3-0.6,2c-0.2,0.6-0.3,1.2-0.5,1.8c-0.1,0.2-0.1,0.4-0.2,0.7c-0.2,0.7-0.3,1.4-0.5,2
		c-0.2,0.7-0.3,1.3-0.4,1.9c-0.1,0.2-0.1,0.4-0.1,0.7c-0.1,0.6-0.2,1.1-0.3,1.7v0.3c-0.1,0.8-0.3,1.6-0.4,2.3
		c-0.1,0.7-0.2,1.3-0.3,2v0.1l0,0l0,0v0.3v0.2c-0.1,0.7-0.2,1.4-0.2,2.1c-0.1,0.8-0.1,1.5-0.2,2.2c0,0.1,0,0.2,0,0.3
		c0,0.1,0,0.2,0,0.3c0,0.6-0.1,1.2-0.1,1.9v0.1v0.1c0,0.8-0.1,1.5-0.1,2.3s0,1.6,0,2.4c0,0.4,0,0.7,0,1.1c0,0.7,0,1.3,0,2v0.1v0.1
		c0,0.1,0,0.2,0,0.3v0.1v0.1c0,0.7,0.1,1.4,0.1,2l0,0l0,0c0,0.2,0,0.3,0,0.5s0,0.4,0,0.6v0.6v0.6c0.1,0.8,0.1,1.5,0.2,2.2
		c0,0.1,0,0.2,0,0.3l0,0v0.1l0,0c0.1,0.7,0.2,1.4,0.3,2.2l0,0l0,0c0.1,0.7,0.2,1.4,0.3,2.2l0.1,0.6l0.1,0.6v0.1v0.1l0.1,0.4
		c0,0.2,0.1,0.4,0.1,0.7c0.1,0.7,0.3,1.5,0.5,2.3c0.2,0.7,0.3,1.3,0.5,2c0.4,1.5,0.8,3.1,1.2,4.7c0.1,0.4,0.2,0.7,0.3,1.1l0.2,0.5
		l0.2,0.5c0.2,0.7,0.5,1.4,0.7,2.2c0.1,0.4,0.3,0.8,0.4,1.1c0.1,0.4,0.3,0.7,0.4,1.1l0.1,0.4c0.2,0.6,0.4,1.1,0.7,1.7
		c0.3,0.6,0.5,1.3,0.9,2.1c0.3,0.6,0.6,1.3,0.9,2l0.1,0.2v0.1v0.1c0.3,0.6,0.6,1.2,0.8,1.7c0.3,0.5,0.5,1,0.7,1.4
		c0.1,0.1,0.1,0.3,0.2,0.4c0,0.1,0.1,0.2,0.1,0.2c0.3,0.5,0.5,1,0.7,1.4l0.3,0.5c0.2,0.3,0.3,0.5,0.5,0.8c0.4,0.8,0.9,1.6,1.5,2.6
		c0.2,0.3,0.5,0.8,0.8,1.3c0.2,0.3,0.3,0.5,0.5,0.8c0.1,0.1,0.2,0.3,0.3,0.4l0,0l0,0l0.1,0.2c0.2,0.4,0.5,0.8,0.7,1.1l0.2,0.3
		c0.2,0.3,0.5,0.7,0.7,1c0.3,0.4,0.5,0.8,0.8,1.1c0.3,0.4,0.6,0.8,0.9,1.2l0,0l0,0l0.3,0.3c0.2,0.3,0.4,0.6,0.7,0.9
		c0.4,0.5,0.8,1,1.2,1.5l0,0l0,0c0.2,0.2,0.4,0.4,0.5,0.7v0.1v0.1l0.7,0.8l0.3,0.4l0.1,0.2c0.3,0.3,0.6,0.7,0.9,1
		c0.4,0.5,0.8,0.9,1.2,1.3c0.4,0.5,0.8,0.9,1.2,1.3c0.3,0.3,0.5,0.5,0.8,0.8c0.8,0.8,1.5,1.5,2.2,2.1c0.7,0.7,1.5,1.4,2.2,2.1
		c0.5,0.4,1,0.9,1.6,1.4c1.3,1.1,2.4,2,3.6,2.9c0.6,0.5,1.2,0.9,1.7,1.3l0.1,0.1l0,0l0.1,0.1c0.4,0.3,0.8,0.6,1.2,0.8
		c0.1,0.1,0.2,0.1,0.2,0.2l0.1,0.1h0.1h0.1l0.2,0.1c0.1,0.1,0.2,0.1,0.3,0.2l0.3,0.2c0.3,0.2,0.7,0.5,1,0.7c0.7,0.4,1.3,0.8,1.9,1.2
		c0.6,0.4,1.3,0.8,1.9,1.2c0.5,0.3,1.1,0.7,1.6,1l0,0l0,0h0.1l0.2,0.1c0.6,0.4,1.3,0.7,1.9,1.1c0.6,0.3,1.2,0.6,1.8,0.9
		c0.7,0.4,1.5,0.7,2.2,1.1c0.6,0.3,1.3,0.6,1.9,0.9c0.1,0,0.2,0.1,0.3,0.1l0.2,0.1c0.6,0.3,1.2,0.5,1.8,0.8c0.7,0.3,1.4,0.6,2.1,0.8
		l0,0l0,0c0.8,0.3,1.6,0.6,2.3,0.9c1.1,0.4,2.2,0.8,3.6,1.2c1,0.3,2.1,0.6,3.1,0.9c0.6,0.2,1.3,0.4,2,0.5c0.7,0.2,1.5,0.4,2.2,0.5
		c0.4,0.1,0.8,0.2,1.2,0.3c0.2,0.1,0.4,0.1,0.7,0.1c0.4,0.1,0.8,0.2,1.2,0.2c0.6,0.1,1.2,0.2,1.8,0.3c0.5,0.1,1,0.2,1.5,0.3h0.2
		c0.3,0.1,0.7,0.1,1,0.1c0.2,0,0.3,0,0.5,0.1c0.2,0,0.3,0,0.5,0.1c0.1,0,0.3,0,0.4,0.1c0.1,0,0.2,0,0.3,0c0.7,0.1,1.5,0.2,2.2,0.3
		h0.2l0,0c0.1,0,0.3,0,0.4,0c0.6,0.1,1.2,0.1,1.9,0.2c0.6,0.1,1.3,0.1,1.9,0.1c0.3,0,0.7,0,1,0.1c0.1,0,0.1,0,0.2,0
		c0.6,0,1.1,0,1.7,0.1c0.8,0,1.6,0,2.4,0c0.4,0,0.8,0,1.3,0s1.1,0,1.7,0c0.3,0,0.6,0,0.8,0h0.1c0.7,0,1.4-0.1,2-0.1
		c0.8-0.1,1.6-0.1,2.4-0.2s1.6-0.1,2.3-0.2c0.8-0.1,1.5-0.2,2.2-0.3c0.7-0.1,1.3-0.2,1.9-0.3l0,0c0.3,0,0.5-0.1,0.8-0.1h0.1l0,0h0.2
		c0.4-0.1,0.9-0.2,1.3-0.2l0,0h0.2c0.1,0,0.1,0,0.2,0h0.1c0.5-0.1,1-0.2,1.5-0.3c0.1,0,0.2,0,0.3-0.1c0.2,0,0.3-0.1,0.5-0.1
		c0.7-0.2,1.4-0.3,2.1-0.5c0.8-0.2,1.6-0.4,2.3-0.6c0.7-0.2,1.4-0.4,2.2-0.6c0.6-0.2,1.2-0.4,1.9-0.6h0.1h0.1h0.1
		c0.1,0,0.2-0.1,0.3-0.1c0.6-0.2,1.3-0.4,1.9-0.6c0.7-0.2,1.4-0.5,2.2-0.8c0.6-0.2,1.3-0.5,1.9-0.7c0.2-0.1,0.3-0.1,0.4-0.2
		c0.5-0.2,1-0.4,1.5-0.6l0,0l0,0l0.4-0.2l0.4-0.2c0.5-0.2,0.9-0.4,1.4-0.6s1-0.5,1.5-0.7c0.4-0.2,0.8-0.4,1.3-0.6
		c0.4-0.2,0.9-0.5,1.4-0.7c0.3-0.2,0.7-0.4,1-0.5l0.3-0.2c0.5-0.3,1-0.6,1.5-0.8c0.8-0.4,1.5-0.9,2.3-1.3c0.1-0.1,0.2-0.1,0.4-0.2
		c0.7-0.4,1.3-0.8,1.8-1.2c0.9-0.6,1.8-1.2,2.9-1.9c0.8-0.5,1.5-1.1,2.2-1.6c0.8-0.6,1.5-1.1,2.2-1.6l0.3-0.2
		c0.3-0.2,0.5-0.4,0.8-0.6l0,0l0.2-0.1l0.1-0.1l0.2-0.1l0.2-0.1c0.1-0.1,0.1-0.1,0.2-0.2l0.2-0.2l0,0l0,0l0.1-0.1l0.1-0.1
		c1.2-1,2.4-2.1,3.7-3.3l0.7-0.6v-0.1c0.4-0.4,0.9-0.8,1.3-1.2c0.6-0.5,1.1-1.1,1.8-1.8c0.1-0.1,0.2-0.2,0.3-0.3
		c0.3-0.3,0.5-0.5,0.7-0.8l0.1-0.1c0.1-0.1,0.2-0.2,0.3-0.3c0.1-0.2,0.3-0.3,0.4-0.5l0.2-0.2c0.2-0.3,0.5-0.6,0.8-0.8
		c0.3-0.4,0.7-0.8,1-1.2l0,0l0.1-0.2c0.4-0.5,0.8-1,1.3-1.5l0,0v-0.1c0.1-0.1,0.1-0.2,0.2-0.3l0,0l0,0l0.1-0.2l0.3-0.4l0.2-0.2
		l0.4-0.4l0.2-0.3c0.1-0.2,0.3-0.3,0.4-0.5c0-0.1,0.1-0.1,0.1-0.2c0.1-0.2,0.3-0.4,0.4-0.6l0.1-0.2l0.1-0.1c0.1-0.1,0.1-0.2,0.2-0.2
		c0.2-0.3,0.4-0.5,0.6-0.8l0.2-0.3l0.3-0.4c0.3-0.5,0.7-0.9,0.9-1.4c0.3-0.4,0.5-0.8,0.8-1.1c0.7-1.1,1.4-2.2,2.1-3.3
		c0.2-0.4,0.4-0.8,0.7-1.1c0.1-0.2,0.2-0.4,0.3-0.6l1-1v-0.8c0-0.1,0.1-0.1,0.1-0.2c0.2-0.5,0.5-0.9,0.7-1.4l0,0l0,0l0.2-0.4
		l0.1-0.1l0.1-0.2l0,0c0.1-0.3,0.3-0.6,0.4-0.9c0.5-1.1,0.9-1.9,1.3-2.7c0.1-0.3,0.3-0.7,0.4-1c0.1-0.2,0.1-0.3,0.2-0.5
		c0.2-0.4,0.3-0.8,0.5-1.2c0.2-0.4,0.4-0.9,0.5-1.3c0.2-0.4,0.4-0.9,0.5-1.3c0.2-0.6,0.5-1.3,0.8-2.1c0.4-1.1,0.8-2.2,1.2-3.6
		c0.2-0.7,0.4-1.3,0.6-2c0-0.2,0.1-0.3,0.1-0.5v-0.1v-0.1l0.1-0.5c0.1-0.4,0.2-0.8,0.3-1.2c0.2-0.7,0.4-1.5,0.5-2.2
		c0.1-0.5,0.2-1.1,0.4-1.6c0.1-0.5,0.2-1,0.3-1.5c0.2-0.9,0.3-1.8,0.5-2.9c0-0.2,0.1-0.4,0.1-0.6s0-0.3,0.1-0.5v-0.1v-0.1
		c0.1-0.7,0.2-1.3,0.3-2c0.1-0.7,0.2-1.3,0.2-2l0,0v-0.1c0-0.2,0-0.4,0.1-0.6c0.1-0.7,0.1-1.4,0.2-2c0-0.6,0.1-1.1,0.1-1.6
		s0.1-1,0.1-1.4c0-0.6,0.1-1.3,0.1-1.9c0-0.7,0-1.4,0-2.2c0-0.7,0-1.4,0-2c0-0.3,0-0.6,0-1c0-0.6,0-1.2-0.1-1.8l0,0l0,0l-0.1-1.1
		c0-0.4,0-0.8-0.1-1.2v-0.2v-0.1c0-0.3-0.1-0.7-0.1-1v-0.5v-0.1v-0.1c0-0.1,0-0.2,0-0.3c0-0.1,0-0.3,0-0.4c-0.1-0.6-0.1-1.1-0.2-1.7
		v-0.1c0-0.3-0.1-0.7-0.1-1c-0.1-0.5-0.1-1-0.2-1.4c-0.1-0.7-0.2-1.5-0.4-2.3c-0.1-0.4-0.1-0.7-0.2-1.1v-0.2v-0.1
		c-0.1-0.5-0.2-1-0.3-1.6c-0.1-0.7-0.3-1.3-0.4-2.1c-0.1-0.7-0.3-1.4-0.5-2.1c-0.2-1-0.5-1.8-0.7-2.7c-0.1-0.5-0.3-1-0.5-1.5
		c-0.1-0.2-0.1-0.4-0.2-0.6c-0.2-0.6-0.4-1.3-0.6-1.9c-0.1-0.3-0.2-0.7-0.3-1l-0.2-0.4c-0.1-0.3-0.2-0.5-0.3-0.8l-0.1-0.2l0,0
		c-0.1-0.2-0.2-0.5-0.3-0.7l0,0l-0.3-0.9c-0.3-0.7-0.5-1.3-0.8-2c-0.1-0.3-0.2-0.5-0.3-0.7c-0.3-0.7-0.6-1.4-0.9-2
		c-0.1-0.1-0.1-0.3-0.3-0.5c-0.3-0.6-0.5-1.2-0.8-1.7c-0.1-0.2-0.2-0.4-0.3-0.6c-0.3-0.7-0.7-1.4-1.1-2.1c-0.4-0.9-0.9-1.7-1.3-2.5
		c-0.6-1-1.2-2-1.8-3l0,0l0,0c0-0.1-0.1-0.1-0.1-0.2v-3.5H415c-0.1-0.1-0.1-0.2-0.2-0.3c-0.1-0.1-0.1-0.2-0.2-0.3
		c-0.1-0.1-0.2-0.2-0.3-0.4c-0.5-0.7-0.9-1.3-1.3-1.9s-0.8-1.1-1.2-1.7c-0.1-0.2-0.2-0.3-0.3-0.5c-0.2-0.2-0.3-0.4-0.4-0.6
		c-0.4-0.5-0.8-1-1.3-1.6c-0.3-0.4-0.6-0.7-0.9-1.1s-0.6-0.7-0.9-1.1l-0.2-0.2l0,0l0,0c-0.5-0.6-1-1.2-1.6-1.8
		c-0.7-0.7-1.3-1.4-1.9-2s-1.1-1.1-1.8-1.7c-0.1-0.1-0.2-0.2-0.4-0.4c-1.2-1.2-2.4-2.3-3.6-3.3c-0.2-0.2-0.3-0.3-0.5-0.4
		c-0.4-0.4-0.9-0.7-1.3-1.1c-0.3-0.3-0.6-0.5-0.9-0.7c-0.5-0.4-1.1-0.9-1.6-1.3l-0.1-0.1c-0.6-0.5-1.2-0.9-2.1-1.5
		c-0.7-0.5-1.5-1.1-2.3-1.6c-0.5-0.3-1.1-0.7-1.6-1c-0.1,0-0.1-0.1-0.2-0.1c-0.4-0.2-0.8-0.5-1.2-0.7c-0.3-0.2-0.5-0.3-0.7-0.4
		l-0.1-0.1c0,0-0.1,0-0.1-0.1c-0.2-0.1-0.3-0.2-0.5-0.3l-0.2-0.1l-0.1-0.1l-0.1-0.1l-0.3-0.2l-0.2-0.1c-0.1-0.1-0.3-0.2-0.4-0.2
		s-0.1-0.1-0.2-0.1c-0.3-0.2-0.7-0.4-1-0.6c-0.1-0.1-0.2-0.1-0.3-0.2l-0.2-0.1c-0.6-0.4-1.3-0.7-1.9-1l0,0l-0.3-0.1
		c-0.6-0.3-1.1-0.6-1.7-0.9l-0.5-0.2l-0.3-0.2c-0.6-0.3-1.2-0.6-1.8-0.8c-0.6-0.3-1.2-0.5-1.8-0.8c-0.3-0.1-0.7-0.3-1-0.4l0,0l0,0
		l-0.4-0.1c-0.2-0.1-0.4-0.2-0.7-0.3c-0.7-0.3-1.4-0.6-2.1-0.8l0,0l0,0l-0.2-0.1c-0.5-0.2-1-0.4-1.5-0.5l-0.4-0.1l-0.2-0.1l-0.8-0.3
		c-0.2-0.1-0.4-0.1-0.6-0.2c-0.2,0-0.3-0.1-0.5-0.1h-0.1h-0.1c-0.7-0.2-1.5-0.4-2.2-0.6c-0.6-0.2-1.3-0.4-2-0.5l-0.3-0.1h-0.2l0,0
		l0,0c-0.7-0.2-1.3-0.3-2-0.5h-0.1h-0.1l0,0c-0.1,0-0.2-0.1-0.4-0.1l-0.5-0.1l-0.6-0.1h-0.1h-0.1h-0.2c-0.1,0-0.3-0.1-0.4-0.1
		c-0.4-0.1-0.9-0.2-1.3-0.3h-0.1h-0.1c-0.1,0-0.2,0-0.2,0c-0.1,0-0.3-0.1-0.4-0.1H354l0,0c-0.1,0-0.1,0-0.2,0
		c-0.3-0.1-0.7-0.1-1-0.2s-0.7-0.1-1.1-0.2c-0.7-0.1-1.4-0.2-2.1-0.3c-0.1,0-0.2,0-0.3,0c0,0,0,0-0.1,0l0,0l0,0h-0.1H349
		c-0.4,0-0.7-0.1-1.1-0.1h-0.4h-0.3c-0.2,0-0.3,0-0.4,0h-0.1c-0.2,0-0.5-0.1-0.8-0.1s-0.6-0.1-0.9-0.1c-0.2,0-0.4,0-0.6,0
		c-0.7-0.1-1.3-0.1-1.9-0.1c-0.7,0-1.3-0.1-2-0.1c-0.3,0-0.6,0-0.9,0C338.8,1743.4,338.1,1743.4,337.4,1743.4L337.4,1743.4z
		 M332.8,1794.5c0.2-0.1,0.5-0.3,1.3-0.5c0.3-0.1,0.7-0.1,1-0.1c2.3,0,4.5,2.6,5.1,6.2c0.2,1.1,0.4,2.3,0.6,3.4
		c0.7,3.9,1.4,7.6,1.7,11.2c0.4,4.9,2.8,13.1,14.7,13.1c0.6,0,1.2,0,1.7,0c2.3,0,4.5,0,6.7,0s4.4,0,6.6,0c1.8,0,3.4,0,4.8,0
		c4,0.1,5.1,0.9,5.4,1.2c0.3,0.3,0.9,1.5,0.5,5.4c-1.1,10.3-2.7,20.7-4.7,32c-1.4,7.4-5,10.6-13.1,11.6c-3.1,0.4-6.2,0.5-9.6,0.5
		c-10.4,0-20.5-1.7-31.2-3.5c-1.5-0.3-3.1-0.5-4.6-0.8c0-0.1,0-0.1,0-0.2v-19.4c0-0.5,0-1,0-1.5c0-1.3,0.1-2.8-0.1-4.4
		c-1.2-10.3,0.9-16.2,7.4-20.9c11.7-8.6,8.3-22.6,7-27.8c-0.2-0.6-0.3-1.3-0.5-1.9C333.3,1797,332.8,1795.2,332.8,1794.5
		L332.8,1794.5z M291.7,1830.3c0.2,0,0.5-0.1,1-0.1h0.1c1.5,0,2.9,0,4.2,0c0.7,0,1.4,0,2.1,0h1.6c1.1,0,3.2,0,4.5,0.1
		c0.1,1.2,0.1,3.4,0.1,5.5c0,1.8,0,3.7,0,6.1c0,4.5,0,9.1,0,13.6c0,6,0,12.3,0.1,18.5c0,0.8-0.1,1.3-0.1,1.6c-0.2,0-0.6,0.1-1.2,0.1
		h-0.2c-1.4,0-2.7,0-4.3,0l0,0c-0.8,0-1.6,0-2.4,0c-0.6,0-1.2,0-1.8,0c-0.8,0-2.5,0-3.6-0.1c-0.1-1.3-0.1-3.8-0.1-6.2
		c0-1.5,0-3.2,0-5.1c0-2.5,0-5,0-7.5v-3.8c0-2.2,0-4.3,0-6.5c0-4.9,0-9.9,0-14.9C291.6,1831,291.6,1830.5,291.7,1830.3L291.7,1830.3
		z"/>
</g>
<line class="st2" x1="445.4" y1="1692.8" x2="227" y2="1692.8"/>
<rect x="233.1" y="1697.6" class="st1" width="227" height="252.4"/>
<path class="st3" d="M284.6,1902.1l27.5-26.4c1.2-1.2,2.8-1.7,4.3-1.7l27.2,0c-4.9,2.4-9,6-12.1,12.5h-12.6l-35.9,34.4
	c-1.1,1.3-2.8,2.1-4.6,2.1c-3.5,0-6.3-2.8-6.3-6.3v-30.2h-18.5c-4.2,0-8-1.7-10.7-4.5c-2.8-2.8-4.5-6.6-4.5-10.7v-112.2
	c0-4.1,1.7-7.9,4.5-10.7c2.7-2.8,6.5-4.5,10.7-4.5h142.2c4.1,0,8,1.7,10.7,4.5c2.7,2.7,4.5,6.5,4.5,10.7v38.6
	c-4-2.8-8.2-4.5-12.5-5.2v-33.3c0-0.7-0.3-1.4-0.8-1.9c-0.5-0.5-1.2-0.8-1.9-0.8H253.6c-0.7,0-1.4,0.3-1.9,0.8
	c-0.5,0.5-0.8,1.2-0.8,1.9v112.2c0,0.7,0.3,1.4,0.8,1.9c0.5,0.5,1.2,0.8,1.9,0.8h24.8c3.5,0,6.3,2.8,6.3,6.3V1902.1L284.6,1902.1z
	 M343,1909.4c-0.9,0-1.6-0.7-1.6-1.6c0-0.5,0.1-0.9,0.2-1.3c2.5-20,11.4-20.3,22.5-23.2c3.3-0.9,9.4-2.7,12.9-5.8
	c1.9-1.7,3.1-3.8,2.6-6.3c-2.7-2.5-4.8-5.2-5.2-10.3l-0.3,0c-0.7,0-1.5-0.2-2.1-0.6c-1.5-0.8-2.3-2.5-2.7-4.3c-0.5-2.2-1-8.5,2-9.8
	l0,0c-0.4-6.9,0.8-17.9-6.3-20.1c14.1-17.4,30.3-26.8,42.5-11.4c13.6,0.7,19.6,20.7,11.2,31.5h-0.4c3,1.3,2.4,7.6,2,9.8
	c-0.4,1.8-1.2,3.5-2.7,4.3c-0.7,0.4-1.4,0.5-2.1,0.6l-0.3,0c-0.5,5.1-2.5,7.8-5.2,10.3c-0.5,2.5,0.7,4.6,2.6,6.3
	c3.5,3.1,9.6,4.9,12.9,5.8c11.1,2.9,20,3.3,22.5,23.2c0.1,0.4,0.2,0.9,0.2,1.3c0,0.9-0.7,1.6-1.6,1.6H343L343,1909.4z M281.3,1800.1
	c-3.5,0-6.3-2.8-6.3-6.3c0-3.5,2.8-6.3,6.3-6.3h85.2c3.5,0,6.3,2.8,6.3,6.3c0,3.5-2.8,6.3-6.3,6.3H281.3L281.3,1800.1z
	 M281.3,1837.1c-3.5,0-6.3-2.8-6.3-6.3c0-3.5,2.8-6.2,6.3-6.2h58c3.5,0,6.3,2.8,6.3,6.2c0,3.5-2.8,6.3-6.3,6.3H281.3L281.3,1837.1z"
	/>
</svg>
