<?xml version="1.0" encoding="utf-8"?>
<!-- Generator: Adobe Illustrator 26.0.3, SVG Export Plug-In . SVG Version: 6.00 Build 0)  -->
<svg version="1.1" id="Calque_1" xmlns="http://www.w3.org/2000/svg" xmlns:xlink="http://www.w3.org/1999/xlink" x="0px" y="0px"
	 viewBox="0 0 333.5 1537.46" style="enable-background:new 0 0 333.5 1537.46;" xml:space="preserve">
<style type="text/css">
	.st0{fill:#9B1889;}
	.st1{fill:#F2F2F2;}
	.st2{fill:none;stroke:#FFFFFF;stroke-width:4;stroke-miterlimit:10;}
</style>
<path class="st0" d="M333.5,0v1537.46H140.81c-36.96,0-66.91-29.96-66.91-66.91V66.92c0-31.91,22.33-58.61,52.22-65.3
	C130.85,0.56,135.76,0,140.81,0H333.5z"/>
<g>
	<path class="st1" d="M164.51,1165.34c-0.96-6.35-1.68-13.91-1.68-22.18c0-14.99,3.48-25.66,10.07-32.73
		c6.59-7.19,15.95-11.39,29.02-11.39c13.19,0,23.98,4.08,31.41,11.63c7.55,7.55,11.63,20.02,11.63,35.73
		c0,7.43-0.36,13.67-0.96,18.94H164.51z M235.97,1154.91c0.48-2.64,0.6-6.47,0.6-10.55c0-22.3-12.47-34.41-34.29-34.41
		c-19.06-0.12-31.17,10.67-31.17,32.73c0,5.4,0.48,9.47,1.08,12.23H235.97z"/>
	<path class="st1" d="M203,1016.43c27.82,0,42.57,16.91,42.57,37.53c0,21.34-16.55,36.33-41.01,36.33
		c-25.66,0-42.45-15.95-42.45-37.53C162.11,1030.7,179.02,1016.43,203,1016.43z M204.32,1079.14c17.27,0,32.73-9.35,32.73-25.78
		c0-16.55-15.23-25.9-33.57-25.9c-16.07,0-32.85,8.39-32.85,25.78C170.62,1070.51,186.57,1079.14,204.32,1079.14z"/>
	<path class="st1" d="M244.24,1002.89h-80.81V991.5l40.89-25.9c9.47-6,17.98-10.67,26.26-14.51l-0.12-0.24
		c-10.79,0.96-20.62,1.2-33.21,1.2h-33.81v-9.83h80.81v10.55l-41.01,25.66c-8.99,5.64-18.23,11.03-26.98,15.11l0.12,0.36
		c10.19-0.6,19.9-0.84,33.33-0.84h34.53V1002.89z"/>
	<path class="st1" d="M244.24,924h-80.81v-11.39l40.89-25.9c9.47-6,17.98-10.67,26.26-14.51l-0.12-0.24
		c-10.79,0.96-20.62,1.2-33.21,1.2h-33.81v-9.83h80.81v10.55l-41.01,25.66c-8.99,5.64-18.23,11.03-26.98,15.11l0.12,0.36
		c10.19-0.6,19.9-0.84,33.33-0.84h34.53V924z"/>
	<path class="st1" d="M206.36,803.26v31.41h29.14v-35.01h8.75v45.44h-80.81v-43.65h8.75v33.21h25.54v-31.41H206.36z"/>
	<path class="st1" d="M238.13,791.63l-65.59-44.84h-0.36v41.01h-8.75v-54.56h6.35l65.35,44.6h0.36v-45.2h8.75v58.99H238.13z"/>
	<path class="st1" d="M244.24,655.55l-80.81,26.38v-11.27l39.81-12.59c10.91-3.48,20.74-6.48,30.22-8.63v-0.24
		c-9.35-2.28-19.54-5.64-30.1-9.23l-39.93-13.67v-11.15l80.81,28.9V655.55z"/>
	<path class="st1" d="M203,537.33c27.82,0,42.57,16.91,42.57,37.53c0,21.34-16.55,36.33-41.01,36.33
		c-25.66,0-42.45-15.95-42.45-37.53C162.11,551.6,179.02,537.33,203,537.33z M204.32,600.04c17.27,0,32.73-9.35,32.73-25.78
		c0-16.55-15.23-25.9-33.57-25.9c-16.07,0-32.85,8.39-32.85,25.78C170.62,591.41,186.57,600.04,204.32,600.04z"/>
	<path class="st1" d="M172.3,511.44v24.58h-8.87v-59.83h8.87v24.7h71.94v10.55H172.3z"/>
	<path class="st1" d="M164.51,467.2c-1.08-5.28-1.68-12.83-1.68-20.02c0-11.15,2.04-18.34,6.59-23.38c3.6-4.08,9.11-6.36,15.35-6.36
		c10.67,0,17.75,6.71,20.62,15.23h0.36c2.16-6.24,7.91-9.95,16.31-11.87c11.27-2.64,19.06-4.56,22.18-6.23v10.79
		c-2.28,1.32-9.23,3.12-19.3,5.4c-11.15,2.4-15.35,6.71-15.71,16.19v9.83h35.01v10.43H164.51z M201.32,456.77V446.1
		c0-11.15-6.12-18.23-15.35-18.23c-10.43,0-14.99,7.55-15.11,18.58c0,5.04,0.48,8.63,0.96,10.31H201.32z"/>
	<path class="st1" d="M206.36,360.85v31.42h29.14v-35.01h8.75v45.44h-80.81v-43.65h8.75v33.21h25.54v-31.42H206.36z"/>
	<path class="st1" d="M218.83,279.81l25.42,8.39v10.79l-80.81-27.46v-12.59l80.81-27.58v11.15l-25.42,8.63V279.81z M210.67,253.31
		l-23.26,7.91c-5.28,1.8-10.07,3-14.75,4.2v0.24c4.8,1.2,9.71,2.52,14.63,4.08l23.38,7.91V253.31z"/>
	<path class="st1" d="M244.24,208.11l-80.81,26.38v-11.27l39.81-12.59c10.91-3.48,20.74-6.47,30.22-8.63v-0.24
		c-9.35-2.28-19.54-5.64-30.1-9.23l-39.93-13.67V167.7l80.81,28.9V208.11z"/>
	<path class="st1" d="M163.43,148.52h80.81v10.43h-80.81V148.52z"/>
	<path class="st1" d="M231.53,131.73c2.88-4.68,5.28-11.51,5.28-18.71c0-10.67-5.64-16.91-13.79-16.91
		c-7.55,0-11.87,4.32-16.07,15.23c-4.68,13.19-11.51,21.34-22.9,21.34c-12.59,0-21.94-10.43-21.94-26.14
		c0-8.27,1.92-14.27,3.96-17.87l8.51,2.88c-1.44,2.64-3.84,8.03-3.84,15.35c0,11.03,6.59,15.23,12.11,15.23
		c7.55,0,11.27-4.92,15.59-16.07c5.28-13.67,11.87-20.62,23.74-20.62c12.47,0,23.26,9.23,23.26,28.3c0,7.79-2.28,16.31-5.16,20.62
		L231.53,131.73z"/>
</g>
<path class="st1" d="M276.92,1310.92c-7.84-11.33-18.24-20.74-30.37-27.42c-12.72-6.99-27.32-10.97-42.86-10.97
	c-49.16,0-89.02,39.86-89.02,89.03c0,15.87,4.16,30.78,11.45,43.69c15.26,27.07,44.28,45.34,77.57,45.34c0.33,0,0.67,0,1-0.01
	c48.72-0.53,88.04-40.18,88.04-89.02C292.73,1342.74,286.9,1325.29,276.92,1310.92z M230.67,1412.37c-3.79,0.01-7.56,0-11.34,0
	c-7.1,0-14.23-0.07-21.34,0.02c-4.34,0.04-6.53-1.62-6.46-6.31c0.29-19.9-2.26-17.2,16.72-17.33c10.66-0.07,21.32,0.09,32-0.06
	c4.74-0.06,6.87,1.72,6.77,6.66C246.66,1414.36,249.55,1412.27,230.67,1412.37z M245.37,1380.9c-0.47,2.93-2.66,3.18-5,3.18h-19.39
	c-1.79,0-3.59-0.17-5.35,0.03c-10.1,1.17-18.82-0.24-25.53-9.37c-5.64-7.68-14.11-7.17-22.57-5.07c-4.57,1.14-9.98,3.82-12.05-3.47
	c-1.61-5.75,2.85-11.1,10.02-12.35c5.04-0.88,10.08-1.97,15.16-2.34c6.32-0.49,8.45-4.14,8.47-9.76c0.04-6.67-0.18-13.37-0.04-20.05
	c0.19-8.61,3.38-11.71,12.17-10.75c10.84,1.18,21.63,2.81,32.33,4.76c9.53,1.76,14.43,7.19,15.65,17.39
	C251.14,1349.25,247.91,1365.06,245.37,1380.9z"/>
<line class="st2" x1="311.66" y1="1216.96" x2="93.31" y2="1216.96"/>
</svg>
