<?xml version="1.0" encoding="utf-8"?>
<!-- Generator: Adobe Illustrator 26.0.3, SVG Export Plug-In . SVG Version: 6.00 Build 0)  -->
<svg version="1.1" id="Calque_1" xmlns="http://www.w3.org/2000/svg" xmlns:xlink="http://www.w3.org/1999/xlink" x="0px" y="0px"
	 viewBox="0 0 482.2 2013.29" style="enable-background:new 0 0 482.2 2013.29;" xml:space="preserve">
<style type="text/css">
	.st0{fill:#9B1889;}
	.st1{fill:#F2F2F2;}
	.st2{fill:none;stroke:#FFFFFF;stroke-width:4;stroke-miterlimit:10;}
</style>
<path class="st0" d="M441.42,1837.39c0,48.84-39.32,88.49-88.04,89.02c-0.33,0.01-0.67,0.01-1,0.01
	c-33.29,0-62.31-18.27-77.57-45.34c-7.29-12.91-11.45-27.82-11.45-43.69c0-49.17,39.86-89.03,89.02-89.03
	c15.54,0,30.14,3.98,42.86,10.97c12.13,6.68,22.53,16.09,30.37,27.42C435.59,1801.12,441.42,1818.57,441.42,1837.39z"/>
<path class="st0" d="M480.97,475.83V0H288.28c-5.05,0-9.96,0.56-14.69,1.62c-29.89,6.69-52.22,33.39-52.22,65.3v1403.63
	c0,4.36,0.42,8.62,1.22,12.75v463.08c0,36.95,29.95,66.91,66.91,66.91h192.69V475.83H480.97z M353.38,1926.41
	c-0.33,0.01-0.67,0.01-1,0.01c-33.29,0-62.31-18.27-77.57-45.34c-7.29-12.91-11.45-27.82-11.45-43.69
	c0-49.17,39.86-89.03,89.02-89.03c15.54,0,30.14,3.98,42.86,10.97c12.13,6.68,22.53,16.09,30.37,27.42
	c9.98,14.37,15.81,31.82,15.81,50.64C441.42,1886.23,402.1,1925.88,353.38,1926.41z"/>
<g>
	<path class="st1" d="M312.12,1624.75h80.81v10.43h-80.81V1624.75z"/>
	<path class="st1" d="M307.81,1605.68v-10.55h36.21v-0.24c-3-1.68-5.64-4.32-7.43-7.55c-1.8-3.12-3-6.83-3-10.79
		c0-7.79,4.8-20.26,24.82-20.26h34.53v10.55H359.6c-9.35,0-17.27,3.48-17.27,13.43c0,6.83,4.8,12.23,10.55,14.15
		c1.44,0.6,3,0.72,5.04,0.72h35.01v10.55H307.81z"/>
	<path class="st1" d="M353.01,1539.14c-6.83,0-12.71,0.12-18.11,0.48v-9.23l11.39-0.36v-0.48c-7.79-2.64-12.71-8.99-12.71-16.07
		c0-1.2,0.12-2.04,0.36-3h9.95c-0.24,1.08-0.36,2.16-0.36,3.6c0,7.43,5.64,12.71,13.55,14.15c1.44,0.24,3.12,0.48,4.92,0.48h30.93
		v10.43H353.01z"/>
	<path class="st1" d="M365.84,1495.26c14.27-0.24,20.14-9.35,20.14-19.9c0-7.55-1.32-12.11-3-16.07l7.55-1.8
		c1.68,3.72,3.6,10.07,3.6,19.3c0,17.87-11.75,28.54-29.26,28.54c-17.51,0-31.29-10.31-31.29-27.22c0-18.94,16.67-23.98,27.34-23.98
		c2.16,0,3.84,0.24,4.92,0.36V1495.26z M358.28,1464.33c-6.71-0.12-17.15,2.76-17.15,14.63c0,10.67,9.83,15.35,17.15,16.19V1464.33z
		"/>
	<path class="st1" d="M357.45,1321.77c-11.27,0.6-24.82,1.32-34.89,1.2v0.36c9.47,2.76,19.54,6.12,30.7,10.19l39.21,14.27v7.91
		l-38.49,13.07c-11.39,3.84-21.82,7.07-31.41,9.35v0.24c10.07,0.24,23.62,0.84,35.73,1.56l34.65,2.16v9.95l-80.81-5.64v-13.31
		l39.09-13.79c9.95-3.36,18.82-6.12,27.22-8.15v-0.36c-8.15-2.04-17.03-4.92-27.22-8.51l-39.09-14.39v-13.31l80.81-5.04v10.19
		L357.45,1321.77z"/>
	<path class="st1" d="M365.84,1287.25c14.27-0.24,20.14-9.35,20.14-19.9c0-7.55-1.32-12.11-3-16.07l7.55-1.8
		c1.68,3.72,3.6,10.07,3.6,19.3c0,17.87-11.75,28.54-29.26,28.54c-17.51,0-31.29-10.31-31.29-27.22c0-18.94,16.67-23.98,27.34-23.98
		c2.16,0,3.84,0.24,4.92,0.36V1287.25z M358.28,1256.31c-6.71-0.12-17.15,2.76-17.15,14.63c0,10.67,9.83,15.35,17.15,16.19V1256.31z
		"/>
	<path class="st1" d="M318.6,1221.3c3.6-0.12,6.48,2.52,6.48,6.71c0,3.72-2.88,6.35-6.48,6.35c-3.72,0-6.59-2.76-6.59-6.59
		C312,1223.82,314.88,1221.3,318.6,1221.3z M392.94,1233.05H334.9v-10.55h58.03V1233.05z"/>
	<path class="st1" d="M350.61,1205c-6,0-10.91,0.12-15.71,0.48v-9.35l9.59-0.6v-0.24c-5.52-2.88-10.91-9.59-10.91-19.18
		c0-8.03,4.8-20.5,24.7-20.5h34.65v10.55h-33.45c-9.35,0-17.15,3.48-17.15,13.43c0,6.95,4.92,12.35,10.79,14.15
		c1.32,0.48,3.12,0.72,4.92,0.72h34.89V1205H350.61z"/>
	<path class="st1" d="M377.11,1089.9c6,0,11.27-0.12,15.83-0.48v9.35l-9.47,0.6v0.24c4.68,2.76,10.79,8.87,10.79,19.18
		c0,9.11-5.04,20.02-25.42,20.02H334.9v-10.55h32.13c11.03,0,18.46-3.36,18.46-12.95c0-7.07-4.92-11.99-9.59-13.91
		c-1.56-0.6-3.48-0.96-5.4-0.96H334.9v-10.55H377.11z"/>
	<path class="st1" d="M350.61,1072.4c-6,0-10.91,0.12-15.71,0.48v-9.35l9.59-0.6v-0.24c-5.52-2.88-10.91-9.59-10.91-19.18
		c0-8.03,4.8-20.5,24.7-20.5h34.65v10.55h-33.45c-9.35,0-17.15,3.48-17.15,13.43c0,6.96,4.92,12.35,10.79,14.15
		c1.32,0.48,3.12,0.72,4.92,0.72h34.89v10.55H350.61z"/>
	<path class="st1" d="M334.9,955.86c4.2,0.24,8.87,0.48,15.95,0.48h33.69c13.31,0,21.46,2.64,26.5,8.27
		c5.28,5.64,6.96,13.79,6.96,21.1c0,6.95-1.68,14.63-4.8,19.3l-8.03-2.64c2.4-3.84,4.56-9.83,4.56-17.03
		c0-10.79-5.64-18.71-20.26-18.71h-6.48v0.24c5.4,3.24,9.71,9.47,9.71,18.46c0,14.39-12.23,24.7-28.3,24.7
		c-19.66,0-30.81-12.83-30.81-26.14c0-10.07,5.28-15.59,10.07-18.11v-0.24l-8.75-0.48V955.86z M357.8,966.77
		c-1.8,0-3.36,0.12-4.8,0.6c-6.12,1.92-11.15,7.07-11.15,14.75c0,10.07,8.51,17.27,21.94,17.27c11.39,0,20.86-5.76,20.86-17.15
		c0-6.47-4.08-12.35-10.79-14.63c-1.8-0.6-3.84-0.84-5.64-0.84H357.8z"/>
	<path class="st1" d="M318.6,876.25c3.6-0.12,6.48,2.52,6.48,6.71c0,3.72-2.88,6.36-6.48,6.36c-3.72,0-6.59-2.76-6.59-6.59
		C312,878.77,314.88,876.25,318.6,876.25z M392.94,888H334.9v-10.55h58.03V888z"/>
	<path class="st1" d="M382.15,861.38c2.04-3.12,4.2-8.63,4.2-13.91c0-7.67-3.84-11.27-8.63-11.27c-5.04,0-7.79,3-10.67,10.79
		c-3.72,10.43-9.47,15.35-16.43,15.35c-9.35,0-17.03-7.55-17.03-20.02c0-5.88,1.68-11.03,3.6-14.27l7.67,2.64
		c-1.44,2.28-3.36,6.48-3.36,11.87c0,6.23,3.6,9.71,7.91,9.71c4.8,0,6.95-3.48,9.83-11.03c3.84-10.07,8.87-15.23,17.51-15.23
		c10.19,0,17.39,7.91,17.39,21.7c0,6.36-1.56,12.23-3.96,16.31L382.15,861.38z"/>
	<path class="st1" d="M318.24,799.76h16.67v-15.11h8.03v15.11h31.29c7.19,0,11.27-2.04,11.27-7.91c0-2.76-0.36-4.8-0.72-6.12
		l7.91-0.48c0.84,2.04,1.44,5.28,1.44,9.35c0,4.92-1.56,8.87-4.44,11.39c-3.12,3-8.27,4.08-15.11,4.08h-31.65v8.99h-8.03v-8.99
		h-13.91L318.24,799.76z"/>
	<path class="st1" d="M377.11,673.39c6,0,11.27-0.12,15.83-0.48v9.35l-9.47,0.6v0.24c4.68,2.76,10.79,8.87,10.79,19.18
		c0,9.11-5.04,20.02-25.42,20.02H334.9v-10.55h32.13c11.03,0,18.46-3.36,18.46-12.95c0-7.07-4.92-11.99-9.59-13.91
		c-1.56-0.6-3.48-0.96-5.4-0.96H334.9v-10.55H377.11z"/>
	<path class="st1" d="M350.61,655.89c-6,0-10.91,0.12-15.71,0.48v-9.35l9.59-0.6v-0.24c-5.52-2.88-10.91-9.59-10.91-19.18
		c0-8.03,4.8-20.5,24.7-20.5h34.65v10.55h-33.45c-9.35,0-17.15,3.48-17.15,13.43c0,6.96,4.92,12.35,10.79,14.15
		c1.32,0.48,3.12,0.72,4.92,0.72h34.89v10.55H350.61z"/>
	<path class="st1" d="M382.15,590.78c2.04-3.12,4.2-8.63,4.2-13.91c0-7.67-3.84-11.27-8.63-11.27c-5.04,0-7.79,3-10.67,10.79
		c-3.72,10.43-9.47,15.35-16.43,15.35c-9.35,0-17.03-7.55-17.03-20.02c0-5.88,1.68-11.03,3.6-14.27l7.67,2.64
		c-1.44,2.28-3.36,6.48-3.36,11.87c0,6.23,3.6,9.71,7.91,9.71c4.8,0,6.95-3.48,9.83-11.03c3.84-10.07,8.87-15.23,17.51-15.23
		c10.19,0,17.39,7.91,17.39,21.7c0,6.36-1.56,12.23-3.96,16.31L382.15,590.78z"/>
	<path class="st1" d="M334.9,486.84l29.5-7.67c6.48-1.68,12.47-3.24,18.47-4.32v-0.36c-5.88-1.32-12.11-3.24-18.35-5.16l-29.62-9.47
		v-8.87l29.02-8.99c6.96-2.16,13.07-3.84,18.95-5.16v-0.36c-5.88-0.96-11.99-2.52-18.83-4.44l-29.14-8.27v-10.43l58.03,18.71v9.59
		l-27.7,8.87c-6.47,2.04-12.23,3.72-19.06,5.16v0.24c6.95,1.44,12.95,3.24,19.18,5.28l27.58,9.35v9.59l-58.03,17.51V486.84z"/>
	<path class="st1" d="M318.6,391.04c3.6-0.12,6.48,2.52,6.48,6.71c0,3.72-2.88,6.36-6.48,6.36c-3.72,0-6.59-2.76-6.59-6.59
		C312,393.56,314.88,391.04,318.6,391.04z M392.94,402.79H334.9v-10.55h58.03V402.79z"/>
	<path class="st1" d="M390.78,333.37c1.44,2.76,3.36,8.87,3.36,16.67c0,17.51-11.87,28.9-29.62,28.9
		c-17.87,0-30.81-12.23-30.81-31.17c0-6.23,1.56-11.75,3-14.63l8.15,2.4c-1.44,2.52-2.76,6.47-2.76,12.23
		c0,13.31,9.83,20.5,21.94,20.5c13.43,0,21.7-8.63,21.7-20.14c0-6-1.56-9.95-2.88-12.95L390.78,333.37z"/>
	<path class="st1" d="M307.81,321.02v-10.55h36.21v-0.24c-3-1.68-5.64-4.32-7.43-7.55c-1.8-3.12-3-6.83-3-10.79
		c0-7.79,4.8-20.26,24.82-20.26h34.53v10.55H359.6c-9.35,0-17.27,3.48-17.27,13.43c0,6.83,4.8,12.23,10.55,14.15
		c1.44,0.6,3,0.72,5.04,0.72h35.01v10.55H307.81z"/>
	<path class="st1" d="M318.24,242.25h16.67v-15.11h8.03v15.11h31.29c7.19,0,11.27-2.04,11.27-7.91c0-2.76-0.36-4.8-0.72-6.12
		l7.91-0.48c0.84,2.04,1.44,5.28,1.44,9.35c0,4.92-1.56,8.87-4.44,11.39c-3.12,3-8.27,4.08-15.11,4.08h-31.65v8.99h-8.03v-8.99
		h-13.91L318.24,242.25z"/>
	<path class="st1" d="M318.6,203.53c3.6-0.12,6.48,2.52,6.48,6.71c0,3.72-2.88,6.36-6.48,6.36c-3.72,0-6.59-2.76-6.59-6.59
		C312,206.04,314.88,203.53,318.6,203.53z M392.94,215.28H334.9v-10.55h58.03V215.28z"/>
	<path class="st1" d="M334.9,137.22c4.2,0.24,8.87,0.48,15.95,0.48h33.69c13.31,0,21.46,2.64,26.5,8.27
		c5.28,5.64,6.96,13.79,6.96,21.1c0,6.95-1.68,14.63-4.8,19.3l-8.03-2.64c2.4-3.84,4.56-9.83,4.56-17.03
		c0-10.79-5.64-18.71-20.26-18.71h-6.48v0.24c5.4,3.24,9.71,9.47,9.71,18.46c0,14.39-12.23,24.7-28.3,24.7
		c-19.66,0-30.81-12.83-30.81-26.14c0-10.07,5.28-15.59,10.07-18.11v-0.24l-8.75-0.48V137.22z M357.8,148.13
		c-1.8,0-3.36,0.12-4.8,0.6c-6.12,1.92-11.15,7.07-11.15,14.75c0,10.07,8.51,17.27,21.94,17.27c11.39,0,20.86-5.76,20.86-17.15
		c0-6.47-4.08-12.35-10.79-14.63c-1.8-0.6-3.84-0.84-5.64-0.84H357.8z"/>
	<path class="st1" d="M369.68,93.83l-57.55,1.68V83.99l57.55,1.68V93.83z M386.82,96.82c-4.32,0-7.43-3-7.43-7.07
		c0-4.32,3.12-7.07,7.43-7.07c4.2,0,7.43,2.76,7.43,7.07C394.26,93.95,391.02,96.82,386.82,96.82z"/>
</g>
<path class="st1" d="M425.61,1786.75c-7.84-11.33-18.24-20.74-30.37-27.42c-12.72-6.99-27.32-10.97-42.86-10.97
	c-49.16,0-89.02,39.86-89.02,89.03c0,15.87,4.16,30.78,11.45,43.69c15.26,27.07,44.28,45.34,77.57,45.34c0.33,0,0.67,0,1-0.01
	c48.72-0.53,88.04-40.18,88.04-89.02C441.42,1818.57,435.59,1801.12,425.61,1786.75z M379.36,1888.2c-3.79,0.01-7.56,0-11.34,0
	c-7.1,0-14.23-0.07-21.34,0.02c-4.34,0.04-6.53-1.62-6.46-6.31c0.29-19.9-2.26-17.2,16.72-17.33c10.66-0.07,21.32,0.09,32-0.06
	c4.74-0.06,6.87,1.72,6.77,6.66C395.35,1890.19,398.24,1888.1,379.36,1888.2z M394.06,1856.73c-0.47,2.93-2.66,3.18-5,3.18h-19.39
	c-1.79,0-3.59-0.17-5.35,0.03c-10.1,1.17-18.82-0.24-25.53-9.37c-5.64-7.68-14.11-7.17-22.57-5.07c-4.57,1.14-9.98,3.82-12.05-3.47
	c-1.61-5.75,2.85-11.1,10.02-12.35c5.04-0.88,10.08-1.97,15.16-2.34c6.32-0.49,8.45-4.14,8.47-9.76c0.04-6.67-0.18-13.37-0.04-20.05
	c0.19-8.61,3.38-11.71,12.17-10.75c10.84,1.18,21.63,2.81,32.33,4.76c9.53,1.76,14.43,7.19,15.65,17.39
	C399.83,1825.08,396.6,1840.89,394.06,1856.73z"/>
<line class="st2" x1="460.35" y1="1692.79" x2="242" y2="1692.79"/>
</svg>
