<?xml version="1.0" encoding="utf-8"?>
<!-- Generator: Adobe Illustrator 26.0.3, SVG Export Plug-In . SVG Version: 6.00 Build 0)  -->
<svg version="1.1" id="Calque_1" xmlns="http://www.w3.org/2000/svg" xmlns:xlink="http://www.w3.org/1999/xlink" x="0px" y="0px"
	 viewBox="0 0 482.2 2013.29" style="enable-background:new 0 0 482.2 2013.29;" xml:space="preserve">
<style type="text/css">
	.st0{fill:#9B1889;}
	.st1{fill:#F2F2F2;}
	.st2{fill:none;stroke:#FFFFFF;stroke-width:4;stroke-miterlimit:10;}
</style>
<path class="st0" d="M441.42,1837.39c0,48.84-39.32,88.49-88.04,89.02c-0.33,0.01-0.67,0.01-1,0.01
	c-33.29,0-62.31-18.27-77.57-45.34c-7.29-12.91-11.45-27.82-11.45-43.69c0-49.17,39.86-89.03,89.02-89.03
	c15.54,0,30.14,3.98,42.86,10.97c12.13,6.68,22.53,16.09,30.37,27.42C435.59,1801.12,441.42,1818.57,441.42,1837.39z"/>
<path class="st0" d="M480.97,475.83V0H288.28c-5.05,0-9.96,0.56-14.69,1.62c-29.89,6.69-52.22,33.39-52.22,65.3v1403.63
	c0,4.36,0.42,8.62,1.22,12.75v463.08c0,36.95,29.95,66.91,66.91,66.91h192.69V475.83H480.97z M353.38,1926.41
	c-0.33,0.01-0.67,0.01-1,0.01c-33.29,0-62.31-18.27-77.57-45.34c-7.29-12.91-11.45-27.82-11.45-43.69
	c0-49.17,39.86-89.03,89.02-89.03c15.54,0,30.14,3.98,42.86,10.97c12.13,6.68,22.53,16.09,30.37,27.42
	c9.98,14.37,15.81,31.82,15.81,50.64C441.42,1886.23,402.1,1925.88,353.38,1926.41z"/>
<g>
	<path class="st1" d="M392.94,1612.93l-94.36,30.8v-13.16l46.48-14.7c12.74-4.06,24.22-7.56,35.28-10.08v-0.28
		c-10.92-2.66-22.82-6.58-35.14-10.78l-46.62-15.96v-13.02l94.36,33.74V1612.93z"/>
	<path class="st1" d="M358.5,1499.25c25.06,0,35.98,17.36,35.98,33.74c0,18.34-13.44,32.48-34.86,32.48
		c-22.68,0-35.98-14.84-35.98-33.6C323.64,1512.41,337.78,1499.25,358.5,1499.25z M359.2,1553.01c14.84,0,26.04-8.54,26.04-20.58
		c0-11.76-11.06-20.58-26.32-20.58c-11.48,0-26.04,5.74-26.04,20.3C332.88,1546.71,346.32,1553.01,359.2,1553.01z"/>
	<path class="st1" d="M305.72,1468.87h19.46v-17.64h9.38v17.64h36.54c8.4,0,13.16-2.38,13.16-9.24c0-3.22-0.42-5.6-0.84-7.14
		l9.24-0.56c0.98,2.38,1.68,6.16,1.68,10.92c0,5.74-1.82,10.36-5.18,13.3c-3.64,3.5-9.66,4.76-17.64,4.76h-36.96v10.5h-9.38v-10.5
		h-16.24L305.72,1468.87z"/>
	<path class="st1" d="M346.32,1437.37c-7.98,0-14.84,0.14-21.14,0.56v-10.78l13.3-0.42v-0.56c-9.1-3.08-14.84-10.5-14.84-18.76
		c0-1.4,0.14-2.38,0.42-3.5h11.62c-0.28,1.26-0.42,2.52-0.42,4.2c0,8.68,6.58,14.84,15.82,16.52c1.68,0.28,3.64,0.56,5.74,0.56
		h36.12v12.18H346.32z"/>
	<path class="st1" d="M361.3,1386.13c16.66-0.28,23.52-10.92,23.52-23.24c0-8.82-1.54-14.14-3.5-18.76l8.82-2.1
		c1.96,4.34,4.2,11.76,4.2,22.54c0,20.86-13.72,33.32-34.16,33.32c-20.44,0-36.54-12.04-36.54-31.78c0-22.12,19.46-28,31.92-28
		c2.52,0,4.48,0.28,5.74,0.42V1386.13z M352.48,1350.01c-7.84-0.14-20.02,3.22-20.02,17.08c0,12.46,11.48,17.92,20.02,18.9V1350.01z
		"/>
	<path class="st1" d="M392.94,1225.97l-8.54,0.98v0.42c5.32,3.78,10.08,11.06,10.08,20.72c0,13.72-9.66,20.72-19.46,20.72
		c-16.38,0-25.34-14.56-25.2-40.74h-1.4c-5.6,0-15.68,1.54-15.68,15.4c0,6.3,1.96,12.88,5.04,17.64l-8.12,2.8
		c-3.64-5.6-6.02-13.72-6.02-22.26c0-20.72,14.14-25.76,27.72-25.76h25.34c5.88,0,11.62-0.28,16.24-1.12V1225.97z M358.36,1227.79
		c-0.28,13.44,2.1,28.7,15.26,28.7c7.98,0,11.76-5.32,11.76-11.62c0-8.82-5.6-14.42-11.34-16.38c-1.26-0.42-2.66-0.7-3.92-0.7
		H358.36z"/>
	<path class="st1" d="M325.18,1192.37l38.08-13.3c6.16-2.24,11.76-4.06,17.36-5.46v-0.42c-5.6-1.54-11.2-3.5-17.36-5.74
		l-38.08-13.16v-12.88l67.76,26.6v11.76l-67.76,25.76V1192.37z"/>
	<path class="st1" d="M306.14,1116.08c4.2-0.14,7.56,2.94,7.56,7.84c0,4.34-3.36,7.42-7.56,7.42c-4.34,0-7.7-3.22-7.7-7.7
		C298.44,1119.02,301.8,1116.08,306.14,1116.08z M392.94,1129.8h-67.76v-12.32h67.76V1129.8z"/>
	<path class="st1" d="M380.34,1098.72c2.38-3.64,4.9-10.08,4.9-16.24c0-8.96-4.48-13.16-10.08-13.16c-5.88,0-9.1,3.5-12.46,12.6
		c-4.34,12.18-11.06,17.92-19.18,17.92c-10.92,0-19.88-8.82-19.88-23.38c0-6.86,1.96-12.88,4.2-16.66l8.96,3.08
		c-1.68,2.66-3.92,7.56-3.92,13.86c0,7.28,4.2,11.34,9.24,11.34c5.6,0,8.12-4.06,11.48-12.88c4.48-11.76,10.36-17.78,20.44-17.78
		c11.9,0,20.3,9.24,20.3,25.34c0,7.42-1.82,14.28-4.62,19.04L380.34,1098.72z"/>
	<path class="st1" d="M343.52,982.24c-7,0-12.74,0.14-18.34,0.56v-10.92l11.2-0.7v-0.28c-6.44-3.36-12.74-11.2-12.74-22.4
		c0-9.38,5.6-23.94,28.84-23.94h40.46v12.32h-39.06c-10.92,0-20.02,4.06-20.02,15.68c0,8.12,5.74,14.42,12.6,16.52
		c1.54,0.56,3.64,0.84,5.74,0.84h40.74v12.32H343.52z"/>
	<path class="st1" d="M358.5,843.22c25.06,0,35.98,17.36,35.98,33.74c0,18.34-13.44,32.48-34.86,32.48
		c-22.68,0-35.98-14.84-35.98-33.6C323.64,856.38,337.78,843.22,358.5,843.22z M359.2,896.98c14.84,0,26.04-8.54,26.04-20.58
		c0-11.76-11.06-20.58-26.32-20.58c-11.48,0-26.04,5.74-26.04,20.3C332.88,890.68,346.32,896.98,359.2,896.98z"/>
	<path class="st1" d="M374.46,770.98c7,0,13.16-0.14,18.48-0.56v10.92l-11.06,0.7v0.28c5.46,3.22,12.6,10.36,12.6,22.4
		c0,10.64-5.88,23.38-29.68,23.38h-39.62v-12.32h37.52c12.88,0,21.56-3.92,21.56-15.12c0-8.26-5.74-14-11.2-16.24
		c-1.82-0.7-4.06-1.12-6.3-1.12h-41.58v-12.32H374.46z"/>
	<path class="st1" d="M380.34,752.22c2.38-3.64,4.9-10.08,4.9-16.24c0-8.96-4.48-13.16-10.08-13.16c-5.88,0-9.1,3.5-12.46,12.6
		c-4.34,12.18-11.06,17.92-19.18,17.92c-10.92,0-19.88-8.82-19.88-23.38c0-6.86,1.96-12.88,4.2-16.66l8.96,3.08
		c-1.68,2.66-3.92,7.56-3.92,13.86c0,7.28,4.2,11.34,9.24,11.34c5.6,0,8.12-4.06,11.48-12.88c4.48-11.76,10.36-17.78,20.44-17.78
		c11.9,0,20.3,9.24,20.3,25.34c0,7.42-1.82,14.28-4.62,19.04L380.34,752.22z"/>
	<path class="st1" d="M306.14,622.03c4.2-0.14,7.56,2.94,7.56,7.84c0,4.34-3.36,7.42-7.56,7.42c-4.34,0-7.7-3.22-7.7-7.7
		C298.44,624.97,301.8,622.03,306.14,622.03z M392.94,635.75h-67.76v-12.32h67.76V635.75z"/>
	<path class="st1" d="M343.52,602.99c-7,0-12.74,0.14-18.34,0.56v-10.92l11.2-0.7v-0.28c-6.44-3.36-12.74-11.2-12.74-22.4
		c0-9.38,5.6-23.94,28.84-23.94h40.46v12.32h-39.06c-10.92,0-20.02,4.06-20.02,15.68c0,8.12,5.74,14.42,12.6,16.52
		c1.54,0.56,3.64,0.84,5.74,0.84h40.74v12.32H343.52z"/>
	<path class="st1" d="M305.72,511.01h19.46v-17.64h9.38v17.64h36.54c8.4,0,13.16-2.38,13.16-9.24c0-3.22-0.42-5.6-0.84-7.14
		l9.24-0.56c0.98,2.38,1.68,6.16,1.68,10.92c0,5.74-1.82,10.36-5.18,13.3c-3.64,3.5-9.66,4.76-17.64,4.76h-36.96v10.5h-9.38v-10.5
		h-16.24L305.72,511.01z"/>
	<path class="st1" d="M295.92,434.43l20.02,17.08v8.82l-20.02-12.32V434.43z M361.3,473.49c16.66-0.28,23.52-10.92,23.52-23.24
		c0-8.82-1.54-14.14-3.5-18.76l8.82-2.1c1.96,4.34,4.2,11.76,4.2,22.54c0,20.86-13.72,33.32-34.16,33.32
		c-20.44,0-36.54-12.04-36.54-31.78c0-22.12,19.46-28,31.92-28c2.52,0,4.48,0.28,5.74,0.42V473.49z M352.48,437.37
		c-7.84-0.14-20.02,3.22-20.02,17.08c0,12.46,11.48,17.92,20.02,18.9V437.37z"/>
	<path class="st1" d="M346.32,410.21c-7.98,0-14.84,0.14-21.14,0.56v-10.78l13.3-0.42v-0.56c-9.1-3.08-14.84-10.5-14.84-18.76
		c0-1.4,0.14-2.38,0.42-3.5h11.62c-0.28,1.26-0.42,2.52-0.42,4.2c0,8.68,6.58,14.84,15.82,16.52c1.68,0.28,3.64,0.56,5.74,0.56
		h36.12v12.18H346.32z"/>
	<path class="st1" d="M361.3,358.97c16.66-0.28,23.52-10.92,23.52-23.24c0-8.82-1.54-14.14-3.5-18.76l8.82-2.1
		c1.96,4.34,4.2,11.76,4.2,22.54c0,20.86-13.72,33.32-34.16,33.32c-20.44,0-36.54-12.04-36.54-31.78c0-22.12,19.46-28,31.92-28
		c2.52,0,4.48,0.28,5.74,0.42V358.97z M352.48,322.85c-7.84-0.14-20.02,3.22-20.02,17.08c0,12.46,11.48,17.92,20.02,18.9V322.85z"/>
	<path class="st1" d="M380.34,297.37c2.38-3.64,4.9-10.08,4.9-16.24c0-8.96-4.48-13.16-10.08-13.16c-5.88,0-9.1,3.5-12.46,12.6
		c-4.34,12.18-11.06,17.92-19.18,17.92c-10.92,0-19.88-8.82-19.88-23.38c0-6.86,1.96-12.88,4.2-16.66l8.96,3.08
		c-1.68,2.66-3.92,7.56-3.92,13.86c0,7.28,4.2,11.34,9.24,11.34c5.6,0,8.12-4.06,11.48-12.88c4.48-11.76,10.36-17.78,20.44-17.78
		c11.9,0,20.3,9.24,20.3,25.34c0,7.42-1.82,14.28-4.62,19.04L380.34,297.37z"/>
	<path class="st1" d="M380.34,241.93c2.38-3.64,4.9-10.08,4.9-16.24c0-8.96-4.48-13.16-10.08-13.16c-5.88,0-9.1,3.5-12.46,12.6
		c-4.34,12.18-11.06,17.92-19.18,17.92c-10.92,0-19.88-8.82-19.88-23.38c0-6.86,1.96-12.88,4.2-16.66l8.96,3.08
		c-1.68,2.66-3.92,7.56-3.92,13.86c0,7.28,4.2,11.34,9.24,11.34c5.6,0,8.12-4.06,11.48-12.88c4.48-11.76,10.36-17.78,20.44-17.78
		c11.9,0,20.3,9.24,20.3,25.34c0,7.42-1.82,14.28-4.62,19.04L380.34,241.93z"/>
	<path class="st1" d="M361.3,177.95c16.66-0.28,23.52-10.92,23.52-23.24c0-8.82-1.54-14.14-3.5-18.76l8.82-2.1
		c1.96,4.34,4.2,11.76,4.2,22.54c0,20.86-13.72,33.32-34.16,33.32c-20.44,0-36.54-12.04-36.54-31.78c0-22.12,19.46-28,31.92-28
		c2.52,0,4.48,0.28,5.74,0.42V177.95z M352.48,141.83c-7.84-0.14-20.02,3.22-20.02,17.08c0,12.46,11.48,17.92,20.02,18.9V141.83z"/>
	<path class="st1" d="M365.78,83.87l-67.2,1.96V72.39l67.2,1.96V83.87z M385.8,87.37c-5.04,0-8.68-3.5-8.68-8.26
		c0-5.04,3.64-8.26,8.68-8.26c4.9,0,8.68,3.22,8.68,8.26C394.48,84.01,390.7,87.37,385.8,87.37z"/>
</g>
<path class="st1" d="M425.61,1786.75c-7.84-11.33-18.24-20.74-30.37-27.42c-12.72-6.99-27.32-10.97-42.86-10.97
	c-49.16,0-89.02,39.86-89.02,89.03c0,15.87,4.16,30.78,11.45,43.69c15.26,27.07,44.28,45.34,77.57,45.34c0.33,0,0.67,0,1-0.01
	c48.72-0.53,88.04-40.18,88.04-89.02C441.42,1818.57,435.59,1801.12,425.61,1786.75z M379.36,1888.2c-3.79,0.01-7.56,0-11.34,0
	c-7.1,0-14.23-0.07-21.34,0.02c-4.34,0.04-6.53-1.62-6.46-6.31c0.29-19.9-2.26-17.2,16.72-17.33c10.66-0.07,21.32,0.09,32-0.06
	c4.74-0.06,6.87,1.72,6.77,6.66C395.35,1890.19,398.24,1888.1,379.36,1888.2z M394.06,1856.73c-0.47,2.93-2.66,3.18-5,3.18h-19.39
	c-1.79,0-3.59-0.17-5.35,0.03c-10.1,1.17-18.82-0.24-25.53-9.37c-5.64-7.68-14.11-7.17-22.57-5.07c-4.57,1.14-9.98,3.82-12.05-3.47
	c-1.61-5.75,2.85-11.1,10.02-12.35c5.04-0.88,10.08-1.97,15.16-2.34c6.32-0.49,8.45-4.14,8.47-9.76c0.04-6.67-0.18-13.37-0.04-20.05
	c0.19-8.61,3.38-11.71,12.17-10.75c10.84,1.18,21.63,2.81,32.33,4.76c9.53,1.76,14.43,7.19,15.65,17.39
	C399.83,1825.08,396.6,1840.89,394.06,1856.73z"/>
<line class="st2" x1="460.35" y1="1692.79" x2="242" y2="1692.79"/>
</svg>
