<?xml version="1.0" encoding="utf-8"?>
<!-- Generator: Adobe Illustrator 26.0.3, SVG Export Plug-In . SVG Version: 6.00 Build 0)  -->
<svg version="1.1" id="Calque_1" xmlns="http://www.w3.org/2000/svg" xmlns:xlink="http://www.w3.org/1999/xlink" x="0px" y="0px"
	 viewBox="0 0 259.29 417.91" style="enable-background:new 0 0 259.29 417.91;" xml:space="preserve">
<style type="text/css">
	.st0{fill:#1AB743;}
	.st1{fill:#F2F2F2;}
</style>
<path class="st0" d="M156.79,146.93c-2.41,0.16-4.87,0.08-7.24,0.53c-2.9,0.56-4.32-0.74-5.97-2.95
	c-13.63-18.27-31.95-26.08-54.3-21.72c-21.69,4.24-35.6,17.91-41.6,39.24c-3.59,12.78-2.13,25.27,3.63,37.14
	c1.35,2.8,1.57,5.1,0.65,7.95c-1.65,5.09-3,10.28-4.59,15.84c2.86-0.43,5.19-0.52,7.36-1.15c10.72-3.1,20.04,1.31,29.47,5.28
	c1.34,0.57,1.46,1.55,1.65,2.73c0.46,2.89,1.04,5.75,1.63,8.95c-4.22-0.37-8.2-1.33-11.45-3.28c-9.68-5.8-19.4-3.69-29.21-1.05
	c-2.39,0.64-4.69,1.64-7.02,2.54l-9.37,4.07l9.08-29.34l0.29-0.94c0.22-0.71,0.44-1.42,0.66-2.13c0.99-3.15,0.84-5.82-0.44-8.94
	c-12.86-31.25,0.75-66.84,31.22-82.07c29.89-14.94,66.68-4,83.84,24.94C155.8,143.79,156.9,144.92,156.79,146.93z"/>
<path class="st0" d="M223.66,280.98l-12.83-3.61l-0.31-0.09c-1.65-0.46-3.32-0.86-5.01-1.18c-7.67-1.43-14.8-1.42-22.58,1.84
	c-24.5,10.25-47.66,6.51-67.27-11.38c-19.26-17.58-25.56-40-17.92-65.02c7.67-25.15,25.35-39.89,51.4-44.33
	c1.63-0.28,3.27-0.51,4.92-0.64c1.32-0.11,2.65-0.02,3.97-0.02c45.76-0.15,76.52,45.94,58.66,87.96c-0.78,1.83-1.08,3.47-0.93,5.17
	l1.59,6.3L223.66,280.98z"/>
<g>
	<path class="st1" d="M217.35,255.98l-1.59-6.3c-0.15-1.7,0.15-3.34,0.93-5.17c17.86-42.02-12.9-88.11-58.66-87.96
		c-1.32,0-2.65-0.09-3.97,0.02c-1.65,0.13-3.29,0.36-4.92,0.64c-26.05,4.44-43.73,19.18-51.4,44.33
		c-7.64,25.02-1.34,47.44,17.92,65.02c19.61,17.89,42.77,21.63,67.27,11.38c7.78-3.26,14.91-3.27,22.58-1.84
		c1.69,0.32,3.36,0.72,5.01,1.18l0.31,0.09l12.83,3.61L217.35,255.98z M138.33,224.19c0.05,7.92-0.07,15.84,0.04,23.76
		c0.05,3.53-1.27,5.11-4.94,5.04c-14.12-0.27-12.57,1.87-12.64-12.15c-0.01-2.81,0-5.62,0-8.42c0-5.28,0.05-10.57-0.02-15.85
		c-0.03-3.23,1.21-4.85,4.69-4.8C140.24,211.99,138.23,210.09,138.33,224.19z M196.12,219c-0.88,8.04-2.09,16.06-3.54,24.01
		c-1.3,7.08-5.34,10.72-12.92,11.62c-11.99,1.41-23.73-0.98-35.49-2.87c-2.18-0.35-2.37-1.98-2.37-3.72v-14.4
		c0-1.32,0.13-2.66-0.02-3.97c-0.87-7.5,0.18-13.98,6.96-18.96c5.7-4.2,5.32-10.49,3.76-16.77c-0.85-3.39-2.83-7.41,2.58-8.94
		c4.27-1.2,8.25,2.11,9.18,7.44c0.65,3.74,1.45,7.48,1.73,11.26c0.36,4.69,3.08,6.27,7.25,6.29c4.96,0.03,9.93-0.14,14.89-0.03
		C194.53,210.1,196.83,212.47,196.12,219z"/>
</g>
<path class="st1" d="M156.79,146.93c-2.41,0.16-4.87,0.08-7.24,0.53c-2.9,0.56-4.32-0.74-5.97-2.95
	c-13.63-18.27-31.95-26.08-54.3-21.72c-21.69,4.24-35.6,17.91-41.6,39.24c-3.59,12.78-2.13,25.27,3.63,37.14
	c1.35,2.8,1.57,5.1,0.65,7.95c-1.65,5.09-3,10.28-4.59,15.84c2.86-0.43,5.19-0.52,7.36-1.15c10.72-3.1,20.04,1.31,29.47,5.28
	c1.34,0.57,1.46,1.55,1.65,2.73c0.46,2.89,1.04,5.75,1.63,8.95c-4.22-0.37-8.2-1.33-11.45-3.28c-9.68-5.8-19.4-3.69-29.21-1.05
	c-2.39,0.64-4.69,1.64-7.02,2.54l-9.37,4.07l9.08-29.34l0.29-0.94c0.22-0.71,0.44-1.42,0.66-2.13c0.99-3.15,0.84-5.82-0.44-8.94
	c-12.86-31.25,0.75-66.84,31.22-82.07c29.89-14.94,66.68-4,83.84,24.94C155.8,143.79,156.9,144.92,156.79,146.93z"/>
<path class="st0" d="M0,0v417.91l129.65-87.6l-0.08-0.05h0.15l-0.07,0.05l129.64,87.6v-87.65h0.14V0H0z M51.31,199.17
	c1.35,2.8,1.57,5.1,0.65,7.95c-1.65,5.09-3,10.28-4.59,15.84c2.86-0.43,5.19-0.52,7.36-1.15c10.72-3.1,20.04,1.31,29.47,5.28
	c1.34,0.57,1.46,1.55,1.65,2.73c0.46,2.89,1.04,5.75,1.63,8.95c-4.22-0.37-8.2-1.33-11.45-3.28c-9.68-5.8-19.4-3.69-29.21-1.05
	c-2.39,0.64-4.69,1.64-7.02,2.54l-9.37,4.07l9.08-29.34l0.29-0.94c0.22-0.71,0.44-1.42,0.66-2.13c0.99-3.15,0.84-5.82-0.44-8.94
	c-12.86-31.25,0.75-66.84,31.22-82.07c29.89-14.94,66.68-4,83.84,24.94c0.72,1.22,1.82,2.35,1.71,4.36
	c-2.41,0.16-4.87,0.08-7.24,0.53c-2.9,0.56-4.32-0.74-5.97-2.95c-13.63-18.27-31.95-26.08-54.3-21.72
	c-21.69,4.24-35.6,17.91-41.6,39.24C44.09,174.81,45.55,187.3,51.31,199.17z M115.66,266.56c-19.26-17.58-25.56-40-17.92-65.02
	c7.67-25.15,25.35-39.89,51.4-44.33c1.63-0.28,3.27-0.51,4.92-0.64c1.32-0.11,2.65-0.02,3.97-0.02
	c45.76-0.15,76.52,45.94,58.66,87.96c-0.78,1.83-1.08,3.47-0.93,5.17l1.59,6.3l6.31,25l-12.83-3.61l-0.31-0.09
	c-1.65-0.46-3.32-0.86-5.01-1.18c-7.67-1.43-14.8-1.42-22.58,1.84C158.43,288.19,135.27,284.45,115.66,266.56z"/>
<polygon class="st0" points="129.72,330.26 129.65,330.31 129.57,330.26 "/>
<polygon class="st0" points="129.72,330.26 129.65,330.31 129.57,330.26 "/>
</svg>
