<?xml version="1.0" encoding="utf-8"?>
<!-- Generator: Adobe Illustrator 26.0.2, SVG Export Plug-In . SVG Version: 6.00 Build 0)  -->
<svg version="1.1" id="Calque_1" xmlns="http://www.w3.org/2000/svg" xmlns:xlink="http://www.w3.org/1999/xlink" x="0px" y="0px"
	 viewBox="0 0 1920 393.6" style="enable-background:new 0 0 1920 393.6;" xml:space="preserve">
<style type="text/css">
	.st0{fill:#93278F;}
	.st1{fill:#333333;}
</style>
<g>
	<g>
		<path class="st0" d="M864.44,229.71h-48.1V100.33c0-13.97,0.6-29.4,1.81-46.29h-1.21c-2.51,13.27-4.78,22.82-6.79,28.65
			l-50.66,147.02h-39.81L668.12,84.2c-1.41-3.92-3.67-13.97-6.79-30.16h-1.36c1.31,21.31,1.96,40.01,1.96,56.09v119.57h-43.88V13.48
			h71.32l44.18,128.17c3.52,10.25,6.08,20.56,7.69,30.91h0.9c2.71-11.96,5.58-22.37,8.59-31.21l44.18-127.87h69.51V229.71z"/>
		<path class="st0" d="M1052.28,166.08H951.55c1.61,22.42,15.73,33.63,42.37,33.63c16.99,0,31.91-4.02,44.78-12.06v34.38
			c-14.28,7.64-32.82,11.46-55.64,11.46c-24.93,0-44.28-6.91-58.05-20.73c-13.77-13.82-20.66-33.1-20.66-57.83
			c0-25.63,7.44-45.94,22.32-60.92c14.88-14.98,33.17-22.47,54.89-22.47c22.52,0,39.93,6.69,52.25,20.05
			c12.31,13.37,18.47,31.51,18.47,54.43V166.08z M1008.1,136.82c0-22.11-8.95-33.17-26.84-33.17c-7.64,0-14.25,3.17-19.83,9.5
			c-5.58,6.33-8.97,14.23-10.18,23.67H1008.1z"/>
		<path class="st0" d="M1330.44,229.71h-47.5v-88.06c0-22.42-8.24-33.63-24.73-33.63c-7.84,0-14.23,3.37-19.15,10.1
			c-4.93,6.74-7.39,15.13-7.39,25.18v86.4h-47.65v-88.96c0-21.81-8.09-32.72-24.28-32.72c-8.14,0-14.65,3.22-19.53,9.65
			c-4.88,6.43-7.31,15.18-7.31,26.24v85.8h-47.65V75.3h47.65v24.13h0.6c4.92-8.24,11.84-14.95,20.73-20.13
			c8.9-5.18,18.62-7.77,29.18-7.77c21.81,0,36.74,9.6,44.78,28.8c11.76-19.2,29.05-28.8,51.87-28.8c33.57,0,50.36,20.71,50.36,62.12
			V229.71z"/>
		<path class="st0" d="M1446.35,233.48c-25.73,0-45.97-7.21-60.69-21.64c-14.73-14.42-22.09-34-22.09-58.73
			c0-25.53,7.64-45.51,22.92-59.94c15.28-14.42,35.94-21.64,61.97-21.64c25.63,0,45.74,7.21,60.31,21.64
			c14.57,14.43,21.86,33.5,21.86,57.22c0,25.63-7.52,45.89-22.54,60.77C1493.07,226.04,1472.48,233.48,1446.35,233.48z
			 M1447.55,108.02c-11.26,0-20,3.87-26.24,11.61c-6.23,7.74-9.35,18.7-9.35,32.87c0,29.66,11.96,44.48,35.89,44.48
			c22.82,0,34.23-15.23,34.23-45.69C1482.08,122.45,1470.57,108.02,1447.55,108.02z"/>
		<path class="st0" d="M1666.91,118.28c-5.73-3.11-12.42-4.67-20.05-4.67c-10.35,0-18.45,3.8-24.28,11.38
			c-5.83,7.59-8.75,17.92-8.75,30.99v73.73h-47.65V75.3h47.65v28.65h0.6c7.54-20.91,21.11-31.36,40.71-31.36
			c5.03,0,8.95,0.6,11.76,1.81V118.28z"/>
		<path class="st0" d="M1719.04,50.88c-8.04,0-14.63-2.39-19.75-7.16c-5.13-4.77-7.69-10.63-7.69-17.57
			c0-7.14,2.56-12.97,7.69-17.49c5.13-4.52,11.71-6.79,19.75-6.79c8.14,0,14.75,2.26,19.83,6.79c5.08,4.52,7.61,10.35,7.61,17.49
			c0,7.24-2.54,13.17-7.61,17.79C1733.79,48.56,1727.18,50.88,1719.04,50.88z M1742.56,229.71h-47.65V75.3h47.65V229.71z"/>
		<path class="st0" d="M1915.77,229.71h-45.08v-22.17h-0.6c-10.35,17.29-25.69,25.94-45.99,25.94c-14.98,0-26.76-4.25-35.36-12.74
			c-8.59-8.49-12.89-19.83-12.89-34c0-29.95,17.74-47.25,53.23-51.87l41.92-5.58c0-16.89-9.15-25.33-27.44-25.33
			c-18.4,0-35.89,5.48-52.47,16.44V84.5c6.63-3.42,15.71-6.43,27.22-9.05c11.51-2.61,21.99-3.92,31.44-3.92
			c44.03,0,66.04,21.97,66.04,65.89V229.71z M1870.99,166.98v-10.4l-28.05,3.62c-15.48,2.01-23.22,9-23.22,20.96
			c0,5.43,1.88,9.88,5.65,13.34s8.87,5.2,15.3,5.2c8.95,0,16.23-3.09,21.86-9.27C1868.17,184.25,1870.99,176.43,1870.99,166.98z"/>
	</g>
</g>
<polygon class="st1" points="78.98,78.69 78.98,164.78 192.59,164.78 192.59,228.81 78.98,228.81 78.98,370.88 0,370.88 0,14.47 
	202.62,14.47 202.62,78.69 "/>
<g>
	<path class="st1" d="M222.9,316.86h-22.71v20.9h21.01v6.36h-21.01v26.76h-6.81v-60.43h29.52V316.86z"/>
	<path class="st1" d="M257.85,334.73c-1.16-0.93-2.84-1.39-5.03-1.39c-2.84,0-5.21,1.39-7.12,4.17c-1.91,2.78-2.86,6.57-2.86,11.38
		v22h-6.65v-43.16h6.65v8.89h0.16c0.95-3.03,2.39-5.4,4.34-7.1c1.95-1.7,4.12-2.55,6.53-2.55c1.73,0,3.05,0.2,3.97,0.59V334.73z"/>
	<path class="st1" d="M301.6,351.04h-29.32c0.11,4.8,1.35,8.51,3.73,11.13c2.38,2.61,5.65,3.92,9.81,3.92c4.68,0,8.98-1.6,12.9-4.8
		v6.49c-3.65,2.75-8.48,4.13-14.48,4.13c-5.87,0-10.48-1.96-13.83-5.88c-3.35-3.92-5.03-9.43-5.03-16.54
		c0-6.71,1.83-12.19,5.5-16.42c3.66-4.23,8.21-6.34,13.65-6.34s9.64,1.83,12.61,5.48c2.97,3.65,4.46,8.72,4.46,15.21V351.04z
		 M294.78,345.18c-0.03-3.99-0.95-7.09-2.78-9.31c-1.83-2.22-4.36-3.33-7.6-3.33c-3.14,0-5.8,1.17-7.99,3.5s-3.54,5.38-4.06,9.14
		H294.78z"/>
	<path class="st1" d="M318.22,316.78c-1.19,0-2.2-0.42-3.04-1.26c-0.84-0.84-1.26-1.91-1.26-3.2c0-1.29,0.42-2.37,1.26-3.22
		c0.84-0.86,1.85-1.29,3.04-1.29c1.22,0,2.25,0.43,3.1,1.29c0.85,0.86,1.28,1.93,1.28,3.22c0,1.24-0.43,2.29-1.28,3.16
		S319.43,316.78,318.22,316.78z M321.46,370.89h-6.65v-43.16h6.65V370.89z"/>
	<path class="st1" d="M344.89,364.65h-0.16v6.24h-6.65V307h6.65v28.32h0.16c3.27-5.73,8.06-8.6,14.36-8.6
		c5.33,0,9.5,1.93,12.51,5.79c3.01,3.86,4.52,9.04,4.52,15.53c0,7.22-1.69,13-5.07,17.34s-8,6.51-13.87,6.51
		C351.86,371.9,347.71,369.49,344.89,364.65z M344.73,347.25v6.03c0,3.57,1.12,6.6,3.35,9.08c2.23,2.49,5.06,3.73,8.5,3.73
		c4.03,0,7.18-1.6,9.47-4.8c2.28-3.2,3.43-7.66,3.43-13.36c0-4.8-1.07-8.57-3.2-11.29c-2.14-2.72-5.03-4.09-8.68-4.09
		c-3.87,0-6.98,1.4-9.33,4.19S344.73,343.03,344.73,347.25z"/>
	<path class="st1" d="M423.64,370.89h-6.65v-6.83h-0.16c-2.76,5.23-7.03,7.84-12.81,7.84c-9.9,0-14.84-6.13-14.84-18.38v-25.79h6.61
		v24.7c0,9.1,3.35,13.65,10.06,13.65c3.24,0,5.91-1.24,8.01-3.73c2.09-2.49,3.14-5.74,3.14-9.76v-24.87h6.65V370.89z"/>
	<path class="st1" d="M461.88,334.73c-1.16-0.93-2.84-1.39-5.03-1.39c-2.84,0-5.21,1.39-7.12,4.17c-1.91,2.78-2.86,6.57-2.86,11.38
		v22h-6.65v-43.16h6.65v8.89h0.16c0.95-3.03,2.39-5.4,4.34-7.1c1.95-1.7,4.12-2.55,6.53-2.55c1.73,0,3.05,0.2,3.97,0.59V334.73z"/>
	<path class="st1" d="M507.7,367.43c0,15.85-7.3,23.77-21.9,23.77c-5.14,0-9.63-1.01-13.46-3.03v-6.91
		c4.68,2.7,9.14,4.05,13.38,4.05c10.22,0,15.33-5.65,15.33-16.94v-4.72h-0.16c-3.16,5.51-7.92,8.26-14.27,8.26
		c-5.16,0-9.32-1.92-12.47-5.75c-3.15-3.83-4.72-8.98-4.72-15.45c0-7.33,1.7-13.16,5.09-17.49c3.39-4.33,8.04-6.49,13.93-6.49
		c5.6,0,9.75,2.33,12.45,7h0.16v-5.98h6.65V367.43z M501.04,351.38v-6.36c0-3.43-1.12-6.36-3.35-8.81s-5.01-3.67-8.33-3.67
		c-4.11,0-7.33,1.55-9.65,4.66c-2.33,3.11-3.49,7.45-3.49,13.04c0,4.8,1.12,8.65,3.35,11.53s5.18,4.32,8.86,4.32
		c3.73,0,6.77-1.38,9.1-4.13C499.87,359.2,501.04,355.68,501.04,351.38z"/>
	<path class="st1" d="M521.8,369.33v-7.42c3.62,2.78,7.61,4.17,11.96,4.17c5.84,0,8.76-2.02,8.76-6.07c0-1.15-0.25-2.13-0.75-2.93
		c-0.5-0.8-1.18-1.51-2.03-2.13c-0.85-0.62-1.85-1.17-3-1.66c-1.15-0.49-2.39-1-3.71-1.54c-1.84-0.76-3.45-1.52-4.85-2.3
		s-2.55-1.64-3.49-2.61s-1.64-2.07-2.11-3.31c-0.47-1.24-0.71-2.68-0.71-4.34c0-2.02,0.45-3.81,1.34-5.37
		c0.89-1.56,2.08-2.87,3.57-3.92c1.49-1.05,3.18-1.85,5.09-2.38c1.91-0.53,3.87-0.8,5.9-0.8c3.6,0,6.81,0.65,9.65,1.94v7
		c-3.06-2.08-6.57-3.12-10.54-3.12c-1.24,0-2.37,0.15-3.37,0.44c-1,0.29-1.86,0.71-2.58,1.24c-0.72,0.53-1.27,1.17-1.66,1.92
		c-0.39,0.74-0.59,1.57-0.59,2.46c0,1.12,0.2,2.07,0.59,2.82c0.39,0.76,0.97,1.43,1.72,2.02c0.76,0.59,1.68,1.12,2.76,1.6
		c1.08,0.48,2.31,1,3.69,1.56c1.84,0.73,3.49,1.48,4.95,2.25c1.46,0.77,2.7,1.64,3.73,2.61c1.03,0.97,1.82,2.09,2.37,3.35
		c0.55,1.26,0.83,2.77,0.83,4.51c0,2.14-0.45,3.99-1.36,5.56c-0.91,1.57-2.12,2.88-3.63,3.92c-1.51,1.04-3.26,1.81-5.23,2.32
		c-1.97,0.51-4.04,0.76-6.2,0.76C528.64,371.9,524.94,371.05,521.8,369.33z"/>
	<path class="st1" d="M629.98,370.89h-9.49l-22.47-27.65c-0.84-1.04-1.35-1.74-1.54-2.11h-0.16v29.75h-6.81v-60.43h6.81v28.41h0.16
		c0.38-0.62,0.89-1.31,1.54-2.07l21.74-26.34h8.48l-24.94,29L629.98,370.89z"/>
	<path class="st1" d="M673.53,370.89h-6.65v-6.83h-0.16c-2.76,5.23-7.03,7.84-12.81,7.84c-9.9,0-14.84-6.13-14.84-18.38v-25.79h6.61
		v24.7c0,9.1,3.35,13.65,10.06,13.65c3.24,0,5.91-1.24,8.01-3.73c2.09-2.49,3.14-5.74,3.14-9.76v-24.87h6.65V370.89z"/>
	<path class="st1" d="M696.76,370.89h-6.65V307h6.65V370.89z"/>
	<path class="st1" d="M732.64,370.47c-1.57,0.9-3.64,1.35-6.2,1.35c-7.27,0-10.91-4.21-10.91-12.64v-25.54h-7.14v-5.9h7.14V317.2
		l6.65-2.23v12.77h10.46v5.9h-10.46v24.32c0,2.89,0.47,4.96,1.42,6.2c0.95,1.24,2.51,1.85,4.7,1.85c1.68,0,3.12-0.48,4.34-1.43
		V370.47z"/>
	<path class="st1" d="M778.26,370.89h-6.65v-6.83h-0.16c-2.76,5.23-7.03,7.84-12.81,7.84c-9.9,0-14.84-6.13-14.84-18.38v-25.79h6.61
		v24.7c0,9.1,3.35,13.65,10.06,13.65c3.24,0,5.91-1.24,8.01-3.73c2.09-2.49,3.14-5.74,3.14-9.76v-24.87h6.65V370.89z"/>
	<path class="st1" d="M816.49,334.73c-1.16-0.93-2.84-1.39-5.03-1.39c-2.84,0-5.21,1.39-7.12,4.17c-1.91,2.78-2.86,6.57-2.86,11.38
		v22h-6.65v-43.16h6.65v8.89h0.16c0.95-3.03,2.39-5.4,4.34-7.1c1.95-1.7,4.12-2.55,6.53-2.55c1.73,0,3.05,0.2,3.97,0.59V334.73z"/>
	<path class="st1" d="M860.24,351.04h-29.32c0.11,4.8,1.35,8.51,3.73,11.13c2.38,2.61,5.65,3.92,9.81,3.92c4.68,0,8.98-1.6,12.9-4.8
		v6.49c-3.65,2.75-8.48,4.13-14.48,4.13c-5.87,0-10.48-1.96-13.83-5.88c-3.35-3.92-5.03-9.43-5.03-16.54
		c0-6.71,1.83-12.19,5.5-16.42c3.66-4.23,8.21-6.34,13.65-6.34s9.64,1.83,12.61,5.48c2.97,3.65,4.46,8.72,4.46,15.21V351.04z
		 M853.43,345.18c-0.03-3.99-0.95-7.09-2.78-9.31c-1.83-2.22-4.36-3.33-7.6-3.33c-3.14,0-5.8,1.17-7.99,3.5s-3.54,5.38-4.06,9.14
		H853.43z"/>
	<path class="st1" d="M895.11,334.73c-1.16-0.93-2.84-1.39-5.03-1.39c-2.84,0-5.21,1.39-7.12,4.17c-1.91,2.78-2.86,6.57-2.86,11.38
		v22h-6.65v-43.16h6.65v8.89h0.16c0.95-3.03,2.39-5.4,4.34-7.1c1.95-1.7,4.12-2.55,6.53-2.55c1.73,0,3.05,0.2,3.97,0.59V334.73z"/>
	<path class="st1" d="M912.3,364.65h-0.16v6.24h-6.65V307h6.65v28.32h0.16c3.27-5.73,8.06-8.6,14.36-8.6c5.33,0,9.5,1.93,12.51,5.79
		c3.01,3.86,4.52,9.04,4.52,15.53c0,7.22-1.69,13-5.07,17.34s-8,6.51-13.87,6.51C919.26,371.9,915.11,369.49,912.3,364.65z
		 M912.14,347.25v6.03c0,3.57,1.12,6.6,3.35,9.08c2.23,2.49,5.06,3.73,8.5,3.73c4.03,0,7.18-1.6,9.47-4.8
		c2.28-3.2,3.43-7.66,3.43-13.36c0-4.8-1.07-8.57-3.2-11.29c-2.14-2.72-5.03-4.09-8.68-4.09c-3.87,0-6.98,1.4-9.33,4.19
		S912.14,343.03,912.14,347.25z"/>
	<path class="st1" d="M990.84,351.04h-29.32c0.11,4.8,1.35,8.51,3.73,11.13c2.38,2.61,5.65,3.92,9.81,3.92c4.68,0,8.98-1.6,12.9-4.8
		v6.49c-3.65,2.75-8.48,4.13-14.48,4.13c-5.87,0-10.48-1.96-13.83-5.88c-3.35-3.92-5.03-9.43-5.03-16.54
		c0-6.71,1.83-12.19,5.5-16.42c3.66-4.23,8.21-6.34,13.65-6.34s9.64,1.83,12.61,5.48s4.46,8.72,4.46,15.21V351.04z M984.03,345.18
		c-0.03-3.99-0.95-7.09-2.78-9.31c-1.83-2.22-4.36-3.33-7.6-3.33c-3.14,0-5.8,1.17-7.99,3.5s-3.54,5.38-4.05,9.14H984.03z"/>
	<path class="st1" d="M1033.37,316.78c-1.19,0-2.2-0.42-3.04-1.26s-1.26-1.91-1.26-3.2c0-1.29,0.42-2.37,1.26-3.22
		c0.84-0.86,1.85-1.29,3.04-1.29c1.22,0,2.25,0.43,3.1,1.29c0.85,0.86,1.28,1.93,1.28,3.22c0,1.24-0.43,2.29-1.28,3.16
		C1035.62,316.34,1034.59,316.78,1033.37,316.78z M1036.62,370.89h-6.65v-43.16h6.65V370.89z"/>
	<path class="st1" d="M1087.7,370.89h-6.65v-24.61c0-9.16-3.22-13.74-9.65-13.74c-3.33,0-6.08,1.3-8.25,3.9
		c-2.18,2.6-3.26,5.88-3.26,9.84v24.61h-6.65v-43.16h6.65v7.16h0.16c3.14-5.45,7.68-8.18,13.63-8.18c4.54,0,8.02,1.52,10.42,4.57
		s3.61,7.45,3.61,13.21V370.89z"/>
	<path class="st1" d="M1127.47,368.45v-8.34c0.92,0.84,2.02,1.6,3.3,2.28c1.28,0.67,2.64,1.24,4.06,1.71
		c1.42,0.46,2.84,0.82,4.28,1.08c1.43,0.25,2.76,0.38,3.97,0.38c4.19,0,7.32-0.81,9.39-2.42c2.07-1.62,3.1-3.94,3.1-6.97
		c0-1.63-0.34-3.05-1.03-4.26s-1.64-2.31-2.86-3.31c-1.22-1-2.66-1.95-4.32-2.87c-1.66-0.91-3.45-1.88-5.37-2.89
		c-2.03-1.07-3.92-2.15-5.68-3.25c-1.76-1.1-3.29-2.3-4.58-3.63c-1.3-1.32-2.32-2.82-3.06-4.49c-0.74-1.67-1.12-3.63-1.12-5.88
		c0-2.75,0.58-5.15,1.74-7.19c1.16-2.04,2.69-3.71,4.58-5.04c1.89-1.32,4.05-2.3,6.47-2.95c2.42-0.65,4.89-0.97,7.4-0.97
		c5.73,0,9.91,0.72,12.53,2.15v7.96c-3.43-2.47-7.84-3.71-13.22-3.71c-1.49,0-2.97,0.16-4.46,0.49c-1.49,0.32-2.81,0.85-3.97,1.58
		c-1.16,0.73-2.11,1.67-2.84,2.82c-0.73,1.15-1.1,2.56-1.1,4.21c0,1.54,0.28,2.88,0.83,4c0.55,1.12,1.37,2.15,2.45,3.08
		c1.08,0.93,2.4,1.83,3.95,2.7s3.35,1.83,5.37,2.87c2.08,1.07,4.06,2.19,5.92,3.37c1.87,1.18,3.5,2.49,4.91,3.92
		c1.41,1.43,2.52,3.02,3.35,4.76c0.82,1.74,1.24,3.74,1.24,5.98c0,2.98-0.56,5.5-1.68,7.56c-1.12,2.07-2.64,3.74-4.54,5.04
		c-1.91,1.29-4.1,2.23-6.59,2.8s-5.11,0.86-7.87,0.86c-0.92,0-2.05-0.08-3.41-0.23c-1.35-0.15-2.73-0.38-4.14-0.67
		c-1.41-0.29-2.74-0.66-4-1.1C1129.24,369.47,1128.23,368.98,1127.47,368.45z"/>
	<path class="st1" d="M1204.88,368.91c-3.19,1.99-6.98,2.99-11.35,2.99c-5.92,0-10.7-2-14.34-6.01c-3.64-4-5.45-9.19-5.45-15.57
		c0-7.11,1.96-12.82,5.88-17.13c3.92-4.31,9.15-6.47,15.69-6.47c3.65,0,6.87,0.7,9.65,2.11v7.08c-3.08-2.25-6.38-3.37-9.89-3.37
		c-4.25,0-7.73,1.58-10.44,4.74c-2.72,3.16-4.08,7.31-4.08,12.45c0,5.06,1.28,9.05,3.83,11.97c2.56,2.92,5.98,4.38,10.28,4.38
		c3.62,0,7.03-1.25,10.22-3.75V368.91z"/>
	<path class="st1" d="M1252.57,370.89h-6.65v-24.87c0-8.99-3.22-13.49-9.65-13.49c-3.24,0-5.97,1.3-8.19,3.9s-3.33,5.94-3.33,10.01
		v24.44h-6.65V307h6.65v27.9h0.16c3.19-5.45,7.73-8.18,13.63-8.18c9.35,0,14.03,5.86,14.03,17.57V370.89z"/>
	<path class="st1" d="M1289.91,334.73c-1.16-0.93-2.84-1.39-5.03-1.39c-2.84,0-5.21,1.39-7.12,4.17c-1.91,2.78-2.86,6.57-2.86,11.38
		v22h-6.65v-43.16h6.65v8.89h0.16c0.95-3.03,2.39-5.4,4.34-7.1c1.95-1.7,4.12-2.55,6.53-2.55c1.73,0,3.05,0.2,3.97,0.59V334.73z"/>
	<path class="st1" d="M1303.69,316.78c-1.19,0-2.2-0.42-3.04-1.26s-1.26-1.91-1.26-3.2c0-1.29,0.42-2.37,1.26-3.22
		c0.84-0.86,1.85-1.29,3.04-1.29c1.22,0,2.25,0.43,3.1,1.29c0.85,0.86,1.28,1.93,1.28,3.22c0,1.24-0.43,2.29-1.28,3.16
		C1305.94,316.34,1304.91,316.78,1303.69,316.78z M1306.93,370.89h-6.65v-43.16h6.65V370.89z"/>
	<path class="st1" d="M1344.07,313.07c-1.3-0.76-2.77-1.14-4.42-1.14c-4.65,0-6.98,3.05-6.98,9.15v6.66h9.73v5.9h-9.73v37.25h-6.61
		v-37.25h-7.1v-5.9h7.1v-7c0-4.52,1.26-8.1,3.77-10.73c2.51-2.63,5.65-3.94,9.41-3.94c2.03,0,3.64,0.25,4.83,0.76V313.07z"/>
	<path class="st1" d="M1371.97,370.47c-1.57,0.9-3.64,1.35-6.21,1.35c-7.27,0-10.91-4.21-10.91-12.64v-25.54h-7.14v-5.9h7.14V317.2
		l6.65-2.23v12.77h10.46v5.9h-10.46v24.32c0,2.89,0.47,4.96,1.42,6.2c0.95,1.24,2.51,1.85,4.7,1.85c1.68,0,3.12-0.48,4.34-1.43
		V370.47z"/>
	<path class="st1" d="M1390.09,361.28l-6.49,20.73h-4.74l4.74-20.73H1390.09z"/>
	<path class="st1" d="M1431.96,370.89v-60.43h16.55c5.03,0,9.02,1.28,11.96,3.84c2.95,2.56,4.42,5.89,4.42,9.99
		c0,3.43-0.89,6.41-2.68,8.93c-1.78,2.53-4.25,4.33-7.38,5.39v0.17c3.92,0.48,7.06,2.02,9.41,4.61c2.35,2.6,3.53,5.98,3.53,10.14
		c0,5.17-1.78,9.36-5.35,12.56c-3.57,3.2-8.07,4.8-13.5,4.8H1431.96z M1438.78,316.86v19.51h6.97c3.73,0,6.66-0.93,8.8-2.8
		c2.14-1.87,3.2-4.5,3.2-7.9c0-5.87-3.72-8.81-11.15-8.81H1438.78z M1438.78,342.74v21.75h9.25c4,0,7.1-0.98,9.31-2.95
		c2.2-1.97,3.3-4.66,3.3-8.09c0-7.14-4.68-10.71-14.03-10.71H1438.78z"/>
	<path class="st1" d="M1485.25,316.78c-1.19,0-2.2-0.42-3.04-1.26s-1.26-1.91-1.26-3.2c0-1.29,0.42-2.37,1.26-3.22
		c0.84-0.86,1.85-1.29,3.04-1.29c1.22,0,2.25,0.43,3.1,1.29c0.85,0.86,1.28,1.93,1.28,3.22c0,1.24-0.43,2.29-1.28,3.16
		C1487.5,316.34,1486.46,316.78,1485.25,316.78z M1488.49,370.89h-6.65v-43.16h6.65V370.89z"/>
	<path class="st1" d="M1511.76,370.89h-6.65V307h6.65V370.89z"/>
	<path class="st1" d="M1563.82,370.89h-6.65v-7.33h-0.16c-3.08,5.56-7.84,8.34-14.27,8.34c-5.22,0-9.39-1.93-12.51-5.79
		c-3.12-3.86-4.68-9.12-4.68-15.78c0-7.14,1.73-12.85,5.19-17.15c3.46-4.3,8.07-6.45,13.83-6.45c5.7,0,9.85,2.33,12.45,7h0.16V307
		h6.65V370.89z M1557.17,351.38v-6.36c0-3.48-1.11-6.43-3.33-8.85c-2.22-2.42-5.03-3.62-8.43-3.62c-4.06,0-7.25,1.54-9.57,4.64
		s-3.49,7.36-3.49,12.81c0,4.97,1.12,8.9,3.35,11.78s5.22,4.32,8.98,4.32c3.7,0,6.71-1.39,9.02-4.17S1557.17,355.62,1557.17,351.38z
		"/>
	<path class="st1" d="M1639.93,370.89h-6.65v-6.83h-0.16c-2.76,5.23-7.03,7.84-12.81,7.84c-9.9,0-14.84-6.13-14.84-18.38v-25.79
		h6.61v24.7c0,9.1,3.35,13.65,10.06,13.65c3.24,0,5.91-1.24,8.01-3.73c2.09-2.49,3.14-5.74,3.14-9.76v-24.87h6.65V370.89z"/>
	<path class="st1" d="M1690.98,370.89h-6.65v-24.61c0-9.16-3.22-13.74-9.65-13.74c-3.33,0-6.08,1.3-8.25,3.9
		c-2.18,2.6-3.26,5.88-3.26,9.84v24.61h-6.65v-43.16h6.65v7.16h0.16c3.14-5.45,7.68-8.18,13.63-8.18c4.54,0,8.02,1.52,10.42,4.57
		s3.61,7.45,3.61,13.21V370.89z"/>
	<path class="st1" d="M1742.11,370.89h-6.65v-7.33h-0.16c-3.08,5.56-7.84,8.34-14.27,8.34c-5.22,0-9.39-1.93-12.51-5.79
		c-3.12-3.86-4.68-9.12-4.68-15.78c0-7.14,1.73-12.85,5.19-17.15c3.46-4.3,8.07-6.45,13.83-6.45c5.7,0,9.85,2.33,12.45,7h0.16V307
		h6.65V370.89z M1735.46,351.38v-6.36c0-3.48-1.11-6.43-3.33-8.85c-2.22-2.42-5.03-3.62-8.43-3.62c-4.06,0-7.25,1.54-9.57,4.64
		s-3.49,7.36-3.49,12.81c0,4.97,1.12,8.9,3.35,11.78s5.22,4.32,8.98,4.32c3.7,0,6.71-1.39,9.02-4.17S1735.46,355.62,1735.46,351.38z
		"/>
	<path class="st1" d="M1819.92,316.86h-16.79v54.03h-6.81v-54.03h-16.75v-6.41h40.35V316.86z"/>
	<path class="st1" d="M1848.66,371.9c-6.14,0-11.04-2.02-14.7-6.05c-3.66-4.03-5.49-9.38-5.49-16.04c0-7.25,1.91-12.91,5.72-16.98
		c3.81-4.07,8.96-6.11,15.45-6.11c6.19,0,11.02,1.98,14.5,5.94c3.47,3.96,5.21,9.46,5.21,16.48c0,6.88-1.87,12.4-5.62,16.54
		C1859.98,369.83,1854.96,371.9,1848.66,371.9z M1849.15,332.54c-4.27,0-7.65,1.51-10.14,4.53c-2.49,3.02-3.73,7.19-3.73,12.5
		c0,5.11,1.26,9.15,3.77,12.1s5.88,4.42,10.1,4.42c4.3,0,7.6-1.45,9.92-4.34c2.31-2.89,3.47-7.01,3.47-12.35
		c0-5.39-1.16-9.55-3.47-12.47S1853.45,332.54,1849.15,332.54z"/>
	<path class="st1" d="M1917.59,370.89h-6.65v-24.61c0-9.16-3.22-13.74-9.65-13.74c-3.33,0-6.08,1.3-8.25,3.9
		c-2.18,2.6-3.26,5.88-3.26,9.84v24.61h-6.65v-43.16h6.65v7.16h0.16c3.14-5.45,7.68-8.18,13.63-8.18c4.54,0,8.02,1.52,10.42,4.57
		s3.61,7.45,3.61,13.21V370.89z"/>
</g>
<g>
	<path class="st1" d="M335.22,118.28c-5.73-3.11-12.42-4.67-20.05-4.67c-10.35,0-18.45,3.8-24.28,11.38
		c-5.83,7.59-8.75,17.92-8.75,30.99v73.73h-47.65V75.3h47.65v28.65h0.6c7.54-20.91,21.11-31.36,40.71-31.36
		c5.03,0,8.95,0.6,11.76,1.81V118.28z"/>
	<path class="st1" d="M387.35,50.88c-8.04,0-14.63-2.39-19.75-7.16c-5.13-4.77-7.69-10.63-7.69-17.57c0-7.14,2.56-12.97,7.69-17.49
		c5.13-4.52,11.71-6.79,19.75-6.79c8.14,0,14.75,2.26,19.83,6.79c5.07,4.52,7.61,10.35,7.61,17.49c0,7.24-2.54,13.17-7.61,17.79
		C402.1,48.56,395.49,50.88,387.35,50.88z M410.87,229.71h-47.65V75.3h47.65V229.71z"/>
	<path class="st1" d="M555.04,163.97h-82.48v-33.32h82.48V163.97z"/>
</g>
</svg>
