<?xml version="1.0" encoding="utf-8"?>
<!-- Generator: Adobe Illustrator 26.0.2, SVG Export Plug-In . SVG Version: 6.00 Build 0)  -->
<svg version="1.1" id="Calque_1" xmlns="http://www.w3.org/2000/svg" xmlns:xlink="http://www.w3.org/1999/xlink" x="0px" y="0px"
	 viewBox="0 0 1920 393.6" style="enable-background:new 0 0 1920 393.6;" xml:space="preserve">
<style type="text/css">
	.st0{fill:#93278F;}
	.st1{fill:#333333;}
</style>
<g>
	<g>
		<g>
			<path class="st0" d="M864.44,229.7h-48.1V100.32c0-13.97,0.6-29.4,1.81-46.29h-1.21c-2.51,13.27-4.78,22.82-6.79,28.65
				L759.49,229.7h-39.81L668.12,84.19c-1.41-3.92-3.67-13.97-6.79-30.16h-1.36c1.31,21.31,1.96,40.01,1.96,56.09V229.7h-43.88V13.47
				h71.32l44.18,128.17c3.52,10.25,6.08,20.56,7.69,30.91h0.9c2.71-11.96,5.58-22.37,8.59-31.21l44.18-127.87h69.51V229.7z"/>
			<path class="st0" d="M1052.28,166.07H951.55c1.61,22.42,15.73,33.63,42.37,33.63c16.99,0,31.91-4.02,44.78-12.06v34.38
				c-14.28,7.64-32.82,11.46-55.64,11.46c-24.93,0-44.28-6.91-58.05-20.73c-13.77-13.82-20.66-33.1-20.66-57.83
				c0-25.63,7.44-45.94,22.32-60.92c14.88-14.98,33.17-22.47,54.89-22.47c22.52,0,39.93,6.69,52.25,20.05
				c12.31,13.37,18.47,31.51,18.47,54.43V166.07z M1008.1,136.81c0-22.11-8.95-33.17-26.84-33.17c-7.64,0-14.25,3.17-19.83,9.5
				c-5.58,6.33-8.97,14.23-10.18,23.67H1008.1z"/>
			<path class="st0" d="M1330.44,229.7h-47.5v-88.06c0-22.42-8.24-33.63-24.73-33.63c-7.84,0-14.23,3.37-19.15,10.1
				c-4.93,6.74-7.39,15.13-7.39,25.18v86.4h-47.65v-88.96c0-21.81-8.09-32.72-24.28-32.72c-8.14,0-14.65,3.22-19.53,9.65
				c-4.88,6.43-7.31,15.18-7.31,26.24v85.8h-47.65V75.29h47.65v24.13h0.6c4.92-8.24,11.84-14.95,20.73-20.13
				c8.9-5.18,18.62-7.77,29.18-7.77c21.81,0,36.74,9.6,44.78,28.8c11.76-19.2,29.05-28.8,51.87-28.8
				c33.57,0,50.36,20.71,50.36,62.12V229.7z"/>
			<path class="st0" d="M1446.35,233.47c-25.73,0-45.97-7.21-60.69-21.64c-14.73-14.42-22.09-34-22.09-58.73
				c0-25.53,7.64-45.51,22.92-59.94c15.28-14.42,35.94-21.64,61.97-21.64c25.63,0,45.74,7.21,60.31,21.64
				c14.57,14.43,21.86,33.5,21.86,57.22c0,25.63-7.52,45.89-22.54,60.77C1493.07,226.03,1472.48,233.47,1446.35,233.47z
				 M1447.55,108.01c-11.26,0-20.01,3.87-26.24,11.61c-6.23,7.74-9.35,18.7-9.35,32.87c0,29.66,11.96,44.48,35.89,44.48
				c22.82,0,34.23-15.23,34.23-45.69C1482.08,122.44,1470.57,108.01,1447.55,108.01z"/>
			<path class="st0" d="M1666.91,118.27c-5.73-3.11-12.42-4.67-20.05-4.67c-10.35,0-18.45,3.8-24.28,11.38
				c-5.83,7.59-8.75,17.92-8.75,30.99v73.73h-47.65V75.29h47.65v28.65h0.6c7.54-20.91,21.11-31.36,40.71-31.36
				c5.03,0,8.95,0.6,11.76,1.81V118.27z"/>
			<path class="st0" d="M1719.04,50.87c-8.04,0-14.63-2.39-19.75-7.16c-5.13-4.77-7.69-10.63-7.69-17.57
				c0-7.14,2.56-12.97,7.69-17.49c5.13-4.52,11.71-6.79,19.75-6.79c8.14,0,14.75,2.26,19.83,6.79c5.08,4.52,7.61,10.35,7.61,17.49
				c0,7.24-2.54,13.17-7.61,17.79C1733.79,48.56,1727.18,50.87,1719.04,50.87z M1742.56,229.7h-47.65V75.29h47.65V229.7z"/>
			<path class="st0" d="M1915.77,229.7h-45.08v-22.17h-0.6c-10.35,17.29-25.69,25.94-45.99,25.94c-14.98,0-26.76-4.25-35.36-12.74
				c-8.59-8.49-12.89-19.83-12.89-34c0-29.95,17.74-47.25,53.23-51.87l41.92-5.58c0-16.89-9.15-25.33-27.44-25.33
				c-18.4,0-35.89,5.48-52.47,16.44V84.49c6.63-3.42,15.71-6.43,27.22-9.05c11.51-2.61,21.99-3.92,31.44-3.92
				c44.03,0,66.04,21.96,66.04,65.89V229.7z M1870.99,166.97v-10.4l-28.05,3.62c-15.48,2.01-23.22,9-23.22,20.96
				c0,5.43,1.88,9.88,5.65,13.34s8.87,5.2,15.3,5.2c8.95,0,16.23-3.09,21.86-9.27C1868.17,184.24,1870.99,176.42,1870.99,166.97z"/>
		</g>
	</g>
	<polygon class="st1" points="78.98,78.68 78.98,164.76 192.59,164.76 192.59,228.79 78.98,228.79 78.98,370.9 0,370.9 0,14.45 
		202.62,14.45 202.62,78.68 	"/>
	<g>
		<path class="st1" d="M222.81,370.88h-29.58v-62.71h6.68v56.07h22.9V370.88z"/>
		<path class="st1" d="M263.4,350.28h-28.75c0.11,4.99,1.33,8.83,3.66,11.55c2.33,2.71,5.54,4.07,9.62,4.07
			c4.59,0,8.8-1.66,12.64-4.99v6.74c-3.58,2.86-8.31,4.29-14.19,4.29c-5.75,0-10.27-2.03-13.56-6.1s-4.93-9.79-4.93-17.17
			c0-6.97,1.8-12.65,5.39-17.04c3.59-4.39,8.05-6.58,13.38-6.58s9.45,1.9,12.36,5.69c2.92,3.79,4.37,9.05,4.37,15.79V350.28z
			 M256.72,344.21c-0.03-4.14-0.93-7.36-2.72-9.67c-1.79-2.3-4.27-3.46-7.45-3.46c-3.08,0-5.69,1.21-7.83,3.63s-3.47,5.58-3.98,9.49
			H256.72z"/>
		<path class="st1" d="M302.24,364.41h-0.16v27.07h-6.52V326.1h6.52v7.87h0.16c3.21-5.95,7.9-8.92,14.07-8.92
			c5.25,0,9.34,2,12.29,6.01c2.94,4.01,4.41,9.38,4.41,16.12c0,7.49-1.66,13.49-4.97,18c-3.31,4.5-7.85,6.76-13.6,6.76
			C309.17,371.93,305.1,369.43,302.24,364.41z M302.08,346.35v6.25c0,3.7,1.09,6.84,3.28,9.42c2.19,2.58,4.96,3.87,8.33,3.87
			c3.95,0,7.04-1.66,9.28-4.99c2.24-3.32,3.36-7.94,3.36-13.86c0-4.99-1.05-8.89-3.14-11.72c-2.09-2.83-4.93-4.24-8.51-4.24
			c-3.79,0-6.84,1.45-9.14,4.35C303.24,338.34,302.08,341.97,302.08,346.35z"/>
		<path class="st1" d="M372.57,370.88h-6.52v-7h-0.16c-2.84,5.37-7.01,8.05-12.52,8.05c-4.06,0-7.23-1.18-9.52-3.54
			s-3.44-5.5-3.44-9.4c0-8.37,4.48-13.24,13.44-14.61l12.21-1.88c0-7.61-2.8-11.41-8.39-11.41c-4.9,0-9.33,1.84-13.28,5.51v-7.35
			c4-2.8,8.61-4.2,13.84-4.2c9.57,0,14.35,5.57,14.35,16.71V370.88z M366.05,348.23l-9.82,1.49c-3.02,0.47-5.3,1.29-6.84,2.47
			c-1.54,1.18-2.31,3.27-2.31,6.28c0,2.19,0.71,3.97,2.13,5.36c1.42,1.39,3.31,2.08,5.67,2.08c3.23,0,5.9-1.25,8.01-3.74
			c2.11-2.49,3.16-5.65,3.16-9.47V348.23z"/>
		<path class="st1" d="M403.74,370.45c-1.54,0.93-3.56,1.4-6.08,1.4c-7.13,0-10.69-4.37-10.69-13.12v-26.5h-7v-6.12h7v-10.93
			l6.52-2.32v13.25h10.26v6.12h-10.26v25.23c0,3,0.46,5.15,1.39,6.43c0.93,1.28,2.46,1.92,4.61,1.92c1.64,0,3.06-0.5,4.25-1.49
			V370.45z"/>
		<path class="st1" d="M433.68,333.36c-1.14-0.96-2.78-1.44-4.93-1.44c-2.78,0-5.11,1.44-6.98,4.33s-2.8,6.82-2.8,11.81v22.83h-6.52
			V326.1h6.52v9.23h0.16c0.93-3.15,2.35-5.61,4.25-7.37c1.91-1.76,4.04-2.65,6.4-2.65c1.7,0,2.99,0.2,3.9,0.61V333.36z"/>
		<path class="st1" d="M444.1,314.73c-1.17,0-2.16-0.44-2.98-1.31c-0.82-0.88-1.23-1.98-1.23-3.32c0-1.34,0.41-2.46,1.23-3.35
			c0.82-0.89,1.82-1.33,2.98-1.33c1.19,0,2.21,0.44,3.04,1.33c0.83,0.89,1.25,2.01,1.25,3.35c0,1.28-0.42,2.38-1.25,3.28
			C446.31,314.28,445.29,314.73,444.1,314.73z M447.28,370.88h-6.52V326.1h6.52V370.88z"/>
		<path class="st1" d="M518.29,370.88h-6.52v-25.72c0-4.96-0.7-8.54-2.09-10.76c-1.39-2.21-3.73-3.32-7.02-3.32
			c-2.78,0-5.15,1.4-7.1,4.2s-2.92,6.15-2.92,10.06v25.54h-6.52v-26.59c0-8.8-3.09-13.21-9.26-13.21c-2.86,0-5.22,1.32-7.08,3.96
			c-1.86,2.64-2.78,6.07-2.78,10.3v25.54h-6.52V326.1H467v7.08h0.16c2.89-5.42,7.1-8.13,12.64-8.13c2.78,0,5.21,0.85,7.28,2.56
			c2.07,1.71,3.48,3.94,4.25,6.71c3.02-6.18,7.53-9.27,13.52-9.27c8.96,0,13.44,6.08,13.44,18.24V370.88z"/>
		<path class="st1" d="M547.63,371.93c-6.02,0-10.82-2.09-14.41-6.28c-3.59-4.18-5.39-9.73-5.39-16.64c0-7.52,1.87-13.4,5.61-17.63
			s8.79-6.34,15.15-6.34c6.07,0,10.81,2.06,14.21,6.17c3.41,4.11,5.11,9.81,5.11,17.1c0,7.14-1.84,12.87-5.51,17.17
			C558.73,369.78,553.81,371.93,547.63,371.93z M548.11,331.09c-4.19,0-7.5,1.57-9.94,4.7c-2.44,3.13-3.66,7.46-3.66,12.97
			c0,5.31,1.23,9.49,3.7,12.55c2.46,3.06,5.76,4.59,9.9,4.59c4.21,0,7.46-1.5,9.72-4.5s3.4-7.27,3.4-12.81
			c0-5.6-1.13-9.91-3.4-12.95C555.56,332.6,552.32,331.09,548.11,331.09z"/>
		<path class="st1" d="M581.66,314.73c-1.17,0-2.16-0.44-2.98-1.31c-0.82-0.88-1.23-1.98-1.23-3.32c0-1.34,0.41-2.46,1.23-3.35
			c0.82-0.89,1.82-1.33,2.98-1.33c1.19,0,2.21,0.44,3.04,1.33c0.83,0.89,1.25,2.01,1.25,3.35c0,1.28-0.42,2.38-1.25,3.28
			C583.87,314.28,582.86,314.73,581.66,314.73z M584.84,370.88h-6.52V326.1h6.52V370.88z"/>
		<path class="st1" d="M631.84,370.88h-6.52v-25.54c0-9.5-3.15-14.26-9.46-14.26c-3.26,0-5.96,1.35-8.09,4.04
			c-2.13,2.7-3.2,6.1-3.2,10.21v25.54h-6.52V326.1h6.52v7.43h0.16c3.07-5.66,7.53-8.48,13.36-8.48c4.45,0,7.86,1.58,10.22,4.75
			c2.36,3.16,3.54,7.73,3.54,13.71V370.88z"/>
		<path class="st1" d="M676.84,350.28H648.1c0.11,4.99,1.33,8.83,3.66,11.55c2.33,2.71,5.54,4.07,9.62,4.07
			c4.59,0,8.8-1.66,12.64-4.99v6.74c-3.58,2.86-8.31,4.29-14.19,4.29c-5.75,0-10.27-2.03-13.56-6.1s-4.93-9.79-4.93-17.17
			c0-6.97,1.8-12.65,5.39-17.04c3.59-4.39,8.05-6.58,13.38-6.58s9.45,1.9,12.36,5.69c2.92,3.79,4.37,9.05,4.37,15.79V350.28z
			 M670.17,344.21c-0.03-4.14-0.93-7.36-2.72-9.67c-1.79-2.3-4.27-3.46-7.45-3.46c-3.08,0-5.69,1.21-7.83,3.63s-3.47,5.58-3.98,9.49
			H670.17z"/>
		<path class="st1" d="M729.13,310.88c-1.27-0.79-2.72-1.18-4.33-1.18c-4.56,0-6.84,3.16-6.84,9.49v6.91h9.54v6.12h-9.54v38.66
			h-6.48v-38.66h-6.96v-6.12h6.96v-7.26c0-4.69,1.23-8.4,3.7-11.13c2.47-2.73,5.54-4.09,9.22-4.09c1.99,0,3.56,0.26,4.73,0.79
			V310.88z"/>
		<path class="st1" d="M755.72,333.36c-1.14-0.96-2.78-1.44-4.93-1.44c-2.78,0-5.11,1.44-6.98,4.33s-2.8,6.82-2.8,11.81v22.83h-6.52
			V326.1h6.52v9.23h0.16c0.93-3.15,2.35-5.61,4.25-7.37c1.91-1.76,4.04-2.65,6.4-2.65c1.7,0,2.99,0.2,3.9,0.61V333.36z"/>
		<path class="st1" d="M766.14,314.73c-1.17,0-2.16-0.44-2.98-1.31c-0.82-0.88-1.23-1.98-1.23-3.32c0-1.34,0.41-2.46,1.23-3.35
			c0.82-0.89,1.82-1.33,2.98-1.33c1.19,0,2.21,0.44,3.04,1.33c0.83,0.89,1.25,2.01,1.25,3.35c0,1.28-0.42,2.38-1.25,3.28
			C768.35,314.28,767.33,314.73,766.14,314.73z M769.32,370.88h-6.52V326.1h6.52V370.88z"/>
		<path class="st1" d="M789.2,364.41h-0.16v6.47h-6.52v-66.3h6.52v29.39h0.16c3.21-5.95,7.9-8.92,14.07-8.92
			c5.22,0,9.31,2,12.27,6.01c2.96,4.01,4.43,9.38,4.43,16.12c0,7.49-1.66,13.49-4.97,18c-3.31,4.5-7.85,6.76-13.6,6.76
			C796.03,371.93,791.96,369.43,789.2,364.41z M789.04,346.35v6.25c0,3.7,1.09,6.84,3.28,9.42c2.19,2.58,4.96,3.87,8.33,3.87
			c3.95,0,7.04-1.66,9.28-4.99c2.24-3.32,3.36-7.94,3.36-13.86c0-4.99-1.05-8.89-3.14-11.72c-2.09-2.83-4.93-4.24-8.51-4.24
			c-3.79,0-6.84,1.45-9.14,4.35C790.2,338.34,789.04,341.97,789.04,346.35z"/>
		<path class="st1" d="M847.41,371.93c-6.02,0-10.82-2.09-14.41-6.28c-3.59-4.18-5.39-9.73-5.39-16.64c0-7.52,1.87-13.4,5.61-17.63
			s8.79-6.34,15.15-6.34c6.07,0,10.81,2.06,14.21,6.17c3.41,4.11,5.11,9.81,5.11,17.1c0,7.14-1.84,12.87-5.51,17.17
			C858.51,369.78,853.58,371.93,847.41,371.93z M847.88,331.09c-4.19,0-7.5,1.57-9.94,4.7c-2.44,3.13-3.66,7.46-3.66,12.97
			c0,5.31,1.23,9.49,3.7,12.55c2.46,3.06,5.76,4.59,9.9,4.59c4.21,0,7.46-1.5,9.72-4.5s3.4-7.27,3.4-12.81
			c0-5.6-1.13-9.91-3.4-12.95C855.34,332.6,852.1,331.09,847.88,331.09z"/>
		<path class="st1" d="M911.02,370.88h-6.52v-7.08h-0.16c-2.7,5.42-6.89,8.13-12.56,8.13c-9.7,0-14.55-6.36-14.55-19.07V326.1h6.48
			v25.63c0,9.45,3.29,14.17,9.86,14.17c3.18,0,5.8-1.29,7.85-3.87c2.05-2.58,3.08-5.96,3.08-10.12v-25.8h6.52V370.88z"/>
		<path class="st1" d="M945.41,333.36c-1.14-0.96-2.78-1.44-4.93-1.44c-2.78,0-5.11,1.44-6.98,4.33s-2.8,6.82-2.8,11.81v22.83h-6.52
			V326.1h6.52v9.23h0.16c0.93-3.15,2.35-5.61,4.25-7.37c1.91-1.76,4.04-2.65,6.4-2.65c1.7,0,2.99,0.2,3.9,0.61V333.36z"/>
		<path class="st1" d="M987.24,367.3c0,16.44-7.16,24.67-21.47,24.67c-5.04,0-9.44-1.05-13.2-3.15v-7.17
			c4.59,2.8,8.96,4.2,13.12,4.2c10.02,0,15.03-5.86,15.03-17.58v-4.9h-0.16c-3.1,5.71-7.77,8.57-13.99,8.57
			c-5.06,0-9.14-1.99-12.23-5.97c-3.09-3.98-4.63-9.32-4.63-16.03c0-7.61,1.66-13.66,4.99-18.15c3.33-4.49,7.88-6.74,13.66-6.74
			c5.49,0,9.55,2.42,12.21,7.26h0.16v-6.21h6.52V367.3z M980.72,350.63v-6.6c0-3.56-1.09-6.6-3.28-9.14
			c-2.19-2.54-4.91-3.8-8.17-3.8c-4.03,0-7.18,1.61-9.46,4.83c-2.28,3.22-3.42,7.73-3.42,13.54c0,4.99,1.09,8.97,3.28,11.96
			c2.19,2.99,5.08,4.48,8.69,4.48c3.66,0,6.63-1.43,8.93-4.29S980.72,355.1,980.72,350.63z"/>
		<path class="st1" d="M1033.16,350.28h-28.75c0.11,4.99,1.32,8.83,3.66,11.55c2.33,2.71,5.54,4.07,9.62,4.07
			c4.59,0,8.8-1.66,12.64-4.99v6.74c-3.58,2.86-8.31,4.29-14.19,4.29c-5.75,0-10.27-2.03-13.56-6.1c-3.29-4.07-4.93-9.79-4.93-17.17
			c0-6.97,1.8-12.65,5.39-17.04c3.59-4.39,8.05-6.58,13.38-6.58c5.33,0,9.45,1.9,12.36,5.69c2.92,3.79,4.37,9.05,4.37,15.79V350.28z
			 M1026.48,344.21c-0.03-4.14-0.93-7.36-2.72-9.67c-1.79-2.3-4.27-3.46-7.45-3.46c-3.08,0-5.69,1.21-7.83,3.63
			c-2.15,2.42-3.47,5.58-3.98,9.49H1026.48z"/>
		<path class="st1" d="M1060.03,371.93c-6.02,0-10.82-2.09-14.41-6.28c-3.59-4.18-5.39-9.73-5.39-16.64c0-7.52,1.87-13.4,5.61-17.63
			s8.79-6.34,15.15-6.34c6.07,0,10.81,2.06,14.21,6.17c3.41,4.11,5.11,9.81,5.11,17.1c0,7.14-1.84,12.87-5.51,17.17
			C1071.13,369.78,1066.21,371.93,1060.03,371.93z M1060.51,331.09c-4.19,0-7.5,1.57-9.94,4.7c-2.44,3.13-3.66,7.46-3.66,12.97
			c0,5.31,1.23,9.49,3.7,12.55c2.47,3.06,5.77,4.59,9.9,4.59c4.21,0,7.45-1.5,9.72-4.5s3.4-7.27,3.4-12.81
			c0-5.6-1.13-9.91-3.4-12.95C1067.97,332.6,1064.73,331.09,1060.51,331.09z"/>
		<path class="st1" d="M1094.07,314.73c-1.17,0-2.16-0.44-2.98-1.31c-0.82-0.88-1.23-1.98-1.23-3.32c0-1.34,0.41-2.46,1.23-3.35
			c0.82-0.89,1.81-1.33,2.98-1.33c1.19,0,2.21,0.44,3.04,1.33c0.83,0.89,1.25,2.01,1.25,3.35c0,1.28-0.42,2.38-1.25,3.28
			C1096.27,314.28,1095.26,314.73,1094.07,314.73z M1097.25,370.88h-6.52V326.1h6.52V370.88z"/>
		<path class="st1" d="M1107.98,369.26v-7.7c3.55,2.89,7.46,4.33,11.73,4.33c5.73,0,8.59-2.1,8.59-6.3c0-1.2-0.25-2.21-0.74-3.04
			c-0.49-0.83-1.15-1.57-1.99-2.21s-1.82-1.22-2.94-1.73c-1.13-0.51-2.34-1.04-3.64-1.6c-1.8-0.79-3.39-1.58-4.75-2.38
			c-1.37-0.8-2.5-1.71-3.42-2.71s-1.6-2.15-2.07-3.43c-0.46-1.28-0.7-2.78-0.7-4.5c0-2.1,0.44-3.96,1.31-5.58s2.04-2.97,3.5-4.07
			c1.46-1.09,3.12-1.92,4.99-2.47c1.87-0.55,3.8-0.83,5.79-0.83c3.52,0,6.68,0.67,9.46,2.01v7.26c-3-2.16-6.44-3.24-10.34-3.24
			c-1.22,0-2.32,0.15-3.3,0.46c-0.98,0.31-1.82,0.74-2.52,1.29c-0.7,0.55-1.25,1.22-1.63,1.99c-0.38,0.77-0.58,1.63-0.58,2.56
			c0,1.17,0.19,2.14,0.58,2.93c0.38,0.79,0.95,1.49,1.69,2.1c0.74,0.61,1.64,1.17,2.7,1.66c1.06,0.5,2.27,1.04,3.62,1.62
			c1.8,0.76,3.42,1.54,4.85,2.34c1.43,0.8,2.65,1.71,3.66,2.71c1.01,1.01,1.78,2.17,2.33,3.48c0.54,1.31,0.82,2.87,0.82,4.68
			c0,2.22-0.44,4.14-1.33,5.77c-0.89,1.63-2.07,2.99-3.56,4.07c-1.48,1.08-3.19,1.88-5.13,2.41c-1.93,0.53-3.96,0.79-6.08,0.79
			C1114.69,371.93,1111.06,371.04,1107.98,369.26z"/>
		<path class="st1" d="M1200.02,350.28h-28.75c0.11,4.99,1.32,8.83,3.66,11.55c2.33,2.71,5.54,4.07,9.62,4.07
			c4.59,0,8.8-1.66,12.64-4.99v6.74c-3.58,2.86-8.31,4.29-14.19,4.29c-5.75,0-10.27-2.03-13.56-6.1c-3.29-4.07-4.93-9.79-4.93-17.17
			c0-6.97,1.8-12.65,5.39-17.04c3.59-4.39,8.05-6.58,13.38-6.58c5.33,0,9.45,1.9,12.36,5.69c2.92,3.79,4.37,9.05,4.37,15.79V350.28z
			 M1193.34,344.21c-0.03-4.14-0.93-7.36-2.72-9.67c-1.79-2.3-4.27-3.46-7.45-3.46c-3.08,0-5.69,1.21-7.83,3.63
			c-2.15,2.42-3.47,5.58-3.98,9.49H1193.34z M1192.31,303.27l-10.42,14.34h-5.05l8.87-14.34H1192.31z"/>
		<path class="st1" d="M1237.63,368.83c-3.13,2.07-6.84,3.11-11.13,3.11c-5.8,0-10.49-2.08-14.05-6.23
			c-3.57-4.16-5.35-9.54-5.35-16.16c0-7.38,1.92-13.3,5.77-17.78c3.84-4.48,8.97-6.71,15.39-6.71c3.58,0,6.73,0.73,9.46,2.19v7.35
			c-3.02-2.33-6.26-3.5-9.7-3.5c-4.16,0-7.57,1.64-10.24,4.92c-2.66,3.28-4,7.59-4,12.92c0,5.25,1.25,9.39,3.76,12.42
			c2.5,3.03,5.86,4.55,10.08,4.55c3.55,0,6.89-1.3,10.02-3.89V368.83z"/>
		<path class="st1" d="M1268.73,333.36c-1.14-0.96-2.78-1.44-4.93-1.44c-2.78,0-5.11,1.44-6.98,4.33c-1.87,2.89-2.8,6.82-2.8,11.81
			v22.83h-6.52V326.1h6.52v9.23h0.16c0.93-3.15,2.35-5.61,4.25-7.37s4.04-2.65,6.4-2.65c1.7,0,3,0.2,3.9,0.61V333.36z"/>
		<path class="st1" d="M1279.14,314.73c-1.17,0-2.16-0.44-2.98-1.31c-0.82-0.88-1.23-1.98-1.23-3.32c0-1.34,0.41-2.46,1.23-3.35
			c0.82-0.89,1.81-1.33,2.98-1.33c1.19,0,2.21,0.44,3.04,1.33c0.83,0.89,1.25,2.01,1.25,3.35c0,1.28-0.42,2.38-1.25,3.28
			C1281.35,314.28,1280.33,314.73,1279.14,314.73z M1282.32,370.88h-6.52V326.1h6.52V370.88z"/>
		<path class="st1" d="M1314.41,370.45c-1.54,0.93-3.57,1.4-6.08,1.4c-7.13,0-10.7-4.37-10.7-13.12v-26.5h-7v-6.12h7v-10.93
			l6.52-2.32v13.25h10.26v6.12h-10.26v25.23c0,3,0.46,5.15,1.39,6.43c0.93,1.28,2.46,1.92,4.61,1.92c1.64,0,3.06-0.5,4.25-1.49
			V370.45z"/>
		<path class="st1" d="M1329.08,360.91l-6.36,21.52h-4.65l4.65-21.52H1329.08z"/>
		<path class="st1" d="M1395.08,326.1l-16.22,44.78h-6.4l-15.43-44.78h7.16l10.34,32.54c0.77,2.39,1.25,4.48,1.43,6.25h0.16
			c0.26-2.24,0.69-4.27,1.27-6.08l10.81-32.71H1395.08z"/>
		<path class="st1" d="M1405.41,314.73c-1.17,0-2.16-0.44-2.98-1.31c-0.82-0.88-1.23-1.98-1.23-3.32c0-1.34,0.41-2.46,1.23-3.35
			c0.82-0.89,1.81-1.33,2.98-1.33c1.19,0,2.21,0.44,3.04,1.33c0.83,0.89,1.25,2.01,1.25,3.35c0,1.28-0.42,2.38-1.25,3.28
			C1407.62,314.28,1406.61,314.73,1405.41,314.73z M1408.59,370.88h-6.52V326.1h6.52V370.88z"/>
		<path class="st1" d="M1419.33,369.26v-7.7c3.55,2.89,7.46,4.33,11.73,4.33c5.73,0,8.59-2.1,8.59-6.3c0-1.2-0.25-2.21-0.74-3.04
			c-0.49-0.83-1.15-1.57-1.99-2.21s-1.82-1.22-2.94-1.73c-1.13-0.51-2.34-1.04-3.64-1.6c-1.8-0.79-3.39-1.58-4.75-2.38
			c-1.37-0.8-2.5-1.71-3.42-2.71s-1.6-2.15-2.07-3.43c-0.46-1.28-0.7-2.78-0.7-4.5c0-2.1,0.44-3.96,1.31-5.58s2.04-2.97,3.5-4.07
			c1.46-1.09,3.12-1.92,4.99-2.47c1.87-0.55,3.8-0.83,5.79-0.83c3.52,0,6.68,0.67,9.46,2.01v7.26c-3-2.16-6.44-3.24-10.34-3.24
			c-1.22,0-2.32,0.15-3.3,0.46c-0.98,0.31-1.82,0.74-2.52,1.29c-0.7,0.55-1.25,1.22-1.63,1.99c-0.38,0.77-0.58,1.63-0.58,2.56
			c0,1.17,0.19,2.14,0.58,2.93c0.38,0.79,0.95,1.49,1.69,2.1c0.74,0.61,1.64,1.17,2.7,1.66c1.06,0.5,2.27,1.04,3.62,1.62
			c1.8,0.76,3.42,1.54,4.85,2.34c1.43,0.8,2.65,1.71,3.66,2.71c1.01,1.01,1.78,2.17,2.33,3.48c0.54,1.31,0.82,2.87,0.82,4.68
			c0,2.22-0.44,4.14-1.33,5.77c-0.89,1.63-2.07,2.99-3.56,4.07c-1.48,1.08-3.19,1.88-5.13,2.41c-1.93,0.53-3.96,0.79-6.08,0.79
			C1426.04,371.93,1422.4,371.04,1419.33,369.26z"/>
		<path class="st1" d="M1489.26,370.88h-6.52v-7.08h-0.16c-2.7,5.42-6.89,8.13-12.56,8.13c-9.7,0-14.55-6.36-14.55-19.07V326.1h6.48
			v25.63c0,9.45,3.29,14.17,9.86,14.17c3.18,0,5.8-1.29,7.85-3.87c2.05-2.58,3.08-5.96,3.08-10.12v-25.8h6.52V370.88z"/>
		<path class="st1" d="M1535.15,350.28h-28.75c0.11,4.99,1.32,8.83,3.66,11.55c2.33,2.71,5.54,4.07,9.62,4.07
			c4.59,0,8.8-1.66,12.64-4.99v6.74c-3.58,2.86-8.31,4.29-14.19,4.29c-5.75,0-10.27-2.03-13.56-6.1c-3.29-4.07-4.93-9.79-4.93-17.17
			c0-6.97,1.8-12.65,5.39-17.04c3.59-4.39,8.05-6.58,13.38-6.58c5.33,0,9.45,1.9,12.36,5.69c2.92,3.79,4.37,9.05,4.37,15.79V350.28z
			 M1528.47,344.21c-0.03-4.14-0.93-7.36-2.72-9.67c-1.79-2.3-4.27-3.46-7.45-3.46c-3.08,0-5.69,1.21-7.83,3.63
			c-2.15,2.42-3.47,5.58-3.98,9.49H1528.47z"/>
		<path class="st1" d="M1551.53,370.88H1545v-66.3h6.52V370.88z"/>
		<path class="st1" d="M1619.75,350.28h-28.75c0.11,4.99,1.32,8.83,3.66,11.55c2.33,2.71,5.54,4.07,9.62,4.07
			c4.59,0,8.8-1.66,12.64-4.99v6.74c-3.58,2.86-8.31,4.29-14.19,4.29c-5.75,0-10.27-2.03-13.56-6.1c-3.29-4.07-4.93-9.79-4.93-17.17
			c0-6.97,1.8-12.65,5.39-17.04c3.59-4.39,8.05-6.58,13.38-6.58c5.33,0,9.45,1.9,12.36,5.69c2.92,3.79,4.37,9.05,4.37,15.79V350.28z
			 M1613.07,344.21c-0.03-4.14-0.93-7.36-2.72-9.67c-1.79-2.3-4.27-3.46-7.45-3.46c-3.08,0-5.69,1.21-7.83,3.63
			c-2.15,2.42-3.47,5.58-3.98,9.49H1613.07z"/>
		<path class="st1" d="M1648.5,370.45c-1.54,0.93-3.57,1.4-6.08,1.4c-7.13,0-10.7-4.37-10.7-13.12v-26.5h-7v-6.12h7v-10.93
			l6.52-2.32v13.25h10.26v6.12h-10.26v25.23c0,3,0.46,5.15,1.39,6.43c0.93,1.28,2.46,1.92,4.61,1.92c1.64,0,3.06-0.5,4.25-1.49
			V370.45z"/>
		<path class="st1" d="M1677.04,369.26v-7.7c3.55,2.89,7.46,4.33,11.73,4.33c5.73,0,8.59-2.1,8.59-6.3c0-1.2-0.25-2.21-0.74-3.04
			c-0.49-0.83-1.15-1.57-1.99-2.21s-1.82-1.22-2.94-1.73c-1.13-0.51-2.34-1.04-3.64-1.6c-1.8-0.79-3.39-1.58-4.75-2.38
			c-1.37-0.8-2.5-1.71-3.42-2.71s-1.6-2.15-2.07-3.43c-0.46-1.28-0.7-2.78-0.7-4.5c0-2.1,0.44-3.96,1.31-5.58s2.04-2.97,3.5-4.07
			c1.46-1.09,3.12-1.92,4.99-2.47c1.87-0.55,3.8-0.83,5.79-0.83c3.52,0,6.68,0.67,9.46,2.01v7.26c-3-2.16-6.44-3.24-10.34-3.24
			c-1.22,0-2.32,0.15-3.3,0.46c-0.98,0.31-1.82,0.74-2.52,1.29c-0.7,0.55-1.25,1.22-1.63,1.99c-0.38,0.77-0.58,1.63-0.58,2.56
			c0,1.17,0.19,2.14,0.58,2.93c0.38,0.79,0.95,1.49,1.69,2.1c0.74,0.61,1.64,1.17,2.7,1.66c1.06,0.5,2.27,1.04,3.62,1.62
			c1.8,0.76,3.42,1.54,4.85,2.34c1.43,0.8,2.65,1.71,3.66,2.71c1.01,1.01,1.78,2.17,2.33,3.48c0.54,1.31,0.82,2.87,0.82,4.68
			c0,2.22-0.44,4.14-1.33,5.77c-0.89,1.63-2.07,2.99-3.56,4.07c-1.48,1.08-3.19,1.88-5.13,2.41c-1.93,0.53-3.96,0.79-6.08,0.79
			C1683.75,371.93,1680.12,371.04,1677.04,369.26z"/>
		<path class="st1" d="M1731.07,371.93c-6.02,0-10.82-2.09-14.41-6.28c-3.59-4.18-5.39-9.73-5.39-16.64c0-7.52,1.87-13.4,5.61-17.63
			s8.79-6.34,15.15-6.34c6.07,0,10.81,2.06,14.21,6.17c3.41,4.11,5.11,9.81,5.11,17.1c0,7.14-1.84,12.87-5.51,17.17
			C1742.17,369.78,1737.25,371.93,1731.07,371.93z M1731.55,331.09c-4.19,0-7.5,1.57-9.94,4.7c-2.44,3.13-3.66,7.46-3.66,12.97
			c0,5.31,1.23,9.49,3.7,12.55c2.47,3.06,5.77,4.59,9.9,4.59c4.21,0,7.45-1.5,9.72-4.5s3.4-7.27,3.4-12.81
			c0-5.6-1.13-9.91-3.4-12.95C1739,332.6,1735.76,331.09,1731.55,331.09z"/>
		<path class="st1" d="M1795.56,370.88h-6.52v-25.54c0-9.5-3.15-14.26-9.46-14.26c-3.26,0-5.96,1.35-8.09,4.04
			c-2.13,2.7-3.2,6.1-3.2,10.21v25.54h-6.52V326.1h6.52v7.43h0.16c3.07-5.66,7.53-8.48,13.36-8.48c4.45,0,7.86,1.58,10.22,4.75
			c2.36,3.16,3.54,7.73,3.54,13.71V370.88z"/>
		<path class="st1" d="M1824.86,371.93c-6.02,0-10.82-2.09-14.41-6.28c-3.59-4.18-5.39-9.73-5.39-16.64c0-7.52,1.87-13.4,5.61-17.63
			s8.79-6.34,15.15-6.34c6.07,0,10.81,2.06,14.21,6.17c3.41,4.11,5.11,9.81,5.11,17.1c0,7.14-1.84,12.87-5.51,17.17
			C1835.96,369.78,1831.04,371.93,1824.86,371.93z M1825.34,331.09c-4.19,0-7.5,1.57-9.94,4.7c-2.44,3.13-3.66,7.46-3.66,12.97
			c0,5.31,1.23,9.49,3.7,12.55c2.47,3.06,5.77,4.59,9.9,4.59c4.21,0,7.45-1.5,9.72-4.5s3.4-7.27,3.4-12.81
			c0-5.6-1.13-9.91-3.4-12.95C1832.79,332.6,1829.55,331.09,1825.34,331.09z"/>
		<path class="st1" d="M1876.79,333.36c-1.14-0.96-2.78-1.44-4.93-1.44c-2.78,0-5.11,1.44-6.98,4.33c-1.87,2.89-2.8,6.82-2.8,11.81
			v22.83h-6.52V326.1h6.52v9.23h0.16c0.93-3.15,2.35-5.61,4.25-7.37s4.04-2.65,6.4-2.65c1.7,0,3,0.2,3.9,0.61V333.36z"/>
		<path class="st1" d="M1916.59,350.28h-28.75c0.11,4.99,1.32,8.83,3.66,11.55c2.33,2.71,5.54,4.07,9.62,4.07
			c4.59,0,8.8-1.66,12.64-4.99v6.74c-3.58,2.86-8.31,4.29-14.19,4.29c-5.75,0-10.27-2.03-13.56-6.1c-3.29-4.07-4.93-9.79-4.93-17.17
			c0-6.97,1.8-12.65,5.39-17.04c3.59-4.39,8.05-6.58,13.38-6.58c5.33,0,9.45,1.9,12.36,5.69c2.92,3.79,4.37,9.05,4.37,15.79V350.28z
			 M1909.91,344.21c-0.03-4.14-0.93-7.36-2.72-9.67c-1.79-2.3-4.27-3.46-7.45-3.46c-3.08,0-5.69,1.21-7.83,3.63
			c-2.15,2.42-3.47,5.58-3.98,9.49H1909.91z"/>
	</g>
	<g>
		<path class="st1" d="M335.22,118.27c-5.73-3.11-12.42-4.67-20.05-4.67c-10.35,0-18.45,3.8-24.28,11.38
			c-5.83,7.59-8.75,17.92-8.75,30.99v73.73h-47.65V75.3h47.65v28.65h0.6c7.54-20.91,21.11-31.36,40.71-31.36
			c5.03,0,8.95,0.6,11.76,1.81V118.27z"/>
		<path class="st1" d="M387.35,50.87c-8.04,0-14.63-2.39-19.75-7.16c-5.13-4.77-7.69-10.63-7.69-17.57c0-7.14,2.56-12.97,7.69-17.49
			c5.13-4.52,11.71-6.79,19.75-6.79c8.14,0,14.75,2.26,19.83,6.79c5.07,4.52,7.61,10.35,7.61,17.49c0,7.24-2.54,13.17-7.61,17.79
			C402.1,48.56,395.49,50.87,387.35,50.87z M410.87,229.7h-47.65V75.3h47.65V229.7z"/>
		<path class="st1" d="M555.04,163.96h-82.48v-33.32h82.48V163.96z"/>
	</g>
</g>
</svg>
