<?xml version="1.0" encoding="utf-8"?>
<!-- Generator: Adobe Illustrator 26.0.2, SVG Export Plug-In . SVG Version: 6.00 Build 0)  -->
<svg version="1.1" id="Calque_1" xmlns="http://www.w3.org/2000/svg" xmlns:xlink="http://www.w3.org/1999/xlink" x="0px" y="0px"
	 viewBox="0 0 1917.82 409.44" style="enable-background:new 0 0 1917.82 409.44;" xml:space="preserve">
<style type="text/css">
	.st0{fill:url(#SVGID_1_);}
	.st1{fill:url(#SVGID_00000126299060455533764170000008588410426273263541_);}
	.st2{fill:url(#SVGID_00000127033980773506491780000010223503835827789238_);}
	.st3{fill:#93278F;}
	.st4{fill:#333333;}
</style>
<linearGradient id="SVGID_1_" gradientUnits="userSpaceOnUse" x1="957.2073" y1="556.3734" x2="957.2073" y2="267.627">
	<stop  offset="0.7337" style="stop-color:#EFEFEF;stop-opacity:0"/>
	<stop  offset="1" style="stop-color:#000000;stop-opacity:0.1"/>
</linearGradient>
<rect x="-0.39" y="267.63" class="st0" width="1915.2" height="288.75"/>
<linearGradient id="SVGID_00000127726055776968548950000009172218358417940628_" gradientUnits="userSpaceOnUse" x1="717.8522" y1="235.698" x2="-54.7397" y2="235.698">
	<stop  offset="0" style="stop-color:#EFEFEF;stop-opacity:0"/>
	<stop  offset="0.1518" style="stop-color:#FFFFFF;stop-opacity:0.1961"/>
	<stop  offset="0.3566" style="stop-color:#FFFFFF;stop-opacity:0.6"/>
	<stop  offset="1" style="stop-color:#FFFFFF"/>
</linearGradient>
<rect x="-54.74" y="38.62" style="fill:url(#SVGID_00000127726055776968548950000009172218358417940628_);" width="772.59" height="394.15"/>
<linearGradient id="SVGID_00000054979481215689989050000009231603371649716655_" gradientUnits="userSpaceOnUse" x1="1124.4734" y1="255.5348" x2="351.8816" y2="255.5348" gradientTransform="matrix(-1 0 0 1 2321.1418 0)">
	<stop  offset="0" style="stop-color:#EFEFEF;stop-opacity:0"/>
	<stop  offset="0.1518" style="stop-color:#FFFFFF;stop-opacity:0.1961"/>
	<stop  offset="0.3566" style="stop-color:#FFFFFF;stop-opacity:0.6"/>
	<stop  offset="1" style="stop-color:#FFFFFF"/>
</linearGradient>
<polygon style="fill:url(#SVGID_00000054979481215689989050000009231603371649716655_);" points="1196.67,452.61 1969.26,452.61 
	1969.26,58.46 1196.67,58.46 "/>
<g>
	<g>
		<path class="st3" d="M818.85,239.91h-50.26V104.72c0-14.6,0.63-30.73,1.89-48.37h-1.26c-2.63,13.87-4.99,23.85-7.09,29.94
			l-52.94,153.62h-41.6L613.7,87.86c-1.47-4.1-3.84-14.6-7.09-31.51h-1.42c1.36,22.27,2.05,41.81,2.05,58.61v124.95h-45.85V13.97
			h74.53l46.17,133.93c3.68,10.71,6.35,21.48,8.04,32.3h0.95c2.84-12.5,5.83-23.37,8.98-32.62l46.17-133.61h72.64V239.91z"/>
		<path class="st3" d="M1015.13,173.42H909.88c1.68,23.43,16.44,35.14,44.28,35.14c17.75,0,33.35-4.2,46.8-12.61v35.92
			c-14.92,7.98-34.3,11.97-58.14,11.97c-26.05,0-46.27-7.22-60.66-21.67c-14.39-14.44-21.59-34.58-21.59-60.43
			c0-26.79,7.77-48,23.32-63.66c15.54-15.65,34.66-23.48,57.35-23.48c23.53,0,41.73,6.99,54.6,20.96
			c12.87,13.97,19.3,32.93,19.3,56.88V173.42z M968.96,142.85c0-23.11-9.35-34.66-28.05-34.66c-7.98,0-14.89,3.31-20.72,9.93
			s-9.38,14.87-10.64,24.74H968.96z"/>
		<path class="st3" d="M1305.79,239.91h-49.63V147.9c0-23.42-8.61-35.14-25.84-35.14c-8.19,0-14.87,3.52-20.01,10.56
			c-5.15,7.04-7.72,15.81-7.72,26.31v90.28h-49.79v-92.96c0-22.79-8.46-34.19-25.37-34.19c-8.51,0-15.31,3.36-20.4,10.08
			c-5.1,6.72-7.64,15.86-7.64,27.42v89.65h-49.79V78.57h49.79v25.21h0.63c5.15-8.61,12.37-15.62,21.67-21.04
			c9.3-5.41,19.46-8.11,30.49-8.11c22.79,0,38.39,10.03,46.8,30.09c12.29-20.06,30.36-30.09,54.2-30.09
			c35.08,0,52.63,21.64,52.63,64.92V239.91z"/>
		<path class="st3" d="M1426.91,243.85c-26.89,0-48.03-7.54-63.42-22.61c-15.39-15.07-23.08-35.53-23.08-61.37
			c0-26.68,7.98-47.56,23.95-62.63c15.97-15.07,37.55-22.61,64.76-22.61c26.79,0,47.79,7.54,63.03,22.61
			c15.23,15.07,22.85,35.01,22.85,59.8c0,26.79-7.85,47.95-23.56,63.5C1475.73,236.08,1454.22,243.85,1426.91,243.85z
			 M1428.17,112.76c-11.77,0-20.9,4.04-27.42,12.13c-6.51,8.09-9.77,19.54-9.77,34.35c0,30.99,12.5,46.48,37.5,46.48
			c23.84,0,35.77-15.91,35.77-47.74C1464.26,127.83,1452.23,112.76,1428.17,112.76z"/>
		<path class="st3" d="M1657.38,123.47c-5.99-3.25-12.97-4.88-20.96-4.88c-10.82,0-19.28,3.97-25.37,11.9
			c-6.09,7.93-9.14,18.73-9.14,32.38v77.05h-49.79V78.57h49.79v29.94h0.63c7.88-21.85,22.06-32.77,42.54-32.77
			c5.25,0,9.35,0.63,12.29,1.89V123.47z"/>
		<path class="st3" d="M1711.86,53.04c-8.41,0-15.28-2.49-20.64-7.48c-5.36-4.99-8.04-11.11-8.04-18.36
			c0-7.46,2.68-13.55,8.04-18.28s12.24-7.09,20.64-7.09c8.51,0,15.41,2.36,20.72,7.09c5.3,4.73,7.96,10.82,7.96,18.28
			c0,7.56-2.65,13.76-7.96,18.59C1727.27,50.63,1720.37,53.04,1711.86,53.04z M1736.44,239.91h-49.79V78.57h49.79V239.91z"/>
		<path class="st3" d="M1917.43,239.91h-47.11v-23.16h-0.63c-10.82,18.07-26.84,27.1-48.06,27.1c-15.65,0-27.97-4.44-36.95-13.31
			c-8.98-8.88-13.47-20.72-13.47-35.53c0-31.3,18.54-49.37,55.62-54.2l43.8-5.83c0-17.65-9.56-26.47-28.68-26.47
			c-19.22,0-37.5,5.73-54.83,17.17v-37.5c6.93-3.57,16.41-6.72,28.44-9.45c12.03-2.73,22.98-4.1,32.85-4.1
			c46.01,0,69.01,22.95,69.01,68.86V239.91z M1870.64,174.37v-10.87l-29.31,3.78c-16.18,2.1-24.26,9.4-24.26,21.9
			c0,5.67,1.97,10.32,5.91,13.94c3.94,3.62,9.27,5.44,15.99,5.44c9.35,0,16.96-3.23,22.85-9.69
			C1867.7,192.41,1870.64,184.24,1870.64,174.37z"/>
	</g>
</g>
<g>
	<path class="st4" d="M32.44,323.47H7.19v23.71h23.36v7.22H7.19v30.36h-7.58V316.2h32.84V323.47z"/>
	<path class="st4" d="M71.32,343.74c-1.29-1.05-3.16-1.58-5.59-1.58c-3.16,0-5.8,1.58-7.92,4.73c-2.12,3.16-3.18,7.46-3.18,12.91
		v24.96h-7.4V335.8h7.4v10.09h0.18c1.05-3.44,2.66-6.13,4.83-8.06c2.17-1.93,4.58-2.89,7.26-2.89c1.92,0,3.4,0.22,4.42,0.67V343.74z
		"/>
	<path class="st4" d="M119.98,362.24H87.37c0.12,5.45,1.5,9.66,4.15,12.62c2.65,2.96,6.28,4.45,10.92,4.45
		c5.2,0,9.98-1.82,14.34-5.45v7.36c-4.06,3.12-9.43,4.69-16.1,4.69c-6.53,0-11.65-2.22-15.38-6.67c-3.73-4.45-5.59-10.7-5.59-18.77
		c0-7.62,2.04-13.82,6.11-18.62c4.07-4.8,9.13-7.2,15.18-7.2c6.04,0,10.72,2.07,14.03,6.22c3.31,4.14,4.96,9.9,4.96,17.26V362.24z
		 M112.4,355.6c-0.03-4.53-1.06-8.05-3.09-10.57c-2.03-2.52-4.85-3.78-8.46-3.78c-3.49,0-6.45,1.32-8.89,3.97
		c-2.44,2.65-3.94,6.1-4.51,10.38H112.4z"/>
	<path class="st4" d="M138.46,323.37c-1.32,0-2.45-0.48-3.38-1.43c-0.93-0.96-1.4-2.17-1.4-3.63c0-1.47,0.47-2.69,1.4-3.66
		c0.93-0.97,2.06-1.46,3.38-1.46c1.35,0,2.5,0.49,3.45,1.46c0.95,0.97,1.42,2.19,1.42,3.66c0,1.4-0.47,2.6-1.42,3.59
		C140.96,322.88,139.81,323.37,138.46,323.37z M142.07,384.76h-7.4V335.8h7.4V384.76z"/>
	<path class="st4" d="M168.13,377.69h-0.18v7.08h-7.4v-72.48h7.4v32.13h0.18c3.64-6.5,8.96-9.75,15.97-9.75
		c5.92,0,10.56,2.19,13.92,6.57c3.35,4.38,5.03,10.26,5.03,17.62c0,8.19-1.88,14.75-5.64,19.67c-3.76,4.92-8.9,7.39-15.43,7.39
		C175.88,385.91,171.26,383.17,168.13,377.69z M167.95,357.94v6.84c0,4.05,1.24,7.48,3.72,10.3c2.48,2.82,5.63,4.23,9.45,4.23
		c4.48,0,7.99-1.82,10.53-5.45c2.54-3.63,3.81-8.69,3.81-15.16c0-5.45-1.19-9.72-3.56-12.81c-2.38-3.09-5.59-4.64-9.65-4.64
		c-4.3,0-7.76,1.59-10.37,4.76C169.26,349.18,167.95,353.16,167.95,357.94z"/>
	<path class="st4" d="M255.72,384.76h-7.4v-7.75h-0.18c-3.07,5.93-7.82,8.89-14.25,8.89c-11.01,0-16.51-6.95-16.51-20.85V335.8h7.35
		v28.02c0,10.33,3.73,15.49,11.19,15.49c3.61,0,6.58-1.41,8.91-4.23c2.33-2.82,3.5-6.51,3.5-11.07V335.8h7.4V384.76z"/>
	<path class="st4" d="M298.24,343.74c-1.29-1.05-3.16-1.58-5.59-1.58c-3.16,0-5.8,1.58-7.92,4.73c-2.12,3.16-3.18,7.46-3.18,12.91
		v24.96h-7.4V335.8h7.4v10.09h0.18c1.05-3.44,2.66-6.13,4.83-8.06c2.17-1.93,4.58-2.89,7.26-2.89c1.92,0,3.4,0.22,4.42,0.67V343.74z
		"/>
	<path class="st4" d="M349.2,380.84c0,17.98-8.12,26.97-24.36,26.97c-5.71,0-10.71-1.15-14.97-3.44v-7.84
		c5.2,3.06,10.16,4.59,14.88,4.59c11.37,0,17.05-6.41,17.05-19.22v-5.35h-0.18c-3.52,6.25-8.81,9.37-15.88,9.37
		c-5.74,0-10.37-2.18-13.87-6.53c-3.5-4.35-5.25-10.19-5.25-17.52c0-8.32,1.89-14.93,5.66-19.84c3.77-4.91,8.94-7.36,15.49-7.36
		c6.22,0,10.84,2.65,13.85,7.94h0.18v-6.79h7.4V380.84z M341.81,362.63v-7.22c0-3.89-1.24-7.22-3.72-9.99
		c-2.48-2.77-5.57-4.16-9.27-4.16c-4.57,0-8.15,1.76-10.73,5.28c-2.59,3.52-3.88,8.46-3.88,14.8c0,5.45,1.24,9.81,3.72,13.08
		c2.48,3.27,5.77,4.9,9.85,4.9c4.15,0,7.52-1.56,10.13-4.69C340.51,371.5,341.81,367.5,341.81,362.63z"/>
	<path class="st4" d="M364.89,382.99v-8.41c4.03,3.16,8.46,4.73,13.31,4.73c6.5,0,9.74-2.29,9.74-6.88c0-1.31-0.28-2.41-0.83-3.32
		c-0.56-0.91-1.31-1.71-2.25-2.41c-0.95-0.7-2.06-1.33-3.34-1.89c-1.28-0.56-2.65-1.14-4.13-1.75c-2.05-0.86-3.84-1.73-5.39-2.61
		c-1.55-0.88-2.84-1.86-3.88-2.96c-1.04-1.1-1.82-2.35-2.35-3.75c-0.53-1.4-0.79-3.04-0.79-4.92c0-2.29,0.5-4.33,1.49-6.1
		s2.31-3.25,3.97-4.45c1.65-1.2,3.54-2.1,5.66-2.7c2.12-0.61,4.31-0.91,6.56-0.91c4,0,7.58,0.73,10.73,2.2v7.94
		c-3.4-2.36-7.31-3.54-11.73-3.54c-1.38,0-2.63,0.17-3.74,0.5c-1.11,0.33-2.07,0.81-2.86,1.41c-0.8,0.61-1.41,1.33-1.85,2.18
		c-0.44,0.84-0.65,1.78-0.65,2.8c0,1.27,0.22,2.34,0.65,3.2c0.44,0.86,1.07,1.63,1.92,2.29c0.84,0.67,1.86,1.28,3.07,1.82
		c1.2,0.54,2.57,1.13,4.1,1.77c2.04,0.83,3.88,1.68,5.5,2.56c1.62,0.88,3.01,1.86,4.15,2.96c1.14,1.1,2.02,2.37,2.64,3.8
		c0.62,1.43,0.92,3.14,0.92,5.12c0,2.42-0.5,4.53-1.51,6.31c-1.01,1.79-2.35,3.27-4.04,4.45c-1.68,1.18-3.62,2.06-5.82,2.63
		c-2.2,0.57-4.5,0.86-6.9,0.86C372.5,385.91,368.38,384.94,364.89,382.99z"/>
	<path class="st4" d="M485.22,384.76h-10.55l-24.99-31.36c-0.93-1.18-1.5-1.98-1.71-2.39h-0.18v33.75h-7.58V316.2h7.58v32.22h0.18
		c0.42-0.7,0.99-1.48,1.71-2.34l24.18-29.88h9.43l-27.74,32.89L485.22,384.76z"/>
	<path class="st4" d="M533.65,384.76h-7.4v-7.75h-0.18c-3.07,5.93-7.82,8.89-14.25,8.89c-11.01,0-16.51-6.95-16.51-20.85V335.8h7.35
		v28.02c0,10.33,3.73,15.49,11.19,15.49c3.61,0,6.58-1.41,8.91-4.23c2.33-2.82,3.5-6.51,3.5-11.07V335.8h7.4V384.76z"/>
	<path class="st4" d="M559.49,384.76h-7.4v-72.48h7.4V384.76z"/>
	<path class="st4" d="M599.4,384.28c-1.74,1.02-4.04,1.53-6.9,1.53c-8.09,0-12.13-4.78-12.13-14.34V342.5h-7.94v-6.69h7.94v-11.95
		l7.4-2.53v14.49h11.64v6.69h-11.64v27.59c0,3.28,0.53,5.63,1.58,7.03c1.05,1.4,2.8,2.1,5.23,2.1c1.86,0,3.47-0.54,4.83-1.63V384.28
		z"/>
	<path class="st4" d="M650.13,384.76h-7.4v-7.75h-0.18c-3.07,5.93-7.82,8.89-14.25,8.89c-11.01,0-16.51-6.95-16.51-20.85V335.8h7.35
		v28.02c0,10.33,3.73,15.49,11.19,15.49c3.61,0,6.58-1.41,8.91-4.23c2.33-2.82,3.5-6.51,3.5-11.07V335.8h7.4V384.76z"/>
	<path class="st4" d="M692.66,343.74c-1.29-1.05-3.16-1.58-5.59-1.58c-3.16,0-5.8,1.58-7.92,4.73c-2.12,3.16-3.18,7.46-3.18,12.91
		v24.96h-7.4V335.8h7.4v10.09h0.18c1.05-3.44,2.66-6.13,4.83-8.06c2.17-1.93,4.58-2.89,7.26-2.89c1.92,0,3.4,0.22,4.42,0.67V343.74z
		"/>
	<path class="st4" d="M741.32,362.24h-32.61c0.12,5.45,1.5,9.66,4.15,12.62c2.65,2.96,6.28,4.45,10.92,4.45
		c5.2,0,9.98-1.82,14.34-5.45v7.36c-4.06,3.12-9.43,4.69-16.1,4.69c-6.53,0-11.65-2.22-15.38-6.67c-3.73-4.45-5.59-10.7-5.59-18.77
		c0-7.62,2.04-13.82,6.11-18.62c4.07-4.8,9.13-7.2,15.18-7.2c6.04,0,10.72,2.07,14.03,6.22c3.31,4.14,4.96,9.9,4.96,17.26V362.24z
		 M733.74,355.6c-0.03-4.53-1.06-8.05-3.09-10.57c-2.03-2.52-4.85-3.78-8.46-3.78c-3.49,0-6.45,1.32-8.89,3.97
		c-2.44,2.65-3.94,6.1-4.51,10.38H733.74z"/>
	<path class="st4" d="M780.1,343.74c-1.29-1.05-3.16-1.58-5.59-1.58c-3.16,0-5.8,1.58-7.92,4.73c-2.12,3.16-3.18,7.46-3.18,12.91
		v24.96h-7.4V335.8h7.4v10.09h0.18c1.05-3.44,2.66-6.13,4.83-8.06c2.17-1.93,4.58-2.89,7.26-2.89c1.92,0,3.4,0.22,4.42,0.67V343.74z
		"/>
	<path class="st4" d="M799.22,377.69h-0.18v7.08h-7.4v-72.48h7.4v32.13h0.18c3.64-6.5,8.96-9.75,15.97-9.75
		c5.92,0,10.56,2.19,13.92,6.57c3.35,4.38,5.03,10.26,5.03,17.62c0,8.19-1.88,14.75-5.64,19.67c-3.76,4.92-8.9,7.39-15.43,7.39
		C806.96,385.91,802.34,383.17,799.22,377.69z M799.04,357.94v6.84c0,4.05,1.24,7.48,3.72,10.3c2.48,2.82,5.63,4.23,9.45,4.23
		c4.48,0,7.99-1.82,10.53-5.45c2.54-3.63,3.81-8.69,3.81-15.16c0-5.45-1.19-9.72-3.56-12.81c-2.38-3.09-5.59-4.64-9.65-4.64
		c-4.3,0-7.76,1.59-10.37,4.76C800.34,349.18,799.04,353.16,799.04,357.94z"/>
	<path class="st4" d="M886.57,362.24h-32.61c0.12,5.45,1.5,9.66,4.15,12.62c2.65,2.96,6.28,4.45,10.92,4.45
		c5.2,0,9.98-1.82,14.34-5.45v7.36c-4.06,3.12-9.43,4.69-16.1,4.69c-6.53,0-11.65-2.22-15.38-6.67c-3.73-4.45-5.59-10.7-5.59-18.77
		c0-7.62,2.04-13.82,6.11-18.62c4.07-4.8,9.13-7.2,15.18-7.2c6.04,0,10.72,2.07,14.03,6.22c3.31,4.14,4.96,9.9,4.96,17.26V362.24z
		 M879,355.6c-0.03-4.53-1.06-8.05-3.09-10.57c-2.03-2.52-4.85-3.78-8.46-3.78c-3.49,0-6.45,1.32-8.89,3.97
		c-2.44,2.65-3.94,6.1-4.51,10.38H879z"/>
	<path class="st4" d="M933.87,323.37c-1.32,0-2.45-0.48-3.38-1.43c-0.93-0.96-1.4-2.17-1.4-3.63c0-1.47,0.47-2.69,1.4-3.66
		c0.93-0.97,2.06-1.46,3.38-1.46c1.35,0,2.5,0.49,3.45,1.46c0.95,0.97,1.42,2.19,1.42,3.66c0,1.4-0.47,2.6-1.42,3.59
		C936.38,322.88,935.23,323.37,933.87,323.37z M937.48,384.76h-7.4V335.8h7.4V384.76z"/>
	<path class="st4" d="M994.31,384.76h-7.4v-27.92c0-10.39-3.58-15.59-10.73-15.59c-3.7,0-6.76,1.47-9.18,4.42
		c-2.42,2.95-3.63,6.67-3.63,11.16v27.92h-7.4V335.8h7.4v8.13h0.18c3.49-6.18,8.54-9.28,15.16-9.28c5.05,0,8.92,1.73,11.59,5.19
		c2.68,3.46,4.01,8.46,4.01,14.99V384.76z"/>
	<path class="st4" d="M1038.54,381.99v-9.47c1.02,0.96,2.25,1.82,3.68,2.58c1.43,0.76,2.93,1.41,4.51,1.94
		c1.58,0.53,3.16,0.93,4.76,1.22c1.59,0.29,3.07,0.43,4.42,0.43c4.66,0,8.14-0.92,10.44-2.75c2.3-1.83,3.45-4.47,3.45-7.91
		c0-1.85-0.38-3.46-1.15-4.83c-0.77-1.37-1.83-2.62-3.18-3.75c-1.35-1.13-2.95-2.21-4.8-3.25c-1.85-1.04-3.84-2.13-5.98-3.28
		c-2.26-1.21-4.36-2.44-6.32-3.68c-1.95-1.24-3.65-2.61-5.1-4.11c-1.44-1.5-2.58-3.2-3.41-5.09c-0.83-1.9-1.24-4.12-1.24-6.67
		c0-3.12,0.65-5.84,1.94-8.15c1.29-2.31,2.99-4.21,5.1-5.71c2.1-1.5,4.5-2.61,7.19-3.35c2.69-0.73,5.44-1.1,8.23-1.1
		c6.38,0,11.02,0.81,13.94,2.44v9.04c-3.82-2.8-8.72-4.21-14.7-4.21c-1.65,0-3.31,0.18-4.96,0.55c-1.65,0.37-3.13,0.96-4.42,1.79
		c-1.29,0.83-2.35,1.9-3.16,3.2c-0.81,1.31-1.22,2.9-1.22,4.78c0,1.75,0.31,3.27,0.92,4.54c0.62,1.28,1.53,2.44,2.73,3.49
		c1.2,1.05,2.67,2.07,4.4,3.06c1.73,0.99,3.72,2.07,5.98,3.25c2.32,1.21,4.51,2.49,6.58,3.82c2.08,1.34,3.89,2.82,5.46,4.45
		c1.56,1.63,2.8,3.43,3.72,5.4c0.92,1.98,1.38,4.24,1.38,6.79c0,3.38-0.62,6.24-1.87,8.58s-2.93,4.25-5.05,5.71
		c-2.12,1.47-4.56,2.53-7.33,3.18s-5.68,0.98-8.75,0.98c-1.02,0-2.29-0.09-3.79-0.26c-1.5-0.18-3.04-0.43-4.6-0.76
		c-1.56-0.33-3.04-0.75-4.44-1.24C1040.5,383.15,1039.38,382.6,1038.54,381.99z"/>
	<path class="st4" d="M1124.63,382.52c-3.55,2.26-7.76,3.39-12.63,3.39c-6.58,0-11.9-2.27-15.94-6.81
		c-4.04-4.54-6.07-10.43-6.07-17.67c0-8.06,2.18-14.54,6.54-19.44c4.36-4.89,10.18-7.34,17.46-7.34c4.06,0,7.64,0.8,10.73,2.39v8.03
		c-3.43-2.55-7.1-3.82-11.01-3.82c-4.72,0-8.59,1.79-11.61,5.38c-3.02,3.59-4.53,8.3-4.53,14.13c0,5.74,1.42,10.26,4.26,13.58
		c2.84,3.32,6.65,4.97,11.43,4.97c4.03,0,7.82-1.42,11.37-4.25V382.52z"/>
	<path class="st4" d="M1177.67,384.76h-7.4v-28.21c0-10.2-3.58-15.3-10.73-15.3c-3.61,0-6.65,1.47-9.11,4.42
		c-2.47,2.95-3.7,6.73-3.7,11.35v27.73h-7.4v-72.48h7.4v31.65h0.18c3.55-6.18,8.6-9.28,15.16-9.28c10.4,0,15.61,6.65,15.61,19.94
		V384.76z"/>
	<path class="st4" d="M1219.2,343.74c-1.29-1.05-3.16-1.58-5.59-1.58c-3.16,0-5.8,1.58-7.92,4.73c-2.12,3.16-3.18,7.46-3.18,12.91
		v24.96h-7.4V335.8h7.4v10.09h0.18c1.05-3.44,2.66-6.13,4.83-8.06c2.17-1.93,4.58-2.89,7.26-2.89c1.92,0,3.4,0.22,4.42,0.67V343.74z
		"/>
	<path class="st4" d="M1234.53,323.37c-1.32,0-2.45-0.48-3.38-1.43c-0.93-0.96-1.4-2.17-1.4-3.63c0-1.47,0.47-2.69,1.4-3.66
		c0.93-0.97,2.06-1.46,3.38-1.46c1.35,0,2.5,0.49,3.45,1.46c0.95,0.97,1.42,2.19,1.42,3.66c0,1.4-0.47,2.6-1.42,3.59
		C1237.03,322.88,1235.88,323.37,1234.53,323.37z M1238.14,384.76h-7.4V335.8h7.4V384.76z"/>
	<path class="st4" d="M1279.45,319.17c-1.44-0.86-3.08-1.29-4.92-1.29c-5.17,0-7.76,3.46-7.76,10.37v7.55h10.83v6.69h-10.83v42.26
		h-7.35V342.5h-7.89v-6.69h7.89v-7.94c0-5.13,1.4-9.19,4.19-12.17c2.8-2.98,6.28-4.47,10.46-4.47c2.26,0,4.04,0.29,5.37,0.86V319.17
		z"/>
	<path class="st4" d="M1310.47,384.28c-1.74,1.02-4.04,1.53-6.9,1.53c-8.09,0-12.13-4.78-12.13-14.34V342.5h-7.94v-6.69h7.94v-11.95
		l7.4-2.53v14.49h11.64v6.69h-11.64v27.59c0,3.28,0.53,5.63,1.58,7.03c1.05,1.4,2.8,2.1,5.23,2.1c1.86,0,3.47-0.54,4.83-1.63V384.28
		z"/>
	<path class="st4" d="M1330.62,373.86l-7.22,23.52h-5.28l5.28-23.52H1330.62z"/>
	<path class="st4" d="M1377.2,384.76V316.2h18.4c5.59,0,10.03,1.45,13.31,4.35c3.28,2.9,4.92,6.68,4.92,11.33
		c0,3.89-0.99,7.27-2.98,10.14s-4.72,4.91-8.21,6.12v0.19c4.36,0.54,7.85,2.29,10.46,5.24c2.62,2.95,3.92,6.78,3.92,11.5
		c0,5.87-1.98,10.61-5.95,14.25c-3.97,3.63-8.98,5.45-15.02,5.45H1377.2z M1384.78,323.47v22.14h7.76c4.15,0,7.41-1.06,9.79-3.18
		c2.38-2.12,3.56-5.11,3.56-8.96c0-6.66-4.13-9.99-12.4-9.99H1384.78z M1384.78,352.83v24.67h10.28c4.45,0,7.9-1.12,10.35-3.35
		c2.45-2.23,3.68-5.29,3.68-9.18c0-8.1-5.2-12.14-15.61-12.14H1384.78z"/>
	<path class="st4" d="M1436.46,323.37c-1.32,0-2.45-0.48-3.38-1.43c-0.93-0.96-1.4-2.17-1.4-3.63c0-1.47,0.47-2.69,1.4-3.66
		c0.93-0.97,2.06-1.46,3.38-1.46c1.35,0,2.5,0.49,3.45,1.46c0.95,0.97,1.42,2.19,1.42,3.66c0,1.4-0.47,2.6-1.42,3.59
		C1438.96,322.88,1437.81,323.37,1436.46,323.37z M1440.07,384.76h-7.4V335.8h7.4V384.76z"/>
	<path class="st4" d="M1465.95,384.76h-7.4v-72.48h7.4V384.76z"/>
	<path class="st4" d="M1523.86,384.76h-7.4v-8.32h-0.18c-3.43,6.31-8.72,9.47-15.88,9.47c-5.8,0-10.44-2.19-13.91-6.57
		c-3.47-4.38-5.21-10.35-5.21-17.9c0-8.1,1.92-14.58,5.77-19.46c3.85-4.88,8.98-7.32,15.38-7.32c6.34,0,10.96,2.65,13.85,7.94h0.18
		v-30.31h7.4V384.76z M1516.46,362.63v-7.22c0-3.95-1.23-7.3-3.7-10.04c-2.47-2.74-5.59-4.11-9.38-4.11
		c-4.51,0-8.06,1.75-10.65,5.26c-2.59,3.51-3.88,8.35-3.88,14.53c0,5.64,1.24,10.1,3.72,13.36c2.48,3.27,5.81,4.9,9.99,4.9
		c4.12,0,7.46-1.58,10.04-4.73C1515.18,371.42,1516.46,367.44,1516.46,362.63z"/>
	<path class="st4" d="M1608.5,384.76h-7.4v-7.75h-0.18c-3.07,5.93-7.82,8.89-14.25,8.89c-11,0-16.51-6.95-16.51-20.85V335.8h7.35
		v28.02c0,10.33,3.73,15.49,11.19,15.49c3.61,0,6.58-1.41,8.91-4.23c2.33-2.82,3.5-6.51,3.5-11.07V335.8h7.4V384.76z"/>
	<path class="st4" d="M1665.28,384.76h-7.4v-27.92c0-10.39-3.58-15.59-10.73-15.59c-3.7,0-6.76,1.47-9.18,4.42
		c-2.42,2.95-3.63,6.67-3.63,11.16v27.92h-7.4V335.8h7.4v8.13h0.18c3.49-6.18,8.54-9.28,15.16-9.28c5.05,0,8.92,1.73,11.59,5.19
		c2.68,3.46,4.01,8.46,4.01,14.99V384.76z"/>
	<path class="st4" d="M1722.15,384.76h-7.4v-8.32h-0.18c-3.43,6.31-8.72,9.47-15.88,9.47c-5.8,0-10.44-2.19-13.91-6.57
		c-3.47-4.38-5.21-10.35-5.21-17.9c0-8.1,1.92-14.58,5.77-19.46c3.85-4.88,8.98-7.32,15.38-7.32c6.34,0,10.96,2.65,13.85,7.94h0.18
		v-30.31h7.4V384.76z M1714.75,362.63v-7.22c0-3.95-1.23-7.3-3.7-10.04c-2.47-2.74-5.59-4.11-9.38-4.11
		c-4.51,0-8.06,1.75-10.65,5.26c-2.59,3.51-3.88,8.35-3.88,14.53c0,5.64,1.24,10.1,3.72,13.36c2.48,3.27,5.81,4.9,9.99,4.9
		c4.12,0,7.46-1.58,10.04-4.73C1713.47,371.42,1714.75,367.44,1714.75,362.63z"/>
	<path class="st4" d="M1808.69,323.47h-18.67v61.29h-7.58v-61.29h-18.63v-7.27h44.88V323.47z"/>
	<path class="st4" d="M1840.66,385.91c-6.83,0-12.28-2.29-16.35-6.86c-4.07-4.57-6.11-10.64-6.11-18.19
		c0-8.22,2.12-14.65,6.36-19.27c4.24-4.62,9.97-6.93,17.19-6.93c6.88,0,12.26,2.25,16.13,6.74c3.86,4.49,5.8,10.73,5.8,18.69
		c0,7.81-2.08,14.06-6.25,18.77C1853.25,383.56,1847.67,385.91,1840.66,385.91z M1841.2,341.25c-4.75,0-8.51,1.71-11.28,5.14
		c-2.77,3.43-4.15,8.15-4.15,14.18c0,5.8,1.4,10.38,4.2,13.72c2.8,3.35,6.54,5.02,11.23,5.02c4.78,0,8.46-1.64,11.03-4.92
		c2.57-3.28,3.86-7.95,3.86-14.01c0-6.12-1.29-10.84-3.86-14.15C1849.66,342.91,1845.98,341.25,1841.2,341.25z"/>
	<path class="st4" d="M1917.33,384.76h-7.4v-27.92c0-10.39-3.58-15.59-10.73-15.59c-3.7,0-6.76,1.47-9.18,4.42
		c-2.42,2.95-3.63,6.67-3.63,11.16v27.92h-7.4V335.8h7.4v8.13h0.18c3.49-6.18,8.54-9.28,15.16-9.28c5.05,0,8.92,1.73,11.59,5.19
		c2.68,3.46,4.01,8.46,4.01,14.99V384.76z"/>
</g>
<g>
	<path class="st4" d="M130.65,55.41H50.92v55.46h73.27v41.28H50.92v87.76H0.03V13.97h130.62V55.41z"/>
	<path class="st4" d="M273.04,123.47c-5.99-3.25-12.97-4.88-20.96-4.88c-10.82,0-19.28,3.97-25.37,11.9
		c-6.09,7.93-9.14,18.73-9.14,32.38v77.05h-49.79V78.57h49.79v29.94h0.63c7.88-21.85,22.06-32.77,42.54-32.77
		c5.25,0,9.35,0.63,12.29,1.89V123.47z"/>
	<path class="st4" d="M327.51,53.04c-8.4,0-15.28-2.49-20.64-7.48c-5.36-4.99-8.04-11.11-8.04-18.36c0-7.46,2.68-13.55,8.04-18.28
		c5.36-4.73,12.24-7.09,20.64-7.09c8.51,0,15.41,2.36,20.72,7.09c5.3,4.73,7.96,10.82,7.96,18.28c0,7.56-2.65,13.76-7.96,18.59
		C342.93,50.63,336.02,53.04,327.51,53.04z M352.09,239.91H302.3V78.57h49.79V239.91z"/>
	<path class="st4" d="M502.74,171.22h-86.19v-34.82h86.19V171.22z"/>
</g>
</svg>
