<?xml version="1.0" encoding="utf-8"?>
<!-- Generator: Adobe Illustrator 26.0.2, SVG Export Plug-In . SVG Version: 6.00 Build 0)  -->
<svg version="1.1" id="Calque_1" xmlns="http://www.w3.org/2000/svg" xmlns:xlink="http://www.w3.org/1999/xlink" x="0px" y="0px"
	 viewBox="0 0 1917.82 409.44" style="enable-background:new 0 0 1917.82 409.44;" xml:space="preserve">
<style type="text/css">
	.st0{fill:url(#SVGID_1_);}
	.st1{fill:url(#SVGID_00000163040684894593404010000003087807029498686654_);}
	.st2{fill:url(#SVGID_00000010307837728889232380000004188321745802151554_);}
	.st3{fill:#93278F;}
	.st4{fill:#333333;}
</style>
<g>
	<linearGradient id="SVGID_1_" gradientUnits="userSpaceOnUse" x1="957.5986" y1="556.1526" x2="957.5986" y2="267.4061">
		<stop  offset="0.7337" style="stop-color:#EFEFEF;stop-opacity:0"/>
		<stop  offset="1" style="stop-color:#000000;stop-opacity:0.1"/>
	</linearGradient>
	<rect y="267.41" class="st0" width="1915.2" height="288.75"/>
	
		<linearGradient id="SVGID_00000157272066607747932250000011463186545070212006_" gradientUnits="userSpaceOnUse" x1="718.2435" y1="237.1984" x2="-54.3484" y2="237.1984">
		<stop  offset="0" style="stop-color:#EFEFEF;stop-opacity:0"/>
		<stop  offset="0.1518" style="stop-color:#FFFFFF;stop-opacity:0.1961"/>
		<stop  offset="0.3566" style="stop-color:#FFFFFF;stop-opacity:0.6"/>
		<stop  offset="1" style="stop-color:#FFFFFF"/>
	</linearGradient>
	
		<rect x="-54.35" y="38.4" style="fill:url(#SVGID_00000157272066607747932250000011463186545070212006_);" width="772.59" height="397.59"/>
	
		<linearGradient id="SVGID_00000163791185956612828990000008928663870135691140_" gradientUnits="userSpaceOnUse" x1="1124.0822" y1="257.2084" x2="351.4902" y2="257.2084" gradientTransform="matrix(-1 0 0 1 2321.1418 0)">
		<stop  offset="0" style="stop-color:#EFEFEF;stop-opacity:0"/>
		<stop  offset="0.1518" style="stop-color:#FFFFFF;stop-opacity:0.1961"/>
		<stop  offset="0.3566" style="stop-color:#FFFFFF;stop-opacity:0.6"/>
		<stop  offset="1" style="stop-color:#FFFFFF"/>
	</linearGradient>
	<polygon style="fill:url(#SVGID_00000163791185956612828990000008928663870135691140_);" points="1197.06,456 1969.65,456 
		1969.65,58.41 1197.06,58.41 	"/>
	<g>
		<g>
			<path class="st3" d="M819.24,239.69h-50.26V104.5c0-14.6,0.63-30.73,1.89-48.37h-1.26c-2.63,13.87-4.99,23.85-7.09,29.94
				l-52.94,153.62h-41.6L614.09,87.64c-1.47-4.1-3.84-14.6-7.09-31.51h-1.42c1.36,22.27,2.05,41.81,2.05,58.61v124.95h-45.85V13.75
				h74.53l46.17,133.93c3.68,10.71,6.35,21.48,8.04,32.3h0.95c2.84-12.5,5.83-23.37,8.98-32.62L746.6,13.75h72.64V239.69z"/>
			<path class="st3" d="M1015.52,173.2H910.27c1.68,23.43,16.44,35.14,44.28,35.14c17.75,0,33.35-4.2,46.8-12.61v35.92
				c-14.92,7.98-34.3,11.97-58.14,11.97c-26.05,0-46.27-7.22-60.66-21.67c-14.39-14.44-21.59-34.58-21.59-60.43
				c0-26.79,7.77-48,23.32-63.66c15.54-15.65,34.66-23.48,57.35-23.48c23.53,0,41.73,6.99,54.6,20.96
				c12.87,13.97,19.3,32.93,19.3,56.88V173.2z M969.36,142.63c0-23.11-9.35-34.66-28.05-34.66c-7.98,0-14.89,3.31-20.72,9.93
				s-9.38,14.87-10.64,24.74H969.36z"/>
			<path class="st3" d="M1306.18,239.69h-49.63v-92.02c0-23.42-8.61-35.14-25.84-35.14c-8.19,0-14.87,3.52-20.01,10.56
				c-5.15,7.04-7.72,15.81-7.72,26.31v90.28h-49.79v-92.96c0-22.79-8.46-34.19-25.37-34.19c-8.51,0-15.31,3.36-20.4,10.08
				c-5.1,6.72-7.64,15.86-7.64,27.42v89.65h-49.79V78.35h49.79v25.21h0.63c5.15-8.61,12.37-15.62,21.67-21.04
				c9.3-5.41,19.46-8.11,30.49-8.11c22.79,0,38.39,10.03,46.8,30.09c12.29-20.06,30.36-30.09,54.2-30.09
				c35.08,0,52.63,21.64,52.63,64.92V239.69z"/>
			<path class="st3" d="M1427.3,243.63c-26.89,0-48.03-7.54-63.42-22.61c-15.39-15.07-23.08-35.53-23.08-61.37
				c0-26.68,7.98-47.56,23.95-62.63c15.97-15.07,37.55-22.61,64.76-22.61c26.79,0,47.79,7.54,63.03,22.61
				c15.23,15.07,22.85,35.01,22.85,59.8c0,26.79-7.85,47.95-23.56,63.5C1476.12,235.86,1454.61,243.63,1427.3,243.63z
				 M1428.57,112.54c-11.77,0-20.9,4.04-27.42,12.13c-6.51,8.09-9.77,19.54-9.77,34.35c0,30.99,12.5,46.48,37.5,46.48
				c23.84,0,35.77-15.91,35.77-47.74C1464.65,127.61,1452.62,112.54,1428.57,112.54z"/>
			<path class="st3" d="M1657.78,123.25c-5.99-3.25-12.97-4.88-20.96-4.88c-10.82,0-19.28,3.97-25.37,11.9
				c-6.09,7.93-9.14,18.73-9.14,32.38v77.05h-49.79V78.35h49.79v29.94h0.63c7.88-21.85,22.06-32.77,42.54-32.77
				c5.25,0,9.35,0.63,12.29,1.89V123.25z"/>
			<path class="st3" d="M1712.25,52.82c-8.41,0-15.28-2.49-20.64-7.48c-5.36-4.99-8.04-11.11-8.04-18.36
				c0-7.46,2.68-13.55,8.04-18.28s12.24-7.09,20.64-7.09c8.51,0,15.41,2.36,20.72,7.09c5.3,4.73,7.96,10.82,7.96,18.28
				c0,7.56-2.65,13.76-7.96,18.59C1727.66,50.41,1720.76,52.82,1712.25,52.82z M1736.83,239.69h-49.79V78.35h49.79V239.69z"/>
			<path class="st3" d="M1917.83,239.69h-47.11v-23.16h-0.63c-10.82,18.07-26.84,27.1-48.06,27.1c-15.65,0-27.97-4.44-36.95-13.31
				c-8.98-8.88-13.47-20.72-13.47-35.53c0-31.3,18.54-49.37,55.62-54.2l43.8-5.83c0-17.65-9.56-26.47-28.68-26.47
				c-19.22,0-37.5,5.73-54.83,17.17v-37.5c6.93-3.57,16.41-6.72,28.44-9.45c12.03-2.73,22.98-4.1,32.85-4.1
				c46.01,0,69.01,22.95,69.01,68.86V239.69z M1871.03,174.15v-10.87l-29.31,3.78c-16.18,2.1-24.26,9.4-24.26,21.9
				c0,5.67,1.97,10.32,5.91,13.94c3.94,3.62,9.27,5.44,15.99,5.44c9.35,0,16.96-3.23,22.85-9.69
				C1868.09,192.19,1871.03,184.02,1871.03,174.15z"/>
		</g>
	</g>
	<g>
		<path class="st4" d="M32.69,386.01H-0.17v-69.69h7.42v62.3h25.45V386.01z"/>
		<path class="st4" d="M77.8,363.12H45.86c0.12,5.54,1.47,9.82,4.06,12.83c2.59,3.01,6.16,4.52,10.69,4.52
			c5.09,0,9.78-1.85,14.05-5.54v7.48c-3.98,3.18-9.23,4.76-15.77,4.76c-6.39,0-11.41-2.26-15.06-6.78
			c-3.65-4.52-5.48-10.88-5.48-19.07c0-7.74,1.99-14.05,5.99-18.93c3.99-4.88,8.95-7.31,14.87-7.31c5.92,0,10.5,2.11,13.74,6.32
			c3.24,4.21,4.86,10.06,4.86,17.54V363.12z M70.38,356.37c-0.03-4.6-1.04-8.18-3.03-10.74c-1.99-2.56-4.75-3.84-8.28-3.84
			c-3.42,0-6.32,1.34-8.7,4.03c-2.39,2.69-3.86,6.2-4.42,10.55H70.38z"/>
		<path class="st4" d="M120.96,378.82h-0.18v30.08h-7.25v-72.65h7.25V345h0.18c3.56-6.61,8.78-9.91,15.64-9.91
			c5.83,0,10.38,2.23,13.65,6.68c3.27,4.45,4.9,10.42,4.9,17.91c0,8.33-1.84,14.99-5.52,20c-3.68,5.01-8.72,7.51-15.11,7.51
			C128.66,387.18,124.14,384.39,120.96,378.82z M120.78,358.75v6.95c0,4.11,1.21,7.61,3.64,10.47c2.43,2.87,5.51,4.3,9.26,4.3
			c4.39,0,7.83-1.85,10.32-5.54c2.49-3.69,3.73-8.83,3.73-15.4c0-5.54-1.16-9.88-3.49-13.02c-2.33-3.14-5.48-4.71-9.45-4.71
			c-4.21,0-7.6,1.61-10.16,4.83C122.07,349.85,120.78,353.89,120.78,358.75z"/>
		<path class="st4" d="M199.11,386.01h-7.25v-7.78h-0.18c-3.15,5.96-7.79,8.94-13.92,8.94c-4.51,0-8.03-1.31-10.58-3.94
			c-2.55-2.62-3.82-6.11-3.82-10.45c0-9.3,4.98-14.71,14.93-16.23l13.56-2.09c0-8.46-3.11-12.68-9.32-12.68
			c-5.45,0-10.37,2.04-14.76,6.12v-8.16c4.45-3.11,9.57-4.67,15.37-4.67c10.63,0,15.95,6.19,15.95,18.56V386.01z M191.87,360.84
			l-10.91,1.65c-3.36,0.52-5.89,1.43-7.6,2.75s-2.56,3.64-2.56,6.97c0,2.43,0.79,4.41,2.36,5.95c1.58,1.54,3.67,2.31,6.3,2.31
			c3.59,0,6.56-1.38,8.9-4.15s3.51-6.28,3.51-10.52V360.84z"/>
		<path class="st4" d="M233.75,385.53c-1.71,1.04-3.96,1.56-6.76,1.56c-7.92,0-11.88-4.86-11.88-14.58v-29.45h-7.78v-6.8h7.78V324.1
			l7.25-2.58v14.72h11.4v6.8h-11.4v28.04c0,3.34,0.52,5.72,1.55,7.14c1.03,1.43,2.74,2.14,5.12,2.14c1.83,0,3.4-0.55,4.73-1.65
			V385.53z"/>
		<path class="st4" d="M267.01,344.32c-1.27-1.07-3.09-1.6-5.48-1.6c-3.09,0-5.68,1.6-7.75,4.81c-2.08,3.21-3.11,7.58-3.11,13.12
			v25.37h-7.25v-49.76h7.25v10.25h0.18c1.03-3.5,2.61-6.23,4.73-8.19c2.12-1.96,4.49-2.94,7.11-2.94c1.88,0,3.33,0.23,4.33,0.68
			V344.32z"/>
		<path class="st4" d="M278.59,323.62c-1.3,0-2.4-0.49-3.31-1.46c-0.91-0.97-1.37-2.2-1.37-3.69c0-1.49,0.46-2.73,1.37-3.72
			c0.91-0.99,2.02-1.48,3.31-1.48c1.33,0,2.45,0.49,3.38,1.48c0.93,0.99,1.39,2.23,1.39,3.72c0,1.43-0.46,2.64-1.39,3.65
			C281.04,323.12,279.91,323.62,278.59,323.62z M282.12,386.01h-7.25v-49.76h7.25V386.01z"/>
		<path class="st4" d="M361.02,386.01h-7.25v-28.57c0-5.51-0.77-9.49-2.32-11.95c-1.55-2.46-4.15-3.69-7.8-3.69
			c-3.09,0-5.72,1.55-7.89,4.67c-2.16,3.11-3.25,6.84-3.25,11.18v28.38h-7.25v-29.55c0-9.78-3.43-14.68-10.29-14.68
			c-3.18,0-5.8,1.47-7.86,4.4c-2.06,2.93-3.09,6.75-3.09,11.44v28.38h-7.25v-49.76h7.25v7.87h0.18c3.21-6.03,7.89-9.04,14.05-9.04
			c3.09,0,5.79,0.95,8.08,2.84c2.3,1.9,3.87,4.38,4.73,7.46c3.36-6.87,8.36-10.3,15.02-10.3c9.95,0,14.93,6.75,14.93,20.26V386.01z"
			/>
		<path class="st4" d="M393.63,387.18c-6.69,0-12.02-2.32-16.01-6.97c-3.99-4.65-5.99-10.81-5.99-18.49
			c0-8.36,2.08-14.89,6.23-19.58c4.15-4.7,9.76-7.05,16.83-7.05c6.74,0,12.01,2.28,15.79,6.85c3.78,4.57,5.68,10.9,5.68,19
			c0,7.94-2.04,14.3-6.12,19.07C405.96,384.79,400.49,387.18,393.63,387.18z M394.16,341.79c-4.65,0-8.33,1.74-11.04,5.22
			c-2.71,3.48-4.06,8.29-4.06,14.41c0,5.9,1.37,10.55,4.11,13.95c2.74,3.4,6.41,5.1,11,5.1c4.68,0,8.28-1.67,10.8-5.01
			c2.52-3.34,3.78-8.08,3.78-14.24c0-6.22-1.26-11.01-3.78-14.38C402.44,343.48,398.84,341.79,394.16,341.79z"/>
		<path class="st4" d="M431.44,323.62c-1.3,0-2.4-0.49-3.31-1.46c-0.91-0.97-1.37-2.2-1.37-3.69c0-1.49,0.46-2.73,1.37-3.72
			c0.91-0.99,2.02-1.48,3.31-1.48c1.33,0,2.45,0.49,3.38,1.48c0.93,0.99,1.39,2.23,1.39,3.72c0,1.43-0.46,2.64-1.39,3.65
			C433.89,323.12,432.77,323.62,431.44,323.62z M434.98,386.01h-7.25v-49.76h7.25V386.01z"/>
		<path class="st4" d="M487.19,386.01h-7.25v-28.38c0-10.56-3.5-15.84-10.51-15.84c-3.62,0-6.62,1.5-8.99,4.5
			c-2.37,3-3.56,6.78-3.56,11.35v28.38h-7.25v-49.76h7.25v8.26h0.18c3.42-6.28,8.36-9.43,14.84-9.43c4.95,0,8.73,1.76,11.35,5.27
			c2.62,3.52,3.93,8.59,3.93,15.23V386.01z"/>
		<path class="st4" d="M537.2,363.12h-31.94c0.12,5.54,1.47,9.82,4.06,12.83c2.59,3.01,6.16,4.52,10.69,4.52
			c5.09,0,9.78-1.85,14.05-5.54v7.48c-3.98,3.18-9.23,4.76-15.77,4.76c-6.39,0-11.41-2.26-15.06-6.78
			c-3.65-4.52-5.48-10.88-5.48-19.07c0-7.74,1.99-14.05,5.99-18.93c3.99-4.88,8.95-7.31,14.87-7.31c5.92,0,10.5,2.11,13.74,6.32
			c3.24,4.21,4.86,10.06,4.86,17.54V363.12z M529.78,356.37c-0.03-4.6-1.04-8.18-3.03-10.74c-1.99-2.56-4.75-3.84-8.28-3.84
			c-3.42,0-6.32,1.34-8.7,4.03c-2.39,2.69-3.86,6.2-4.42,10.55H529.78z"/>
		<path class="st4" d="M609.3,363.12h-31.94c0.12,5.54,1.47,9.82,4.06,12.83c2.59,3.01,6.16,4.52,10.69,4.52
			c5.09,0,9.78-1.85,14.05-5.54v7.48c-3.98,3.18-9.23,4.76-15.77,4.76c-6.39,0-11.41-2.26-15.06-6.78
			c-3.65-4.52-5.48-10.88-5.48-19.07c0-7.74,1.99-14.05,5.99-18.93c3.99-4.88,8.95-7.31,14.87-7.31c5.92,0,10.5,2.11,13.74,6.32
			c3.24,4.21,4.86,10.06,4.86,17.54V363.12z M601.88,356.37c-0.03-4.6-1.04-8.18-3.03-10.74c-1.99-2.56-4.75-3.84-8.28-3.84
			c-3.42,0-6.32,1.34-8.7,4.03c-2.39,2.69-3.86,6.2-4.42,10.55H601.88z M600.73,310.89l-11.57,15.94h-5.61l9.85-15.94H600.73z"/>
		<path class="st4" d="M651.09,383.73c-3.48,2.3-7.6,3.45-12.37,3.45c-6.45,0-11.66-2.31-15.62-6.93
			c-3.96-4.62-5.94-10.6-5.94-17.96c0-8.2,2.13-14.78,6.41-19.75c4.27-4.97,9.97-7.46,17.1-7.46c3.98,0,7.48,0.81,10.51,2.43v8.16
			c-3.36-2.59-6.95-3.89-10.78-3.89c-4.62,0-8.42,1.82-11.38,5.47c-2.96,3.64-4.44,8.43-4.44,14.36c0,5.83,1.39,10.43,4.17,13.8
			c2.78,3.37,6.52,5.05,11.2,5.05c3.95,0,7.66-1.44,11.13-4.32V383.73z"/>
		<path class="st4" d="M685.64,344.32c-1.27-1.07-3.09-1.6-5.48-1.6c-3.09,0-5.68,1.6-7.75,4.81c-2.08,3.21-3.11,7.58-3.11,13.12
			v25.37h-7.25v-49.76h7.25v10.25h0.18c1.03-3.5,2.61-6.23,4.73-8.19c2.12-1.96,4.49-2.94,7.11-2.94c1.88,0,3.33,0.23,4.33,0.68
			V344.32z"/>
		<path class="st4" d="M697.21,323.62c-1.3,0-2.4-0.49-3.31-1.46c-0.91-0.97-1.37-2.2-1.37-3.69c0-1.49,0.46-2.73,1.37-3.72
			c0.91-0.99,2.02-1.48,3.31-1.48c1.33,0,2.45,0.49,3.38,1.48c0.93,0.99,1.39,2.23,1.39,3.72c0,1.43-0.46,2.64-1.39,3.65
			C699.67,323.12,698.54,323.62,697.21,323.62z M700.75,386.01h-7.25v-49.76h7.25V386.01z"/>
		<path class="st4" d="M736.4,385.53c-1.71,1.04-3.96,1.56-6.76,1.56c-7.92,0-11.88-4.86-11.88-14.58v-29.45h-7.78v-6.8h7.78V324.1
			l7.25-2.58v14.72h11.4v6.8H725v28.04c0,3.34,0.52,5.72,1.55,7.14c1.03,1.43,2.74,2.14,5.12,2.14c1.83,0,3.4-0.55,4.73-1.65V385.53
			z"/>
		<path class="st4" d="M752.7,374.93l-7.07,23.91h-5.17l5.17-23.91H752.7z"/>
		<path class="st4" d="M787.73,384.22v-8.55c3.95,3.21,8.29,4.81,13.03,4.81c6.36,0,9.54-2.33,9.54-7c0-1.33-0.27-2.45-0.82-3.38
			c-0.55-0.92-1.28-1.74-2.21-2.45c-0.93-0.71-2.02-1.35-3.27-1.92c-1.25-0.57-2.6-1.16-4.04-1.77c-2-0.87-3.76-1.76-5.28-2.65
			c-1.52-0.89-2.78-1.9-3.8-3.01c-1.02-1.12-1.78-2.39-2.3-3.81c-0.52-1.43-0.77-3.09-0.77-5.01c0-2.33,0.49-4.4,1.46-6.2
			c0.97-1.8,2.27-3.3,3.89-4.52c1.62-1.21,3.47-2.13,5.54-2.75c2.08-0.61,4.22-0.92,6.43-0.92c3.92,0,7.42,0.75,10.51,2.24v8.07
			c-3.33-2.4-7.16-3.6-11.49-3.6c-1.36,0-2.58,0.17-3.67,0.51c-1.09,0.34-2.03,0.82-2.81,1.43c-0.78,0.62-1.38,1.35-1.81,2.21
			c-0.43,0.86-0.64,1.81-0.64,2.84c0,1.3,0.21,2.38,0.64,3.26c0.43,0.87,1.05,1.65,1.88,2.33c0.82,0.68,1.83,1.3,3,1.85
			c1.18,0.55,2.52,1.15,4.02,1.8c2,0.84,3.8,1.71,5.39,2.6c1.59,0.89,2.94,1.9,4.06,3.01c1.12,1.12,1.98,2.41,2.58,3.86
			c0.6,1.46,0.91,3.19,0.91,5.2c0,2.46-0.49,4.6-1.48,6.41c-0.99,1.81-2.31,3.32-3.95,4.52c-1.65,1.2-3.55,2.09-5.7,2.67
			c-2.15,0.58-4.4,0.88-6.76,0.88C795.19,387.18,791.15,386.19,787.73,384.22z"/>
		<path class="st4" d="M847.77,387.18c-6.69,0-12.02-2.32-16.01-6.97c-3.99-4.65-5.99-10.81-5.99-18.49
			c0-8.36,2.08-14.89,6.23-19.58c4.15-4.7,9.76-7.05,16.83-7.05c6.74,0,12.01,2.28,15.79,6.85c3.78,4.57,5.68,10.9,5.68,19
			c0,7.94-2.04,14.3-6.12,19.07C860.1,384.79,854.63,387.18,847.77,387.18z M848.3,341.79c-4.65,0-8.33,1.74-11.04,5.22
			c-2.71,3.48-4.06,8.29-4.06,14.41c0,5.9,1.37,10.55,4.11,13.95c2.74,3.4,6.41,5.1,11,5.1c4.68,0,8.28-1.67,10.8-5.01
			c2.52-3.34,3.78-8.08,3.78-14.24c0-6.22-1.26-11.01-3.78-14.38C856.59,343.48,852.98,341.79,848.3,341.79z"/>
		<path class="st4" d="M919.43,386.01h-7.25v-28.38c0-10.56-3.5-15.84-10.51-15.84c-3.62,0-6.62,1.5-8.99,4.5
			c-2.37,3-3.56,6.78-3.56,11.35v28.38h-7.25v-49.76h7.25v8.26h0.18c3.42-6.28,8.36-9.43,14.84-9.43c4.95,0,8.73,1.76,11.35,5.27
			c2.62,3.52,3.93,8.59,3.93,15.23V386.01z"/>
		<path class="st4" d="M951.99,387.18c-6.69,0-12.02-2.32-16.01-6.97c-3.99-4.65-5.99-10.81-5.99-18.49
			c0-8.36,2.08-14.89,6.23-19.58c4.15-4.7,9.76-7.05,16.83-7.05c6.74,0,12.01,2.28,15.79,6.85c3.78,4.57,5.68,10.9,5.68,19
			c0,7.94-2.04,14.3-6.12,19.07C964.32,384.79,958.85,387.18,951.99,387.18z M952.52,341.79c-4.65,0-8.33,1.74-11.04,5.22
			c-2.71,3.48-4.06,8.29-4.06,14.41c0,5.9,1.37,10.55,4.11,13.95c2.74,3.4,6.41,5.1,11,5.1c4.68,0,8.28-1.67,10.8-5.01
			c2.52-3.34,3.78-8.08,3.78-14.24c0-6.22-1.26-11.01-3.78-14.38C960.8,343.48,957.2,341.79,952.52,341.79z"/>
		<path class="st4" d="M1009.68,344.32c-1.27-1.07-3.09-1.6-5.48-1.6c-3.09,0-5.68,1.6-7.75,4.81c-2.08,3.21-3.11,7.58-3.11,13.12
			v25.37h-7.25v-49.76h7.25v10.25h0.18c1.03-3.5,2.61-6.23,4.73-8.19c2.12-1.96,4.49-2.94,7.11-2.94c1.88,0,3.33,0.23,4.33,0.68
			V344.32z"/>
		<path class="st4" d="M1053.9,363.12h-31.94c0.12,5.54,1.47,9.82,4.06,12.83c2.59,3.01,6.16,4.52,10.69,4.52
			c5.09,0,9.78-1.85,14.05-5.54v7.48c-3.98,3.18-9.23,4.76-15.77,4.76c-6.39,0-11.41-2.26-15.06-6.78s-5.48-10.88-5.48-19.07
			c0-7.74,2-14.05,5.99-18.93c3.99-4.88,8.95-7.31,14.87-7.31s10.5,2.11,13.74,6.32c3.24,4.21,4.86,10.06,4.86,17.54V363.12z
			 M1046.48,356.37c-0.03-4.6-1.04-8.18-3.03-10.74c-1.99-2.56-4.75-3.84-8.28-3.84c-3.42,0-6.32,1.34-8.7,4.03
			c-2.39,2.69-3.86,6.2-4.42,10.55H1046.48z"/>
		<path class="st4" d="M1126,363.12h-31.94c0.12,5.54,1.47,9.82,4.06,12.83c2.59,3.01,6.16,4.52,10.69,4.52
			c5.09,0,9.78-1.85,14.05-5.54v7.48c-3.98,3.18-9.23,4.76-15.77,4.76c-6.39,0-11.41-2.26-15.06-6.78s-5.48-10.88-5.48-19.07
			c0-7.74,2-14.05,5.99-18.93c3.99-4.88,8.95-7.31,14.87-7.31s10.5,2.11,13.74,6.32c3.24,4.21,4.86,10.06,4.86,17.54V363.12z
			 M1118.58,356.37c-0.03-4.6-1.04-8.18-3.03-10.74c-1.99-2.56-4.75-3.84-8.28-3.84c-3.42,0-6.32,1.34-8.7,4.03
			c-2.39,2.69-3.86,6.2-4.42,10.55H1118.58z"/>
		<path class="st4" d="M1157.94,385.53c-1.71,1.04-3.96,1.56-6.76,1.56c-7.92,0-11.88-4.86-11.88-14.58v-29.45h-7.78v-6.8h7.78
			V324.1l7.25-2.58v14.72h11.4v6.8h-11.4v28.04c0,3.34,0.51,5.72,1.55,7.14c1.03,1.43,2.74,2.14,5.13,2.14
			c1.83,0,3.4-0.55,4.73-1.65V385.53z"/>
		<path class="st4" d="M1227.97,336.25l-18.02,49.76h-7.11l-17.14-49.76h7.95l11.49,36.15c0.85,2.66,1.38,4.97,1.59,6.95h0.18
			c0.29-2.49,0.76-4.75,1.41-6.75l12.02-36.35H1227.97z"/>
		<path class="st4" d="M1239.45,323.62c-1.3,0-2.4-0.49-3.31-1.46c-0.91-0.97-1.37-2.2-1.37-3.69c0-1.49,0.46-2.73,1.37-3.72
			c0.91-0.99,2.02-1.48,3.31-1.48c1.33,0,2.45,0.49,3.38,1.48c0.93,0.99,1.39,2.23,1.39,3.72c0,1.43-0.46,2.64-1.39,3.65
			C1241.9,323.12,1240.78,323.62,1239.45,323.62z M1242.99,386.01h-7.25v-49.76h7.25V386.01z"/>
		<path class="st4" d="M1254.91,384.22v-8.55c3.95,3.21,8.29,4.81,13.03,4.81c6.36,0,9.54-2.33,9.54-7c0-1.33-0.27-2.45-0.82-3.38
			s-1.28-1.74-2.21-2.45c-0.93-0.71-2.02-1.35-3.27-1.92c-1.25-0.57-2.6-1.16-4.04-1.77c-2-0.87-3.76-1.76-5.28-2.65
			c-1.52-0.89-2.78-1.9-3.8-3.01c-1.02-1.12-1.78-2.39-2.3-3.81c-0.52-1.43-0.77-3.09-0.77-5.01c0-2.33,0.49-4.4,1.46-6.2
			s2.27-3.3,3.89-4.52c1.62-1.21,3.47-2.13,5.54-2.75c2.08-0.61,4.22-0.92,6.43-0.92c3.92,0,7.42,0.75,10.51,2.24v8.07
			c-3.33-2.4-7.16-3.6-11.49-3.6c-1.35,0-2.58,0.17-3.67,0.51c-1.09,0.34-2.03,0.82-2.81,1.43c-0.78,0.62-1.38,1.35-1.81,2.21
			c-0.43,0.86-0.64,1.81-0.64,2.84c0,1.3,0.21,2.38,0.64,3.26s1.05,1.65,1.88,2.33c0.82,0.68,1.83,1.3,3,1.85
			c1.18,0.55,2.52,1.15,4.02,1.8c2,0.84,3.8,1.71,5.39,2.6c1.59,0.89,2.94,1.9,4.06,3.01c1.12,1.12,1.98,2.41,2.58,3.86
			c0.6,1.46,0.91,3.19,0.91,5.2c0,2.46-0.49,4.6-1.48,6.41c-0.99,1.81-2.3,3.32-3.95,4.52c-1.65,1.2-3.55,2.09-5.7,2.67
			s-4.4,0.88-6.76,0.88C1262.36,387.18,1258.33,386.19,1254.91,384.22z"/>
		<path class="st4" d="M1332.62,386.01h-7.25v-7.87h-0.18c-3,6.03-7.66,9.04-13.96,9.04c-10.78,0-16.17-7.06-16.17-21.19v-29.74h7.2
			v28.48c0,10.5,3.65,15.74,10.96,15.74c3.53,0,6.44-1.43,8.73-4.3c2.28-2.87,3.42-6.62,3.42-11.25v-28.67h7.25V386.01z"/>
		<path class="st4" d="M1383.6,363.12h-31.94c0.12,5.54,1.47,9.82,4.06,12.83c2.59,3.01,6.16,4.52,10.69,4.52
			c5.09,0,9.78-1.85,14.05-5.54v7.48c-3.98,3.18-9.23,4.76-15.77,4.76c-6.39,0-11.41-2.26-15.06-6.78s-5.48-10.88-5.48-19.07
			c0-7.74,2-14.05,5.99-18.93c3.99-4.88,8.95-7.31,14.87-7.31s10.5,2.11,13.74,6.32c3.24,4.21,4.86,10.06,4.86,17.54V363.12z
			 M1376.18,356.37c-0.03-4.6-1.04-8.18-3.03-10.74c-1.99-2.56-4.75-3.84-8.28-3.84c-3.42,0-6.32,1.34-8.7,4.03
			c-2.39,2.69-3.86,6.2-4.42,10.55H1376.18z"/>
		<path class="st4" d="M1401.8,386.01h-7.25v-73.67h7.25V386.01z"/>
		<path class="st4" d="M1463.61,319.34c-1.41-0.88-3.02-1.31-4.82-1.31c-5.07,0-7.6,3.52-7.6,10.54v7.68h10.6v6.8h-10.6v42.96h-7.2
			v-42.96h-7.73v-6.8h7.73v-8.07c0-5.22,1.37-9.34,4.11-12.37c2.74-3.03,6.16-4.54,10.25-4.54c2.21,0,3.96,0.29,5.26,0.87V319.34z"
			/>
		<path class="st4" d="M1493.16,344.32c-1.27-1.07-3.09-1.6-5.48-1.6c-3.09,0-5.68,1.6-7.75,4.81c-2.08,3.21-3.11,7.58-3.11,13.12
			v25.37h-7.25v-49.76h7.25v10.25h0.18c1.03-3.5,2.61-6.23,4.73-8.19c2.12-1.96,4.49-2.94,7.11-2.94c1.88,0,3.33,0.23,4.33,0.68
			V344.32z"/>
		<path class="st4" d="M1504.74,323.62c-1.3,0-2.4-0.49-3.31-1.46c-0.91-0.97-1.37-2.2-1.37-3.69c0-1.49,0.46-2.73,1.37-3.72
			c0.91-0.99,2.02-1.48,3.31-1.48c1.33,0,2.45,0.49,3.38,1.48c0.93,0.99,1.39,2.23,1.39,3.72c0,1.43-0.46,2.64-1.39,3.65
			C1507.19,323.12,1506.06,323.62,1504.74,323.62z M1508.27,386.01h-7.25v-49.76h7.25V386.01z"/>
		<path class="st4" d="M1530.36,378.82h-0.18v7.19h-7.25v-73.67h7.25V345h0.18c3.56-6.61,8.78-9.91,15.64-9.91
			c5.8,0,10.34,2.23,13.63,6.68c3.28,4.45,4.93,10.42,4.93,17.91c0,8.33-1.84,14.99-5.52,20c-3.68,5.01-8.72,7.51-15.11,7.51
			C1537.94,387.18,1533.42,384.39,1530.36,378.82z M1530.19,358.75v6.95c0,4.11,1.21,7.61,3.64,10.47c2.43,2.87,5.51,4.3,9.25,4.3
			c4.39,0,7.83-1.85,10.32-5.54c2.49-3.69,3.73-8.83,3.73-15.4c0-5.54-1.16-9.88-3.49-13.02c-2.33-3.14-5.48-4.71-9.45-4.71
			c-4.21,0-7.6,1.61-10.16,4.83C1531.47,349.85,1530.19,353.89,1530.19,358.75z"/>
		<path class="st4" d="M1595.04,387.18c-6.69,0-12.02-2.32-16.01-6.97c-3.99-4.65-5.99-10.81-5.99-18.49
			c0-8.36,2.08-14.89,6.23-19.58c4.15-4.7,9.76-7.05,16.83-7.05c6.74,0,12.01,2.28,15.79,6.85c3.78,4.57,5.68,10.9,5.68,19
			c0,7.94-2.04,14.3-6.12,19.07C1607.37,384.79,1601.9,387.18,1595.04,387.18z M1595.57,341.79c-4.65,0-8.33,1.74-11.04,5.22
			c-2.71,3.48-4.06,8.29-4.06,14.41c0,5.9,1.37,10.55,4.11,13.95c2.74,3.4,6.41,5.1,11,5.1c4.68,0,8.28-1.67,10.8-5.01
			c2.52-3.34,3.78-8.08,3.78-14.24c0-6.22-1.26-11.01-3.78-14.38C1603.85,343.48,1600.25,341.79,1595.57,341.79z"/>
		<path class="st4" d="M1665.72,386.01h-7.25v-7.87h-0.18c-3,6.03-7.66,9.04-13.96,9.04c-10.78,0-16.17-7.06-16.17-21.19v-29.74h7.2
			v28.48c0,10.5,3.65,15.74,10.96,15.74c3.53,0,6.44-1.43,8.73-4.3c2.28-2.87,3.42-6.62,3.42-11.25v-28.67h7.25V386.01z"/>
		<path class="st4" d="M1703.94,344.32c-1.27-1.07-3.09-1.6-5.48-1.6c-3.09,0-5.68,1.6-7.75,4.81c-2.08,3.21-3.11,7.58-3.11,13.12
			v25.37h-7.25v-49.76h7.25v10.25h0.18c1.03-3.5,2.61-6.23,4.73-8.19c2.12-1.96,4.49-2.94,7.11-2.94c1.88,0,3.33,0.23,4.33,0.68
			V344.32z"/>
		<path class="st4" d="M1750.41,382.03c0,18.27-7.95,27.41-23.86,27.41c-5.6,0-10.49-1.17-14.67-3.5v-7.97
			c5.09,3.11,9.95,4.67,14.58,4.67c11.13,0,16.7-6.51,16.7-19.54v-5.44h-0.18c-3.45,6.35-8.63,9.52-15.55,9.52
			c-5.63,0-10.15-2.21-13.58-6.63c-3.43-4.42-5.15-10.36-5.15-17.81c0-8.46,1.85-15.18,5.54-20.17c3.7-4.99,8.75-7.48,15.17-7.48
			c6.1,0,10.62,2.69,13.56,8.07h0.18v-6.9h7.25V382.03z M1743.16,363.51v-7.34c0-3.95-1.21-7.34-3.64-10.16
			c-2.43-2.82-5.46-4.23-9.08-4.23c-4.48,0-7.98,1.79-10.51,5.37c-2.53,3.58-3.8,8.59-3.8,15.04c0,5.54,1.21,9.97,3.64,13.29
			c2.43,3.32,5.65,4.98,9.65,4.98c4.06,0,7.37-1.59,9.92-4.76C1741.89,372.54,1743.16,368.47,1743.16,363.51z"/>
		<path class="st4" d="M1801.44,363.12h-31.94c0.12,5.54,1.47,9.82,4.06,12.83c2.59,3.01,6.16,4.52,10.69,4.52
			c5.09,0,9.78-1.85,14.05-5.54v7.48c-3.98,3.18-9.23,4.76-15.77,4.76c-6.39,0-11.41-2.26-15.06-6.78s-5.48-10.88-5.48-19.07
			c0-7.74,2-14.05,5.99-18.93c3.99-4.88,8.95-7.31,14.87-7.31s10.5,2.11,13.74,6.32c3.24,4.21,4.86,10.06,4.86,17.54V363.12z
			 M1794.01,356.37c-0.03-4.6-1.04-8.18-3.03-10.74c-1.99-2.56-4.75-3.84-8.28-3.84c-3.42,0-6.32,1.34-8.7,4.03
			c-2.39,2.69-3.86,6.2-4.42,10.55H1794.01z"/>
		<path class="st4" d="M1831.3,387.18c-6.69,0-12.02-2.32-16.01-6.97c-3.99-4.65-5.99-10.81-5.99-18.49
			c0-8.36,2.08-14.89,6.23-19.58c4.15-4.7,9.76-7.05,16.83-7.05c6.74,0,12.01,2.28,15.79,6.85c3.78,4.57,5.68,10.9,5.68,19
			c0,7.94-2.04,14.3-6.12,19.07C1843.63,384.79,1838.16,387.18,1831.3,387.18z M1831.83,341.79c-4.65,0-8.33,1.74-11.04,5.22
			c-2.71,3.48-4.06,8.29-4.06,14.41c0,5.9,1.37,10.55,4.11,13.95c2.74,3.4,6.41,5.1,11,5.1c4.68,0,8.28-1.67,10.8-5.01
			c2.52-3.34,3.78-8.08,3.78-14.24c0-6.22-1.26-11.01-3.78-14.38C1840.11,343.48,1836.51,341.79,1831.83,341.79z"/>
		<path class="st4" d="M1869.11,323.62c-1.3,0-2.4-0.49-3.31-1.46c-0.91-0.97-1.37-2.2-1.37-3.69c0-1.49,0.46-2.73,1.37-3.72
			c0.91-0.99,2.02-1.48,3.31-1.48c1.33,0,2.45,0.49,3.38,1.48c0.93,0.99,1.39,2.23,1.39,3.72c0,1.43-0.46,2.64-1.39,3.65
			C1871.57,323.12,1870.44,323.62,1869.11,323.62z M1872.65,386.01h-7.25v-49.76h7.25V386.01z"/>
		<path class="st4" d="M1884.58,384.22v-8.55c3.95,3.21,8.29,4.81,13.03,4.81c6.36,0,9.54-2.33,9.54-7c0-1.33-0.27-2.45-0.82-3.38
			s-1.28-1.74-2.21-2.45c-0.93-0.71-2.02-1.35-3.27-1.92c-1.25-0.57-2.6-1.16-4.04-1.77c-2-0.87-3.76-1.76-5.28-2.65
			c-1.52-0.89-2.78-1.9-3.8-3.01c-1.02-1.12-1.78-2.39-2.3-3.81c-0.52-1.43-0.77-3.09-0.77-5.01c0-2.33,0.49-4.4,1.46-6.2
			s2.27-3.3,3.89-4.52c1.62-1.21,3.47-2.13,5.54-2.75c2.08-0.61,4.22-0.92,6.43-0.92c3.92,0,7.42,0.75,10.51,2.24v8.07
			c-3.33-2.4-7.16-3.6-11.49-3.6c-1.35,0-2.58,0.17-3.67,0.51c-1.09,0.34-2.03,0.82-2.81,1.43c-0.78,0.62-1.38,1.35-1.81,2.21
			c-0.43,0.86-0.64,1.81-0.64,2.84c0,1.3,0.21,2.38,0.64,3.26s1.05,1.65,1.88,2.33c0.82,0.68,1.83,1.3,3,1.85
			c1.18,0.55,2.52,1.15,4.02,1.8c2,0.84,3.8,1.71,5.39,2.6c1.59,0.89,2.94,1.9,4.06,3.01c1.12,1.12,1.98,2.41,2.58,3.86
			c0.6,1.46,0.91,3.19,0.91,5.2c0,2.46-0.49,4.6-1.48,6.41c-0.99,1.81-2.3,3.32-3.95,4.52c-1.65,1.2-3.55,2.09-5.7,2.67
			s-4.4,0.88-6.76,0.88C1892.03,387.18,1887.99,386.19,1884.58,384.22z"/>
	</g>
	<g>
		<path class="st4" d="M131.04,55.19H51.31v55.46h73.27v41.28H51.31v87.76H0.42V13.75h130.62V55.19z"/>
		<path class="st4" d="M273.43,123.25c-5.99-3.25-12.97-4.88-20.96-4.88c-10.82,0-19.28,3.97-25.37,11.9
			c-6.09,7.93-9.14,18.73-9.14,32.38v77.05h-49.79V78.35h49.79v29.94h0.63c7.88-21.85,22.06-32.77,42.54-32.77
			c5.25,0,9.35,0.63,12.29,1.89V123.25z"/>
		<path class="st4" d="M327.91,52.82c-8.4,0-15.28-2.49-20.64-7.48c-5.36-4.99-8.04-11.11-8.04-18.36c0-7.46,2.68-13.55,8.04-18.28
			c5.36-4.73,12.24-7.09,20.64-7.09c8.51,0,15.41,2.36,20.72,7.09c5.3,4.73,7.96,10.82,7.96,18.28c0,7.56-2.65,13.76-7.96,18.59
			C343.32,50.41,336.41,52.82,327.91,52.82z M352.49,239.69H302.7V78.35h49.79V239.69z"/>
		<path class="st4" d="M503.14,171h-86.19v-34.82h86.19V171z"/>
	</g>
</g>
</svg>
