<?xml version="1.0" encoding="utf-8"?>
<!-- Generator: Adobe Illustrator 26.0.2, SVG Export Plug-In . SVG Version: 6.00 Build 0)  -->
<svg version="1.1" id="Calque_1" xmlns="http://www.w3.org/2000/svg" xmlns:xlink="http://www.w3.org/1999/xlink" x="0px" y="0px"
	 viewBox="0 0 1920 411.16" style="enable-background:new 0 0 1920 411.16;" xml:space="preserve">
<style type="text/css">
	.st0{fill:url(#SVGID_1_);}
	.st1{fill:url(#SVGID_00000008141989657352222280000004982834062539289509_);}
	.st2{fill:url(#SVGID_00000039131538153770836240000014601975851943645594_);}
	.st3{fill:#93278F;}
	.st4{fill:#333333;}
</style>
<g>
	<linearGradient id="SVGID_1_" gradientUnits="userSpaceOnUse" x1="957.6604" y1="555.3931" x2="957.6604" y2="266.9193">
		<stop  offset="0.7337" style="stop-color:#EFEFEF;stop-opacity:0"/>
		<stop  offset="1" style="stop-color:#000000;stop-opacity:0.1"/>
	</linearGradient>
	<rect x="0.97" y="266.92" class="st0" width="1913.39" height="288.47"/>
	
		<linearGradient id="SVGID_00000035489790149312179550000014376208052174843570_" gradientUnits="userSpaceOnUse" x1="718.5313" y1="236.7401" x2="-53.3309" y2="236.7401">
		<stop  offset="0" style="stop-color:#EFEFEF;stop-opacity:0"/>
		<stop  offset="0.1518" style="stop-color:#FFFFFF;stop-opacity:0.1961"/>
		<stop  offset="0.3566" style="stop-color:#FFFFFF;stop-opacity:0.6"/>
		<stop  offset="1" style="stop-color:#FFFFFF"/>
	</linearGradient>
	
		<rect x="-53.33" y="38.13" style="fill:url(#SVGID_00000035489790149312179550000014376208052174843570_);" width="771.86" height="397.21"/>
	
		<linearGradient id="SVGID_00000182505393488776538220000007290476023179542676_" gradientUnits="userSpaceOnUse" x1="1126.2766" y1="256.7312" x2="354.4144" y2="256.7312" gradientTransform="matrix(-1 0 0 1 2323.1719 0)">
		<stop  offset="0" style="stop-color:#EFEFEF;stop-opacity:0"/>
		<stop  offset="0.1518" style="stop-color:#FFFFFF;stop-opacity:0.1961"/>
		<stop  offset="0.3566" style="stop-color:#FFFFFF;stop-opacity:0.6"/>
		<stop  offset="1" style="stop-color:#FFFFFF"/>
	</linearGradient>
	<polygon style="fill:url(#SVGID_00000182505393488776538220000007290476023179542676_);" points="1196.9,455.34 1968.76,455.34 
		1968.76,58.12 1196.9,58.12 	"/>
</g>
<g>
	<g>
		<path class="st3" d="M819.43,239.23h-50.22V104.17c0-14.59,0.63-30.7,1.89-48.33h-1.26c-2.62,13.85-4.99,23.82-7.08,29.91
			l-52.89,153.48h-41.56L614.48,87.33c-1.47-4.09-3.83-14.59-7.08-31.48h-1.42c1.36,22.25,2.05,41.77,2.05,58.56v124.83h-45.81V13.5
			h74.46l46.12,133.8c3.67,10.7,6.35,21.46,8.03,32.27h0.94c2.83-12.49,5.82-23.35,8.97-32.58L746.87,13.5h72.57V239.23z"/>
		<path class="st3" d="M1015.53,172.8H910.38c1.68,23.4,16.42,35.1,44.23,35.1c17.73,0,33.32-4.2,46.75-12.59v35.89
			c-14.9,7.98-34.26,11.96-58.09,11.96c-26.03,0-46.23-7.21-60.6-21.64c-14.38-14.43-21.57-34.55-21.57-60.37
			c0-26.76,7.76-47.96,23.3-63.6c15.53-15.64,34.63-23.45,57.3-23.45c23.51,0,41.69,6.98,54.54,20.94
			c12.85,13.96,19.28,32.9,19.28,56.83V172.8z M969.41,142.26c0-23.09-9.34-34.63-28.02-34.63c-7.98,0-14.88,3.31-20.7,9.92
			c-5.82,6.61-9.37,14.85-10.63,24.71H969.41z"/>
		<path class="st3" d="M1305.92,239.23h-49.59V147.3c0-23.4-8.61-35.1-25.82-35.1c-8.19,0-14.85,3.52-19.99,10.55
			c-5.14,7.03-7.71,15.8-7.71,26.29v90.2h-49.74v-92.88c0-22.77-8.45-34.16-25.34-34.16c-8.5,0-15.3,3.36-20.39,10.07
			c-5.09,6.72-7.63,15.85-7.63,27.39v89.57h-49.74V78.04h49.74v25.19h0.63c5.14-8.6,12.36-15.61,21.64-21.02
			c9.29-5.4,19.44-8.11,30.46-8.11c22.77,0,38.36,10.02,46.75,30.07c12.28-20.04,30.33-30.07,54.15-30.07
			c35.05,0,52.58,21.62,52.58,64.85V239.23z"/>
		<path class="st3" d="M1426.92,243.17c-26.87,0-47.99-7.53-63.36-22.59c-15.38-15.06-23.06-35.5-23.06-61.31
			c0-26.65,7.97-47.51,23.93-62.57c15.95-15.06,37.52-22.59,64.7-22.59c26.76,0,47.75,7.53,62.97,22.59
			c15.21,15.06,22.83,34.97,22.83,59.74c0,26.76-7.85,47.91-23.53,63.44C1475.7,235.4,1454.21,243.17,1426.92,243.17z
			 M1428.18,112.2c-11.75,0-20.88,4.04-27.39,12.12c-6.51,8.08-9.76,19.52-9.76,34.32c0,30.96,12.49,46.44,37.46,46.44
			c23.82,0,35.73-15.9,35.73-47.7C1464.23,127.26,1452.21,112.2,1428.18,112.2z"/>
		<path class="st3" d="M1657.18,122.9c-5.98-3.25-12.96-4.88-20.94-4.88c-10.81,0-19.26,3.96-25.34,11.88
			c-6.09,7.92-9.13,18.71-9.13,32.35v76.98h-49.74V78.04h49.74v29.91h0.63c7.87-21.83,22.04-32.74,42.5-32.74
			c5.25,0,9.34,0.63,12.28,1.89V122.9z"/>
		<path class="st3" d="M1711.6,52.54c-8.4,0-15.27-2.49-20.62-7.48c-5.35-4.98-8.03-11.1-8.03-18.34c0-7.45,2.68-13.54,8.03-18.26
			c5.35-4.72,12.22-7.08,20.62-7.08c8.5,0,15.4,2.36,20.7,7.08c5.3,4.72,7.95,10.81,7.95,18.26c0,7.56-2.65,13.75-7.95,18.58
			C1727,50.12,1720.1,52.54,1711.6,52.54z M1736.16,239.23h-49.74V78.04h49.74V239.23z"/>
		<path class="st3" d="M1916.98,239.23h-47.07v-23.14h-0.63c-10.81,18.05-26.81,27.08-48.01,27.08c-15.64,0-27.94-4.43-36.91-13.3
			c-8.97-8.87-13.46-20.7-13.46-35.5c0-31.27,18.52-49.32,55.57-54.15l43.76-5.82c0-17.63-9.55-26.45-28.65-26.45
			c-19.21,0-37.46,5.72-54.78,17.16V87.64c6.93-3.57,16.4-6.71,28.41-9.44c12.01-2.73,22.96-4.09,32.82-4.09
			c45.97,0,68.95,22.93,68.95,68.79V239.23z M1870.23,173.75v-10.86l-29.28,3.78c-16.16,2.1-24.24,9.39-24.24,21.88
			c0,5.67,1.97,10.31,5.9,13.93s9.26,5.43,15.98,5.43c9.34,0,16.95-3.23,22.83-9.68C1867.29,191.77,1870.23,183.61,1870.23,173.75z"
			/>
	</g>
</g>
<g>
	<path class="st4" d="M33.63,385.41H0.79v-69.62h7.42v62.24h25.42V385.41z"/>
	<path class="st4" d="M78.69,362.55H46.78c0.12,5.53,1.47,9.81,4.06,12.82c2.59,3.01,6.15,4.52,10.68,4.52
		c5.09,0,9.77-1.84,14.04-5.53v7.48c-3.97,3.17-9.22,4.76-15.76,4.76c-6.39,0-11.4-2.26-15.05-6.77
		c-3.65-4.52-5.47-10.87-5.47-19.06c0-7.74,1.99-14.04,5.98-18.91c3.99-4.87,8.94-7.31,14.85-7.31c5.91,0,10.49,2.1,13.73,6.31
		c3.24,4.21,4.85,10.05,4.85,17.53V362.55z M71.28,355.8c-0.03-4.6-1.04-8.17-3.02-10.73c-1.99-2.56-4.74-3.84-8.28-3.84
		c-3.41,0-6.31,1.34-8.69,4.03c-2.38,2.69-3.85,6.2-4.41,10.54H71.28z"/>
	<path class="st4" d="M121.81,378.23h-0.18v30.05h-7.24V335.7h7.24v8.74h0.18c3.56-6.6,8.77-9.9,15.62-9.9
		c5.83,0,10.37,2.23,13.64,6.68c3.27,4.45,4.9,10.41,4.9,17.89c0,8.32-1.84,14.98-5.52,19.98c-3.68,5-8.71,7.5-15.09,7.5
		C129.51,386.58,124.99,383.8,121.81,378.23z M121.64,358.18v6.94c0,4.11,1.21,7.6,3.64,10.46c2.43,2.86,5.51,4.3,9.25,4.3
		c4.38,0,7.82-1.84,10.31-5.53c2.49-3.69,3.73-8.82,3.73-15.39c0-5.53-1.16-9.87-3.49-13.01c-2.32-3.14-5.47-4.71-9.44-4.71
		c-4.21,0-7.59,1.61-10.15,4.83C122.92,349.28,121.64,353.32,121.64,358.18z"/>
	<path class="st4" d="M199.89,385.41h-7.24v-7.77h-0.18c-3.15,5.96-7.78,8.93-13.9,8.93c-4.5,0-8.03-1.31-10.57-3.93
		c-2.55-2.62-3.82-6.1-3.82-10.44c0-9.29,4.97-14.69,14.92-16.22l13.55-2.09c0-8.45-3.1-12.67-9.31-12.67
		c-5.44,0-10.36,2.04-14.74,6.12v-8.16c4.44-3.11,9.56-4.66,15.36-4.66c10.62,0,15.93,6.18,15.93,18.55V385.41z M192.65,360.26
		l-10.9,1.65c-3.35,0.52-5.89,1.43-7.59,2.74c-1.71,1.31-2.56,3.63-2.56,6.97c0,2.43,0.79,4.41,2.36,5.95
		c1.57,1.54,3.67,2.31,6.29,2.31c3.59,0,6.55-1.38,8.89-4.15c2.34-2.77,3.51-6.27,3.51-10.51V360.26z"/>
	<path class="st4" d="M234.49,384.93c-1.71,1.04-3.96,1.55-6.75,1.55c-7.92,0-11.87-4.85-11.87-14.56V342.5h-7.77v-6.8h7.77v-12.14
		l7.24-2.57v14.71h11.39v6.8H223.1v28.01c0,3.33,0.51,5.71,1.54,7.14c1.03,1.42,2.74,2.14,5.12,2.14c1.82,0,3.4-0.55,4.72-1.65
		V384.93z"/>
	<path class="st4" d="M267.72,343.76c-1.27-1.07-3.09-1.6-5.47-1.6c-3.09,0-5.67,1.6-7.75,4.81c-2.07,3.2-3.11,7.57-3.11,13.11
		v25.34h-7.24V335.7h7.24v10.24h0.18c1.03-3.5,2.6-6.22,4.72-8.18c2.12-1.96,4.49-2.94,7.11-2.94c1.88,0,3.32,0.23,4.33,0.68V343.76
		z"/>
	<path class="st4" d="M279.29,323.08c-1.3,0-2.4-0.49-3.31-1.46c-0.91-0.97-1.37-2.2-1.37-3.69c0-1.49,0.46-2.73,1.37-3.71
		c0.91-0.99,2.02-1.48,3.31-1.48c1.32,0,2.45,0.49,3.38,1.48c0.93,0.99,1.39,2.23,1.39,3.71c0,1.42-0.46,2.64-1.39,3.64
		C281.74,322.57,280.61,323.08,279.29,323.08z M282.82,385.41h-7.24V335.7h7.24V385.41z"/>
	<path class="st4" d="M361.65,385.41h-7.24v-28.55c0-5.5-0.77-9.48-2.32-11.94c-1.54-2.46-4.14-3.69-7.79-3.69
		c-3.09,0-5.72,1.55-7.88,4.66c-2.16,3.11-3.24,6.83-3.24,11.17v28.35h-7.24V355.9c0-9.77-3.43-14.66-10.28-14.66
		c-3.18,0-5.8,1.46-7.86,4.39c-2.06,2.93-3.09,6.74-3.09,11.43v28.35h-7.24V335.7h7.24v7.87h0.18c3.21-6.02,7.89-9.03,14.04-9.03
		c3.09,0,5.78,0.95,8.08,2.84c2.29,1.89,3.87,4.38,4.72,7.45c3.35-6.86,8.36-10.29,15.01-10.29c9.94,0,14.92,6.75,14.92,20.25
		V385.41z"/>
	<path class="st4" d="M394.22,386.58c-6.68,0-12.01-2.32-16-6.97c-3.99-4.64-5.98-10.8-5.98-18.47c0-8.35,2.07-14.87,6.22-19.57
		c4.15-4.69,9.75-7.04,16.82-7.04c6.74,0,12,2.28,15.78,6.85c3.78,4.56,5.67,10.89,5.67,18.98c0,7.93-2.04,14.28-6.11,19.06
		C406.54,384.19,401.07,386.58,394.22,386.58z M394.75,341.23c-4.65,0-8.33,1.74-11.03,5.22c-2.71,3.48-4.06,8.28-4.06,14.4
		c0,5.89,1.37,10.54,4.1,13.93c2.74,3.4,6.4,5.1,10.99,5.1c4.68,0,8.28-1.67,10.79-5c2.52-3.33,3.77-8.08,3.77-14.23
		c0-6.21-1.26-11-3.77-14.37C403.02,342.92,399.43,341.23,394.75,341.23z"/>
	<path class="st4" d="M432,323.08c-1.3,0-2.4-0.49-3.31-1.46c-0.91-0.97-1.37-2.2-1.37-3.69c0-1.49,0.46-2.73,1.37-3.71
		c0.91-0.99,2.02-1.48,3.31-1.48c1.32,0,2.45,0.49,3.38,1.48c0.93,0.99,1.39,2.23,1.39,3.71c0,1.42-0.46,2.64-1.39,3.64
		C434.45,322.57,433.32,323.08,432,323.08z M435.53,385.41h-7.24V335.7h7.24V385.41z"/>
	<path class="st4" d="M487.7,385.41h-7.24v-28.35c0-10.55-3.5-15.83-10.5-15.83c-3.62,0-6.61,1.5-8.98,4.49
		c-2.37,2.99-3.55,6.77-3.55,11.34v28.35h-7.24V335.7h7.24v8.25h0.18c3.41-6.28,8.36-9.42,14.83-9.42c4.94,0,8.72,1.76,11.34,5.27
		c2.62,3.51,3.93,8.59,3.93,15.22V385.41z"/>
	<path class="st4" d="M537.66,362.55h-31.91c0.12,5.53,1.47,9.81,4.06,12.82c2.59,3.01,6.15,4.52,10.68,4.52
		c5.09,0,9.77-1.84,14.04-5.53v7.48c-3.97,3.17-9.22,4.76-15.76,4.76c-6.39,0-11.4-2.26-15.05-6.77
		c-3.65-4.52-5.47-10.87-5.47-19.06c0-7.74,1.99-14.04,5.98-18.91c3.99-4.87,8.94-7.31,14.85-7.31c5.91,0,10.49,2.1,13.73,6.31
		c3.24,4.21,4.85,10.05,4.85,17.53V362.55z M530.25,355.8c-0.03-4.6-1.04-8.17-3.02-10.73c-1.99-2.56-4.74-3.84-8.28-3.84
		c-3.41,0-6.31,1.34-8.69,4.03c-2.38,2.69-3.85,6.2-4.41,10.54H530.25z"/>
	<path class="st4" d="M595.7,318.8c-1.41-0.87-3.02-1.31-4.81-1.31c-5.06,0-7.59,3.51-7.59,10.54v7.67h10.59v6.8H583.3v42.92h-7.19
		V342.5h-7.72v-6.8h7.72v-8.06c0-5.21,1.37-9.33,4.1-12.36c2.74-3.03,6.15-4.54,10.24-4.54c2.21,0,3.96,0.29,5.25,0.87V318.8z"/>
	<path class="st4" d="M625.23,343.76c-1.27-1.07-3.09-1.6-5.47-1.6c-3.09,0-5.67,1.6-7.75,4.81c-2.07,3.2-3.11,7.57-3.11,13.11
		v25.34h-7.24V335.7h7.24v10.24h0.18c1.03-3.5,2.6-6.22,4.72-8.18c2.12-1.96,4.49-2.94,7.11-2.94c1.88,0,3.32,0.23,4.33,0.68V343.76
		z"/>
	<path class="st4" d="M636.79,323.08c-1.3,0-2.4-0.49-3.31-1.46c-0.91-0.97-1.37-2.2-1.37-3.69c0-1.49,0.46-2.73,1.37-3.71
		c0.91-0.99,2.02-1.48,3.31-1.48c1.32,0,2.45,0.49,3.38,1.48c0.93,0.99,1.39,2.23,1.39,3.71c0,1.42-0.46,2.64-1.39,3.64
		C639.24,322.57,638.11,323.08,636.79,323.08z M640.32,385.41h-7.24V335.7h7.24V385.41z"/>
	<path class="st4" d="M662.39,378.23h-0.18v7.19h-7.24v-73.6h7.24v32.63h0.18c3.56-6.6,8.77-9.9,15.62-9.9
		c5.8,0,10.33,2.23,13.62,6.68c3.28,4.45,4.92,10.41,4.92,17.89c0,8.32-1.84,14.98-5.52,19.98c-3.68,5-8.71,7.5-15.09,7.5
		C669.96,386.58,665.45,383.8,662.39,378.23z M662.21,358.18v6.94c0,4.11,1.21,7.6,3.64,10.46c2.43,2.86,5.51,4.3,9.25,4.3
		c4.38,0,7.82-1.84,10.31-5.53c2.49-3.69,3.73-8.82,3.73-15.39c0-5.53-1.16-9.87-3.49-13.01c-2.32-3.14-5.47-4.71-9.44-4.71
		c-4.21,0-7.59,1.61-10.15,4.83C663.49,349.28,662.21,353.32,662.21,358.18z"/>
	<path class="st4" d="M727,386.58c-6.68,0-12.01-2.32-16-6.97c-3.99-4.64-5.98-10.8-5.98-18.47c0-8.35,2.07-14.87,6.22-19.57
		c4.15-4.69,9.75-7.04,16.82-7.04c6.74,0,12,2.28,15.78,6.85c3.78,4.56,5.67,10.89,5.67,18.98c0,7.93-2.04,14.28-6.11,19.06
		C739.32,384.19,733.86,386.58,727,386.58z M727.53,341.23c-4.65,0-8.33,1.74-11.03,5.22c-2.71,3.48-4.06,8.28-4.06,14.4
		c0,5.89,1.37,10.54,4.1,13.93c2.74,3.4,6.4,5.1,10.99,5.1c4.68,0,8.28-1.67,10.79-5c2.52-3.33,3.77-8.08,3.77-14.23
		c0-6.21-1.26-11-3.77-14.37C735.81,342.92,732.21,341.23,727.53,341.23z"/>
	<path class="st4" d="M797.62,385.41h-7.24v-7.87h-0.18c-3,6.02-7.65,9.03-13.95,9.03c-10.77,0-16.15-7.06-16.15-21.17V335.7h7.19
		v28.45c0,10.49,3.65,15.73,10.95,15.73c3.53,0,6.44-1.43,8.72-4.3c2.28-2.86,3.42-6.61,3.42-11.24V335.7h7.24V385.41z"/>
	<path class="st4" d="M835.8,343.76c-1.27-1.07-3.09-1.6-5.47-1.6c-3.09,0-5.67,1.6-7.75,4.81c-2.07,3.2-3.11,7.57-3.11,13.11v25.34
		h-7.24V335.7h7.24v10.24h0.18c1.03-3.5,2.6-6.22,4.72-8.18c2.12-1.96,4.49-2.94,7.11-2.94c1.88,0,3.32,0.23,4.33,0.68V343.76z"/>
	<path class="st4" d="M882.23,381.43c0,18.25-7.94,27.38-23.83,27.38c-5.59,0-10.48-1.17-14.65-3.5v-7.96
		c5.09,3.11,9.94,4.66,14.56,4.66c11.12,0,16.68-6.51,16.68-19.52v-5.44h-0.18c-3.44,6.34-8.62,9.52-15.54,9.52
		c-5.62,0-10.14-2.21-13.57-6.63c-3.43-4.42-5.14-10.35-5.14-17.79c0-8.45,1.85-15.16,5.54-20.15c3.69-4.98,8.75-7.48,15.16-7.48
		c6.09,0,10.61,2.69,13.55,8.06h0.18v-6.89h7.24V381.43z M874.99,362.93v-7.33c0-3.95-1.21-7.33-3.64-10.15
		c-2.43-2.82-5.45-4.22-9.07-4.22c-4.47,0-7.97,1.79-10.5,5.36c-2.53,3.58-3.8,8.59-3.8,15.03c0,5.53,1.21,9.96,3.64,13.28
		c2.43,3.32,5.64,4.98,9.64,4.98c4.06,0,7.36-1.59,9.91-4.76C873.72,371.95,874.99,367.89,874.99,362.93z"/>
	<path class="st4" d="M933.21,362.55H901.3c0.12,5.53,1.47,9.81,4.06,12.82c2.59,3.01,6.15,4.52,10.68,4.52
		c5.09,0,9.77-1.84,14.04-5.53v7.48c-3.97,3.17-9.22,4.76-15.76,4.76c-6.39,0-11.4-2.26-15.05-6.77
		c-3.65-4.52-5.47-10.87-5.47-19.06c0-7.74,1.99-14.04,5.98-18.91c3.99-4.87,8.94-7.31,14.85-7.31c5.91,0,10.49,2.1,13.73,6.31
		c3.24,4.21,4.85,10.05,4.85,17.53V362.55z M925.79,355.8c-0.03-4.6-1.04-8.17-3.02-10.73c-1.99-2.56-4.74-3.84-8.28-3.84
		c-3.41,0-6.31,1.34-8.69,4.03c-2.38,2.69-3.85,6.2-4.41,10.54H925.79z"/>
	<path class="st4" d="M963.04,386.58c-6.68,0-12.01-2.32-16-6.97c-3.99-4.64-5.98-10.8-5.98-18.47c0-8.35,2.07-14.87,6.22-19.57
		c4.15-4.69,9.75-7.04,16.82-7.04c6.74,0,12,2.28,15.78,6.85c3.78,4.56,5.67,10.89,5.67,18.98c0,7.93-2.04,14.28-6.11,19.06
		C975.36,384.19,969.9,386.58,963.04,386.58z M963.57,341.23c-4.65,0-8.33,1.74-11.03,5.22c-2.71,3.48-4.06,8.28-4.06,14.4
		c0,5.89,1.37,10.54,4.1,13.93c2.74,3.4,6.4,5.1,10.99,5.1c4.68,0,8.28-1.67,10.79-5c2.52-3.33,3.77-8.08,3.77-14.23
		c0-6.21-1.26-11-3.77-14.37C971.85,342.92,968.25,341.23,963.57,341.23z"/>
	<path class="st4" d="M1000.82,323.08c-1.29,0-2.4-0.49-3.31-1.46c-0.91-0.97-1.37-2.2-1.37-3.69c0-1.49,0.46-2.73,1.37-3.71
		s2.02-1.48,3.31-1.48c1.32,0,2.45,0.49,3.38,1.48s1.39,2.23,1.39,3.71c0,1.42-0.46,2.64-1.39,3.64
		C1003.27,322.57,1002.15,323.08,1000.82,323.08z M1004.35,385.41h-7.24V335.7h7.24V385.41z"/>
	<path class="st4" d="M1016.27,383.62v-8.54c3.94,3.2,8.28,4.81,13.02,4.81c6.36,0,9.53-2.33,9.53-6.99c0-1.33-0.27-2.45-0.82-3.37
		c-0.54-0.92-1.28-1.74-2.21-2.45s-2.02-1.35-3.27-1.92c-1.25-0.57-2.6-1.16-4.04-1.77c-2-0.87-3.76-1.76-5.27-2.65
		c-1.52-0.89-2.78-1.89-3.8-3.01c-1.02-1.12-1.78-2.39-2.29-3.81c-0.52-1.42-0.77-3.09-0.77-5c0-2.33,0.49-4.39,1.46-6.19
		s2.27-3.3,3.88-4.52s3.46-2.13,5.54-2.74c2.07-0.61,4.21-0.92,6.42-0.92c3.91,0,7.42,0.75,10.5,2.23v8.06
		c-3.33-2.4-7.15-3.59-11.48-3.59c-1.35,0-2.58,0.17-3.66,0.51c-1.09,0.34-2.02,0.82-2.8,1.43c-0.78,0.62-1.38,1.35-1.81,2.21
		c-0.43,0.86-0.64,1.8-0.64,2.84c0,1.29,0.21,2.38,0.64,3.25c0.43,0.87,1.05,1.65,1.88,2.33c0.82,0.68,1.82,1.29,3,1.85
		c1.18,0.55,2.52,1.15,4.02,1.8c2,0.84,3.79,1.71,5.38,2.6c1.59,0.89,2.94,1.89,4.06,3.01s1.98,2.4,2.58,3.86s0.91,3.19,0.91,5.19
		c0,2.46-0.49,4.6-1.48,6.41c-0.99,1.81-2.3,3.32-3.95,4.52c-1.65,1.2-3.55,2.09-5.69,2.67c-2.15,0.58-4.4,0.87-6.75,0.87
		C1023.71,386.58,1019.68,385.59,1016.27,383.62z"/>
	<path class="st4" d="M1118.45,362.55h-31.91c0.12,5.53,1.47,9.81,4.06,12.82c2.59,3.01,6.15,4.52,10.68,4.52
		c5.09,0,9.77-1.84,14.04-5.53v7.48c-3.97,3.17-9.22,4.76-15.76,4.76c-6.39,0-11.4-2.26-15.05-6.77s-5.47-10.87-5.47-19.06
		c0-7.74,1.99-14.04,5.98-18.91c3.99-4.87,8.94-7.31,14.85-7.31s10.49,2.1,13.73,6.31c3.24,4.21,4.85,10.05,4.85,17.53V362.55z
		 M1111.03,355.8c-0.03-4.6-1.04-8.17-3.02-10.73c-1.99-2.56-4.74-3.84-8.28-3.84c-3.41,0-6.31,1.34-8.69,4.03
		c-2.38,2.69-3.86,6.2-4.41,10.54H1111.03z M1109.88,310.36l-11.56,15.92h-5.61l9.84-15.92H1109.88z"/>
	<path class="st4" d="M1160.2,383.13c-3.47,2.3-7.59,3.45-12.36,3.45c-6.44,0-11.64-2.31-15.6-6.92
		c-3.96-4.61-5.94-10.59-5.94-17.94c0-8.19,2.13-14.77,6.4-19.74c4.27-4.97,9.96-7.45,17.08-7.45c3.97,0,7.47,0.81,10.5,2.43v8.16
		c-3.35-2.59-6.94-3.88-10.77-3.88c-4.62,0-8.41,1.82-11.36,5.46s-4.44,8.42-4.44,14.35c0,5.83,1.39,10.42,4.17,13.79
		c2.78,3.37,6.51,5.05,11.19,5.05c3.94,0,7.65-1.44,11.12-4.32V383.13z"/>
	<path class="st4" d="M1194.71,343.76c-1.27-1.07-3.09-1.6-5.47-1.6c-3.09,0-5.67,1.6-7.75,4.81c-2.07,3.2-3.11,7.57-3.11,13.11
		v25.34h-7.24V335.7h7.24v10.24h0.18c1.03-3.5,2.6-6.22,4.72-8.18c2.12-1.96,4.49-2.94,7.11-2.94c1.88,0,3.32,0.23,4.33,0.68V343.76
		z"/>
	<path class="st4" d="M1206.28,323.08c-1.29,0-2.4-0.49-3.31-1.46c-0.91-0.97-1.37-2.2-1.37-3.69c0-1.49,0.46-2.73,1.37-3.71
		s2.02-1.48,3.31-1.48c1.32,0,2.45,0.49,3.38,1.48s1.39,2.23,1.39,3.71c0,1.42-0.46,2.64-1.39,3.64
		C1208.73,322.57,1207.6,323.08,1206.28,323.08z M1209.81,385.41h-7.24V335.7h7.24V385.41z"/>
	<path class="st4" d="M1245.42,384.93c-1.71,1.04-3.96,1.55-6.75,1.55c-7.92,0-11.87-4.85-11.87-14.56V342.5h-7.77v-6.8h7.77v-12.14
		l7.24-2.57v14.71h11.39v6.8h-11.39v28.01c0,3.33,0.51,5.71,1.54,7.14c1.03,1.42,2.74,2.14,5.12,2.14c1.82,0,3.4-0.55,4.72-1.65
		V384.93z"/>
	<path class="st4" d="M1261.71,374.34l-7.06,23.89h-5.16l5.16-23.89H1261.71z"/>
	<path class="st4" d="M1334.98,335.7l-18.01,49.71h-7.11l-17.12-49.71h7.94l11.48,36.12c0.85,2.65,1.38,4.97,1.59,6.94h0.18
		c0.29-2.49,0.77-4.74,1.41-6.75l12-36.31H1334.98z"/>
	<path class="st4" d="M1346.45,323.08c-1.29,0-2.4-0.49-3.31-1.46c-0.91-0.97-1.37-2.2-1.37-3.69c0-1.49,0.46-2.73,1.37-3.71
		s2.02-1.48,3.31-1.48c1.32,0,2.45,0.49,3.38,1.48s1.39,2.23,1.39,3.71c0,1.42-0.46,2.64-1.39,3.64
		C1348.9,322.57,1347.78,323.08,1346.45,323.08z M1349.98,385.41h-7.24V335.7h7.24V385.41z"/>
	<path class="st4" d="M1361.9,383.62v-8.54c3.94,3.2,8.28,4.81,13.02,4.81c6.36,0,9.53-2.33,9.53-6.99c0-1.33-0.27-2.45-0.82-3.37
		c-0.54-0.92-1.28-1.74-2.21-2.45s-2.02-1.35-3.27-1.92c-1.25-0.57-2.6-1.16-4.04-1.77c-2-0.87-3.76-1.76-5.27-2.65
		c-1.52-0.89-2.78-1.89-3.8-3.01c-1.02-1.12-1.78-2.39-2.29-3.81c-0.52-1.42-0.77-3.09-0.77-5c0-2.33,0.49-4.39,1.46-6.19
		s2.27-3.3,3.88-4.52s3.46-2.13,5.54-2.74c2.07-0.61,4.21-0.92,6.42-0.92c3.91,0,7.42,0.75,10.5,2.23v8.06
		c-3.33-2.4-7.15-3.59-11.48-3.59c-1.35,0-2.58,0.17-3.66,0.51c-1.09,0.34-2.02,0.82-2.8,1.43c-0.78,0.62-1.38,1.35-1.81,2.21
		c-0.43,0.86-0.64,1.8-0.64,2.84c0,1.29,0.21,2.38,0.64,3.25c0.43,0.87,1.05,1.65,1.88,2.33c0.82,0.68,1.82,1.29,3,1.85
		c1.18,0.55,2.52,1.15,4.02,1.8c2,0.84,3.79,1.71,5.38,2.6c1.59,0.89,2.94,1.89,4.06,3.01s1.98,2.4,2.58,3.86s0.91,3.19,0.91,5.19
		c0,2.46-0.49,4.6-1.48,6.41c-0.99,1.81-2.3,3.32-3.95,4.52c-1.65,1.2-3.55,2.09-5.69,2.67c-2.15,0.58-4.4,0.87-6.75,0.87
		C1369.34,386.58,1365.31,385.59,1361.9,383.62z"/>
	<path class="st4" d="M1439.53,385.41h-7.24v-7.87h-0.18c-3,6.02-7.65,9.03-13.95,9.03c-10.77,0-16.15-7.06-16.15-21.17V335.7h7.19
		v28.45c0,10.49,3.65,15.73,10.95,15.73c3.53,0,6.44-1.43,8.72-4.3c2.28-2.86,3.42-6.61,3.42-11.24V335.7h7.24V385.41z"/>
	<path class="st4" d="M1490.47,362.55h-31.91c0.12,5.53,1.47,9.81,4.06,12.82c2.59,3.01,6.15,4.52,10.68,4.52
		c5.09,0,9.77-1.84,14.04-5.53v7.48c-3.97,3.17-9.22,4.76-15.76,4.76c-6.39,0-11.4-2.26-15.05-6.77s-5.47-10.87-5.47-19.06
		c0-7.74,1.99-14.04,5.98-18.91c3.99-4.87,8.94-7.31,14.85-7.31s10.49,2.1,13.73,6.31c3.24,4.21,4.85,10.05,4.85,17.53V362.55z
		 M1483.05,355.8c-0.03-4.6-1.04-8.17-3.02-10.73c-1.99-2.56-4.74-3.84-8.28-3.84c-3.41,0-6.31,1.34-8.69,4.03
		c-2.38,2.69-3.86,6.2-4.41,10.54H1483.05z"/>
	<path class="st4" d="M1508.65,385.41h-7.24v-73.6h7.24V385.41z"/>
	<path class="st4" d="M1584.39,362.55h-31.91c0.12,5.53,1.47,9.81,4.06,12.82c2.59,3.01,6.15,4.52,10.68,4.52
		c5.09,0,9.77-1.84,14.04-5.53v7.48c-3.97,3.17-9.22,4.76-15.76,4.76c-6.39,0-11.4-2.26-15.05-6.77s-5.47-10.87-5.47-19.06
		c0-7.74,1.99-14.04,5.98-18.91c3.99-4.87,8.94-7.31,14.85-7.31s10.49,2.1,13.73,6.31c3.24,4.21,4.85,10.05,4.85,17.53V362.55z
		 M1576.97,355.8c-0.03-4.6-1.04-8.17-3.02-10.73c-1.99-2.56-4.74-3.84-8.28-3.84c-3.41,0-6.31,1.34-8.69,4.03
		c-2.38,2.69-3.86,6.2-4.41,10.54H1576.97z"/>
	<path class="st4" d="M1616.3,384.93c-1.71,1.04-3.96,1.55-6.75,1.55c-7.92,0-11.87-4.85-11.87-14.56V342.5h-7.77v-6.8h7.77v-12.14
		l7.24-2.57v14.71h11.39v6.8h-11.39v28.01c0,3.33,0.51,5.71,1.54,7.14c1.03,1.42,2.74,2.14,5.12,2.14c1.82,0,3.4-0.55,4.72-1.65
		V384.93z"/>
	<path class="st4" d="M1647.99,383.62v-8.54c3.94,3.2,8.28,4.81,13.02,4.81c6.36,0,9.53-2.33,9.53-6.99c0-1.33-0.27-2.45-0.82-3.37
		c-0.54-0.92-1.28-1.74-2.21-2.45s-2.02-1.35-3.27-1.92c-1.25-0.57-2.6-1.16-4.04-1.77c-2-0.87-3.76-1.76-5.27-2.65
		c-1.52-0.89-2.78-1.89-3.8-3.01c-1.02-1.12-1.78-2.39-2.29-3.81c-0.52-1.42-0.77-3.09-0.77-5c0-2.33,0.49-4.39,1.46-6.19
		s2.27-3.3,3.88-4.52s3.46-2.13,5.54-2.74c2.07-0.61,4.21-0.92,6.42-0.92c3.91,0,7.42,0.75,10.5,2.23v8.06
		c-3.33-2.4-7.15-3.59-11.48-3.59c-1.35,0-2.58,0.17-3.66,0.51c-1.09,0.34-2.02,0.82-2.8,1.43c-0.78,0.62-1.38,1.35-1.81,2.21
		c-0.43,0.86-0.64,1.8-0.64,2.84c0,1.29,0.21,2.38,0.64,3.25c0.43,0.87,1.05,1.65,1.88,2.33c0.82,0.68,1.82,1.29,3,1.85
		c1.18,0.55,2.52,1.15,4.02,1.8c2,0.84,3.79,1.71,5.38,2.6c1.59,0.89,2.94,1.89,4.06,3.01s1.98,2.4,2.58,3.86s0.91,3.19,0.91,5.19
		c0,2.46-0.49,4.6-1.48,6.41c-0.99,1.81-2.3,3.32-3.95,4.52c-1.65,1.2-3.55,2.09-5.69,2.67c-2.15,0.58-4.4,0.87-6.75,0.87
		C1655.43,386.58,1651.4,385.59,1647.99,383.62z"/>
	<path class="st4" d="M1707.97,386.58c-6.68,0-12.01-2.32-16-6.97c-3.99-4.64-5.98-10.8-5.98-18.47c0-8.35,2.07-14.87,6.22-19.57
		c4.15-4.69,9.75-7.04,16.82-7.04c6.74,0,12,2.28,15.78,6.85c3.78,4.56,5.67,10.89,5.67,18.98c0,7.93-2.04,14.28-6.11,19.06
		C1720.29,384.19,1714.83,386.58,1707.97,386.58z M1708.5,341.23c-4.65,0-8.33,1.74-11.03,5.22c-2.71,3.48-4.06,8.28-4.06,14.4
		c0,5.89,1.37,10.54,4.1,13.93s6.4,5.1,10.99,5.1c4.68,0,8.28-1.67,10.79-5c2.52-3.33,3.77-8.08,3.77-14.23
		c0-6.21-1.26-11-3.77-14.37C1716.77,342.92,1713.18,341.23,1708.5,341.23z"/>
	<path class="st4" d="M1779.56,385.41h-7.24v-28.35c0-10.55-3.5-15.83-10.5-15.83c-3.62,0-6.61,1.5-8.98,4.49
		c-2.37,2.99-3.55,6.77-3.55,11.34v28.35h-7.24V335.7h7.24v8.25h0.18c3.41-6.28,8.36-9.42,14.83-9.42c4.94,0,8.72,1.76,11.34,5.27
		c2.62,3.51,3.93,8.59,3.93,15.22V385.41z"/>
	<path class="st4" d="M1812.09,386.58c-6.68,0-12.01-2.32-16-6.97c-3.99-4.64-5.98-10.8-5.98-18.47c0-8.35,2.07-14.87,6.22-19.57
		c4.15-4.69,9.75-7.04,16.82-7.04c6.74,0,12,2.28,15.78,6.85c3.78,4.56,5.67,10.89,5.67,18.98c0,7.93-2.04,14.28-6.11,19.06
		C1824.41,384.19,1818.94,386.58,1812.09,386.58z M1812.62,341.23c-4.65,0-8.33,1.74-11.03,5.22c-2.71,3.48-4.06,8.28-4.06,14.4
		c0,5.89,1.37,10.54,4.1,13.93s6.4,5.1,10.99,5.1c4.68,0,8.28-1.67,10.79-5c2.52-3.33,3.77-8.08,3.77-14.23
		c0-6.21-1.26-11-3.77-14.37C1820.89,342.92,1817.29,341.23,1812.62,341.23z"/>
	<path class="st4" d="M1869.73,343.76c-1.27-1.07-3.09-1.6-5.47-1.6c-3.09,0-5.67,1.6-7.75,4.81c-2.07,3.2-3.11,7.57-3.11,13.11
		v25.34h-7.24V335.7h7.24v10.24h0.18c1.03-3.5,2.6-6.22,4.72-8.18c2.12-1.96,4.49-2.94,7.11-2.94c1.88,0,3.32,0.23,4.33,0.68V343.76
		z"/>
	<path class="st4" d="M1913.91,362.55H1882c0.12,5.53,1.47,9.81,4.06,12.82c2.59,3.01,6.15,4.52,10.68,4.52
		c5.09,0,9.77-1.84,14.04-5.53v7.48c-3.97,3.17-9.22,4.76-15.76,4.76c-6.39,0-11.4-2.26-15.05-6.77s-5.47-10.87-5.47-19.06
		c0-7.74,1.99-14.04,5.98-18.91c3.99-4.87,8.94-7.31,14.85-7.31s10.49,2.1,13.73,6.31c3.24,4.21,4.85,10.05,4.85,17.53V362.55z
		 M1906.49,355.8c-0.03-4.6-1.04-8.17-3.02-10.73c-1.99-2.56-4.74-3.84-8.28-3.84c-3.41,0-6.31,1.34-8.69,4.03
		c-2.38,2.69-3.86,6.2-4.41,10.54H1906.49z"/>
</g>
<g>
	<path class="st4" d="M131.88,54.9H52.23v55.41h73.2v41.24h-73.2v87.68H1.38V13.5h130.5V54.9z"/>
	<path class="st4" d="M274.14,122.9c-5.98-3.25-12.96-4.88-20.94-4.88c-10.81,0-19.26,3.96-25.34,11.88
		c-6.09,7.92-9.13,18.71-9.13,32.35v76.98h-49.74V78.04h49.74v29.91h0.63c7.87-21.83,22.04-32.74,42.5-32.74
		c5.25,0,9.34,0.63,12.28,1.89V122.9z"/>
	<path class="st4" d="M328.56,52.54c-8.4,0-15.27-2.49-20.62-7.48c-5.35-4.98-8.03-11.1-8.03-18.34c0-7.45,2.68-13.54,8.03-18.26
		c5.35-4.72,12.22-7.08,20.62-7.08c8.5,0,15.4,2.36,20.7,7.08c5.3,4.72,7.95,10.81,7.95,18.26c0,7.56-2.65,13.75-7.95,18.58
		C343.96,50.12,337.06,52.54,328.56,52.54z M353.12,239.23h-49.74V78.04h49.74V239.23z"/>
	<path class="st4" d="M503.63,170.6h-86.11v-34.79h86.11V170.6z"/>
</g>
</svg>
