<?xml version="1.0" encoding="utf-8"?>
<!-- Generator: Adobe Illustrator 26.0.3, SVG Export Plug-In . SVG Version: 6.00 Build 0)  -->
<svg version="1.1" id="Calque_1" xmlns="http://www.w3.org/2000/svg" xmlns:xlink="http://www.w3.org/1999/xlink" x="0px" y="0px"
	 viewBox="0 0 1917.8 409.4" style="enable-background:new 0 0 1917.8 409.4;" xml:space="preserve">
<style type="text/css">
	.st0{fill:url(#SVGID_1_);}
	.st1{fill:url(#SVGID_00000014594628420225791500000002978786225423109814_);}
	.st2{fill:url(#SVGID_00000005982983070205864570000008565448320123398807_);}
	.st3{fill:#93278F;}
	.st4{fill:#333333;}
</style>
<linearGradient id="SVGID_1_" gradientUnits="userSpaceOnUse" x1="957.21" y1="-144.38" x2="957.21" y2="144.37" gradientTransform="matrix(1 0 0 -1 0 412)">
	<stop  offset="0.7337" style="stop-color:#EFEFEF;stop-opacity:0"/>
	<stop  offset="1" style="stop-color:#000000;stop-opacity:0.1"/>
</linearGradient>
<rect x="-0.4" y="267.6" class="st0" width="1915.2" height="288.8"/>
<linearGradient id="SVGID_00000036231305187519294860000009735411312291397037_" gradientUnits="userSpaceOnUse" x1="717.85" y1="186.6875" x2="3.000000e-02" y2="186.6875" gradientTransform="matrix(1 0 0 -1 0 412)">
	<stop  offset="0" style="stop-color:#EFEFEF;stop-opacity:0"/>
	<stop  offset="0.1518" style="stop-color:#FFFFFF;stop-opacity:0.1961"/>
	<stop  offset="0.3566" style="stop-color:#FFFFFF;stop-opacity:0.6"/>
	<stop  offset="1" style="stop-color:#FFFFFF"/>
</linearGradient>
<rect x="0" y="38.6" style="fill:url(#SVGID_00000036231305187519294860000009735411312291397037_);" width="717.8" height="373.4"/>
<linearGradient id="SVGID_00000015332531641398671460000006629594852285240727_" gradientUnits="userSpaceOnUse" x1="1124.4718" y1="176.7675" x2="403.3219" y2="176.7675" gradientTransform="matrix(-1 0 0 -1 2321.1418 412)">
	<stop  offset="0" style="stop-color:#EFEFEF;stop-opacity:0"/>
	<stop  offset="0.1518" style="stop-color:#FFFFFF;stop-opacity:0.1961"/>
	<stop  offset="0.3566" style="stop-color:#FFFFFF;stop-opacity:0.6"/>
	<stop  offset="1" style="stop-color:#FFFFFF"/>
</linearGradient>
<polygon style="fill:url(#SVGID_00000015332531641398671460000006629594852285240727_);" points="1196.7,412 1917.8,412 
	1917.8,58.5 1196.7,58.5 "/>
<g>
	<g>
		<path class="st3" d="M818.8,239.9h-50.3V104.7c0-14.6,0.6-30.7,1.9-48.4h-1.3c-2.6,13.9-5,23.9-7.1,29.9l-52.9,153.6h-41.6
			L613.7,87.9c-1.5-4.1-3.8-14.6-7.1-31.5h-1.4c1.4,22.3,2,41.8,2,58.6v125h-45.8V14h74.5l46.2,133.9c3.7,10.7,6.3,21.5,8,32.3h1
			c2.8-12.5,5.8-23.4,9-32.6L746.2,14h72.6L818.8,239.9L818.8,239.9z"/>
		<path class="st3" d="M1015.1,173.4H909.9c1.7,23.4,16.4,35.1,44.3,35.1c17.8,0,33.3-4.2,46.8-12.6v35.9c-14.9,8-34.3,12-58.1,12
			c-26,0-46.3-7.2-60.7-21.7c-14.4-14.4-21.6-34.6-21.6-60.4c0-26.8,7.8-48,23.3-63.7c15.5-15.7,34.7-23.5,57.3-23.5
			c23.5,0,41.7,7,54.6,21s19.3,32.9,19.3,56.9L1015.1,173.4L1015.1,173.4z M969,142.9c0-23.1-9.3-34.7-28-34.7
			c-8,0-14.9,3.3-20.7,9.9s-9.4,14.9-10.6,24.7L969,142.9L969,142.9z"/>
		<path class="st3" d="M1305.8,239.9h-49.6v-92c0-23.4-8.6-35.1-25.8-35.1c-8.2,0-14.9,3.5-20,10.6c-5.2,7-7.7,15.8-7.7,26.3v90.3
			h-49.8v-93c0-22.8-8.5-34.2-25.4-34.2c-8.5,0-15.3,3.4-20.4,10.1c-5.1,6.7-7.6,15.9-7.6,27.4v89.6h-49.8V78.6h49.8v25.2h0.6
			c5.2-8.6,12.4-15.6,21.7-21c9.3-5.4,19.5-8.1,30.5-8.1c22.8,0,38.4,10,46.8,30.1c12.3-20.1,30.4-30.1,54.2-30.1
			c35.1,0,52.6,21.6,52.6,64.9L1305.8,239.9L1305.8,239.9z"/>
		<path class="st3" d="M1426.9,243.9c-26.9,0-48-7.5-63.4-22.6c-15.4-15.1-23.1-35.5-23.1-61.4c0-26.7,8-47.6,23.9-62.6
			s37.6-22.6,64.8-22.6c26.8,0,47.8,7.5,63,22.6c15.2,15.1,22.8,35,22.8,59.8c0,26.8-7.8,47.9-23.6,63.5
			C1475.7,236.1,1454.2,243.9,1426.9,243.9z M1428.2,112.8c-11.8,0-20.9,4-27.4,12.1c-6.5,8.1-9.8,19.5-9.8,34.3
			c0,31,12.5,46.5,37.5,46.5c23.8,0,35.8-15.9,35.8-47.7C1464.3,127.8,1452.2,112.8,1428.2,112.8z"/>
		<path class="st3" d="M1657.4,123.5c-6-3.3-13-4.9-21-4.9c-10.8,0-19.3,4-25.4,11.9s-9.1,18.7-9.1,32.4v77.1h-49.8V78.6h49.8v29.9
			h0.6c7.9-21.8,22.1-32.8,42.5-32.8c5.3,0,9.3,0.6,12.3,1.9L1657.4,123.5L1657.4,123.5z"/>
		<path class="st3" d="M1711.9,53c-8.4,0-15.3-2.5-20.6-7.5s-8-11.1-8-18.4c0-7.5,2.7-13.6,8-18.3s12.2-7.1,20.6-7.1
			c8.5,0,15.4,2.4,20.7,7.1c5.3,4.7,8,10.8,8,18.3c0,7.6-2.7,13.8-8,18.6C1727.3,50.6,1720.4,53,1711.9,53z M1736.4,239.9h-49.8
			V78.6h49.8V239.9z"/>
		<path class="st3" d="M1917.4,239.9h-47.1v-23.2h-0.6c-10.8,18.1-26.8,27.1-48.1,27.1c-15.7,0-28-4.4-36.9-13.3
			c-9-8.9-13.5-20.7-13.5-35.5c0-31.3,18.5-49.4,55.6-54.2l43.8-5.8c0-17.7-9.6-26.5-28.7-26.5c-19.2,0-37.5,5.7-54.8,17.2V88.2
			c6.9-3.6,16.4-6.7,28.4-9.4c12-2.7,23-4.1,32.8-4.1c46,0,69,23,69,68.9L1917.4,239.9L1917.4,239.9z M1870.6,174.4v-10.9l-29.3,3.8
			c-16.2,2.1-24.3,9.4-24.3,21.9c0,5.7,2,10.3,5.9,13.9c3.9,3.6,9.3,5.4,16,5.4c9.3,0,17-3.2,22.8-9.7
			C1867.7,192.4,1870.6,184.2,1870.6,174.4z"/>
	</g>
</g>
<g>
	<path class="st4" d="M32.4,323.5H7.2v23.7h23.4v7.2H7.2v30.4h-7.6v-68.6h32.8L32.4,323.5L32.4,323.5z"/>
	<path class="st4" d="M71.3,343.7c-1.3-1-3.2-1.6-5.6-1.6c-3.2,0-5.8,1.6-7.9,4.7c-2.1,3.2-3.2,7.5-3.2,12.9v25h-7.4v-49h7.4v10.1
		h0.2c1-3.4,2.7-6.1,4.8-8.1c2.2-1.9,4.6-2.9,7.3-2.9c1.9,0,3.4,0.2,4.4,0.7V343.7z"/>
	<path class="st4" d="M120,362.2H87.4c0.1,5.5,1.5,9.7,4.2,12.6s6.3,4.5,10.9,4.5c5.2,0,10-1.8,14.3-5.5v7.4
		c-4.1,3.1-9.4,4.7-16.1,4.7c-6.5,0-11.7-2.2-15.4-6.7c-3.7-4.5-5.6-10.7-5.6-18.8c0-7.6,2-13.8,6.1-18.6s9.1-7.2,15.2-7.2
		c6,0,10.7,2.1,14,6.2c3.3,4.1,5,9.9,5,17.3L120,362.2L120,362.2z M112.4,355.6c0-4.5-1.1-8-3.1-10.6c-2-2.5-4.8-3.8-8.5-3.8
		c-3.5,0-6.4,1.3-8.9,4s-3.9,6.1-4.5,10.4H112.4z"/>
	<path class="st4" d="M138.5,323.4c-1.3,0-2.4-0.5-3.4-1.4c-0.9-1-1.4-2.2-1.4-3.6c0-1.5,0.5-2.7,1.4-3.7s2.1-1.5,3.4-1.5
		c1.4,0,2.5,0.5,3.4,1.5s1.4,2.2,1.4,3.7c0,1.4-0.5,2.6-1.4,3.6C141,322.9,139.8,323.4,138.5,323.4z M142.1,384.8h-7.4v-49h7.4
		V384.8z"/>
	<path class="st4" d="M168.1,377.7H168v7.1h-7.4v-72.5h7.4v32.1h0.2c3.6-6.5,9-9.8,16-9.8c5.9,0,10.6,2.2,13.9,6.6
		c3.4,4.4,5,10.3,5,17.6c0,8.2-1.9,14.8-5.6,19.7s-8.9,7.4-15.4,7.4C175.9,385.9,171.3,383.2,168.1,377.7z M167.9,357.9v6.8
		c0,4,1.2,7.5,3.7,10.3c2.5,2.8,5.6,4.2,9.4,4.2c4.5,0,8-1.8,10.5-5.5s3.8-8.7,3.8-15.2c0-5.5-1.2-9.7-3.6-12.8
		c-2.4-3.1-5.6-4.6-9.6-4.6c-4.3,0-7.8,1.6-10.4,4.8C169.3,349.2,167.9,353.2,167.9,357.9z"/>
	<path class="st4" d="M255.7,384.8h-7.4V377h-0.2c-3.1,5.9-7.8,8.9-14.3,8.9c-11,0-16.5-7-16.5-20.9v-29.3h7.4v28
		c0,10.3,3.7,15.5,11.2,15.5c3.6,0,6.6-1.4,8.9-4.2s3.5-6.5,3.5-11.1v-28.2h7.4L255.7,384.8L255.7,384.8z"/>
	<path class="st4" d="M298.2,343.7c-1.3-1-3.2-1.6-5.6-1.6c-3.2,0-5.8,1.6-7.9,4.7c-2.1,3.2-3.2,7.5-3.2,12.9v25h-7.4v-49h7.4v10.1
		h0.2c1-3.4,2.7-6.1,4.8-8.1c2.2-1.9,4.6-2.9,7.3-2.9c1.9,0,3.4,0.2,4.4,0.7V343.7z"/>
	<path class="st4" d="M349.2,380.8c0,18-8.1,27-24.4,27c-5.7,0-10.7-1.1-15-3.4v-7.8c5.2,3.1,10.2,4.6,14.9,4.6
		c11.4,0,17-6.4,17-19.2v-5.4h-0.2c-3.5,6.3-8.8,9.4-15.9,9.4c-5.7,0-10.4-2.2-13.9-6.5s-5.3-10.2-5.3-17.5c0-8.3,1.9-14.9,5.7-19.8
		s8.9-7.4,15.5-7.4c6.2,0,10.8,2.6,13.9,7.9h0.2v-6.8h7.4V380.8z M341.8,362.6v-7.2c0-3.9-1.2-7.2-3.7-10s-5.6-4.2-9.3-4.2
		c-4.6,0-8.1,1.8-10.7,5.3c-2.6,3.5-3.9,8.5-3.9,14.8c0,5.5,1.2,9.8,3.7,13.1s5.8,4.9,9.9,4.9c4.1,0,7.5-1.6,10.1-4.7
		C340.5,371.5,341.8,367.5,341.8,362.6z"/>
	<path class="st4" d="M364.9,383v-8.4c4,3.2,8.5,4.7,13.3,4.7c6.5,0,9.7-2.3,9.7-6.9c0-1.3-0.3-2.4-0.8-3.3
		c-0.6-0.9-1.3-1.7-2.3-2.4c-1-0.7-2.1-1.3-3.3-1.9c-1.3-0.6-2.6-1.1-4.1-1.8c-2-0.9-3.8-1.7-5.4-2.6c-1.5-0.9-2.8-1.9-3.9-3
		s-1.8-2.4-2.4-3.8s-0.8-3-0.8-4.9c0-2.3,0.5-4.3,1.5-6.1s2.3-3.3,4-4.5c1.6-1.2,3.5-2.1,5.7-2.7c2.1-0.6,4.3-0.9,6.6-0.9
		c4,0,7.6,0.7,10.7,2.2v7.9c-3.4-2.4-7.3-3.5-11.7-3.5c-1.4,0-2.6,0.2-3.7,0.5s-2.1,0.8-2.9,1.4c-0.8,0.6-1.4,1.3-1.9,2.2
		c-0.4,0.8-0.6,1.8-0.6,2.8c0,1.3,0.2,2.3,0.6,3.2c0.4,0.9,1.1,1.6,1.9,2.3c0.8,0.7,1.9,1.3,3.1,1.8c1.2,0.5,2.6,1.1,4.1,1.8
		c2,0.8,3.9,1.7,5.5,2.6s3,1.9,4.1,3c1.1,1.1,2,2.4,2.6,3.8c0.6,1.4,0.9,3.1,0.9,5.1c0,2.4-0.5,4.5-1.5,6.3c-1,1.8-2.4,3.3-4,4.5
		c-1.7,1.2-3.6,2.1-5.8,2.6s-4.5,0.9-6.9,0.9C372.5,385.9,368.4,384.9,364.9,383z"/>
	<path class="st4" d="M485.2,384.8h-10.5l-25-31.4c-0.9-1.2-1.5-2-1.7-2.4h-0.2v33.8h-7.6v-68.6h7.6v32.2h0.2c0.4-0.7,1-1.5,1.7-2.3
		l24.2-29.9h9.4l-27.7,32.9L485.2,384.8z"/>
	<path class="st4" d="M533.7,384.8h-7.4V377h-0.2c-3.1,5.9-7.8,8.9-14.3,8.9c-11,0-16.5-7-16.5-20.9v-29.3h7.4v28
		c0,10.3,3.7,15.5,11.2,15.5c3.6,0,6.6-1.4,8.9-4.2c2.3-2.8,3.5-6.5,3.5-11.1v-28.2h7.4L533.7,384.8L533.7,384.8z"/>
	<path class="st4" d="M559.5,384.8h-7.4v-72.5h7.4V384.8z"/>
	<path class="st4" d="M599.4,384.3c-1.7,1-4,1.5-6.9,1.5c-8.1,0-12.1-4.8-12.1-14.3v-29h-7.9v-6.7h7.9v-12l7.4-2.5v14.5h11.6v6.7
		h-11.6v27.6c0,3.3,0.5,5.6,1.6,7s2.8,2.1,5.2,2.1c1.9,0,3.5-0.5,4.8-1.6L599.4,384.3L599.4,384.3z"/>
	<path class="st4" d="M650.1,384.8h-7.4V377h-0.2c-3.1,5.9-7.8,8.9-14.3,8.9c-11,0-16.5-7-16.5-20.9v-29.3h7.3v28
		c0,10.3,3.7,15.5,11.2,15.5c3.6,0,6.6-1.4,8.9-4.2c2.3-2.8,3.5-6.5,3.5-11.1v-28.2h7.4L650.1,384.8L650.1,384.8z"/>
	<path class="st4" d="M692.7,343.7c-1.3-1-3.2-1.6-5.6-1.6c-3.2,0-5.8,1.6-7.9,4.7c-2.1,3.2-3.2,7.5-3.2,12.9v25h-7.4v-49h7.4v10.1
		h0.2c1-3.4,2.7-6.1,4.8-8.1c2.2-1.9,4.6-2.9,7.3-2.9c1.9,0,3.4,0.2,4.4,0.7V343.7z"/>
	<path class="st4" d="M741.3,362.2h-32.6c0.1,5.5,1.5,9.7,4.2,12.6s6.3,4.5,10.9,4.5c5.2,0,10-1.8,14.3-5.5v7.4
		c-4.1,3.1-9.4,4.7-16.1,4.7c-6.5,0-11.7-2.2-15.4-6.7s-5.6-10.7-5.6-18.8c0-7.6,2-13.8,6.1-18.6s9.1-7.2,15.2-7.2
		c6,0,10.7,2.1,14,6.2c3.3,4.1,5,9.9,5,17.3L741.3,362.2L741.3,362.2z M733.7,355.6c0-4.5-1.1-8-3.1-10.6c-2-2.5-4.8-3.8-8.5-3.8
		c-3.5,0-6.5,1.3-8.9,4s-3.9,6.1-4.5,10.4H733.7z"/>
	<path class="st4" d="M780.1,343.7c-1.3-1-3.2-1.6-5.6-1.6c-3.2,0-5.8,1.6-7.9,4.7c-2.1,3.2-3.2,7.5-3.2,12.9v25H756v-49h7.4v10.1
		h0.2c1-3.4,2.7-6.1,4.8-8.1c2.2-1.9,4.6-2.9,7.3-2.9c1.9,0,3.4,0.2,4.4,0.7V343.7z"/>
	<path class="st4" d="M799.2,377.7H799v7.1h-7.4v-72.5h7.4v32.1h0.2c3.6-6.5,9-9.8,16-9.8c5.9,0,10.6,2.2,13.9,6.6
		c3.3,4.4,5,10.3,5,17.6c0,8.2-1.9,14.8-5.6,19.7s-8.9,7.4-15.4,7.4C807,385.9,802.3,383.2,799.2,377.7z M799,357.9v6.8
		c0,4,1.2,7.5,3.7,10.3c2.5,2.8,5.6,4.2,9.5,4.2c4.5,0,8-1.8,10.5-5.5c2.5-3.6,3.8-8.7,3.8-15.2c0-5.5-1.2-9.7-3.6-12.8
		c-2.4-3.1-5.6-4.6-9.7-4.6c-4.3,0-7.8,1.6-10.4,4.8C800.3,349.2,799,353.2,799,357.9z"/>
	<path class="st4" d="M886.6,362.2H854c0.1,5.5,1.5,9.7,4.2,12.6s6.3,4.5,10.9,4.5c5.2,0,10-1.8,14.3-5.5v7.4
		c-4.1,3.1-9.4,4.7-16.1,4.7c-6.5,0-11.7-2.2-15.4-6.7s-5.6-10.7-5.6-18.8c0-7.6,2-13.8,6.1-18.6s9.1-7.2,15.2-7.2
		c6,0,10.7,2.1,14,6.2c3.3,4.1,5,9.9,5,17.3L886.6,362.2L886.6,362.2z M879,355.6c0-4.5-1.1-8-3.1-10.6c-2-2.5-4.8-3.8-8.5-3.8
		c-3.5,0-6.5,1.3-8.9,4s-3.9,6.1-4.5,10.4H879z"/>
	<path class="st4" d="M933.9,323.4c-1.3,0-2.5-0.5-3.4-1.4c-0.9-1-1.4-2.2-1.4-3.6c0-1.5,0.5-2.7,1.4-3.7c0.9-1,2.1-1.5,3.4-1.5
		c1.3,0,2.5,0.5,3.5,1.5s1.4,2.2,1.4,3.7c0,1.4-0.5,2.6-1.4,3.6C936.4,322.9,935.2,323.4,933.9,323.4z M937.5,384.8h-7.4v-49h7.4
		V384.8z"/>
	<path class="st4" d="M994.3,384.8h-7.4v-27.9c0-10.4-3.6-15.6-10.7-15.6c-3.7,0-6.8,1.5-9.2,4.4s-3.6,6.7-3.6,11.2v27.9H956v-49
		h7.4v8.1h0.2c3.5-6.2,8.5-9.3,15.2-9.3c5,0,8.9,1.7,11.6,5.2c2.7,3.5,4,8.5,4,15V384.8z"/>
	<path class="st4" d="M1038.5,382v-9.5c1,1,2.3,1.8,3.7,2.6c1.4,0.8,2.9,1.4,4.5,1.9s3.2,0.9,4.8,1.2c1.6,0.3,3.1,0.4,4.4,0.4
		c4.7,0,8.1-0.9,10.4-2.8c2.3-1.8,3.4-4.5,3.4-7.9c0-1.9-0.4-3.5-1.2-4.8s-1.8-2.6-3.2-3.8c-1.3-1.1-2.9-2.2-4.8-3.3
		c-1.8-1-3.8-2.1-6-3.3c-2.3-1.2-4.4-2.4-6.3-3.7c-1.9-1.2-3.7-2.6-5.1-4.1c-1.4-1.5-2.6-3.2-3.4-5.1c-0.8-1.9-1.2-4.1-1.2-6.7
		c0-3.1,0.7-5.8,1.9-8.1c1.3-2.3,3-4.2,5.1-5.7c2.1-1.5,4.5-2.6,7.2-3.4c2.7-0.7,5.4-1.1,8.2-1.1c6.4,0,11,0.8,13.9,2.4v9
		c-3.8-2.8-8.7-4.2-14.7-4.2c-1.7,0-3.3,0.2-5,0.5c-1.7,0.4-3.1,1-4.4,1.8c-1.3,0.8-2.3,1.9-3.2,3.2c-0.8,1.3-1.2,2.9-1.2,4.8
		c0,1.8,0.3,3.3,0.9,4.5c0.6,1.3,1.5,2.4,2.7,3.5s2.7,2.1,4.4,3.1s3.7,2.1,6,3.3c2.3,1.2,4.5,2.5,6.6,3.8c2.1,1.3,3.9,2.8,5.5,4.5
		c1.6,1.6,2.8,3.4,3.7,5.4c0.9,2,1.4,4.2,1.4,6.8c0,3.4-0.6,6.2-1.9,8.6s-2.9,4.3-5.1,5.7c-2.1,1.5-4.6,2.5-7.3,3.2s-5.7,1-8.8,1
		c-1,0-2.3-0.1-3.8-0.3c-1.5-0.2-3-0.4-4.6-0.8c-1.6-0.3-3-0.8-4.4-1.2C1040.5,383.1,1039.4,382.6,1038.5,382z"/>
	<path class="st4" d="M1124.6,382.5c-3.6,2.3-7.8,3.4-12.6,3.4c-6.6,0-11.9-2.3-15.9-6.8c-4-4.5-6.1-10.4-6.1-17.7
		c0-8.1,2.2-14.5,6.5-19.4c4.4-4.9,10.2-7.3,17.5-7.3c4.1,0,7.6,0.8,10.7,2.4v8c-3.4-2.5-7.1-3.8-11-3.8c-4.7,0-8.6,1.8-11.6,5.4
		s-4.5,8.3-4.5,14.1c0,5.7,1.4,10.3,4.3,13.6c2.8,3.3,6.7,5,11.4,5c4,0,7.8-1.4,11.4-4.3L1124.6,382.5L1124.6,382.5z"/>
	<path class="st4" d="M1177.7,384.8h-7.4v-28.2c0-10.2-3.6-15.3-10.7-15.3c-3.6,0-6.7,1.5-9.1,4.4c-2.5,3-3.7,6.7-3.7,11.4v27.7
		h-7.4v-72.5h7.4v31.6h0.2c3.6-6.2,8.6-9.3,15.2-9.3c10.4,0,15.6,6.6,15.6,19.9L1177.7,384.8L1177.7,384.8z"/>
	<path class="st4" d="M1219.2,343.7c-1.3-1-3.2-1.6-5.6-1.6c-3.2,0-5.8,1.6-7.9,4.7c-2.1,3.2-3.2,7.5-3.2,12.9v25h-7.4v-49h7.4v10.1
		h0.2c1.1-3.4,2.7-6.1,4.8-8.1c2.2-1.9,4.6-2.9,7.3-2.9c1.9,0,3.4,0.2,4.4,0.7V343.7z"/>
	<path class="st4" d="M1234.5,323.4c-1.3,0-2.4-0.5-3.4-1.4c-0.9-1-1.4-2.2-1.4-3.6c0-1.5,0.5-2.7,1.4-3.7s2.1-1.5,3.4-1.5
		c1.3,0,2.5,0.5,3.4,1.5s1.4,2.2,1.4,3.7c0,1.4-0.5,2.6-1.4,3.6C1237,322.9,1235.9,323.4,1234.5,323.4z M1238.1,384.8h-7.4v-49h7.4
		V384.8z"/>
	<path class="st4" d="M1279.4,319.2c-1.4-0.9-3.1-1.3-4.9-1.3c-5.2,0-7.8,3.5-7.8,10.4v7.5h10.8v6.7h-10.8v42.3h-7.3v-42.3h-7.9
		v-6.7h7.9v-7.9c0-5.1,1.4-9.2,4.2-12.2c2.8-3,6.3-4.5,10.5-4.5c2.3,0,4,0.3,5.4,0.9L1279.4,319.2L1279.4,319.2z"/>
	<path class="st4" d="M1310.5,384.3c-1.7,1-4,1.5-6.9,1.5c-8.1,0-12.1-4.8-12.1-14.3v-29h-7.9v-6.7h7.9v-12l7.4-2.5v14.5h11.6v6.7
		h-11.6v27.6c0,3.3,0.5,5.6,1.6,7c1.1,1.4,2.8,2.1,5.2,2.1c1.9,0,3.5-0.5,4.8-1.6L1310.5,384.3L1310.5,384.3z"/>
	<path class="st4" d="M1330.6,373.9l-7.2,23.5h-5.3l5.3-23.5H1330.6z"/>
	<path class="st4" d="M1377.2,384.8v-68.6h18.4c5.6,0,10,1.5,13.3,4.4s4.9,6.7,4.9,11.3c0,3.9-1,7.3-3,10.1s-4.7,4.9-8.2,6.1v0.2
		c4.4,0.5,7.8,2.3,10.5,5.2c2.6,3,3.9,6.8,3.9,11.5c0,5.9-2,10.6-5.9,14.3c-4,3.6-9,5.5-15,5.5L1377.2,384.8L1377.2,384.8z
		 M1384.8,323.5v22.1h7.8c4.2,0,7.4-1.1,9.8-3.2s3.6-5.1,3.6-9c0-6.7-4.1-10-12.4-10L1384.8,323.5L1384.8,323.5z M1384.8,352.8v24.7
		h10.3c4.4,0,7.9-1.1,10.3-3.4s3.7-5.3,3.7-9.2c0-8.1-5.2-12.1-15.6-12.1H1384.8z"/>
	<path class="st4" d="M1436.5,323.4c-1.3,0-2.4-0.5-3.4-1.4c-0.9-1-1.4-2.2-1.4-3.6c0-1.5,0.5-2.7,1.4-3.7s2.1-1.5,3.4-1.5
		c1.3,0,2.5,0.5,3.4,1.5s1.4,2.2,1.4,3.7c0,1.4-0.5,2.6-1.4,3.6C1439,322.9,1437.8,323.4,1436.5,323.4z M1440.1,384.8h-7.4v-49h7.4
		V384.8z"/>
	<path class="st4" d="M1465.9,384.8h-7.4v-72.5h7.4V384.8z"/>
	<path class="st4" d="M1523.9,384.8h-7.4v-8.3h-0.2c-3.4,6.3-8.7,9.5-15.9,9.5c-5.8,0-10.4-2.2-13.9-6.6c-3.5-4.4-5.2-10.4-5.2-17.9
		c0-8.1,1.9-14.6,5.8-19.5s9-7.3,15.4-7.3c6.3,0,11,2.6,13.8,7.9h0.2v-30.3h7.4V384.8z M1516.5,362.6v-7.2c0-4-1.2-7.3-3.7-10
		c-2.5-2.7-5.6-4.1-9.4-4.1c-4.5,0-8.1,1.8-10.7,5.3s-3.9,8.4-3.9,14.5c0,5.6,1.2,10.1,3.7,13.4c2.5,3.3,5.8,4.9,10,4.9
		c4.1,0,7.5-1.6,10-4.7C1515.2,371.4,1516.5,367.4,1516.5,362.6z"/>
	<path class="st4" d="M1608.5,384.8h-7.4V377h-0.2c-3.1,5.9-7.8,8.9-14.3,8.9c-11,0-16.5-7-16.5-20.9v-29.3h7.3v28
		c0,10.3,3.7,15.5,11.2,15.5c3.6,0,6.6-1.4,8.9-4.2c2.3-2.8,3.5-6.5,3.5-11.1v-28.2h7.4L1608.5,384.8L1608.5,384.8z"/>
	<path class="st4" d="M1665.3,384.8h-7.4v-27.9c0-10.4-3.6-15.6-10.7-15.6c-3.7,0-6.8,1.5-9.2,4.4s-3.6,6.7-3.6,11.2v27.9h-7.4v-49
		h7.4v8.1h0.2c3.5-6.2,8.5-9.3,15.2-9.3c5.1,0,8.9,1.7,11.6,5.2c2.7,3.5,4,8.5,4,15V384.8z"/>
	<path class="st4" d="M1722.2,384.8h-7.4v-8.3h-0.2c-3.4,6.3-8.7,9.5-15.9,9.5c-5.8,0-10.4-2.2-13.9-6.6c-3.5-4.4-5.2-10.4-5.2-17.9
		c0-8.1,1.9-14.6,5.8-19.5s9-7.3,15.4-7.3c6.3,0,11,2.6,13.8,7.9h0.2v-30.3h7.4V384.8z M1714.8,362.6v-7.2c0-4-1.2-7.3-3.7-10
		c-2.5-2.7-5.6-4.1-9.4-4.1c-4.5,0-8.1,1.8-10.7,5.3s-3.9,8.4-3.9,14.5c0,5.6,1.2,10.1,3.7,13.4c2.5,3.3,5.8,4.9,10,4.9
		c4.1,0,7.5-1.6,10-4.7C1713.5,371.4,1714.8,367.4,1714.8,362.6z"/>
	<path class="st4" d="M1808.7,323.5H1790v61.3h-7.6v-61.3h-18.6v-7.3h44.9V323.5z"/>
	<path class="st4" d="M1840.7,385.9c-6.8,0-12.3-2.3-16.3-6.9c-4.1-4.6-6.1-10.6-6.1-18.2c0-8.2,2.1-14.6,6.4-19.3s10-6.9,17.2-6.9
		c6.9,0,12.3,2.3,16.1,6.7c3.9,4.5,5.8,10.7,5.8,18.7c0,7.8-2.1,14.1-6.3,18.8C1853.3,383.6,1847.7,385.9,1840.7,385.9z
		 M1841.2,341.3c-4.8,0-8.5,1.7-11.3,5.1c-2.8,3.4-4.2,8.1-4.2,14.2c0,5.8,1.4,10.4,4.2,13.7c2.8,3.4,6.5,5,11.2,5
		c4.8,0,8.5-1.6,11-4.9c2.6-3.3,3.9-8,3.9-14c0-6.1-1.3-10.8-3.9-14.1C1849.7,342.9,1846,341.3,1841.2,341.3z"/>
	<path class="st4" d="M1917.3,384.8h-7.4v-27.9c0-10.4-3.6-15.6-10.7-15.6c-3.7,0-6.8,1.5-9.2,4.4s-3.6,6.7-3.6,11.2v27.9h-7.4v-49
		h7.4v8.1h0.2c3.5-6.2,8.5-9.3,15.2-9.3c5.1,0,8.9,1.7,11.6,5.2c2.7,3.5,4,8.5,4,15V384.8z"/>
</g>
<g>
	<path class="st4" d="M130.6,55.4H50.9v55.5h73.3v41.3H50.9v87.8H0V14h130.6V55.4z"/>
	<path class="st4" d="M273,123.5c-6-3.3-13-4.9-21-4.9c-10.8,0-19.3,4-25.4,11.9s-9.1,18.7-9.1,32.4v77.1h-49.8V78.6h49.8v29.9h0.6
		c7.9-21.8,22.1-32.8,42.5-32.8c5.3,0,9.4,0.6,12.3,1.9L273,123.5L273,123.5z"/>
	<path class="st4" d="M327.5,53c-8.4,0-15.3-2.5-20.6-7.5c-5.4-5-8-11.1-8-18.4c0-7.5,2.7-13.6,8-18.3c5.4-4.7,12.2-7.1,20.6-7.1
		c8.5,0,15.4,2.4,20.7,7.1c5.3,4.7,8,10.8,8,18.3c0,7.6-2.6,13.8-8,18.6C342.9,50.6,336,53,327.5,53z M352.1,239.9h-49.8V78.6h49.8
		V239.9z"/>
	<path class="st4" d="M502.7,171.2h-86.2v-34.8h86.2V171.2z"/>
</g>
</svg>
