<?xml version="1.0" encoding="utf-8"?>
<!-- Generator: Adobe Illustrator 26.0.3, SVG Export Plug-In . SVG Version: 6.00 Build 0)  -->
<svg version="1.1" id="Calque_1" xmlns="http://www.w3.org/2000/svg" xmlns:xlink="http://www.w3.org/1999/xlink" x="0px" y="0px"
	 viewBox="0 0 1917.8 409.4" style="enable-background:new 0 0 1917.8 409.4;" xml:space="preserve">
<style type="text/css">
	.st0{fill:url(#SVGID_1_);}
	.st1{fill:url(#SVGID_00000101092242633156536460000013253906603361904291_);}
	.st2{fill:url(#SVGID_00000011712755445052374390000004478924429248099221_);}
	.st3{fill:#93278F;}
	.st4{fill:#333333;}
</style>
<linearGradient id="SVGID_1_" gradientUnits="userSpaceOnUse" x1="957.6" y1="-144.16" x2="957.6" y2="144.59" gradientTransform="matrix(1 0 0 -1 0 412)">
	<stop  offset="0.7337" style="stop-color:#EFEFEF;stop-opacity:0"/>
	<stop  offset="1" style="stop-color:#000000;stop-opacity:0.1"/>
</linearGradient>
<rect y="267.4" class="st0" width="1915.2" height="288.8"/>
<linearGradient id="SVGID_00000156569905393707137660000010369102651826751364_" gradientUnits="userSpaceOnUse" x1="718.2401" y1="188.08" x2="-0.17" y2="188.08" gradientTransform="matrix(1 0 0 -1 0 412)">
	<stop  offset="0" style="stop-color:#EFEFEF;stop-opacity:0"/>
	<stop  offset="0.1518" style="stop-color:#FFFFFF;stop-opacity:0.1961"/>
	<stop  offset="0.3566" style="stop-color:#FFFFFF;stop-opacity:0.6"/>
	<stop  offset="1" style="stop-color:#FFFFFF"/>
</linearGradient>
<rect x="-0.2" y="38.4" style="fill:url(#SVGID_00000156569905393707137660000010369102651826751364_);" width="718.4" height="371"/>
<linearGradient id="SVGID_00000135674867048320343560000002560440122641512324_" gradientUnits="userSpaceOnUse" x1="1124.0818" y1="178.075" x2="403.3119" y2="178.075" gradientTransform="matrix(-1 0 0 -1 2321.1418 412)">
	<stop  offset="0" style="stop-color:#EFEFEF;stop-opacity:0"/>
	<stop  offset="0.1518" style="stop-color:#FFFFFF;stop-opacity:0.1961"/>
	<stop  offset="0.3566" style="stop-color:#FFFFFF;stop-opacity:0.6"/>
	<stop  offset="1" style="stop-color:#FFFFFF"/>
</linearGradient>
<polygon style="fill:url(#SVGID_00000135674867048320343560000002560440122641512324_);" points="1197.1,409.4 1917.8,409.4 
	1917.8,58.4 1197.1,58.4 "/>
<g>
	<g>
		<path class="st3" d="M819.2,239.7H769V104.5c0-14.6,0.6-30.7,1.9-48.4h-1.3c-2.6,13.9-5,23.9-7.1,29.9l-52.9,153.6H668L614.1,87.6
			c-1.5-4.1-3.8-14.6-7.1-31.5h-1.4c1.4,22.3,2,41.8,2,58.6v125h-45.8V13.8h74.5l46.2,133.9c3.7,10.7,6.3,21.5,8,32.3h1
			c2.8-12.5,5.8-23.4,9-32.6l46.1-133.6h72.6V239.7z"/>
		<path class="st3" d="M1015.5,173.2H910.3c1.7,23.4,16.4,35.1,44.3,35.1c17.8,0,33.3-4.2,46.8-12.6v35.9c-14.9,8-34.3,12-58.1,12
			c-26,0-46.3-7.2-60.7-21.7c-14.4-14.4-21.6-34.6-21.6-60.4c0-26.8,7.8-48,23.3-63.7c15.5-15.7,34.7-23.5,57.3-23.5
			c23.5,0,41.7,7,54.6,21s19.3,32.9,19.3,56.9L1015.5,173.2L1015.5,173.2z M969.4,142.6c0-23.1-9.3-34.7-28-34.7
			c-8,0-14.9,3.3-20.7,9.9s-9.4,14.9-10.6,24.7L969.4,142.6L969.4,142.6z"/>
		<path class="st3" d="M1306.2,239.7h-49.6v-92c0-23.4-8.6-35.1-25.8-35.1c-8.2,0-14.9,3.5-20,10.6c-5.2,7-7.7,15.8-7.7,26.3v90.3
			h-49.8v-93c0-22.8-8.5-34.2-25.4-34.2c-8.5,0-15.3,3.4-20.4,10.1c-5.1,6.7-7.6,15.9-7.6,27.4v89.6H1050V78.3h49.8v25.2h0.6
			c5.2-8.6,12.4-15.6,21.7-21c9.3-5.4,19.5-8.1,30.5-8.1c22.8,0,38.4,10,46.8,30.1c12.3-20.1,30.4-30.1,54.2-30.1
			c35.1,0,52.6,21.6,52.6,64.9L1306.2,239.7L1306.2,239.7z"/>
		<path class="st3" d="M1427.3,243.6c-26.9,0-48-7.5-63.4-22.6c-15.4-15.1-23.1-35.5-23.1-61.4c0-26.7,8-47.6,23.9-62.6
			s37.6-22.6,64.8-22.6c26.8,0,47.8,7.5,63,22.6c15.2,15.1,22.8,35,22.8,59.8c0,26.8-7.8,47.9-23.6,63.5
			C1476.1,235.9,1454.6,243.6,1427.3,243.6z M1428.6,112.5c-11.8,0-20.9,4-27.4,12.1c-6.5,8.1-9.8,19.5-9.8,34.3
			c0,31,12.5,46.5,37.5,46.5c23.8,0,35.8-15.9,35.8-47.7C1464.7,127.6,1452.6,112.5,1428.6,112.5z"/>
		<path class="st3" d="M1657.8,123.3c-6-3.3-13-4.9-21-4.9c-10.8,0-19.3,4-25.4,11.9s-9.1,18.7-9.1,32.4v77.1h-49.8V78.3h49.8v29.9
			h0.6c7.9-21.8,22.1-32.8,42.5-32.8c5.3,0,9.3,0.6,12.3,1.9L1657.8,123.3L1657.8,123.3z"/>
		<path class="st3" d="M1712.3,52.8c-8.4,0-15.3-2.5-20.6-7.5s-8-11.1-8-18.4c0-7.5,2.7-13.6,8-18.3s12.2-7.1,20.6-7.1
			c8.5,0,15.4,2.4,20.7,7.1c5.3,4.7,8,10.8,8,18.3c0,7.6-2.7,13.8-8,18.6C1727.7,50.4,1720.8,52.8,1712.3,52.8z M1736.8,239.7H1687
			V78.3h49.8V239.7z"/>
		<path class="st3" d="M1917.8,239.7h-47.1v-23.2h-0.6c-10.8,18.1-26.8,27.1-48.1,27.1c-15.7,0-28-4.4-36.9-13.3
			c-9-8.9-13.5-20.7-13.5-35.5c0-31.3,18.5-49.4,55.6-54.2l43.8-5.8c0-17.7-9.6-26.5-28.7-26.5c-19.2,0-37.5,5.7-54.8,17.2V88
			c6.9-3.6,16.4-6.7,28.4-9.4c12-2.7,23-4.1,32.8-4.1c46,0,69,23,69,68.9L1917.8,239.7L1917.8,239.7z M1871,174.1v-10.9l-29.3,3.8
			c-16.2,2.1-24.3,9.4-24.3,21.9c0,5.7,2,10.3,5.9,13.9c3.9,3.6,9.3,5.4,16,5.4c9.3,0,17-3.2,22.8-9.7
			C1868.1,192.2,1871,184,1871,174.1z"/>
	</g>
</g>
<g>
	<path class="st4" d="M32.7,386H-0.2v-69.7h7.4v62.3h25.5L32.7,386L32.7,386z"/>
	<path class="st4" d="M77.8,363.1H45.9c0.1,5.5,1.5,9.8,4.1,12.8c2.6,3,6.2,4.5,10.7,4.5c5.1,0,9.8-1.9,14.1-5.5v7.5
		c-4,3.2-9.2,4.8-15.8,4.8c-6.4,0-11.4-2.3-15.1-6.8s-5.5-10.9-5.5-19.1c0-7.7,2-14,6-18.9c4-4.9,9-7.3,14.9-7.3s10.5,2.1,13.7,6.3
		c3.2,4.2,4.9,10.1,4.9,17.5L77.8,363.1L77.8,363.1z M70.4,356.4c0-4.6-1-8.2-3-10.7s-4.8-3.8-8.3-3.8c-3.4,0-6.3,1.3-8.7,4
		c-2.4,2.7-3.9,6.2-4.4,10.5H70.4z"/>
	<path class="st4" d="M121,378.8h-0.2v30.1h-7.3v-72.6h7.3v8.8h0.2c3.6-6.6,8.8-9.9,15.6-9.9c5.8,0,10.4,2.2,13.6,6.7
		c3.3,4.5,4.9,10.4,4.9,17.9c0,8.3-1.8,15-5.5,20c-3.7,5-8.7,7.5-15.1,7.5C128.7,387.2,124.1,384.4,121,378.8z M120.8,358.8v7
		c0,4.1,1.2,7.6,3.6,10.5c2.4,2.9,5.5,4.3,9.3,4.3c4.4,0,7.8-1.9,10.3-5.5s3.7-8.8,3.7-15.4c0-5.5-1.2-9.9-3.5-13
		c-2.3-3.1-5.5-4.7-9.4-4.7c-4.2,0-7.6,1.6-10.2,4.8C122.1,349.9,120.8,353.9,120.8,358.8z"/>
	<path class="st4" d="M199.1,386h-7.3v-7.8h-0.2c-3.1,6-7.8,8.9-13.9,8.9c-4.5,0-8-1.3-10.6-3.9c-2.6-2.6-3.8-6.1-3.8-10.5
		c0-9.3,5-14.7,14.9-16.2l13.6-2.1c0-8.5-3.1-12.7-9.3-12.7c-5.4,0-10.4,2-14.8,6.1v-8.2c4.4-3.1,9.6-4.7,15.4-4.7
		c10.6,0,15.9,6.2,15.9,18.6L199.1,386L199.1,386z M191.9,360.8l-10.9,1.6c-3.4,0.5-5.9,1.4-7.6,2.8s-2.6,3.6-2.6,7
		c0,2.4,0.8,4.4,2.4,6c1.6,1.5,3.7,2.3,6.3,2.3c3.6,0,6.6-1.4,8.9-4.1s3.5-6.3,3.5-10.5L191.9,360.8L191.9,360.8z"/>
	<path class="st4" d="M233.8,385.5c-1.7,1-4,1.6-6.8,1.6c-7.9,0-11.9-4.9-11.9-14.6v-29.5h-7.8v-6.8h7.8v-12.2l7.3-2.6v14.7h11.4
		v6.8h-11.4v28c0,3.3,0.5,5.7,1.6,7.1c1,1.4,2.7,2.1,5.1,2.1c1.8,0,3.4-0.5,4.7-1.6L233.8,385.5L233.8,385.5z"/>
	<path class="st4" d="M267,344.3c-1.3-1.1-3.1-1.6-5.5-1.6c-3.1,0-5.7,1.6-7.8,4.8c-2.1,3.2-3.1,7.6-3.1,13.1V386h-7.3v-49.8h7.3
		v10.3h0.2c1-3.5,2.6-6.2,4.7-8.2s4.5-2.9,7.1-2.9c1.9,0,3.3,0.2,4.3,0.7L267,344.3L267,344.3z"/>
	<path class="st4" d="M278.6,323.6c-1.3,0-2.4-0.5-3.3-1.5s-1.4-2.2-1.4-3.7s0.5-2.7,1.4-3.7s2-1.5,3.3-1.5c1.3,0,2.5,0.5,3.4,1.5
		c0.9,1,1.4,2.2,1.4,3.7c0,1.4-0.5,2.6-1.4,3.6C281,323.1,279.9,323.6,278.6,323.6z M282.1,386h-7.3v-49.8h7.3V386z"/>
	<path class="st4" d="M361,386h-7.3v-28.6c0-5.5-0.8-9.5-2.3-12c-1.5-2.5-4.1-3.7-7.8-3.7c-3.1,0-5.7,1.5-7.9,4.7
		c-2.2,3.1-3.3,6.8-3.3,11.2V386h-7.3v-29.5c0-9.8-3.4-14.7-10.3-14.7c-3.2,0-5.8,1.5-7.9,4.4s-3.1,6.8-3.1,11.4V386h-7.3v-49.8h7.3
		v7.9h0.2c3.2-6,7.9-9,14-9c3.1,0,5.8,1,8.1,2.8c2.3,1.9,3.9,4.4,4.7,7.5c3.4-6.9,8.4-10.3,15-10.3c10,0,14.9,6.8,14.9,20.3L361,386
		L361,386z"/>
	<path class="st4" d="M393.6,387.2c-6.7,0-12-2.3-16-7c-4-4.6-6-10.8-6-18.5c0-8.4,2.1-14.9,6.2-19.6c4.1-4.7,9.8-7,16.8-7
		c6.7,0,12,2.3,15.8,6.9s5.7,10.9,5.7,19c0,7.9-2,14.3-6.1,19.1C406,384.8,400.5,387.2,393.6,387.2z M394.2,341.8
		c-4.6,0-8.3,1.7-11,5.2c-2.7,3.5-4.1,8.3-4.1,14.4c0,5.9,1.4,10.5,4.1,14c2.7,3.4,6.4,5.1,11,5.1c4.7,0,8.3-1.7,10.8-5
		s3.8-8.1,3.8-14.2c0-6.2-1.3-11-3.8-14.4C402.4,343.5,398.8,341.8,394.2,341.8z"/>
	<path class="st4" d="M431.4,323.6c-1.3,0-2.4-0.5-3.3-1.5s-1.4-2.2-1.4-3.7s0.5-2.7,1.4-3.7s2-1.5,3.3-1.5c1.3,0,2.5,0.5,3.4,1.5
		c0.9,1,1.4,2.2,1.4,3.7c0,1.4-0.5,2.6-1.4,3.6C433.9,323.1,432.8,323.6,431.4,323.6z M435,386h-7.3v-49.8h7.3V386z"/>
	<path class="st4" d="M487.2,386h-7.3v-28.4c0-10.6-3.5-15.8-10.5-15.8c-3.6,0-6.6,1.5-9,4.5s-3.6,6.8-3.6,11.4V386h-7.3v-49.8h7.3
		v8.3h0.2c3.4-6.3,8.4-9.4,14.8-9.4c5,0,8.7,1.8,11.4,5.3c2.6,3.5,3.9,8.6,3.9,15.2L487.2,386L487.2,386z"/>
	<path class="st4" d="M537.2,363.1h-31.9c0.1,5.5,1.5,9.8,4.1,12.8c2.6,3,6.2,4.5,10.7,4.5c5.1,0,9.8-1.9,14-5.5v7.5
		c-4,3.2-9.2,4.8-15.8,4.8c-6.4,0-11.4-2.3-15.1-6.8s-5.5-10.9-5.5-19.1c0-7.7,2-14,6-18.9c4-4.9,8.9-7.3,14.9-7.3
		c5.9,0,10.5,2.1,13.7,6.3c3.2,4.2,4.9,10.1,4.9,17.5L537.2,363.1L537.2,363.1z M529.8,356.4c0-4.6-1-8.2-3-10.7
		c-2-2.6-4.8-3.8-8.3-3.8c-3.4,0-6.3,1.3-8.7,4c-2.4,2.7-3.9,6.2-4.4,10.5H529.8z"/>
	<path class="st4" d="M609.3,363.1h-31.9c0.1,5.5,1.5,9.8,4.1,12.8c2.6,3,6.2,4.5,10.7,4.5c5.1,0,9.8-1.9,14-5.5v7.5
		c-4,3.2-9.2,4.8-15.8,4.8c-6.4,0-11.4-2.3-15.1-6.8s-5.5-10.9-5.5-19.1c0-7.7,2-14,6-18.9c4-4.9,9-7.3,14.9-7.3s10.5,2.1,13.7,6.3
		c3.2,4.2,4.9,10.1,4.9,17.5L609.3,363.1L609.3,363.1z M601.9,356.4c0-4.6-1-8.2-3-10.7c-2-2.6-4.8-3.8-8.3-3.8
		c-3.4,0-6.3,1.3-8.7,4c-2.4,2.7-3.9,6.2-4.4,10.5H601.9z M600.7,310.9l-11.6,15.9h-5.6l9.8-15.9H600.7z"/>
	<path class="st4" d="M651.1,383.7c-3.5,2.3-7.6,3.5-12.4,3.5c-6.5,0-11.7-2.3-15.6-6.9s-5.9-10.6-5.9-18c0-8.2,2.1-14.8,6.4-19.8
		c4.3-5,10-7.5,17.1-7.5c4,0,7.5,0.8,10.5,2.4v8.2c-3.4-2.6-7-3.9-10.8-3.9c-4.6,0-8.4,1.8-11.4,5.5c-3,3.6-4.4,8.4-4.4,14.4
		c0,5.8,1.4,10.4,4.2,13.8c2.8,3.4,6.5,5,11.2,5c4,0,7.7-1.4,11.1-4.3L651.1,383.7L651.1,383.7z"/>
	<path class="st4" d="M685.6,344.3c-1.3-1.1-3.1-1.6-5.5-1.6c-3.1,0-5.7,1.6-7.8,4.8c-2.1,3.2-3.1,7.6-3.1,13.1V386h-7.3v-49.8h7.3
		v10.3h0.2c1-3.5,2.6-6.2,4.7-8.2s4.5-2.9,7.1-2.9c1.9,0,3.3,0.2,4.3,0.7L685.6,344.3L685.6,344.3z"/>
	<path class="st4" d="M697.2,323.6c-1.3,0-2.4-0.5-3.3-1.5s-1.4-2.2-1.4-3.7s0.5-2.7,1.4-3.7s2-1.5,3.3-1.5c1.3,0,2.5,0.5,3.4,1.5
		c0.9,1,1.4,2.2,1.4,3.7c0,1.4-0.5,2.6-1.4,3.6C699.7,323.1,698.5,323.6,697.2,323.6z M700.8,386h-7.3v-49.8h7.3V386z"/>
	<path class="st4" d="M736.4,385.5c-1.7,1-4,1.6-6.8,1.6c-7.9,0-11.9-4.9-11.9-14.6v-29.5H710v-6.8h7.8v-12.2l7.3-2.6v14.7h11.4v6.8
		H725v28c0,3.3,0.5,5.7,1.5,7.1c1,1.4,2.7,2.1,5.1,2.1c1.8,0,3.4-0.5,4.7-1.6L736.4,385.5L736.4,385.5z"/>
	<path class="st4" d="M752.7,374.9l-7.1,23.9h-5.2l5.2-23.9H752.7z"/>
	<path class="st4" d="M787.7,384.2v-8.5c4,3.2,8.3,4.8,13,4.8c6.4,0,9.5-2.3,9.5-7c0-1.3-0.3-2.5-0.8-3.4c-0.5-0.9-1.3-1.7-2.2-2.5
		c-0.9-0.7-2-1.4-3.3-1.9s-2.6-1.2-4-1.8c-2-0.9-3.8-1.8-5.3-2.6c-1.5-0.9-2.8-1.9-3.8-3c-1-1.1-1.8-2.4-2.3-3.8
		c-0.5-1.4-0.8-3.1-0.8-5c0-2.3,0.5-4.4,1.5-6.2c1-1.8,2.3-3.3,3.9-4.5c1.6-1.2,3.5-2.1,5.5-2.8c2.1-0.6,4.2-0.9,6.4-0.9
		c3.9,0,7.4,0.8,10.5,2.2v8.1c-3.3-2.4-7.2-3.6-11.5-3.6c-1.4,0-2.6,0.2-3.7,0.5c-1.1,0.3-2,0.8-2.8,1.4c-0.8,0.6-1.4,1.4-1.8,2.2
		s-0.6,1.8-0.6,2.8c0,1.3,0.2,2.4,0.6,3.3c0.4,0.9,1,1.6,1.9,2.3c0.8,0.7,1.8,1.3,3,1.9c1.2,0.5,2.5,1.1,4,1.8
		c2,0.8,3.8,1.7,5.4,2.6s2.9,1.9,4.1,3c1.1,1.1,2,2.4,2.6,3.9c0.6,1.5,0.9,3.2,0.9,5.2c0,2.5-0.5,4.6-1.5,6.4s-2.3,3.3-4,4.5
		c-1.7,1.2-3.5,2.1-5.7,2.7c-2.2,0.6-4.4,0.9-6.8,0.9C795.2,387.2,791.2,386.2,787.7,384.2z"/>
	<path class="st4" d="M847.8,387.2c-6.7,0-12-2.3-16-7s-6-10.8-6-18.5c0-8.4,2.1-14.9,6.2-19.6c4.2-4.7,9.8-7,16.8-7
		c6.7,0,12,2.3,15.8,6.9c3.8,4.6,5.7,10.9,5.7,19c0,7.9-2,14.3-6.1,19.1C860.1,384.8,854.6,387.2,847.8,387.2z M848.3,341.8
		c-4.7,0-8.3,1.7-11,5.2c-2.7,3.5-4.1,8.3-4.1,14.4c0,5.9,1.4,10.5,4.1,14c2.7,3.4,6.4,5.1,11,5.1c4.7,0,8.3-1.7,10.8-5
		c2.5-3.3,3.8-8.1,3.8-14.2c0-6.2-1.3-11-3.8-14.4C856.6,343.5,853,341.8,848.3,341.8z"/>
	<path class="st4" d="M919.4,386h-7.3v-28.4c0-10.6-3.5-15.8-10.5-15.8c-3.6,0-6.6,1.5-9,4.5s-3.6,6.8-3.6,11.4V386h-7.3v-49.8h7.3
		v8.3h0.2c3.4-6.3,8.4-9.4,14.8-9.4c5,0,8.7,1.8,11.3,5.3c2.6,3.5,3.9,8.6,3.9,15.2L919.4,386L919.4,386z"/>
	<path class="st4" d="M952,387.2c-6.7,0-12-2.3-16-7s-6-10.8-6-18.5c0-8.4,2.1-14.9,6.2-19.6c4.2-4.7,9.8-7,16.8-7
		c6.7,0,12,2.3,15.8,6.9c3.8,4.6,5.7,10.9,5.7,19c0,7.9-2,14.3-6.1,19.1C964.3,384.8,958.8,387.2,952,387.2z M952.5,341.8
		c-4.7,0-8.3,1.7-11,5.2c-2.7,3.5-4.1,8.3-4.1,14.4c0,5.9,1.4,10.5,4.1,14c2.7,3.4,6.4,5.1,11,5.1c4.7,0,8.3-1.7,10.8-5
		c2.5-3.3,3.8-8.1,3.8-14.2c0-6.2-1.3-11-3.8-14.4C960.8,343.5,957.2,341.8,952.5,341.8z"/>
	<path class="st4" d="M1009.7,344.3c-1.3-1.1-3.1-1.6-5.5-1.6c-3.1,0-5.7,1.6-7.8,4.8c-2.1,3.2-3.1,7.6-3.1,13.1V386h-7.3v-49.8h7.3
		v10.3h0.2c1-3.5,2.6-6.2,4.7-8.2s4.5-2.9,7.1-2.9c1.9,0,3.3,0.2,4.3,0.7L1009.7,344.3L1009.7,344.3z"/>
	<path class="st4" d="M1053.9,363.1H1022c0.1,5.5,1.5,9.8,4.1,12.8c2.6,3,6.2,4.5,10.7,4.5c5.1,0,9.8-1.9,14.1-5.5v7.5
		c-4,3.2-9.2,4.8-15.8,4.8c-6.4,0-11.4-2.3-15.1-6.8s-5.5-10.9-5.5-19.1c0-7.7,2-14,6-18.9c4-4.9,9-7.3,14.9-7.3s10.5,2.1,13.7,6.3
		c3.2,4.2,4.9,10.1,4.9,17.5L1053.9,363.1L1053.9,363.1z M1046.5,356.4c0-4.6-1-8.2-3-10.7s-4.8-3.8-8.3-3.8c-3.4,0-6.3,1.3-8.7,4
		c-2.4,2.7-3.9,6.2-4.4,10.5H1046.5z"/>
	<path class="st4" d="M1126,363.1h-31.9c0.1,5.5,1.5,9.8,4.1,12.8c2.6,3,6.2,4.5,10.7,4.5c5.1,0,9.8-1.9,14.1-5.5v7.5
		c-4,3.2-9.2,4.8-15.8,4.8c-6.4,0-11.4-2.3-15.1-6.8s-5.5-10.9-5.5-19.1c0-7.7,2-14,6-18.9s8.9-7.3,14.9-7.3s10.5,2.1,13.7,6.3
		c3.2,4.2,4.9,10.1,4.9,17.5L1126,363.1L1126,363.1z M1118.6,356.4c0-4.6-1-8.2-3-10.7s-4.8-3.8-8.3-3.8c-3.4,0-6.3,1.3-8.7,4
		c-2.4,2.7-3.9,6.2-4.4,10.5H1118.6z"/>
	<path class="st4" d="M1157.9,385.5c-1.7,1-4,1.6-6.8,1.6c-7.9,0-11.9-4.9-11.9-14.6v-29.5h-7.8v-6.8h7.8v-12.2l7.3-2.6v14.7h11.4
		v6.8h-11.4v28c0,3.3,0.5,5.7,1.6,7.1c1,1.4,2.7,2.1,5.1,2.1c1.8,0,3.4-0.5,4.7-1.6L1157.9,385.5L1157.9,385.5z"/>
	<path class="st4" d="M1228,336.3l-18,49.8h-7.1l-17.1-49.8h7.9l11.5,36.1c0.8,2.7,1.4,5,1.6,7h0.2c0.3-2.5,0.8-4.8,1.4-6.8l12-36.4
		H1228z"/>
	<path class="st4" d="M1239.4,323.6c-1.3,0-2.4-0.5-3.3-1.5s-1.4-2.2-1.4-3.7s0.5-2.7,1.4-3.7s2-1.5,3.3-1.5c1.3,0,2.4,0.5,3.4,1.5
		c0.9,1,1.4,2.2,1.4,3.7c0,1.4-0.5,2.6-1.4,3.6C1241.9,323.1,1240.8,323.6,1239.4,323.6z M1243,386h-7.3v-49.8h7.3V386z"/>
	<path class="st4" d="M1254.9,384.2v-8.5c3.9,3.2,8.3,4.8,13,4.8c6.4,0,9.5-2.3,9.5-7c0-1.3-0.3-2.5-0.8-3.4s-1.3-1.7-2.2-2.5
		c-0.9-0.7-2-1.4-3.3-1.9s-2.6-1.2-4-1.8c-2-0.9-3.8-1.8-5.3-2.6c-1.5-0.9-2.8-1.9-3.8-3c-1-1.1-1.8-2.4-2.3-3.8
		c-0.5-1.4-0.8-3.1-0.8-5c0-2.3,0.5-4.4,1.5-6.2s2.3-3.3,3.9-4.5c1.6-1.2,3.5-2.1,5.5-2.8c2.1-0.6,4.2-0.9,6.4-0.9
		c3.9,0,7.4,0.8,10.5,2.2v8.1c-3.3-2.4-7.2-3.6-11.5-3.6c-1.3,0-2.6,0.2-3.7,0.5c-1.1,0.3-2,0.8-2.8,1.4c-0.8,0.6-1.4,1.4-1.8,2.2
		s-0.6,1.8-0.6,2.8c0,1.3,0.2,2.4,0.6,3.3s1.1,1.6,1.9,2.3c0.8,0.7,1.8,1.3,3,1.9c1.2,0.5,2.5,1.1,4,1.8c2,0.8,3.8,1.7,5.4,2.6
		s2.9,1.9,4.1,3c1.1,1.1,2,2.4,2.6,3.9c0.6,1.5,0.9,3.2,0.9,5.2c0,2.5-0.5,4.6-1.5,6.4s-2.3,3.3-3.9,4.5c-1.7,1.2-3.6,2.1-5.7,2.7
		s-4.4,0.9-6.8,0.9C1262.4,387.2,1258.3,386.2,1254.9,384.2z"/>
	<path class="st4" d="M1332.6,386h-7.3v-7.9h-0.2c-3,6-7.7,9-14,9c-10.8,0-16.2-7.1-16.2-21.2v-29.7h7.2v28.5
		c0,10.5,3.7,15.7,11,15.7c3.5,0,6.4-1.4,8.7-4.3c2.3-2.9,3.4-6.6,3.4-11.3v-28.7h7.3L1332.6,386L1332.6,386z"/>
	<path class="st4" d="M1383.6,363.1h-31.9c0.1,5.5,1.5,9.8,4.1,12.8c2.6,3,6.2,4.5,10.7,4.5c5.1,0,9.8-1.9,14.1-5.5v7.5
		c-4,3.2-9.2,4.8-15.8,4.8c-6.4,0-11.4-2.3-15.1-6.8s-5.5-10.9-5.5-19.1c0-7.7,2-14,6-18.9s8.9-7.3,14.9-7.3s10.5,2.1,13.7,6.3
		c3.2,4.2,4.9,10.1,4.9,17.5L1383.6,363.1L1383.6,363.1z M1376.2,356.4c0-4.6-1-8.2-3-10.7s-4.8-3.8-8.3-3.8c-3.4,0-6.3,1.3-8.7,4
		c-2.4,2.7-3.9,6.2-4.4,10.5H1376.2z"/>
	<path class="st4" d="M1401.8,386h-7.3v-73.7h7.3V386z"/>
	<path class="st4" d="M1463.6,319.3c-1.4-0.9-3-1.3-4.8-1.3c-5.1,0-7.6,3.5-7.6,10.5v7.7h10.6v6.8h-10.6v43h-7.2v-43h-7.7v-6.8h7.7
		v-8.1c0-5.2,1.4-9.3,4.1-12.4s6.2-4.5,10.3-4.5c2.2,0,4,0.3,5.3,0.9L1463.6,319.3L1463.6,319.3z"/>
	<path class="st4" d="M1493.2,344.3c-1.3-1.1-3.1-1.6-5.5-1.6c-3.1,0-5.7,1.6-7.8,4.8c-2.1,3.2-3.1,7.6-3.1,13.1V386h-7.3v-49.8h7.3
		v10.3h0.2c1-3.5,2.6-6.2,4.7-8.2s4.5-2.9,7.1-2.9c1.9,0,3.3,0.2,4.3,0.7L1493.2,344.3L1493.2,344.3z"/>
	<path class="st4" d="M1504.7,323.6c-1.3,0-2.4-0.5-3.3-1.5s-1.4-2.2-1.4-3.7s0.5-2.7,1.4-3.7s2-1.5,3.3-1.5c1.3,0,2.4,0.5,3.4,1.5
		c0.9,1,1.4,2.2,1.4,3.7c0,1.4-0.5,2.6-1.4,3.6C1507.2,323.1,1506.1,323.6,1504.7,323.6z M1508.3,386h-7.3v-49.8h7.3V386z"/>
	<path class="st4" d="M1530.4,378.8h-0.2v7.2h-7.3v-73.7h7.3V345h0.2c3.6-6.6,8.8-9.9,15.6-9.9c5.8,0,10.3,2.2,13.6,6.7
		c3.3,4.5,4.9,10.4,4.9,17.9c0,8.3-1.8,15-5.5,20s-8.7,7.5-15.1,7.5C1537.9,387.2,1533.4,384.4,1530.4,378.8z M1530.2,358.8v7
		c0,4.1,1.2,7.6,3.6,10.5c2.4,2.9,5.5,4.3,9.3,4.3c4.4,0,7.8-1.9,10.3-5.5s3.7-8.8,3.7-15.4c0-5.5-1.2-9.9-3.5-13
		c-2.3-3.1-5.5-4.7-9.4-4.7c-4.2,0-7.6,1.6-10.2,4.8C1531.5,349.9,1530.2,353.9,1530.2,358.8z"/>
	<path class="st4" d="M1595,387.2c-6.7,0-12-2.3-16-7s-6-10.8-6-18.5c0-8.4,2.1-14.9,6.2-19.6c4.2-4.7,9.8-7,16.8-7
		c6.7,0,12,2.3,15.8,6.9s5.7,10.9,5.7,19c0,7.9-2,14.3-6.1,19.1C1607.4,384.8,1601.9,387.2,1595,387.2z M1595.6,341.8
		c-4.7,0-8.3,1.7-11,5.2c-2.7,3.5-4.1,8.3-4.1,14.4c0,5.9,1.4,10.5,4.1,14c2.7,3.4,6.4,5.1,11,5.1c4.7,0,8.3-1.7,10.8-5
		s3.8-8.1,3.8-14.2c0-6.2-1.3-11-3.8-14.4C1603.8,343.5,1600.3,341.8,1595.6,341.8z"/>
	<path class="st4" d="M1665.7,386h-7.3v-7.9h-0.2c-3,6-7.7,9-14,9c-10.8,0-16.2-7.1-16.2-21.2v-29.7h7.2v28.5
		c0,10.5,3.7,15.7,11,15.7c3.5,0,6.4-1.4,8.7-4.3c2.3-2.9,3.4-6.6,3.4-11.3v-28.7h7.3L1665.7,386L1665.7,386z"/>
	<path class="st4" d="M1703.9,344.3c-1.3-1.1-3.1-1.6-5.5-1.6c-3.1,0-5.7,1.6-7.8,4.8c-2.1,3.2-3.1,7.6-3.1,13.1V386h-7.3v-49.8h7.3
		v10.3h0.2c1-3.5,2.6-6.2,4.7-8.2s4.5-2.9,7.1-2.9c1.9,0,3.3,0.2,4.3,0.7L1703.9,344.3L1703.9,344.3z"/>
	<path class="st4" d="M1750.4,382c0,18.3-7.9,27.4-23.9,27.4c-5.6,0-10.5-1.2-14.7-3.5v-8c5.1,3.1,9.9,4.7,14.6,4.7
		c11.1,0,16.7-6.5,16.7-19.5v-5.4h-0.2c-3.4,6.4-8.6,9.5-15.6,9.5c-5.6,0-10.2-2.2-13.6-6.6c-3.4-4.4-5.2-10.4-5.2-17.8
		c0-8.5,1.8-15.2,5.5-20.2c3.7-5,8.8-7.5,15.2-7.5c6.1,0,10.6,2.7,13.6,8.1h0.2v-6.9h7.3L1750.4,382L1750.4,382z M1743.2,363.5v-7.3
		c0-4-1.2-7.3-3.6-10.2s-5.5-4.2-9.1-4.2c-4.5,0-8,1.8-10.5,5.4s-3.8,8.6-3.8,15c0,5.5,1.2,10,3.6,13.3s5.7,5,9.7,5
		c4.1,0,7.4-1.6,9.9-4.8C1741.9,372.5,1743.2,368.5,1743.2,363.5z"/>
	<path class="st4" d="M1801.4,363.1h-31.9c0.1,5.5,1.5,9.8,4.1,12.8c2.6,3,6.2,4.5,10.7,4.5c5.1,0,9.8-1.9,14.1-5.5v7.5
		c-4,3.2-9.2,4.8-15.8,4.8c-6.4,0-11.4-2.3-15.1-6.8s-5.5-10.9-5.5-19.1c0-7.7,2-14,6-18.9s8.9-7.3,14.9-7.3s10.5,2.1,13.7,6.3
		c3.2,4.2,4.9,10.1,4.9,17.5L1801.4,363.1L1801.4,363.1z M1794,356.4c0-4.6-1-8.2-3-10.7s-4.8-3.8-8.3-3.8c-3.4,0-6.3,1.3-8.7,4
		c-2.4,2.7-3.9,6.2-4.4,10.5H1794z"/>
	<path class="st4" d="M1831.3,387.2c-6.7,0-12-2.3-16-7s-6-10.8-6-18.5c0-8.4,2.1-14.9,6.2-19.6c4.2-4.7,9.8-7,16.8-7
		c6.7,0,12,2.3,15.8,6.9s5.7,10.9,5.7,19c0,7.9-2,14.3-6.1,19.1C1843.6,384.8,1838.2,387.2,1831.3,387.2z M1831.8,341.8
		c-4.7,0-8.3,1.7-11,5.2c-2.7,3.5-4.1,8.3-4.1,14.4c0,5.9,1.4,10.5,4.1,14c2.7,3.4,6.4,5.1,11,5.1c4.7,0,8.3-1.7,10.8-5
		s3.8-8.1,3.8-14.2c0-6.2-1.3-11-3.8-14.4C1840.1,343.5,1836.5,341.8,1831.8,341.8z"/>
	<path class="st4" d="M1869.1,323.6c-1.3,0-2.4-0.5-3.3-1.5s-1.4-2.2-1.4-3.7s0.5-2.7,1.4-3.7s2-1.5,3.3-1.5c1.3,0,2.4,0.5,3.4,1.5
		c0.9,1,1.4,2.2,1.4,3.7c0,1.4-0.5,2.6-1.4,3.6C1871.6,323.1,1870.4,323.6,1869.1,323.6z M1872.7,386h-7.3v-49.8h7.3V386z"/>
	<path class="st4" d="M1884.6,384.2v-8.5c3.9,3.2,8.3,4.8,13,4.8c6.4,0,9.5-2.3,9.5-7c0-1.3-0.3-2.5-0.8-3.4s-1.3-1.7-2.2-2.5
		c-0.9-0.7-2-1.4-3.3-1.9s-2.6-1.2-4-1.8c-2-0.9-3.8-1.8-5.3-2.6c-1.5-0.9-2.8-1.9-3.8-3c-1-1.1-1.8-2.4-2.3-3.8
		c-0.5-1.4-0.8-3.1-0.8-5c0-2.3,0.5-4.4,1.5-6.2s2.3-3.3,3.9-4.5c1.6-1.2,3.5-2.1,5.5-2.8c2.1-0.6,4.2-0.9,6.4-0.9
		c3.9,0,7.4,0.8,10.5,2.2v8.1c-3.3-2.4-7.2-3.6-11.5-3.6c-1.3,0-2.6,0.2-3.7,0.5c-1.1,0.3-2,0.8-2.8,1.4c-0.8,0.6-1.4,1.4-1.8,2.2
		s-0.6,1.8-0.6,2.8c0,1.3,0.2,2.4,0.6,3.3s1.1,1.6,1.9,2.3c0.8,0.7,1.8,1.3,3,1.9c1.2,0.5,2.5,1.1,4,1.8c2,0.8,3.8,1.7,5.4,2.6
		s2.9,1.9,4.1,3c1.1,1.1,2,2.4,2.6,3.9c0.6,1.5,0.9,3.2,0.9,5.2c0,2.5-0.5,4.6-1.5,6.4s-2.3,3.3-3.9,4.5c-1.7,1.2-3.6,2.1-5.7,2.7
		s-4.4,0.9-6.8,0.9C1892,387.2,1888,386.2,1884.6,384.2z"/>
</g>
<g>
	<path class="st4" d="M131,55.2H51.3v55.5h73.3v41.3H51.3v87.8H0.4V13.8H131V55.2z"/>
	<path class="st4" d="M273.4,123.3c-6-3.3-13-4.9-21-4.9c-10.8,0-19.3,4-25.4,11.9S218,149,218,162.7v77.1h-49.8V78.3H218v29.9h0.6
		c7.9-21.8,22.1-32.8,42.5-32.8c5.3,0,9.4,0.6,12.3,1.9L273.4,123.3L273.4,123.3z"/>
	<path class="st4" d="M327.9,52.8c-8.4,0-15.3-2.5-20.6-7.5s-8-11.1-8-18.4c0-7.5,2.7-13.6,8-18.3c5.4-4.7,12.2-7.1,20.6-7.1
		c8.5,0,15.4,2.4,20.7,7.1c5.3,4.7,8,10.8,8,18.3c0,7.6-2.6,13.8-8,18.6C343.3,50.4,336.4,52.8,327.9,52.8z M352.5,239.7h-49.8V78.3
		h49.8L352.5,239.7L352.5,239.7z"/>
	<path class="st4" d="M503.1,171H417v-34.8h86.2V171z"/>
</g>
</svg>
