<?xml version="1.0" encoding="utf-8"?>
<!-- Generator: Adobe Illustrator 26.0.2, SVG Export Plug-In . SVG Version: 6.00 Build 0)  -->
<svg version="1.1" id="Calque_1" xmlns="http://www.w3.org/2000/svg" xmlns:xlink="http://www.w3.org/1999/xlink" x="0px" y="0px"
	 viewBox="0 0 621.81 108.83" style="enable-background:new 0 0 621.81 108.83;" xml:space="preserve">
<style type="text/css">
	.st0{fill:#333333;}
	.st1{fill:#93278F;}
</style>
<g>
	<g>
		<path class="st0" d="M38.53,13.33H15.11v16.3h21.53v12.13H15.11v25.79H0.15V1.16h38.38V13.33z"/>
		<path class="st0" d="M105.15,67.55H87.98L77.65,50.46c-0.77-1.3-1.51-2.45-2.22-3.47c-0.71-1.02-1.43-1.89-2.15-2.62
			c-0.73-0.72-1.48-1.28-2.27-1.67c-0.79-0.39-1.64-0.58-2.57-0.58h-4.03v25.42H49.46V1.16h23.7c16.11,0,24.17,6.02,24.17,18.06
			c0,2.31-0.36,4.45-1.06,6.41c-0.71,1.96-1.71,3.73-3.01,5.3s-2.86,2.93-4.7,4.07c-1.84,1.14-3.88,2.04-6.13,2.69v0.19
			c0.99,0.31,1.94,0.81,2.87,1.5c0.93,0.69,1.82,1.5,2.69,2.43c0.86,0.93,1.69,1.92,2.48,2.99c0.79,1.06,1.5,2.11,2.15,3.13
			L105.15,67.55z M64.41,12.36v18.47h6.48c3.21,0,5.79-0.93,7.73-2.78c1.97-1.88,2.96-4.21,2.96-6.99c0-5.8-3.47-8.7-10.42-8.7
			H64.41z"/>
		<path class="st0" d="M126.31,67.55h-14.95V1.16h14.95V67.55z"/>
		<path class="st1" d="M243.21,67.55h-14.77V27.82c0-4.29,0.19-9.03,0.56-14.21h-0.37c-0.77,4.07-1.47,7.01-2.08,8.8l-15.55,45.14
			h-12.22l-15.83-44.68c-0.43-1.2-1.13-4.29-2.08-9.26h-0.42c0.4,6.54,0.6,12.28,0.6,17.22v36.71h-13.47V1.16h21.9l13.57,39.35
			c1.08,3.15,1.87,6.31,2.36,9.49h0.28c0.83-3.67,1.71-6.87,2.64-9.58l13.56-39.26h21.34V67.55z"/>
		<path class="st1" d="M298.11,67.55H258.3V1.16h38.29v12.18h-23.33V28.1h21.71v12.13h-21.71v15.19h24.86V67.55z"/>
		<path class="st1" d="M384.41,67.55h-14.77V27.82c0-4.29,0.19-9.03,0.56-14.21h-0.37c-0.77,4.07-1.47,7.01-2.08,8.8l-15.55,45.14
			h-12.22l-15.83-44.68c-0.43-1.2-1.13-4.29-2.08-9.26h-0.42c0.4,6.54,0.6,12.28,0.6,17.22v36.71h-13.47V1.16h21.9l13.57,39.35
			c1.08,3.15,1.87,6.31,2.36,9.49h0.28c0.83-3.67,1.71-6.87,2.64-9.58l13.56-39.26h21.34V67.55z"/>
		<path class="st1" d="M427.56,68.7c-9.51,0-17.25-3.09-23.24-9.28c-5.99-6.19-8.98-14.25-8.98-24.19c0-10.49,3.04-18.98,9.12-25.46
			s14.14-9.72,24.17-9.72c9.47,0,17.14,3.1,22.99,9.31c5.85,6.2,8.77,14.38,8.77,24.54c0,10.43-3.03,18.84-9.1,25.23
			C445.22,65.51,437.31,68.7,427.56,68.7z M428.21,12.92c-5.25,0-9.41,1.97-12.5,5.9s-4.63,9.14-4.63,15.63
			c0,6.57,1.54,11.77,4.63,15.6c3.09,3.83,7.13,5.74,12.13,5.74c5.15,0,9.24-1.86,12.27-5.58c3.02-3.72,4.54-8.88,4.54-15.49
			c0-6.88-1.47-12.24-4.4-16.06C437.31,14.83,433.3,12.92,428.21,12.92z"/>
		<path class="st1" d="M527.1,67.55h-17.18L499.6,50.46c-0.77-1.3-1.51-2.45-2.22-3.47c-0.71-1.02-1.43-1.89-2.15-2.62
			c-0.73-0.72-1.48-1.28-2.27-1.67c-0.79-0.39-1.64-0.58-2.57-0.58h-4.03v25.42H471.4V1.16h23.7c16.11,0,24.17,6.02,24.17,18.06
			c0,2.31-0.36,4.45-1.07,6.41s-1.71,3.73-3.01,5.3s-2.86,2.93-4.7,4.07c-1.84,1.14-3.88,2.04-6.13,2.69v0.19
			c0.99,0.31,1.94,0.81,2.87,1.5c0.93,0.69,1.82,1.5,2.69,2.43c0.86,0.93,1.69,1.92,2.48,2.99c0.79,1.06,1.5,2.11,2.15,3.13
			L527.1,67.55z M486.35,12.36v18.47h6.48c3.21,0,5.79-0.93,7.73-2.78c1.97-1.88,2.96-4.21,2.96-6.99c0-5.8-3.47-8.7-10.42-8.7
			H486.35z"/>
		<path class="st1" d="M548.25,67.55H533.3V1.16h14.95V67.55z"/>
		<path class="st1" d="M621.72,67.55h-16.3l-4.72-14.77H577.1l-4.68,14.77h-16.2l24.17-66.39h17.73L621.72,67.55z M597.28,41.3
			l-7.13-22.31c-0.53-1.67-0.9-3.66-1.11-5.97h-0.37c-0.15,1.94-0.54,3.87-1.16,5.79l-7.22,22.5H597.28z"/>
	</g>
</g>
<g>
	<path class="st0" d="M0.35,105.97V84.74H6.3c1.81,0,3.24,0.45,4.3,1.35c1.06,0.9,1.59,2.07,1.59,3.51c0,1.2-0.32,2.25-0.96,3.14
		s-1.53,1.52-2.66,1.9v0.06c1.41,0.17,2.54,0.71,3.38,1.62c0.85,0.91,1.27,2.1,1.27,3.56c0,1.82-0.64,3.29-1.93,4.41
		c-1.28,1.13-2.9,1.69-4.86,1.69H0.35z M2.8,86.99v6.86H5.3c1.34,0,2.4-0.33,3.17-0.98c0.77-0.66,1.15-1.58,1.15-2.78
		c0-2.06-1.34-3.1-4.01-3.1H2.8z M2.8,96.08v7.64h3.33c1.44,0,2.55-0.35,3.35-1.04c0.79-0.69,1.19-1.64,1.19-2.84
		c0-2.51-1.68-3.76-5.05-3.76H2.8z"/>
	<path class="st0" d="M19.98,105.97h-2.45V84.74h2.45V105.97z"/>
	<path class="st0" d="M25.54,105.97V84.74h5.95c1.81,0,3.24,0.45,4.3,1.35c1.06,0.9,1.59,2.07,1.59,3.51c0,1.2-0.32,2.25-0.96,3.14
		s-1.53,1.52-2.66,1.9v0.06c1.41,0.17,2.54,0.71,3.38,1.62c0.85,0.91,1.27,2.1,1.27,3.56c0,1.82-0.64,3.29-1.93,4.41
		c-1.28,1.13-2.9,1.69-4.86,1.69H25.54z M27.99,86.99v6.86h2.51c1.34,0,2.4-0.33,3.17-0.98c0.77-0.66,1.15-1.58,1.15-2.78
		c0-2.06-1.34-3.1-4.01-3.1H27.99z M27.99,96.08v7.64h3.33c1.44,0,2.55-0.35,3.35-1.04c0.79-0.69,1.19-1.64,1.19-2.84
		c0-2.51-1.68-3.76-5.05-3.76H27.99z"/>
	<path class="st0" d="M53.57,105.97H42.72V84.74h2.45v18.99h8.4V105.97z"/>
	<path class="st0" d="M59.29,105.97h-2.45V84.74h2.45V105.97z"/>
	<path class="st0" d="M73.28,106.33c-2.97,0-5.34-0.99-7.13-2.98c-1.79-1.98-2.68-4.57-2.68-7.75c0-3.42,0.91-6.14,2.73-8.18
		c1.82-2.03,4.29-3.05,7.42-3.05c2.89,0,5.21,0.99,6.98,2.96c1.76,1.98,2.65,4.56,2.65,7.75c0,3.47-0.9,6.21-2.71,8.22
		C78.73,105.32,76.31,106.33,73.28,106.33z M73.46,86.63c-2.2,0-3.98,0.8-5.35,2.41c-1.37,1.61-2.06,3.72-2.06,6.34
		s0.67,4.72,2,6.32c1.34,1.59,3.08,2.39,5.23,2.39c2.29,0,4.1-0.76,5.43-2.28c1.32-1.52,1.98-3.65,1.98-6.38
		c0-2.8-0.64-4.97-1.93-6.5C77.48,87.4,75.71,86.63,73.46,86.63z"/>
	<path class="st0" d="M99.8,86.99h-6.04v18.99h-2.45V86.99h-6.02v-2.25H99.8V86.99z"/>
	<path class="st0" d="M118.86,105.97h-2.45v-9.69h-10.82v9.69h-2.45V84.74h2.45v9.32h10.82v-9.32h2.45V105.97z"/>
	<path class="st0" d="M135.49,105.97h-11.08V84.74h10.62v2.25h-8.17v7.06h7.56v2.24h-7.56v7.43h8.63V105.97z M131.92,82.78h-1.85
		l-3.82-4.86h2.45L131.92,82.78z"/>
	<path class="st0" d="M148.01,106.33c-2.96,0-5.33-0.99-7.13-2.98c-1.78-1.98-2.67-4.57-2.67-7.75c0-3.43,0.91-6.15,2.73-8.18
		c1.83-2.03,4.3-3.05,7.42-3.05c2.88,0,5.2,0.99,6.97,2.96c1.77,1.98,2.65,4.56,2.65,7.75c0,3.47-0.9,6.21-2.71,8.22
		c-0.43,0.48-0.88,0.9-1.37,1.24l5.88,4.28h-4.45l-3.94-2.99C150.36,106.17,149.23,106.33,148.01,106.33z M148.18,86.63
		c-2.2,0-3.98,0.8-5.35,2.41c-1.37,1.61-2.06,3.72-2.06,6.34c0,2.61,0.67,4.71,2,6.32c1.34,1.59,3.09,2.38,5.24,2.38
		c2.29,0,4.1-0.76,5.43-2.28c1.32-1.52,1.98-3.65,1.98-6.38c0-2.81-0.64-4.98-1.93-6.5C152.21,87.4,150.44,86.63,148.18,86.63z"/>
	<path class="st0" d="M177.46,97.38c0,5.96-2.65,8.95-7.95,8.95c-5.08,0-7.61-2.87-7.61-8.6V84.74h2.45v12.83
		c0,4.35,1.81,6.53,5.43,6.53c3.49,0,5.24-2.1,5.24-6.31V84.74h2.45V97.38z"/>
	<path class="st0" d="M193.82,105.97h-11.08V84.74h10.62v2.25h-8.17v7.06h7.56v2.24h-7.56v7.43h8.63V105.97z"/>
	<path class="st0" d="M220.38,105.09c-1.55,0.83-3.47,1.24-5.78,1.24c-2.97,0-5.36-0.97-7.15-2.92c-1.79-1.94-2.68-4.5-2.68-7.66
		c0-3.4,1.01-6.14,3.02-8.23c2.01-2.09,4.56-3.14,7.66-3.14c1.98,0,3.63,0.29,4.93,0.87v2.65c-1.5-0.85-3.15-1.27-4.96-1.27
		c-2.4,0-4.35,0.81-5.84,2.44s-2.24,3.81-2.24,6.53c0,2.59,0.7,4.65,2.09,6.18c1.39,1.54,3.23,2.3,5.49,2.3
		c2.1,0,3.92-0.47,5.46-1.42V105.09z"/>
	<path class="st0" d="M240.89,105.97h-2.71l-2.22-5.95h-8.87l-2.08,5.95h-2.73l8.02-21.24h2.54L240.89,105.97z M235.16,97.78
		l-3.28-9.05c-0.11-0.3-0.21-0.77-0.32-1.42h-0.06c-0.1,0.6-0.21,1.08-0.34,1.42l-3.25,9.05H235.16z"/>
	<path class="st0" d="M260.89,105.97h-3l-10.76-16.93c-0.27-0.42-0.5-0.87-0.67-1.33h-0.09c0.08,0.45,0.12,1.43,0.12,2.92v15.34
		h-2.45V84.74h3.18l10.47,16.66c0.44,0.69,0.72,1.17,0.85,1.42h0.06c-0.1-0.61-0.15-1.65-0.15-3.13V84.74h2.45V105.97z"/>
	<path class="st0" d="M278.8,86.99h-6.04v18.99h-2.45V86.99h-6.02v-2.25h14.51V86.99z"/>
	<path class="st0" d="M290.58,106.33c-2.97,0-5.34-0.99-7.13-2.98c-1.79-1.98-2.68-4.57-2.68-7.75c0-3.42,0.91-6.14,2.73-8.18
		c1.82-2.03,4.29-3.05,7.42-3.05c2.89,0,5.21,0.99,6.98,2.96c1.76,1.98,2.65,4.56,2.65,7.75c0,3.47-0.9,6.21-2.71,8.22
		C296.03,105.32,293.61,106.33,290.58,106.33z M290.75,86.63c-2.2,0-3.98,0.8-5.35,2.41c-1.37,1.61-2.06,3.72-2.06,6.34
		s0.67,4.72,2,6.32c1.34,1.59,3.08,2.39,5.23,2.39c2.29,0,4.1-0.76,5.43-2.28c1.32-1.52,1.98-3.65,1.98-6.38
		c0-2.8-0.64-4.97-1.93-6.5C294.78,87.4,293.01,86.63,290.75,86.63z"/>
	<path class="st0" d="M321.58,105.97h-3l-10.76-16.93c-0.27-0.42-0.5-0.87-0.67-1.33h-0.09c0.08,0.45,0.12,1.43,0.12,2.92v15.34
		h-2.45V84.74h3.18l10.47,16.66c0.44,0.69,0.72,1.17,0.85,1.42h0.06c-0.1-0.61-0.15-1.65-0.15-3.13V84.74h2.45V105.97z"/>
	<path class="st0" d="M343.32,105.97h-2.71l-2.22-5.95h-8.87l-2.08,5.95h-2.73l8.02-21.24h2.54L343.32,105.97z M337.59,97.78
		l-3.28-9.05c-0.11-0.3-0.21-0.77-0.32-1.42h-0.06c-0.1,0.6-0.21,1.08-0.34,1.42l-3.25,9.05H337.59z"/>
	<path class="st0" d="M357.31,105.97h-10.85V84.74h2.45v18.99h8.4V105.97z"/>
	<path class="st0" d="M371.66,105.97h-11.08V84.74h10.62v2.25h-8.17v7.06h7.56v2.24h-7.56v7.43h8.63V105.97z"/>
	<path class="st0" d="M395.07,105.97h-11.08V84.74h10.62v2.25h-8.17v7.06h7.56v2.24h-7.56v7.43h8.63V105.97z"/>
	<path class="st0" d="M411.53,86.99h-6.04v18.99h-2.45V86.99h-6.02v-2.25h14.51V86.99z"/>
	<path class="st0" d="M438.41,97.38c0,5.96-2.65,8.95-7.95,8.95c-5.08,0-7.61-2.87-7.61-8.6V84.74h2.45v12.83
		c0,4.35,1.81,6.53,5.43,6.53c3.49,0,5.24-2.1,5.24-6.31V84.74h2.45V97.38z"/>
	<path class="st0" d="M460.55,105.97h-3l-10.76-16.93c-0.27-0.42-0.5-0.87-0.67-1.33h-0.09c0.08,0.45,0.12,1.43,0.12,2.92v15.34
		h-2.45V84.74h3.18l10.47,16.66c0.44,0.69,0.72,1.17,0.85,1.42h0.06c-0.1-0.61-0.15-1.65-0.15-3.13V84.74h2.45V105.97z"/>
	<path class="st0" d="M468.55,105.97h-2.45V84.74h2.45V105.97z"/>
	<path class="st0" d="M489.65,84.74l-7.75,21.24h-2.7l-7.58-21.24h2.73l5.79,16.84c0.18,0.54,0.33,1.17,0.42,1.88h0.06
		c0.08-0.59,0.24-1.23,0.48-1.91l5.91-16.81H489.65z"/>
	<path class="st0" d="M503.8,105.97h-11.08V84.74h10.62v2.25h-8.17v7.06h7.56v2.24h-7.56v7.43h8.63V105.97z"/>
	<path class="st0" d="M522.88,105.97h-2.92l-3.5-5.95c-0.32-0.55-0.63-1.02-0.93-1.41s-0.61-0.71-0.93-0.96
		c-0.32-0.25-0.66-0.43-1.02-0.54c-0.36-0.11-0.78-0.17-1.23-0.17h-2.01v9.03h-2.45V84.74h6.24c0.91,0,1.76,0.12,2.53,0.35
		c0.77,0.23,1.44,0.58,2.01,1.06c0.57,0.47,1.01,1.06,1.33,1.77c0.32,0.71,0.48,1.53,0.48,2.48c0,0.74-0.11,1.42-0.33,2.04
		s-0.53,1.17-0.93,1.65s-0.89,0.9-1.46,1.24c-0.57,0.34-1.21,0.6-1.92,0.79v0.06c0.35,0.16,0.65,0.34,0.91,0.54
		c0.26,0.2,0.5,0.44,0.74,0.72c0.23,0.28,0.46,0.59,0.69,0.94c0.23,0.35,0.48,0.76,0.77,1.22L522.88,105.97z M510.34,86.99v7.7h3.33
		c0.61,0,1.18-0.09,1.7-0.28c0.52-0.19,0.97-0.46,1.35-0.81c0.38-0.35,0.68-0.78,0.89-1.29c0.21-0.51,0.32-1.08,0.32-1.71
		c0-1.14-0.36-2.02-1.09-2.66c-0.72-0.64-1.77-0.96-3.14-0.96H510.34z"/>
	<path class="st0" d="M524.84,105.12v-2.93c0.33,0.3,0.73,0.56,1.19,0.8c0.46,0.24,0.95,0.44,1.46,0.6
		c0.51,0.16,1.02,0.29,1.54,0.38c0.51,0.09,0.99,0.13,1.43,0.13c1.51,0,2.63-0.28,3.38-0.85c0.74-0.57,1.12-1.38,1.12-2.45
		c0-0.57-0.12-1.07-0.37-1.5c-0.25-0.42-0.59-0.81-1.03-1.16c-0.44-0.35-0.96-0.69-1.55-1.01s-1.24-0.66-1.93-1.01
		c-0.73-0.38-1.41-0.76-2.04-1.14c-0.63-0.39-1.18-0.81-1.65-1.27c-0.47-0.46-0.83-0.99-1.1-1.58s-0.4-1.28-0.4-2.07
		c0-0.97,0.21-1.81,0.63-2.52s0.97-1.31,1.65-1.77c0.68-0.46,1.46-0.81,2.33-1.04s1.76-0.34,2.66-0.34c2.06,0,3.56,0.25,4.51,0.76
		v2.8c-1.24-0.87-2.82-1.3-4.75-1.3c-0.54,0-1.07,0.06-1.6,0.17c-0.54,0.11-1.01,0.3-1.43,0.56s-0.76,0.59-1.02,0.99
		s-0.39,0.9-0.39,1.48c0,0.54,0.1,1.01,0.3,1.41c0.2,0.4,0.49,0.76,0.88,1.08c0.39,0.33,0.86,0.64,1.42,0.95
		c0.56,0.31,1.2,0.64,1.93,1.01c0.75,0.38,1.46,0.77,2.13,1.18c0.67,0.42,1.26,0.87,1.76,1.38c0.51,0.5,0.91,1.06,1.2,1.67
		c0.3,0.61,0.44,1.31,0.44,2.1c0,1.05-0.2,1.93-0.61,2.66s-0.95,1.32-1.63,1.77c-0.69,0.45-1.48,0.78-2.37,0.98s-1.84,0.3-2.83,0.3
		c-0.33,0-0.74-0.03-1.23-0.08s-0.98-0.13-1.49-0.24s-0.98-0.23-1.44-0.39C525.47,105.47,525.11,105.3,524.84,105.12z"/>
	<path class="st0" d="M544.19,105.97h-2.45V84.74h2.45V105.97z"/>
	<path class="st0" d="M562.12,86.99h-6.04v18.99h-2.45V86.99h-6.02v-2.25h14.51V86.99z"/>
	<path class="st0" d="M581.65,105.97h-2.71l-2.22-5.95h-8.87l-2.08,5.95h-2.73l8.02-21.24h2.54L581.65,105.97z M575.92,97.78
		l-3.28-9.05c-0.11-0.3-0.21-0.77-0.32-1.42h-0.06c-0.1,0.6-0.21,1.08-0.34,1.42l-3.25,9.05H575.92z"/>
	<path class="st0" d="M587.24,105.97h-2.45V84.74h2.45V105.97z"/>
	<path class="st0" d="M607.79,105.97h-2.92l-3.5-5.95c-0.32-0.55-0.63-1.02-0.93-1.41s-0.61-0.71-0.93-0.96
		c-0.32-0.25-0.66-0.43-1.02-0.54c-0.36-0.11-0.78-0.17-1.23-0.17h-2.01v9.03h-2.45V84.74h6.24c0.91,0,1.76,0.12,2.53,0.35
		c0.77,0.23,1.44,0.58,2.01,1.06c0.57,0.47,1.01,1.06,1.33,1.77c0.32,0.71,0.48,1.53,0.48,2.48c0,0.74-0.11,1.42-0.33,2.04
		s-0.53,1.17-0.93,1.65s-0.89,0.9-1.46,1.24c-0.57,0.34-1.21,0.6-1.92,0.79v0.06c0.35,0.16,0.65,0.34,0.91,0.54
		c0.26,0.2,0.5,0.44,0.74,0.72c0.23,0.28,0.46,0.59,0.69,0.94c0.23,0.35,0.48,0.76,0.77,1.22L607.79,105.97z M595.25,86.99v7.7h3.33
		c0.61,0,1.18-0.09,1.7-0.28c0.52-0.19,0.97-0.46,1.35-0.81c0.38-0.35,0.68-0.78,0.89-1.29c0.21-0.51,0.32-1.08,0.32-1.71
		c0-1.14-0.36-2.02-1.09-2.66c-0.72-0.64-1.77-0.96-3.14-0.96H595.25z"/>
	<path class="st0" d="M621.81,105.97h-11.08V84.74h10.62v2.25h-8.17v7.06h7.56v2.24h-7.56v7.43h8.63V105.97z"/>
</g>
</svg>
