<svg id="Calque_1" data-name="Calque 1" xmlns="http://www.w3.org/2000/svg" viewBox="0 0 251.33 61.61"><defs><style>.cls-1{fill:#1d1d1b;}</style></defs><path class="cls-1" d="M17.33,139.71v1.47A29.27,29.27,0,0,0,29,135a22.06,22.06,0,0,0,4.41-5.71.75.75,0,0,1,.09-.15A28.32,28.32,0,0,0,36,122c1.58-7.66-.78-15.42-1.33-16.36a2,2,0,0,0-1.94-.74H17.33v17.57H28.84a1.76,1.76,0,0,1,.33,0,.9.9,0,0,1,.74.69,1.76,1.76,0,0,1,0,.33c-.1,3.44-1.87,10.37-11.71,14.79l-.9.38Z" transform="translate(-17.01 -104.88)"/><path class="cls-1" d="M21.18,149.6v.63H18.07V152H21v.63h-2.9v1.93h3.14v.63H17.33V149.6Z" transform="translate(-17.01 -104.88)"/><path class="cls-1" d="M21.67,150.23v-.63h4.46v.63H24.27v5h-.74v-5Z" transform="translate(-17.01 -104.88)"/><path class="cls-1" d="M28.53,149.6l2.18,5.59h-.82l-.61-1.69H26.92l-.63,1.69h-.76l2.18-5.59Zm.51,3.28-.93-2.61h0l-1,2.61Z" transform="translate(-17.01 -104.88)"/><path class="cls-1" d="M30.1,150.23v-.63h4.47v.63H32.7v5H32v-5Z" transform="translate(-17.01 -104.88)"/><path class="cls-1" d="M39.59,149.6a2.75,2.75,0,0,1,2,.66,2.6,2.6,0,0,1,.7,2,4.31,4.31,0,0,1-.16,1.25,2.27,2.27,0,0,1-.48.91,2.09,2.09,0,0,1-.84.57,3.35,3.35,0,0,1-1.2.2H37.67V149.6Zm.06,5,.31,0a1.53,1.53,0,0,0,.4-.09,1.7,1.7,0,0,0,.42-.22,1.34,1.34,0,0,0,.37-.38,2.16,2.16,0,0,0,.27-.61,3.15,3.15,0,0,0,.11-.88,4,4,0,0,0-.1-.89,1.79,1.79,0,0,0-.32-.68,1.47,1.47,0,0,0-.58-.42,2.38,2.38,0,0,0-.86-.14H38.41v4.33Z" transform="translate(-17.01 -104.88)"/><path class="cls-1" d="M47.19,149.6v.63H44.08V152H47v.63h-2.9v1.93h3.13v.63H43.33V149.6Z" transform="translate(-17.01 -104.88)"/><path class="cls-1" d="M54.27,149.6v.63H51.34V152h2.57v.63H51.34v2.56H50.6V149.6Z" transform="translate(-17.01 -104.88)"/><path class="cls-1" d="M57.87,149.6a1.85,1.85,0,0,1,1.25.39,1.35,1.35,0,0,1,.45,1.07,1.77,1.77,0,0,1-.23.9,1.2,1.2,0,0,1-.74.52v0a1,1,0,0,1,.39.15.77.77,0,0,1,.25.26,1.26,1.26,0,0,1,.13.34c0,.13.05.26.07.4s0,.27,0,.41a2.71,2.71,0,0,0,0,.41,2.23,2.23,0,0,0,.09.39,1.29,1.29,0,0,0,.17.33h-.82a.45.45,0,0,1-.11-.24,3,3,0,0,1,0-.33c0-.12,0-.26,0-.4a2.7,2.7,0,0,0-.05-.41,2.24,2.24,0,0,0-.08-.39,1,1,0,0,0-.14-.32.84.84,0,0,0-.27-.22,1.08,1.08,0,0,0-.44-.08H56v2.39h-.75V149.6Zm.16,2.54a1.07,1.07,0,0,0,.41-.16.74.74,0,0,0,.28-.3,1.06,1.06,0,0,0,.11-.5,1,1,0,0,0-.24-.69,1,1,0,0,0-.76-.26H56v1.94h1.54A4,4,0,0,0,58,152.14Z" transform="translate(-17.01 -104.88)"/><path class="cls-1" d="M61.53,149.6v5.59h-.74V149.6Z" transform="translate(-17.01 -104.88)"/><path class="cls-1" d="M65,149.6h.38l.41,0a2.16,2.16,0,0,1,.38.06.82.82,0,0,1,.3.11,1.58,1.58,0,0,1,.47.46,1.23,1.23,0,0,1,.19.71,1.39,1.39,0,0,1-.21.77,1.25,1.25,0,0,1-.62.48v0a1.28,1.28,0,0,1,.79.47,1.41,1.41,0,0,1,.28.87,1.77,1.77,0,0,1-.11.6,1.72,1.72,0,0,1-.33.51,1.55,1.55,0,0,1-.53.36,1.86,1.86,0,0,1-.73.14h-2.7V149.6Zm.2,2.4a1.47,1.47,0,0,0,.91-.22.79.79,0,0,0,.28-.67.91.91,0,0,0-.1-.47.69.69,0,0,0-.25-.26,1,1,0,0,0-.38-.13l-.46,0H63.68V152Zm.37,2.56a1,1,0,0,0,.77-.27.94.94,0,0,0,.28-.73,1,1,0,0,0-.1-.46.9.9,0,0,0-.27-.28,1.13,1.13,0,0,0-.39-.15,2.15,2.15,0,0,0-.45,0h-1.7v1.93Z" transform="translate(-17.01 -104.88)"/><path class="cls-1" d="M68.31,151.29a2.78,2.78,0,0,1,.5-.93,2.57,2.57,0,0,1,.84-.65,2.95,2.95,0,0,1,2.33,0,2.57,2.57,0,0,1,.84.65,2.78,2.78,0,0,1,.5.93,3.72,3.72,0,0,1,.17,1.1,3.67,3.67,0,0,1-.17,1.1,2.83,2.83,0,0,1-.5.94,2.54,2.54,0,0,1-.84.64,2.95,2.95,0,0,1-2.33,0,2.54,2.54,0,0,1-.84-.64,2.83,2.83,0,0,1-.5-.94,3.67,3.67,0,0,1-.17-1.1A3.72,3.72,0,0,1,68.31,151.29Zm.68,1.94a2.4,2.4,0,0,0,.35.74,1.69,1.69,0,0,0,.6.52,2,2,0,0,0,1.75,0,1.69,1.69,0,0,0,.6-.52,2.4,2.4,0,0,0,.35-.74,3.46,3.46,0,0,0,.11-.84,3.38,3.38,0,0,0-.11-.83,2.4,2.4,0,0,0-.35-.74,1.72,1.72,0,0,0-.6-.53,2,2,0,0,0-1.75,0,1.72,1.72,0,0,0-.6.53,2.4,2.4,0,0,0-.35.74,3.38,3.38,0,0,0-.11.83A3.46,3.46,0,0,0,69,153.23Z" transform="translate(-17.01 -104.88)"/><path class="cls-1" d="M78.44,154.77a2.27,2.27,0,0,1-1.63.54,2.53,2.53,0,0,1-1.68-.51,2,2,0,0,1-.61-1.63V149.6h.75v3.57a1.54,1.54,0,0,0,.39,1.14,1.63,1.63,0,0,0,1.15.38,1.47,1.47,0,0,0,1.09-.38,1.58,1.58,0,0,0,.37-1.14V149.6H79v3.57A2.08,2.08,0,0,1,78.44,154.77Z" transform="translate(-17.01 -104.88)"/><path class="cls-1" d="M83,149.6a1.84,1.84,0,0,1,1.25.39,1.35,1.35,0,0,1,.45,1.07,1.77,1.77,0,0,1-.23.9,1.18,1.18,0,0,1-.74.52v0a1,1,0,0,1,.4.15.85.85,0,0,1,.24.26,1.26,1.26,0,0,1,.13.34c0,.13,0,.26.07.4s0,.27,0,.41,0,.28,0,.41a2.23,2.23,0,0,0,.09.39,1.06,1.06,0,0,0,.18.33h-.83a.53.53,0,0,1-.11-.24,1.69,1.69,0,0,1,0-.33c0-.12,0-.26,0-.4a2.71,2.71,0,0,0,0-.41c0-.14,0-.27-.08-.39a.86.86,0,0,0-.15-.32.84.84,0,0,0-.27-.22,1,1,0,0,0-.44-.08H81.1v2.39h-.74V149.6Zm.16,2.54a1.07,1.07,0,0,0,.41-.16.74.74,0,0,0,.28-.3,1.06,1.06,0,0,0,.11-.5,1,1,0,0,0-.24-.69,1,1,0,0,0-.76-.26H81.1v1.94h1.55A3.91,3.91,0,0,0,83.14,152.14Z" transform="translate(-17.01 -104.88)"/><path class="cls-1" d="M89.23,155.12a2.58,2.58,0,0,1-1,.19,2.67,2.67,0,0,1-1.12-.23,2.48,2.48,0,0,1-.84-.62,2.69,2.69,0,0,1-.52-.9,3.15,3.15,0,0,1-.18-1.06,3.75,3.75,0,0,1,.17-1.16,2.59,2.59,0,0,1,.5-1,2.44,2.44,0,0,1,.82-.67,2.69,2.69,0,0,1,1.17-.24,3.36,3.36,0,0,1,.85.1,2,2,0,0,1,.72.34,1.93,1.93,0,0,1,.53.57,2.26,2.26,0,0,1,.3.84h-.75a1.33,1.33,0,0,0-.57-.93,1.56,1.56,0,0,0-.49-.22,2.33,2.33,0,0,0-.59-.08,1.76,1.76,0,0,0-.88.21,1.67,1.67,0,0,0-.59.53,2.49,2.49,0,0,0-.34.76,3.7,3.7,0,0,0-.11.87,2.84,2.84,0,0,0,.12.84,2.45,2.45,0,0,0,.37.72,1.74,1.74,0,0,0,1.43.67,1.86,1.86,0,0,0,.77-.14,1.73,1.73,0,0,0,.57-.38,1.62,1.62,0,0,0,.34-.58,1.91,1.91,0,0,0,.11-.72H88.26v-.62h2.45v2.94h-.47l-.19-.7A1.87,1.87,0,0,1,89.23,155.12Z" transform="translate(-17.01 -104.88)"/><path class="cls-1" d="M20.12,161.54a1.55,1.55,0,0,0-.95-.27,2.4,2.4,0,0,0-.46,0,1.29,1.29,0,0,0-.4.16.78.78,0,0,0-.28.29.92.92,0,0,0-.11.46.57.57,0,0,0,.16.42,1.21,1.21,0,0,0,.4.26,3.66,3.66,0,0,0,.58.17l.65.14c.22.05.44.12.65.19a2.08,2.08,0,0,1,.58.28,1.33,1.33,0,0,1,.4.45,1.35,1.35,0,0,1,.16.69,1.41,1.41,0,0,1-.2.76,1.61,1.61,0,0,1-.52.52,2,2,0,0,1-.69.29,3.46,3.46,0,0,1-.78.09,3.17,3.17,0,0,1-.88-.12,2,2,0,0,1-.74-.35,1.66,1.66,0,0,1-.5-.61,2,2,0,0,1-.18-.88h.7a1.27,1.27,0,0,0,.14.6,1.22,1.22,0,0,0,.36.42,1.46,1.46,0,0,0,.52.24,2.09,2.09,0,0,0,.61.08,2.81,2.81,0,0,0,.5,0,2.08,2.08,0,0,0,.46-.16.9.9,0,0,0,.33-.31,1,1,0,0,0,.12-.5.7.7,0,0,0-.15-.47,1.18,1.18,0,0,0-.41-.3,3.83,3.83,0,0,0-.57-.18l-.65-.15a5.33,5.33,0,0,1-.66-.17,2.46,2.46,0,0,1-.57-.25,1.27,1.27,0,0,1-.41-.42,1.24,1.24,0,0,1-.15-.64,1.54,1.54,0,0,1,.17-.73,1.72,1.72,0,0,1,.46-.51,2,2,0,0,1,.65-.29,2.64,2.64,0,0,1,.74-.1,2.87,2.87,0,0,1,.8.1,1.8,1.8,0,0,1,.65.32,1.7,1.7,0,0,1,.44.55,2.1,2.1,0,0,1,.17.8h-.7A1.16,1.16,0,0,0,20.12,161.54Z" transform="translate(-17.01 -104.88)"/><path class="cls-1" d="M21.65,161.41v-.63h4.46v.63H24.25v5h-.74v-5Z" transform="translate(-17.01 -104.88)"/><path class="cls-1" d="M28.5,160.78l2.19,5.59h-.83l-.6-1.69H26.89l-.62,1.69h-.76l2.17-5.59Zm.52,3.28-.93-2.61h0l-.94,2.61Z" transform="translate(-17.01 -104.88)"/><path class="cls-1" d="M33.73,160.78l2.18,5.59h-.82l-.61-1.69H32.12l-.63,1.69h-.76l2.18-5.59Zm.51,3.28-.93-2.61h0l-.95,2.61Z" transform="translate(-17.01 -104.88)"/><path class="cls-1" d="M35.3,161.41v-.63h4.47v.63H37.91v5h-.75v-5Z" transform="translate(-17.01 -104.88)"/><path class="cls-1" d="M46.54,160.78v.63H43.61v1.77h2.57v.63H43.61v2.56h-.74v-5.59Z" transform="translate(-17.01 -104.88)"/><path class="cls-1" d="M50.15,160.78a1.82,1.82,0,0,1,1.24.39,1.35,1.35,0,0,1,.45,1.07,1.68,1.68,0,0,1-.23.9,1.18,1.18,0,0,1-.74.52h0a1.24,1.24,0,0,1,.4.16,1,1,0,0,1,.24.26,1.4,1.4,0,0,1,.13.34c0,.13,0,.26.07.4s0,.27,0,.41,0,.28,0,.41a2.23,2.23,0,0,0,.09.39,1.06,1.06,0,0,0,.18.33h-.83a.53.53,0,0,1-.11-.24,3.11,3.11,0,0,1,0-.33c0-.12,0-.26,0-.4a2.85,2.85,0,0,0,0-.41c0-.14,0-.27-.08-.39a.86.86,0,0,0-.15-.32.84.84,0,0,0-.27-.22,1,1,0,0,0-.44-.08H48.26v2.39h-.74v-5.59Zm.15,2.54a1,1,0,0,0,.41-.16.74.74,0,0,0,.28-.3,1,1,0,0,0,.11-.5,1,1,0,0,0-.24-.69,1,1,0,0,0-.75-.26H48.26v1.94h1.55A3.79,3.79,0,0,0,50.3,163.32Z" transform="translate(-17.01 -104.88)"/><path class="cls-1" d="M56.89,160.78v.63H53.77v1.77h2.91v.63H53.77v1.93h3.14v.63H53v-5.59Z" transform="translate(-17.01 -104.88)"/><path class="cls-1" d="M58.74,160.78v5.59H58v-5.59Z" transform="translate(-17.01 -104.88)"/><path class="cls-1" d="M62.17,160.78h.39l.41,0a2.16,2.16,0,0,1,.38.06.68.68,0,0,1,.3.12,1.43,1.43,0,0,1,.47.45,1.44,1.44,0,0,1,0,1.48,1.18,1.18,0,0,1-.61.48v0a1.28,1.28,0,0,1,.79.47,1.41,1.41,0,0,1,.27.87,1.56,1.56,0,0,1-.11.6,1.52,1.52,0,0,1-.32.51,1.55,1.55,0,0,1-.53.36,1.86,1.86,0,0,1-.73.14h-2.7v-5.59Zm.21,2.4a1.47,1.47,0,0,0,.91-.22.82.82,0,0,0,.28-.67,1,1,0,0,0-.1-.47.65.65,0,0,0-.26-.26.9.9,0,0,0-.38-.13l-.45,0H60.89v1.77Zm.37,2.56a1,1,0,0,0,.77-.27.94.94,0,0,0,.28-.73.88.88,0,0,0-.1-.45.84.84,0,0,0-.27-.29,1.13,1.13,0,0,0-.39-.15,2.22,2.22,0,0,0-.45,0h-1.7v1.93Z" transform="translate(-17.01 -104.88)"/><path class="cls-1" d="M69.55,166a2.32,2.32,0,0,1-1.63.53,2.52,2.52,0,0,1-1.68-.51,2,2,0,0,1-.61-1.63v-3.57h.74v3.57a1.55,1.55,0,0,0,.4,1.14,1.63,1.63,0,0,0,1.15.38,1.47,1.47,0,0,0,1.09-.38,1.63,1.63,0,0,0,.37-1.14v-3.57h.74v3.57A2.12,2.12,0,0,1,69.55,166Z" transform="translate(-17.01 -104.88)"/><path class="cls-1" d="M74.09,160.78a1.85,1.85,0,0,1,1.25.39,1.35,1.35,0,0,1,.45,1.07,1.77,1.77,0,0,1-.23.9,1.2,1.2,0,0,1-.74.52h0a1.17,1.17,0,0,1,.39.16.88.88,0,0,1,.25.26,1.4,1.4,0,0,1,.13.34c0,.13,0,.26.07.4s0,.27,0,.41,0,.28,0,.41a2.23,2.23,0,0,0,.09.39,1.29,1.29,0,0,0,.17.33h-.82a.45.45,0,0,1-.11-.24,1.69,1.69,0,0,1,0-.33c0-.12,0-.26,0-.4a2.87,2.87,0,0,0,0-.41,2.24,2.24,0,0,0-.08-.39,1,1,0,0,0-.14-.32.84.84,0,0,0-.27-.22A1.08,1.08,0,0,0,74,164H72.21v2.39h-.75v-5.59Zm.16,2.54a1.13,1.13,0,0,0,.41-.16.74.74,0,0,0,.28-.3,1,1,0,0,0,.11-.5.88.88,0,0,0-1-1H72.21v1.94h1.55A3.91,3.91,0,0,0,74.25,163.32Z" transform="translate(-17.01 -104.88)"/><path class="cls-1" d="M80.34,166.3a2.59,2.59,0,0,1-1,.19,2.62,2.62,0,0,1-1.11-.23,2.48,2.48,0,0,1-.84-.62,2.71,2.71,0,0,1-.53-.9,3.15,3.15,0,0,1-.18-1.06,4.07,4.07,0,0,1,.17-1.16,2.74,2.74,0,0,1,.5-1,2.43,2.43,0,0,1,.83-.66,2.51,2.51,0,0,1,1.16-.25,3.38,3.38,0,0,1,.86.1,2.39,2.39,0,0,1,.72.34,1.93,1.93,0,0,1,.53.57,2.45,2.45,0,0,1,.3.84H81a1.5,1.5,0,0,0-.2-.55,1.34,1.34,0,0,0-.37-.38,1.62,1.62,0,0,0-.5-.22,2.21,2.21,0,0,0-.59-.08,1.7,1.7,0,0,0-.87.21,1.67,1.67,0,0,0-.59.53,2.27,2.27,0,0,0-.34.76,3.24,3.24,0,0,0-.11.87,3,3,0,0,0,.12.85,2.52,2.52,0,0,0,.37.71,1.8,1.8,0,0,0,.6.49,1.77,1.77,0,0,0,.82.18,1.91,1.91,0,0,0,.78-.14,1.49,1.49,0,0,0,.56-.39,1.52,1.52,0,0,0,.35-.57,1.73,1.73,0,0,0,.1-.72H79.37v-.63h2.45v3h-.47l-.2-.7A1.85,1.85,0,0,1,80.34,166.3Z" transform="translate(-17.01 -104.88)"/><path class="cls-1" d="M110.06,149.6a3.91,3.91,0,0,1,.72.07,1.84,1.84,0,0,1,.57.23,1.08,1.08,0,0,1,.36.43,1.47,1.47,0,0,1,.13.66,1.2,1.2,0,0,1-.19.7,1.4,1.4,0,0,1-.57.46,1.32,1.32,0,0,1,.77.52,1.56,1.56,0,0,1,.26.9,1.54,1.54,0,0,1-.17.73,1.41,1.41,0,0,1-.44.5,1.91,1.91,0,0,1-.63.29,3,3,0,0,1-.73.1h-2.71V149.6Zm-.16,2.26a.91.91,0,0,0,.54-.15.74.74,0,0,0,.14-.83.52.52,0,0,0-.19-.2.66.66,0,0,0-.27-.1l-.31,0h-1.15v1.3Zm.07,2.37a2,2,0,0,0,.35,0,1,1,0,0,0,.28-.12.53.53,0,0,0,.2-.22.8.8,0,0,0,.08-.36.73.73,0,0,0-.24-.62,1.08,1.08,0,0,0-.64-.18h-1.34v1.53Z" transform="translate(-17.01 -104.88)"/><path class="cls-1" d="M112.85,150.52v-.92H114v.92Zm1.11.62v4.05h-1.11v-4.05Z" transform="translate(-17.01 -104.88)"/><path class="cls-1" d="M116,149.6v2h0a1.21,1.21,0,0,1,.55-.45,1.87,1.87,0,0,1,.73-.15,1.62,1.62,0,0,1,.6.13,1.41,1.41,0,0,1,.53.38,1.92,1.92,0,0,1,.39.66,3.15,3.15,0,0,1,0,1.92,1.92,1.92,0,0,1-.39.66,1.41,1.41,0,0,1-.53.38,1.44,1.44,0,0,1-.6.13,2.2,2.2,0,0,1-.8-.14,1,1,0,0,1-.53-.48h0v.52h-1V149.6Zm1.8,3.07a1.38,1.38,0,0,0-.18-.41.78.78,0,0,0-.29-.28.83.83,0,0,0-.43-.11.82.82,0,0,0-.42.11.89.89,0,0,0-.3.28,1.68,1.68,0,0,0-.17.41,2.73,2.73,0,0,0,0,.5,2.44,2.44,0,0,0,0,.48,1.6,1.6,0,0,0,.17.42.89.89,0,0,0,.3.28.82.82,0,0,0,.42.11.83.83,0,0,0,.43-.11.78.78,0,0,0,.29-.28,1.33,1.33,0,0,0,.18-.42,2.44,2.44,0,0,0,0-.48A2.73,2.73,0,0,0,117.75,152.67Z" transform="translate(-17.01 -104.88)"/><path class="cls-1" d="M120.76,149.6v5.59h-1.11V149.6Z" transform="translate(-17.01 -104.88)"/><path class="cls-1" d="M121.66,150.52v-.92h1.11v.92Zm1.11.62v4.05h-1.11v-4.05Z" transform="translate(-17.01 -104.88)"/><path class="cls-1" d="M123.67,152.29a1.72,1.72,0,0,1,.43-.67,2,2,0,0,1,.65-.44,2.35,2.35,0,0,1,.86-.15,2.41,2.41,0,0,1,.87.15,2.12,2.12,0,0,1,.66.44,1.82,1.82,0,0,1,.42.67,2.63,2.63,0,0,1,0,1.75,1.91,1.91,0,0,1-.42.67,1.93,1.93,0,0,1-.66.43,2.41,2.41,0,0,1-.87.15,2.35,2.35,0,0,1-.86-.15,1.91,1.91,0,0,1-1.08-1.1,2.63,2.63,0,0,1,0-1.75Zm1,1.35a1.52,1.52,0,0,0,.16.42.92.92,0,0,0,.3.29,1,1,0,0,0,.47.11,1,1,0,0,0,.48-.11.92.92,0,0,0,.3-.29,1.26,1.26,0,0,0,.16-.42,2.42,2.42,0,0,0,0-.47,2.61,2.61,0,0,0,0-.48,1.05,1.05,0,0,0-.46-.71,1,1,0,0,0-.48-.11,1,1,0,0,0-.47.11,1.07,1.07,0,0,0-.3.3,1.25,1.25,0,0,0-.16.41,2.61,2.61,0,0,0-.05.48A2.42,2.42,0,0,0,124.68,153.64Z" transform="translate(-17.01 -104.88)"/><path class="cls-1" d="M130.65,151.14v.75h-.81v2a.53.53,0,0,0,.09.37.5.5,0,0,0,.37.1h.18l.17,0v.86l-.31,0H130a3.79,3.79,0,0,1-.49,0,1.11,1.11,0,0,1-.41-.14.64.64,0,0,1-.27-.29,1,1,0,0,1-.1-.49v-2.38h-.68v-.75h.68v-1.21h1.11v1.21Z" transform="translate(-17.01 -104.88)"/><path class="cls-1" d="M132.29,149.6v2.11h0a1.41,1.41,0,0,1,.54-.52,1.59,1.59,0,0,1,.65-.16,1.92,1.92,0,0,1,.73.12,1.22,1.22,0,0,1,.45.34,1.37,1.37,0,0,1,.23.52,3.69,3.69,0,0,1,.06.69v2.49h-1.11V152.9a1.44,1.44,0,0,0-.15-.74.61.61,0,0,0-.56-.25.78.78,0,0,0-.66.27,1.54,1.54,0,0,0-.2.89v2.12h-1.11V149.6Z" transform="translate(-17.01 -104.88)"/><path class="cls-1" d="M137,154.22a1,1,0,0,0,.72.24,1,1,0,0,0,.58-.17.64.64,0,0,0,.29-.36h1a1.84,1.84,0,0,1-.72,1,2.09,2.09,0,0,1-1.17.32,2.13,2.13,0,0,1-.86-.16,1.65,1.65,0,0,1-.65-.43,1.84,1.84,0,0,1-.41-.67,2.51,2.51,0,0,1,0-1.71,2,2,0,0,1,.42-.67,2,2,0,0,1,.66-.45,2.07,2.07,0,0,1,.84-.17,2,2,0,0,1,.9.2,1.93,1.93,0,0,1,.63.54,2.2,2.2,0,0,1,.35.76,2.7,2.7,0,0,1,.08.9h-2.92A1.17,1.17,0,0,0,137,154.22Zm.47-4.69.75,1.11h-.77l-1.2-1.11Zm.78,2.56a.75.75,0,0,0-.6-.22,1,1,0,0,0-.45.09.88.88,0,0,0-.28.22.85.85,0,0,0-.15.28c0,.1,0,.19-.05.27h1.81A1.19,1.19,0,0,0,138.26,152.09Z" transform="translate(-17.01 -104.88)"/><path class="cls-1" d="M143.14,156.6v-1.92h0a1.12,1.12,0,0,1-.54.47,2.06,2.06,0,0,1-.73.14,1.75,1.75,0,0,1-.58-.11,1.51,1.51,0,0,1-.56-.35,2,2,0,0,1-.41-.65,2.63,2.63,0,0,1-.16-1,2.71,2.71,0,0,1,.11-.8,2.06,2.06,0,0,1,.33-.7A1.65,1.65,0,0,1,142,151a1.71,1.71,0,0,1,.71.15,1,1,0,0,1,.52.48h0v-.52h1.06v5.46Zm-1.85-3a1.52,1.52,0,0,0,.16.42.92.92,0,0,0,.3.29.89.89,0,0,0,.46.11,1,1,0,0,0,.46-.11.78.78,0,0,0,.29-.28,1.31,1.31,0,0,0,.17-.4,2.63,2.63,0,0,0,.05-.49,2.59,2.59,0,0,0-.05-.47,1.92,1.92,0,0,0-.16-.42,1,1,0,0,0-.3-.3.78.78,0,0,0-.44-.12.88.88,0,0,0-.77.4,1.41,1.41,0,0,0-.16.42,1.86,1.86,0,0,0-.05.48A2.42,2.42,0,0,0,141.29,153.64Z" transform="translate(-17.01 -104.88)"/><path class="cls-1" d="M147.82,155.19v-.57h0a1.17,1.17,0,0,1-.55.51,1.52,1.52,0,0,1-.69.16,1.92,1.92,0,0,1-.73-.12,1.1,1.1,0,0,1-.45-.33,1.42,1.42,0,0,1-.23-.53,3.51,3.51,0,0,1-.06-.68v-2.49h1.11v2.29a1.44,1.44,0,0,0,.15.74.61.61,0,0,0,.56.25.78.78,0,0,0,.66-.27,1.56,1.56,0,0,0,.2-.89v-2.12h1.11v4.05Z" transform="translate(-17.01 -104.88)"/><path class="cls-1" d="M150.91,154.22a1,1,0,0,0,.72.24,1,1,0,0,0,.58-.17.71.71,0,0,0,.3-.36h1a1.84,1.84,0,0,1-.72,1,2.15,2.15,0,0,1-1.18.32,2.2,2.2,0,0,1-.86-.16,1.8,1.8,0,0,1-.65-.43,2.15,2.15,0,0,1-.41-.67,2.63,2.63,0,0,1-.14-.86,2.37,2.37,0,0,1,.15-.85,2,2,0,0,1,1.07-1.12,2.14,2.14,0,0,1,.84-.17,1.93,1.93,0,0,1,.9.2,1.74,1.74,0,0,1,.63.54,2.05,2.05,0,0,1,.36.76,3,3,0,0,1,.08.9h-2.92A1.22,1.22,0,0,0,150.91,154.22Zm1.26-2.13a.77.77,0,0,0-.61-.22,1,1,0,0,0-.44.09.78.78,0,0,0-.28.22.85.85,0,0,0-.15.28,1.57,1.57,0,0,0-.05.27h1.81A1.36,1.36,0,0,0,152.17,152.09Z" transform="translate(-17.01 -104.88)"/><path class="cls-1" d="M158.32,151.87a.82.82,0,0,0-.45.12,1.07,1.07,0,0,0-.29.31,1.47,1.47,0,0,0-.16.43,2.05,2.05,0,0,0,0,.9,1.34,1.34,0,0,0,.15.41.92.92,0,0,0,.29.3.78.78,0,0,0,.44.12.84.84,0,0,0,.61-.22,1.11,1.11,0,0,0,.27-.6h1.07a1.83,1.83,0,0,1-.62,1.22,2,2,0,0,1-1.33.43,2,2,0,0,1-.83-.16,1.78,1.78,0,0,1-.64-.42,1.92,1.92,0,0,1-.42-.65,2.32,2.32,0,0,1-.15-.84,2.74,2.74,0,0,1,.14-.87,2.1,2.1,0,0,1,.4-.7,2,2,0,0,1,.65-.45,2.23,2.23,0,0,1,.88-.17,2.26,2.26,0,0,1,.69.1,1.69,1.69,0,0,1,.59.28,1.52,1.52,0,0,1,.43.48,1.59,1.59,0,0,1,.19.68h-1.09A.74.74,0,0,0,158.32,151.87Z" transform="translate(-17.01 -104.88)"/><path class="cls-1" d="M161,151.74a1.33,1.33,0,0,1,.43-.42,2,2,0,0,1,.6-.22,3.81,3.81,0,0,1,.67-.07,4.44,4.44,0,0,1,.62.05,1.72,1.72,0,0,1,.57.16,1.19,1.19,0,0,1,.42.35,1,1,0,0,1,.17.59v2.11a4.41,4.41,0,0,0,0,.52.86.86,0,0,0,.11.38h-1.13a1.46,1.46,0,0,1-.05-.2l0-.2a1.4,1.4,0,0,1-.62.39,2.65,2.65,0,0,1-.74.11,2.35,2.35,0,0,1-.54-.07,1.4,1.4,0,0,1-.44-.22,1.1,1.1,0,0,1-.29-.38,1.27,1.27,0,0,1-.1-.54,1.16,1.16,0,0,1,.12-.56,1,1,0,0,1,.31-.36,1.27,1.27,0,0,1,.44-.2l.5-.11.49-.06a2.58,2.58,0,0,0,.43-.07.71.71,0,0,0,.29-.13.31.31,0,0,0,.11-.27.55.55,0,0,0-.06-.28.44.44,0,0,0-.16-.17.69.69,0,0,0-.23-.07,1.14,1.14,0,0,0-.27,0,.82.82,0,0,0-.52.14.64.64,0,0,0-.22.47h-1.11A1.28,1.28,0,0,1,161,151.74Zm2.19,1.56a.86.86,0,0,1-.23.06l-.25,0-.27,0-.24.06a1,1,0,0,0-.21.11.5.5,0,0,0-.15.17.5.5,0,0,0-.05.26.51.51,0,0,0,.05.25.57.57,0,0,0,.15.16.72.72,0,0,0,.22.08l.26,0a.86.86,0,0,0,.5-.11.68.68,0,0,0,.27-.26.89.89,0,0,0,.11-.31c0-.1,0-.19,0-.25v-.41A.51.51,0,0,1,163.22,153.3Z" transform="translate(-17.01 -104.88)"/><path class="cls-1" d="M166.42,151.14v.57h0a1.28,1.28,0,0,1,.54-.52,1.73,1.73,0,0,1,.69-.16,1.89,1.89,0,0,1,.73.12,1.22,1.22,0,0,1,.45.34,1.24,1.24,0,0,1,.23.52,3,3,0,0,1,.07.69v2.49h-1.11V152.9a1.33,1.33,0,0,0-.16-.74.59.59,0,0,0-.55-.25.78.78,0,0,0-.66.27,1.54,1.54,0,0,0-.2.89v2.12h-1.11v-4.05Z" transform="translate(-17.01 -104.88)"/><path class="cls-1" d="M172.23,151.14v.75h-.82v2a.38.38,0,0,0,.47.47h.18l.17,0v.86l-.32,0h-.33a3.79,3.79,0,0,1-.49,0,1,1,0,0,1-.41-.14.66.66,0,0,1-.28-.29,1.12,1.12,0,0,1-.1-.49v-2.38h-.67v-.75h.67v-1.21h1.11v1.21Z" transform="translate(-17.01 -104.88)"/><path class="cls-1" d="M172.78,152.29a1.82,1.82,0,0,1,.42-.67,2,2,0,0,1,.66-.44,2.35,2.35,0,0,1,.86-.15,2.31,2.31,0,0,1,.86.15,2.05,2.05,0,0,1,.67.44,1.82,1.82,0,0,1,.42.67,2.63,2.63,0,0,1,0,1.75,1.91,1.91,0,0,1-.42.67,1.88,1.88,0,0,1-.67.43,2.31,2.31,0,0,1-.86.15,2.35,2.35,0,0,1-.86-.15,1.84,1.84,0,0,1-.66-.43,1.91,1.91,0,0,1-.42-.67,2.63,2.63,0,0,1,0-1.75Zm1,1.35a1.52,1.52,0,0,0,.16.42.92.92,0,0,0,.3.29,1,1,0,0,0,.47.11.93.93,0,0,0,.47-.11.86.86,0,0,0,.31-.29,1.26,1.26,0,0,0,.16-.42,2.42,2.42,0,0,0,.05-.47,2.61,2.61,0,0,0-.05-.48,1.07,1.07,0,0,0-.16-.41,1,1,0,0,0-.31-.3.93.93,0,0,0-.47-.11,1,1,0,0,0-.47.11,1.07,1.07,0,0,0-.3.3,1.25,1.25,0,0,0-.16.41,2.61,2.61,0,0,0,0,.48A2.42,2.42,0,0,0,173.79,153.64Z" transform="translate(-17.01 -104.88)"/><path class="cls-1" d="M178.59,151.14v.57h0a1.28,1.28,0,0,1,.54-.52,1.73,1.73,0,0,1,.69-.16,1.89,1.89,0,0,1,.73.12,1.22,1.22,0,0,1,.45.34,1.24,1.24,0,0,1,.23.52,3,3,0,0,1,.07.69v2.49h-1.11V152.9a1.33,1.33,0,0,0-.16-.74.59.59,0,0,0-.55-.25.77.77,0,0,0-.66.27,1.46,1.46,0,0,0-.2.89v2.12h-1.11v-4.05Z" transform="translate(-17.01 -104.88)"/><path class="cls-1" d="M182.32,151.74a1.36,1.36,0,0,1,.44-.42,2,2,0,0,1,.6-.22A3.71,3.71,0,0,1,184,151a4.44,4.44,0,0,1,.62.05,1.86,1.86,0,0,1,.57.16,1.19,1.19,0,0,1,.42.35,1,1,0,0,1,.16.59v2.11a4.41,4.41,0,0,0,0,.52,1,1,0,0,0,.11.38h-1.12a1.46,1.46,0,0,1,0-.2.64.64,0,0,1,0-.2,1.49,1.49,0,0,1-.63.39,2.58,2.58,0,0,1-.73.11,2.21,2.21,0,0,1-.54-.07,1.3,1.3,0,0,1-.44-.22,1.1,1.1,0,0,1-.29-.38,1.27,1.27,0,0,1-.11-.54,1.16,1.16,0,0,1,.12-.56,1,1,0,0,1,.32-.36,1.22,1.22,0,0,1,.43-.2l.5-.11.49-.06a2.41,2.41,0,0,0,.43-.07.7.7,0,0,0,.3-.13.3.3,0,0,0,.1-.27.55.55,0,0,0-.06-.28.5.5,0,0,0-.15-.17.78.78,0,0,0-.23-.07,1.27,1.27,0,0,0-.28,0,.77.77,0,0,0-.51.14.6.6,0,0,0-.22.47h-1.11A1.28,1.28,0,0,1,182.32,151.74Zm2.2,1.56a.86.86,0,0,1-.23.06l-.25,0-.27,0-.25.06a1,1,0,0,0-.21.11.39.39,0,0,0-.14.17.5.5,0,0,0-.06.26.51.51,0,0,0,.06.25.38.38,0,0,0,.15.16.66.66,0,0,0,.21.08l.26,0a.92.92,0,0,0,.51-.11.75.75,0,0,0,.27-.26.87.87,0,0,0,.1-.31,1.24,1.24,0,0,0,0-.25v-.41A.39.39,0,0,1,184.52,153.3Z" transform="translate(-17.01 -104.88)"/><path class="cls-1" d="M187.8,149.6v5.59h-1.11V149.6Z" transform="translate(-17.01 -104.88)"/><path class="cls-1" d="M189.87,154.22a1.14,1.14,0,0,0,1.3.07.64.64,0,0,0,.29-.36h1a1.75,1.75,0,0,1-.72,1,2.09,2.09,0,0,1-1.17.32,2.13,2.13,0,0,1-.86-.16,1.72,1.72,0,0,1-.65-.43,2,2,0,0,1-.41-.67,2.68,2.68,0,0,1,0-1.71,1.88,1.88,0,0,1,.43-.67,2,2,0,0,1,.65-.45,2.07,2.07,0,0,1,.84-.17,2,2,0,0,1,.9.2,1.83,1.83,0,0,1,.63.54,2.2,2.2,0,0,1,.35.76,2.7,2.7,0,0,1,.08.9H189.6A1.12,1.12,0,0,0,189.87,154.22Zm1.25-2.13a.75.75,0,0,0-.6-.22.92.92,0,0,0-.73.31.67.67,0,0,0-.14.28,1,1,0,0,0-.05.27h1.8A1.19,1.19,0,0,0,191.12,152.09Z" transform="translate(-17.01 -104.88)"/><path class="cls-1" d="M196.53,154.22a1,1,0,0,0,.72.24,1,1,0,0,0,.58-.17.71.71,0,0,0,.3-.36h1a1.84,1.84,0,0,1-.72,1,2.15,2.15,0,0,1-1.18.32,2.2,2.2,0,0,1-.86-.16,1.8,1.8,0,0,1-.65-.43,2.15,2.15,0,0,1-.41-.67,2.63,2.63,0,0,1-.14-.86,2.37,2.37,0,0,1,.15-.85,2,2,0,0,1,1.07-1.12,2.14,2.14,0,0,1,.84-.17,1.93,1.93,0,0,1,.9.2,1.74,1.74,0,0,1,.63.54,2.22,2.22,0,0,1,.36.76,3,3,0,0,1,.08.9h-2.92A1.17,1.17,0,0,0,196.53,154.22Zm1.26-2.13a.77.77,0,0,0-.61-.22,1,1,0,0,0-.44.09.78.78,0,0,0-.28.22.85.85,0,0,0-.15.28,1,1,0,0,0-.05.27h1.81A1.36,1.36,0,0,0,197.79,152.09Z" transform="translate(-17.01 -104.88)"/><path class="cls-1" d="M202.05,151.14v.75h-.81v2a.53.53,0,0,0,.09.37.53.53,0,0,0,.38.1h.18l.16,0v.86l-.31,0h-.33a3.68,3.68,0,0,1-.49,0,1,1,0,0,1-.41-.14.66.66,0,0,1-.28-.29,1.12,1.12,0,0,1-.1-.49v-2.38h-.67v-.75h.67v-1.21h1.11v1.21Z" transform="translate(-17.01 -104.88)"/><path class="cls-1" d="M207.5,155.19v-.57h0a1.2,1.2,0,0,1-.54.51,1.58,1.58,0,0,1-.69.16,1.89,1.89,0,0,1-.73-.12,1.1,1.1,0,0,1-.45-.33,1.28,1.28,0,0,1-.23-.53,2.84,2.84,0,0,1-.07-.68v-2.49h1.11v2.29a1.33,1.33,0,0,0,.16.74.59.59,0,0,0,.55.25.77.77,0,0,0,.66-.27,1.48,1.48,0,0,0,.2-.89v-2.12h1.11v4.05Z" transform="translate(-17.01 -104.88)"/><path class="cls-1" d="M210.45,151.14v.57h0a1.28,1.28,0,0,1,.54-.52,1.73,1.73,0,0,1,.69-.16,1.89,1.89,0,0,1,.73.12,1.22,1.22,0,0,1,.45.34,1.39,1.39,0,0,1,.24.52,3.69,3.69,0,0,1,.06.69v2.49h-1.11V152.9a1.33,1.33,0,0,0-.16-.74.58.58,0,0,0-.55-.25.78.78,0,0,0-.66.27,1.54,1.54,0,0,0-.2.89v2.12H209.4v-4.05Z" transform="translate(-17.01 -104.88)"/><path class="cls-1" d="M214.07,150.52v-.92h1.11v.92Zm1.11.62v4.05h-1.11v-4.05Z" transform="translate(-17.01 -104.88)"/><path class="cls-1" d="M217.05,155.19l-1.38-4.05h1.17l.85,2.76h0l.86-2.76h1.1l-1.37,4.05Z" transform="translate(-17.01 -104.88)"/><path class="cls-1" d="M221.31,154.22a1.14,1.14,0,0,0,1.3.07.71.71,0,0,0,.3-.36h1a1.75,1.75,0,0,1-.72,1,2.09,2.09,0,0,1-1.17.32,2.13,2.13,0,0,1-.86-.16,1.72,1.72,0,0,1-.65-.43,2,2,0,0,1-.41-.67,2.51,2.51,0,0,1,0-1.71,1.88,1.88,0,0,1,.43-.67,2,2,0,0,1,.65-.45A2.07,2.07,0,0,1,222,151a2,2,0,0,1,.9.2,1.93,1.93,0,0,1,.63.54,2.2,2.2,0,0,1,.35.76,2.7,2.7,0,0,1,.08.9H221A1.12,1.12,0,0,0,221.31,154.22Zm1.25-2.13a.75.75,0,0,0-.6-.22.93.93,0,0,0-.44.09.78.78,0,0,0-.28.22.85.85,0,0,0-.15.28,1,1,0,0,0-.05.27h1.8A1.19,1.19,0,0,0,222.56,152.09Z" transform="translate(-17.01 -104.88)"/><path class="cls-1" d="M225.67,151.14v.75h0a1.41,1.41,0,0,1,.21-.35,1.63,1.63,0,0,1,.31-.27,1.82,1.82,0,0,1,.37-.18,1.34,1.34,0,0,1,.4-.06,1.09,1.09,0,0,1,.24,0v1l-.18,0h-.21a1.15,1.15,0,0,0-.52.1.84.84,0,0,0-.34.27,1.18,1.18,0,0,0-.19.41,2.76,2.76,0,0,0-.05.51v1.83h-1.11v-4.05Z" transform="translate(-17.01 -104.88)"/><path class="cls-1" d="M228.59,154.18a.55.55,0,0,0,.19.21.66.66,0,0,0,.27.12,1.06,1.06,0,0,0,.31,0l.25,0a.62.62,0,0,0,.24-.08.52.52,0,0,0,.17-.16.38.38,0,0,0,.07-.24c0-.17-.11-.3-.33-.38a6.5,6.5,0,0,0-.93-.25l-.47-.13a1.72,1.72,0,0,1-.41-.19,1.06,1.06,0,0,1-.29-.31.88.88,0,0,1-.11-.45,1.24,1.24,0,0,1,.15-.64,1.12,1.12,0,0,1,.41-.4,1.85,1.85,0,0,1,.56-.2,3.44,3.44,0,0,1,1.28,0,1.92,1.92,0,0,1,.55.22,1.35,1.35,0,0,1,.4.39,1.3,1.3,0,0,1,.19.62H230a.48.48,0,0,0-.25-.43,1,1,0,0,0-.51-.11h-.2a.59.59,0,0,0-.2.05.36.36,0,0,0-.16.11.32.32,0,0,0-.06.2.3.3,0,0,0,.11.24.73.73,0,0,0,.29.16,2.91,2.91,0,0,0,.4.1l.46.1a3.64,3.64,0,0,1,.47.14,1.56,1.56,0,0,1,.41.2,1.1,1.1,0,0,1,.29.32.9.9,0,0,1,.11.48,1.28,1.28,0,0,1-.16.67,1.24,1.24,0,0,1-.42.43,1.62,1.62,0,0,1-.59.23,3.71,3.71,0,0,1-.67.07,3.84,3.84,0,0,1-.69-.07,1.89,1.89,0,0,1-.6-.24,1.36,1.36,0,0,1-.43-.43,1.39,1.39,0,0,1-.18-.68h1A.62.62,0,0,0,228.59,154.18Z" transform="translate(-17.01 -104.88)"/><path class="cls-1" d="M231.88,150.52v-.92H233v.92Zm1.11.62v4.05h-1.11v-4.05Z" transform="translate(-17.01 -104.88)"/><path class="cls-1" d="M236.09,151.14v.75h-.81v2a.53.53,0,0,0,.09.37.51.51,0,0,0,.38.1h.18l.16,0v.86l-.31,0h-.34a3.91,3.91,0,0,1-.49,0,1,1,0,0,1-.4-.14.61.61,0,0,1-.28-.29,1,1,0,0,1-.1-.49v-2.38h-.68v-.75h.68v-1.21h1.11v1.21Z" transform="translate(-17.01 -104.88)"/><path class="cls-1" d="M236.77,151.74a1.36,1.36,0,0,1,.44-.42,1.86,1.86,0,0,1,.6-.22,3.71,3.71,0,0,1,.67-.07,4.3,4.3,0,0,1,.61.05,1.85,1.85,0,0,1,.58.16,1.19,1.19,0,0,1,.42.35,1,1,0,0,1,.16.59v2.11a4.41,4.41,0,0,0,0,.52,1,1,0,0,0,.11.38h-1.12l-.06-.2a1.23,1.23,0,0,1,0-.2,1.49,1.49,0,0,1-.63.39,2.58,2.58,0,0,1-.73.11,2.21,2.21,0,0,1-.54-.07,1.21,1.21,0,0,1-.44-.22,1,1,0,0,1-.29-.38,1.27,1.27,0,0,1-.11-.54,1.16,1.16,0,0,1,.12-.56,1.1,1.1,0,0,1,.31-.36,1.35,1.35,0,0,1,.44-.2l.5-.11.49-.06a2.41,2.41,0,0,0,.43-.07.7.7,0,0,0,.3-.13.3.3,0,0,0,.1-.27.55.55,0,0,0-.06-.28.44.44,0,0,0-.16-.17.71.71,0,0,0-.22-.07,1.27,1.27,0,0,0-.28,0,.77.77,0,0,0-.51.14.6.6,0,0,0-.22.47h-1.11A1.28,1.28,0,0,1,236.77,151.74ZM239,153.3a.79.79,0,0,1-.22.06l-.26,0-.26,0-.25.06a1,1,0,0,0-.21.11.39.39,0,0,0-.14.17.5.5,0,0,0-.06.26.51.51,0,0,0,.06.25.43.43,0,0,0,.14.16.83.83,0,0,0,.22.08l.26,0a.92.92,0,0,0,.51-.11.65.65,0,0,0,.26-.26.72.72,0,0,0,.11-.31c0-.1,0-.19,0-.25v-.41A.51.51,0,0,1,239,153.3Z" transform="translate(-17.01 -104.88)"/><path class="cls-1" d="M241.14,150.52v-.92h1.11v.92Zm1.11.62v4.05h-1.11v-4.05Z" transform="translate(-17.01 -104.88)"/><path class="cls-1" d="M244.18,151.14v.75h0a1.41,1.41,0,0,1,.21-.35,1.63,1.63,0,0,1,.31-.27,2,2,0,0,1,.36-.18,1.4,1.4,0,0,1,.41-.06,1.2,1.2,0,0,1,.24,0v1l-.18,0h-.22a1.13,1.13,0,0,0-.51.1.84.84,0,0,0-.34.27,1.18,1.18,0,0,0-.19.41,2.76,2.76,0,0,0,0,.51v1.83h-1.11v-4.05Z" transform="translate(-17.01 -104.88)"/><path class="cls-1" d="M247.22,154.22a1.14,1.14,0,0,0,1.3.07.64.64,0,0,0,.29-.36h1a1.75,1.75,0,0,1-.72,1,2.09,2.09,0,0,1-1.17.32,2.13,2.13,0,0,1-.86-.16,1.72,1.72,0,0,1-.65-.43A2,2,0,0,1,246,154a2.51,2.51,0,0,1,0-1.71,1.88,1.88,0,0,1,.43-.67,2,2,0,0,1,.65-.45,2.07,2.07,0,0,1,.84-.17,2,2,0,0,1,.9.2,1.93,1.93,0,0,1,.63.54,2.2,2.2,0,0,1,.35.76,2.7,2.7,0,0,1,.08.9H247A1.12,1.12,0,0,0,247.22,154.22Zm1.25-2.13a.75.75,0,0,0-.6-.22.93.93,0,0,0-.44.09.82.82,0,0,0-.29.22.67.67,0,0,0-.14.28,1,1,0,0,0-.05.27h1.8A1.19,1.19,0,0,0,248.47,152.09Z" transform="translate(-17.01 -104.88)"/><path class="cls-1" d="M254.91,149.6h.38l.41,0a2.16,2.16,0,0,1,.38.06.82.82,0,0,1,.3.11,1.58,1.58,0,0,1,.47.46,1.23,1.23,0,0,1,.19.71,1.39,1.39,0,0,1-.21.77,1.25,1.25,0,0,1-.62.48v0a1.28,1.28,0,0,1,.79.47,1.41,1.41,0,0,1,.27.87,1.76,1.76,0,0,1-.1.6,1.72,1.72,0,0,1-.33.51,1.55,1.55,0,0,1-.53.36,1.86,1.86,0,0,1-.73.14h-2.7V149.6Zm.2,2.4a1.47,1.47,0,0,0,.91-.22.82.82,0,0,0,.28-.67.91.91,0,0,0-.1-.47.65.65,0,0,0-.26-.26.91.91,0,0,0-.37-.13l-.46,0h-1.49V152Zm.37,2.56a1,1,0,0,0,.77-.27.94.94,0,0,0,.28-.73,1,1,0,0,0-.1-.46.9.9,0,0,0-.27-.28,1.13,1.13,0,0,0-.39-.15,2.15,2.15,0,0,0-.45,0h-1.7v1.93Z" transform="translate(-17.01 -104.88)"/><path class="cls-1" d="M261.61,150.39a1.7,1.7,0,0,0-1-.3,1.88,1.88,0,0,0-.86.19,1.69,1.69,0,0,0-.58.51,2,2,0,0,0-.34.72,2.94,2.94,0,0,0-.11.84,3.39,3.39,0,0,0,.11.91,2,2,0,0,0,.34.74,1.6,1.6,0,0,0,.59.5,1.76,1.76,0,0,0,.86.19,1.67,1.67,0,0,0,.65-.12,1.51,1.51,0,0,0,.49-.33,1.65,1.65,0,0,0,.33-.52,2.21,2.21,0,0,0,.14-.64H263a2.51,2.51,0,0,1-.73,1.64,2.31,2.31,0,0,1-1.69.59,2.65,2.65,0,0,1-1.13-.22,2.25,2.25,0,0,1-.81-.62,2.68,2.68,0,0,1-.48-.92,4.13,4.13,0,0,1-.16-1.14,3.9,3.9,0,0,1,.17-1.15,2.89,2.89,0,0,1,.51-.93,2.26,2.26,0,0,1,.83-.63,2.73,2.73,0,0,1,1.14-.23,2.76,2.76,0,0,1,.82.12,2,2,0,0,1,1.21.91,2.32,2.32,0,0,1,.27.78h-.75A1.36,1.36,0,0,0,261.61,150.39Z" transform="translate(-17.01 -104.88)"/><path class="cls-1" d="M267.77,154.77a2.27,2.27,0,0,1-1.63.54,2.52,2.52,0,0,1-1.68-.51,2,2,0,0,1-.61-1.63V149.6h.74v3.57a1.55,1.55,0,0,0,.4,1.14,1.63,1.63,0,0,0,1.15.38,1.47,1.47,0,0,0,1.09-.38,1.63,1.63,0,0,0,.37-1.14V149.6h.74v3.57A2.08,2.08,0,0,1,267.77,154.77Z" transform="translate(-17.01 -104.88)"/><path class="cls-1" d="M108.66,160.78v2.32l2.18-2.32h1.53L110.19,163l2.39,3.38H111l-1.68-2.51-.7.71v1.8h-1.23v-5.59Z" transform="translate(-17.01 -104.88)"/><path class="cls-1" d="M113.11,162.92a1.36,1.36,0,0,1,.44-.42,1.81,1.81,0,0,1,.59-.22,3.81,3.81,0,0,1,.67-.07,4.32,4.32,0,0,1,.62,0,1.72,1.72,0,0,1,.57.16,1.19,1.19,0,0,1,.42.35,1,1,0,0,1,.17.59v2.11a4.41,4.41,0,0,0,0,.52,1,1,0,0,0,.11.38H115.6a1.46,1.46,0,0,1,0-.2l0-.2a1.31,1.31,0,0,1-.62.39,2.65,2.65,0,0,1-.74.11,2.35,2.35,0,0,1-.54-.07,1.25,1.25,0,0,1-.43-.22,1,1,0,0,1-.3-.38,1.27,1.27,0,0,1-.1-.54,1.13,1.13,0,0,1,.12-.56,1,1,0,0,1,.31-.36,1.27,1.27,0,0,1,.44-.2,4,4,0,0,1,.5-.1l.49-.07a2.58,2.58,0,0,0,.43-.07.7.7,0,0,0,.3-.14.3.3,0,0,0,.1-.26.55.55,0,0,0-.06-.28.44.44,0,0,0-.16-.17A.52.52,0,0,0,115,163a1.14,1.14,0,0,0-.27,0,.82.82,0,0,0-.52.14.64.64,0,0,0-.22.47h-1.11A1.28,1.28,0,0,1,113.11,162.92Zm2.19,1.57-.23,0-.25,0-.27,0-.24.06a1,1,0,0,0-.21.11.5.5,0,0,0-.15.17.63.63,0,0,0,0,.26.62.62,0,0,0,0,.25.57.57,0,0,0,.15.16.72.72,0,0,0,.22.08l.26,0a.92.92,0,0,0,.51-.11.72.72,0,0,0,.26-.26.89.89,0,0,0,.11-.31c0-.1,0-.19,0-.25v-.41A.77.77,0,0,1,115.3,164.49Z" transform="translate(-17.01 -104.88)"/><path class="cls-1" d="M118.5,162.32v.57h0a1.28,1.28,0,0,1,.54-.52,1.73,1.73,0,0,1,.69-.16,1.89,1.89,0,0,1,.73.12,1.14,1.14,0,0,1,.45.34,1.39,1.39,0,0,1,.24.52,3.69,3.69,0,0,1,.06.69v2.49h-1.11v-2.29a1.33,1.33,0,0,0-.16-.74.58.58,0,0,0-.55-.25.78.78,0,0,0-.66.27,1.56,1.56,0,0,0-.2.89v2.12h-1.11v-4.05Z" transform="translate(-17.01 -104.88)"/><path class="cls-1" d="M124.31,162.32v.75h-.82v2a.5.5,0,0,0,.1.37.53.53,0,0,0,.37.1h.18a.86.86,0,0,0,.17,0v.87l-.32,0h-.33a3.74,3.74,0,0,1-.49,0,1.11,1.11,0,0,1-.41-.14.71.71,0,0,1-.28-.29,1.12,1.12,0,0,1-.1-.49v-2.38h-.67v-.75h.67v-1.21h1.11v1.21Z" transform="translate(-17.01 -104.88)"/><path class="cls-1" d="M124.86,163.47a1.91,1.91,0,0,1,.42-.67,1.93,1.93,0,0,1,.66-.43,2.16,2.16,0,0,1,.86-.16,2.21,2.21,0,0,1,.87.16,1.93,1.93,0,0,1,.66.43,1.91,1.91,0,0,1,.42.67,2.63,2.63,0,0,1,0,1.75,1.82,1.82,0,0,1-.42.67,1.93,1.93,0,0,1-.66.43,2.41,2.41,0,0,1-.87.15,2.35,2.35,0,0,1-.86-.15,1.93,1.93,0,0,1-.66-.43,1.82,1.82,0,0,1-.42-.67,2.63,2.63,0,0,1,0-1.75Zm1,1.35a1.41,1.41,0,0,0,.16.42.92.92,0,0,0,.3.29,1,1,0,0,0,.47.11.93.93,0,0,0,.47-.11.86.86,0,0,0,.31-.29,1.18,1.18,0,0,0,.16-.42,2.42,2.42,0,0,0,.05-.47,2.61,2.61,0,0,0-.05-.48,1.07,1.07,0,0,0-.16-.41,1,1,0,0,0-.31-.3.93.93,0,0,0-.47-.11,1,1,0,0,0-.47.11,1.07,1.07,0,0,0-.3.3,1.25,1.25,0,0,0-.16.41,2.61,2.61,0,0,0-.05.48A2.42,2.42,0,0,0,125.87,164.82Z" transform="translate(-17.01 -104.88)"/><path class="cls-1" d="M130.67,162.32v.57h0a1.28,1.28,0,0,1,.54-.52,1.73,1.73,0,0,1,.69-.16,1.89,1.89,0,0,1,.73.12,1.22,1.22,0,0,1,.45.34,1.24,1.24,0,0,1,.23.52,3,3,0,0,1,.07.69v2.49H132.3v-2.29a1.33,1.33,0,0,0-.16-.74.59.59,0,0,0-.55-.25.78.78,0,0,0-.66.27,1.56,1.56,0,0,0-.2.89v2.12h-1.11v-4.05Z" transform="translate(-17.01 -104.88)"/><path class="cls-1" d="M135.19,165.36a.55.55,0,0,0,.19.21.66.66,0,0,0,.27.12,1.12,1.12,0,0,0,.32,0l.24,0a.85.85,0,0,0,.24-.09.44.44,0,0,0,.17-.16.36.36,0,0,0,.07-.24c0-.17-.11-.3-.33-.38a6.69,6.69,0,0,0-.92-.25l-.48-.13a1.72,1.72,0,0,1-.41-.19,1.22,1.22,0,0,1-.29-.31.88.88,0,0,1-.11-.45,1.15,1.15,0,0,1,.16-.64,1,1,0,0,1,.4-.39,1.71,1.71,0,0,1,.56-.21,3.39,3.39,0,0,1,.64-.06,2.73,2.73,0,0,1,.64.07,1.58,1.58,0,0,1,.55.21,1.24,1.24,0,0,1,.4.39,1.3,1.3,0,0,1,.2.62h-1.06a.51.51,0,0,0-.24-.43,1.08,1.08,0,0,0-.52-.11h-.2a.59.59,0,0,0-.2.05.33.33,0,0,0-.15.11.27.27,0,0,0-.07.2.3.3,0,0,0,.11.24.81.81,0,0,0,.29.16l.4.1.46.1a3.79,3.79,0,0,1,.48.14,1.74,1.74,0,0,1,.41.2,1.26,1.26,0,0,1,.29.32,1,1,0,0,1,.11.48,1.38,1.38,0,0,1-.16.67,1.33,1.33,0,0,1-.42.43,1.69,1.69,0,0,1-.59.23,3.14,3.14,0,0,1-.68.07,4,4,0,0,1-.69-.07,2,2,0,0,1-.6-.24,1.36,1.36,0,0,1-.43-.43,1.39,1.39,0,0,1-.18-.68h1.05A.62.62,0,0,0,135.19,165.36Z" transform="translate(-17.01 -104.88)"/><path class="cls-1" d="M140.8,163.75v1h-2.35v-1Z" transform="translate(-17.01 -104.88)"/><path class="cls-1" d="M146.55,166.37v-.57h0a1.27,1.27,0,0,1-.55.51,1.55,1.55,0,0,1-.69.16,1.89,1.89,0,0,1-.73-.12,1.1,1.1,0,0,1-.45-.33,1.28,1.28,0,0,1-.23-.53,2.84,2.84,0,0,1-.07-.68v-2.49h1.11v2.29a1.33,1.33,0,0,0,.16.74.59.59,0,0,0,.55.25.76.76,0,0,0,.66-.27,1.47,1.47,0,0,0,.21-.89v-2.12h1.11v4.05Z" transform="translate(-17.01 -104.88)"/><path class="cls-1" d="M149.51,162.32v.57h0a1.25,1.25,0,0,1,.55-.52,1.66,1.66,0,0,1,.69-.16,1.92,1.92,0,0,1,.73.12,1.22,1.22,0,0,1,.45.34,1.37,1.37,0,0,1,.23.52,3.69,3.69,0,0,1,.06.69v2.49h-1.11v-2.29a1.44,1.44,0,0,0-.15-.74.61.61,0,0,0-.56-.25.78.78,0,0,0-.66.27,1.56,1.56,0,0,0-.2.89v2.12h-1.11v-4.05Z" transform="translate(-17.01 -104.88)"/><path class="cls-1" d="M156,165.85a1.1,1.1,0,0,1-.51.47,1.66,1.66,0,0,1-.72.15,1.71,1.71,0,0,1-.8-.18,1.54,1.54,0,0,1-.56-.48,2.22,2.22,0,0,1-.34-.69,2.73,2.73,0,0,1-.11-.81,2.65,2.65,0,0,1,.11-.79,2.23,2.23,0,0,1,.34-.67,1.67,1.67,0,0,1,1.34-.64,1.45,1.45,0,0,1,.68.16,1.12,1.12,0,0,1,.51.45h0v-2H157v5.59H156v-.52Zm-.05-2a1.13,1.13,0,0,0-.16-.41.86.86,0,0,0-.29-.28.89.89,0,0,0-.46-.11,1,1,0,0,0-.46.11.92.92,0,0,0-.3.29,1.35,1.35,0,0,0-.16.41,1.86,1.86,0,0,0-.05.48,2.5,2.5,0,0,0,.05.47,1.33,1.33,0,0,0,.18.42.92.92,0,0,0,.3.29.81.81,0,0,0,.44.12.89.89,0,0,0,.46-.11.92.92,0,0,0,.3-.29,1.5,1.5,0,0,0,.15-.42,2.63,2.63,0,0,0,.05-.49A2.52,2.52,0,0,0,155.91,163.85Z" transform="translate(-17.01 -104.88)"/><path class="cls-1" d="M164.26,165.94a3.06,3.06,0,0,1-3.5,0,2.1,2.1,0,0,1-.62-1.69v-3.47h1.22v3.47a3.27,3.27,0,0,0,0,.45.86.86,0,0,0,.17.39.89.89,0,0,0,.35.27,1.35,1.35,0,0,0,.59.11,1.14,1.14,0,0,0,.91-.3,1.37,1.37,0,0,0,.25-.92v-3.47h1.23v3.47A2.1,2.1,0,0,1,164.26,165.94Z" transform="translate(-17.01 -104.88)"/><path class="cls-1" d="M166.89,162.32v.57h0a1.28,1.28,0,0,1,.54-.52,1.73,1.73,0,0,1,.69-.16,1.89,1.89,0,0,1,.73.12,1.22,1.22,0,0,1,.45.34,1.24,1.24,0,0,1,.23.52,3,3,0,0,1,.07.69v2.49h-1.11v-2.29a1.33,1.33,0,0,0-.16-.74.59.59,0,0,0-.55-.25.77.77,0,0,0-.66.27,1.48,1.48,0,0,0-.2.89v2.12h-1.11v-4.05Z" transform="translate(-17.01 -104.88)"/><path class="cls-1" d="M170.5,161.7v-.92h1.12v.92Zm1.12.62v4.05H170.5v-4.05Z" transform="translate(-17.01 -104.88)"/><path class="cls-1" d="M173.49,166.37l-1.38-4.05h1.16l.86,2.76h0l.85-2.76h1.11l-1.37,4.05Z" transform="translate(-17.01 -104.88)"/><path class="cls-1" d="M177.75,165.4a1,1,0,0,0,.72.24,1,1,0,0,0,.58-.17.64.64,0,0,0,.29-.36h1a1.9,1.9,0,0,1-.72,1,2.17,2.17,0,0,1-1.17.31,2.31,2.31,0,0,1-.86-.15,1.87,1.87,0,0,1-.65-.44,1.84,1.84,0,0,1-.41-.67,2.51,2.51,0,0,1,0-1.71,2,2,0,0,1,.42-.67,2,2,0,0,1,.66-.45,2.07,2.07,0,0,1,.84-.17,2,2,0,0,1,.9.2,1.93,1.93,0,0,1,.63.54,2.2,2.2,0,0,1,.35.76,2.7,2.7,0,0,1,.08.9h-2.92A1.17,1.17,0,0,0,177.75,165.4Zm1.25-2.13a.75.75,0,0,0-.6-.22,1,1,0,0,0-.45.09.88.88,0,0,0-.28.22.85.85,0,0,0-.15.28c0,.1,0,.19-.05.27h1.81A1.22,1.22,0,0,0,179,163.27Z" transform="translate(-17.01 -104.88)"/><path class="cls-1" d="M182.1,162.32v.75h0a1.2,1.2,0,0,1,.21-.34,1.38,1.38,0,0,1,.31-.28,1.49,1.49,0,0,1,.36-.17,1.14,1.14,0,0,1,.41-.07,1.2,1.2,0,0,1,.24,0v1l-.19,0h-.21a1.13,1.13,0,0,0-.51.1.93.93,0,0,0-.34.27,1.15,1.15,0,0,0-.19.42,2.57,2.57,0,0,0-.05.5v1.83h-1.11v-4.05Z" transform="translate(-17.01 -104.88)"/><path class="cls-1" d="M185,165.36a.58.58,0,0,0,.2.21.56.56,0,0,0,.27.12,1.06,1.06,0,0,0,.31,0l.25,0a.92.92,0,0,0,.23-.09.55.55,0,0,0,.18-.16.36.36,0,0,0,.07-.24c0-.17-.11-.3-.33-.38a6.5,6.5,0,0,0-.93-.25l-.47-.13a1.55,1.55,0,0,1-.41-.19,1.06,1.06,0,0,1-.29-.31.79.79,0,0,1-.11-.45,1.24,1.24,0,0,1,.15-.64,1.07,1.07,0,0,1,.4-.39,1.77,1.77,0,0,1,.57-.21,3.39,3.39,0,0,1,.64-.06,2.73,2.73,0,0,1,.64.07,1.74,1.74,0,0,1,.55.21,1.35,1.35,0,0,1,.4.39,1.3,1.3,0,0,1,.19.62h-1.05a.5.5,0,0,0-.25-.43,1,1,0,0,0-.51-.11h-.21a.65.65,0,0,0-.2.05.33.33,0,0,0-.15.11.32.32,0,0,0-.06.2.3.3,0,0,0,.11.24.76.76,0,0,0,.28.16l.41.1.46.1a3.64,3.64,0,0,1,.47.14,1.56,1.56,0,0,1,.41.2,1.1,1.1,0,0,1,.29.32,1,1,0,0,1,.11.48,1.28,1.28,0,0,1-.16.67,1.33,1.33,0,0,1-.42.43,1.62,1.62,0,0,1-.59.23,3.08,3.08,0,0,1-.68.07,3.82,3.82,0,0,1-.68-.07,1.8,1.8,0,0,1-.6-.24,1.26,1.26,0,0,1-.43-.43,1.51,1.51,0,0,1-.19-.68H185A.62.62,0,0,0,185,165.36Z" transform="translate(-17.01 -104.88)"/><path class="cls-1" d="M188.32,161.7v-.92h1.11v.92Zm1.11.62v4.05h-1.11v-4.05Z" transform="translate(-17.01 -104.88)"/><path class="cls-1" d="M192.53,162.32v.75h-.82v2a.38.38,0,0,0,.47.47h.18a.86.86,0,0,0,.17,0v.87l-.31,0h-.34a3.74,3.74,0,0,1-.49,0,1.11,1.11,0,0,1-.41-.14.64.64,0,0,1-.27-.29,1,1,0,0,1-.11-.49v-2.38h-.67v-.75h.67v-1.21h1.11v1.21Z" transform="translate(-17.01 -104.88)"/><path class="cls-1" d="M193.21,162.92a1.36,1.36,0,0,1,.44-.42,1.78,1.78,0,0,1,.6-.22,3.7,3.7,0,0,1,.66-.07,4.32,4.32,0,0,1,.62,0,1.72,1.72,0,0,1,.57.16,1.11,1.11,0,0,1,.42.35,1,1,0,0,1,.17.59v2.11a4.41,4.41,0,0,0,0,.52,1,1,0,0,0,.11.38H195.7l0-.2a1.23,1.23,0,0,1,0-.2,1.39,1.39,0,0,1-.63.39,2.65,2.65,0,0,1-.74.11,2.35,2.35,0,0,1-.54-.07,1.25,1.25,0,0,1-.43-.22,1,1,0,0,1-.3-.38,1.27,1.27,0,0,1-.1-.54,1.13,1.13,0,0,1,.12-.56,1,1,0,0,1,.31-.36,1.35,1.35,0,0,1,.44-.2,4,4,0,0,1,.5-.1l.49-.07a2.58,2.58,0,0,0,.43-.07.7.7,0,0,0,.3-.14.3.3,0,0,0,.1-.26.55.55,0,0,0-.06-.28.44.44,0,0,0-.16-.17.52.52,0,0,0-.22-.07,1.27,1.27,0,0,0-.28,0,.82.82,0,0,0-.52.14.64.64,0,0,0-.22.47H193A1.28,1.28,0,0,1,193.21,162.92Zm1.4-2.14v.92h-1.06v-.92Zm.79,3.71-.23,0-.25,0-.26,0-.25.06a1,1,0,0,0-.21.11.5.5,0,0,0-.15.17.63.63,0,0,0-.05.26.62.62,0,0,0,.05.25.57.57,0,0,0,.15.16.72.72,0,0,0,.22.08l.26,0a.92.92,0,0,0,.51-.11.65.65,0,0,0,.26-.26.72.72,0,0,0,.11-.31c0-.1,0-.19,0-.25v-.41A.77.77,0,0,1,195.4,164.49Zm.82-3.71v.92h-1.06v-.92Z" transform="translate(-17.01 -104.88)"/><path class="cls-1" d="M199.77,162.32v.75H199v2a.55.55,0,0,0,.09.37.56.56,0,0,0,.38.1h.18a.9.9,0,0,0,.16,0v.87l-.31,0h-.34a3.89,3.89,0,0,1-.49,0,1,1,0,0,1-.4-.14.66.66,0,0,1-.28-.29,1,1,0,0,1-.1-.49v-2.38h-.68v-.75h.68v-1.21H199v1.21Z" transform="translate(-17.01 -104.88)"/><path class="cls-1" d="M201.24,165.36a.55.55,0,0,0,.19.21.66.66,0,0,0,.27.12,1.1,1.1,0,0,0,.31,0l.25,0a.85.85,0,0,0,.24-.09.44.44,0,0,0,.17-.16.36.36,0,0,0,.07-.24c0-.17-.11-.3-.33-.38a6.5,6.5,0,0,0-.93-.25l-.47-.13a1.72,1.72,0,0,1-.41-.19,1.06,1.06,0,0,1-.29-.31.88.88,0,0,1-.11-.45,1.24,1.24,0,0,1,.15-.64,1,1,0,0,1,.41-.39,1.63,1.63,0,0,1,.56-.21,3.39,3.39,0,0,1,.64-.06,2.73,2.73,0,0,1,.64.07,1.66,1.66,0,0,1,.55.21,1.35,1.35,0,0,1,.4.39,1.3,1.3,0,0,1,.19.62h-1.05a.51.51,0,0,0-.24-.43,1.08,1.08,0,0,0-.52-.11h-.2a.59.59,0,0,0-.2.05.42.42,0,0,0-.16.11.32.32,0,0,0-.06.2.3.3,0,0,0,.11.24.73.73,0,0,0,.29.16l.4.1.46.1a3.64,3.64,0,0,1,.47.14,1.56,1.56,0,0,1,.41.2,1.1,1.1,0,0,1,.29.32.9.9,0,0,1,.11.48,1.28,1.28,0,0,1-.16.67,1.24,1.24,0,0,1-.42.43,1.55,1.55,0,0,1-.59.23,3,3,0,0,1-.67.07,3.84,3.84,0,0,1-.69-.07,1.89,1.89,0,0,1-.6-.24,1.36,1.36,0,0,1-.43-.43,1.39,1.39,0,0,1-.18-.68h1A.62.62,0,0,0,201.24,165.36Z" transform="translate(-17.01 -104.88)"/><path class="cls-1" d="M205.61,160.78v2h0a1.13,1.13,0,0,1,.55-.46,1.79,1.79,0,0,1,.72-.15,1.38,1.38,0,0,1,.6.13,1.52,1.52,0,0,1,.54.38,1.92,1.92,0,0,1,.39.66,3.15,3.15,0,0,1,0,1.92,1.92,1.92,0,0,1-.39.66,1.52,1.52,0,0,1-.54.38,1.38,1.38,0,0,1-.6.13,2.28,2.28,0,0,1-.8-.14,1.08,1.08,0,0,1-.53-.48h0v.52H204.5v-5.59Zm1.8,3.08a1.32,1.32,0,0,0-.17-.42,1,1,0,0,0-.29-.28.83.83,0,0,0-.43-.11.82.82,0,0,0-.42.11.89.89,0,0,0-.3.28,1.32,1.32,0,0,0-.17.42,1.93,1.93,0,0,0-.06.49,1.91,1.91,0,0,0,.06.48,1.32,1.32,0,0,0,.17.42.89.89,0,0,0,.3.28.82.82,0,0,0,.42.11.83.83,0,0,0,.43-.11,1,1,0,0,0,.29-.28,1.32,1.32,0,0,0,.17-.42,1.91,1.91,0,0,0,.06-.48A1.93,1.93,0,0,0,207.41,163.86Z" transform="translate(-17.01 -104.88)"/><path class="cls-1" d="M209.31,161.7v-.92h1.11v.92Zm1.11.62v4.05h-1.11v-4.05Z" transform="translate(-17.01 -104.88)"/><path class="cls-1" d="M212.41,160.78v2h0a1.15,1.15,0,0,1,.56-.46,1.79,1.79,0,0,1,.72-.15,1.44,1.44,0,0,1,.6.13,1.52,1.52,0,0,1,.54.38,1.91,1.91,0,0,1,.38.66,3.15,3.15,0,0,1,0,1.92,1.91,1.91,0,0,1-.38.66,1.52,1.52,0,0,1-.54.38,1.44,1.44,0,0,1-.6.13,2.24,2.24,0,0,1-.8-.14,1.08,1.08,0,0,1-.53-.48h0v.52h-1v-5.59Zm1.8,3.08a1.6,1.6,0,0,0-.17-.42.89.89,0,0,0-.3-.28.82.82,0,0,0-.42-.11.83.83,0,0,0-.43.11.78.78,0,0,0-.29.28,1.33,1.33,0,0,0-.18.42,2.38,2.38,0,0,0,0,1,1.33,1.33,0,0,0,.18.42.78.78,0,0,0,.29.28.83.83,0,0,0,.43.11.82.82,0,0,0,.42-.11.89.89,0,0,0,.3-.28,1.6,1.6,0,0,0,.17-.42,2.38,2.38,0,0,0,0-1Z" transform="translate(-17.01 -104.88)"/><path class="cls-1" d="M217.22,160.78v5.59h-1.11v-5.59Z" transform="translate(-17.01 -104.88)"/><path class="cls-1" d="M218.13,161.7v-.92h1.11v.92Zm1.11.62v4.05h-1.11v-4.05Z" transform="translate(-17.01 -104.88)"/><path class="cls-1" d="M220.13,163.47a1.91,1.91,0,0,1,1.08-1.1,2.42,2.42,0,0,1,1.73,0,1.76,1.76,0,0,1,.66.43,1.91,1.91,0,0,1,.42.67,2.63,2.63,0,0,1,0,1.75,1.82,1.82,0,0,1-.42.67,1.76,1.76,0,0,1-.66.43,2.57,2.57,0,0,1-1.73,0,1.8,1.8,0,0,1-.65-.43,1.72,1.72,0,0,1-.43-.67,2.8,2.8,0,0,1,0-1.75Zm1,1.35a1.41,1.41,0,0,0,.16.42.92.92,0,0,0,.3.29,1,1,0,0,0,.47.11,1,1,0,0,0,.48-.11.83.83,0,0,0,.3-.29,1.18,1.18,0,0,0,.16-.42,2.42,2.42,0,0,0,.05-.47,2.61,2.61,0,0,0-.05-.48,1.07,1.07,0,0,0-.16-.41,1,1,0,0,0-.3-.3,1,1,0,0,0-.48-.11,1,1,0,0,0-.47.11,1.07,1.07,0,0,0-.3.3,1.25,1.25,0,0,0-.16.41,2.59,2.59,0,0,0,0,.48A2.42,2.42,0,0,0,221.14,164.82Z" transform="translate(-17.01 -104.88)"/><path class="cls-1" d="M227.11,162.32v.75h-.81v2a.55.55,0,0,0,.09.37.56.56,0,0,0,.38.1H227a.9.9,0,0,0,.16,0v.87l-.31,0h-.34a3.89,3.89,0,0,1-.49,0,1,1,0,0,1-.4-.14.66.66,0,0,1-.28-.29,1,1,0,0,1-.1-.49v-2.38h-.68v-.75h.68v-1.21h1.11v1.21Z" transform="translate(-17.01 -104.88)"/><path class="cls-1" d="M228.75,160.78v2.11h0a1.28,1.28,0,0,1,.54-.52,1.55,1.55,0,0,1,.64-.16,1.92,1.92,0,0,1,.73.12,1.22,1.22,0,0,1,.45.34,1.24,1.24,0,0,1,.23.52,3.66,3.66,0,0,1,.07.69v2.49h-1.11v-2.29a1.43,1.43,0,0,0-.16-.74.61.61,0,0,0-.56-.25.75.75,0,0,0-.65.27,1.47,1.47,0,0,0-.21.89v2.12h-1.11v-5.59Z" transform="translate(-17.01 -104.88)"/><path class="cls-1" d="M233.47,165.4a1.14,1.14,0,0,0,1.3.07.64.64,0,0,0,.29-.36h1a1.81,1.81,0,0,1-.72,1,2.17,2.17,0,0,1-1.17.31,2.31,2.31,0,0,1-.86-.15,1.87,1.87,0,0,1-.65-.44,2,2,0,0,1-.41-.67,2.51,2.51,0,0,1,0-1.71,1.88,1.88,0,0,1,.43-.67,2,2,0,0,1,.65-.45,2.07,2.07,0,0,1,.84-.17,2,2,0,0,1,.9.2,1.93,1.93,0,0,1,.63.54,2.2,2.2,0,0,1,.35.76,2.7,2.7,0,0,1,.08.9H233.2A1.12,1.12,0,0,0,233.47,165.4Zm1.25-2.13a.75.75,0,0,0-.6-.22.93.93,0,0,0-.44.09.82.82,0,0,0-.29.22.67.67,0,0,0-.14.28,1,1,0,0,0-.05.27H235A1.22,1.22,0,0,0,234.72,163.27Z" transform="translate(-17.01 -104.88)"/><path class="cls-1" d="M238,160.78v3l1.4-1.46h1.32l-1.53,1.49,1.7,2.56h-1.35l-1.11-1.81L238,165v1.4h-1.11v-5.59Z" transform="translate(-17.01 -104.88)"/><path class="cls-1" d="M244.36,160.78v2.79l2.83-2.79h1L245.8,163l2.45,3.34h-.94l-2-2.83-.93.87v2h-.74v-5.59Z" transform="translate(-17.01 -104.88)"/><path class="cls-1" d="M252.72,166a2.31,2.31,0,0,1-1.62.53,2.56,2.56,0,0,1-1.69-.51,2,2,0,0,1-.61-1.63v-3.57h.75v3.57a1.51,1.51,0,0,0,.4,1.14,1.61,1.61,0,0,0,1.15.38,1.46,1.46,0,0,0,1.08-.38,1.58,1.58,0,0,0,.37-1.14v-3.57h.74v3.57A2.12,2.12,0,0,1,252.72,166Z" transform="translate(-17.01 -104.88)"/><path class="cls-1" d="M256.51,160.78h.39l.41,0a2,2,0,0,1,.37.06.77.77,0,0,1,.31.12,1.41,1.41,0,0,1,.46.45,1.23,1.23,0,0,1,.19.71,1.39,1.39,0,0,1-.21.77,1.25,1.25,0,0,1-.62.48v0a1.25,1.25,0,0,1,.79.47,1.35,1.35,0,0,1,.28.87,1.77,1.77,0,0,1-.11.6,1.4,1.4,0,0,1-.33.51,1.55,1.55,0,0,1-.53.36,1.83,1.83,0,0,1-.73.14h-2.7v-5.59Zm.2,2.4a1.45,1.45,0,0,0,.91-.22.79.79,0,0,0,.28-.67,1,1,0,0,0-.09-.47.72.72,0,0,0-.26-.26,1,1,0,0,0-.38-.13l-.46,0h-1.48v1.77Zm.38,2.56a1.06,1.06,0,0,0,.77-.27,1,1,0,0,0,.27-.73.88.88,0,0,0-.1-.45.69.69,0,0,0-.27-.29,1.16,1.16,0,0,0-.38-.15,2.32,2.32,0,0,0-.46,0h-1.69v1.93Z" transform="translate(-17.01 -104.88)"/></svg>