<svg id="Calque_1" data-name="Calque 1" xmlns="http://www.w3.org/2000/svg" viewBox="0 0 188.4 47.91"><defs><style>.cls-1{fill:#1d1d1b;}</style></defs><path class="cls-1" d="M45.35,139.71v1.47A29.25,29.25,0,0,0,57,135a22,22,0,0,0,4.4-5.71l.09-.15A27.56,27.56,0,0,0,64,122c1.59-7.65-.77-15.42-1.32-16.36a2,2,0,0,0-1.95-.74H45.35v17.57H56.86a2,2,0,0,1,.34,0,.87.87,0,0,1,.73.69.91.91,0,0,1,0,.33c-.09,3.44-1.86,10.37-11.71,14.79l-.9.38Z" transform="translate(-45.35 -104.88)"/><path class="cls-1" d="M76.77,105.16v.63H73.65v1.77h2.91v.63H73.65v1.93h3.14v.63H72.91v-5.59Z" transform="translate(-45.35 -104.88)"/><path class="cls-1" d="M77.25,105.79v-.63h4.47v.63H79.86v5h-.75v-5Z" transform="translate(-45.35 -104.88)"/><path class="cls-1" d="M84.11,105.16l2.18,5.59h-.82l-.61-1.68H82.5l-.62,1.68h-.76l2.17-5.59Zm.52,3.28-.93-2.6h0l-1,2.6Z" transform="translate(-45.35 -104.88)"/><path class="cls-1" d="M85.68,105.79v-.63h4.47v.63H88.29v5h-.75v-5Z" transform="translate(-45.35 -104.88)"/><path class="cls-1" d="M95.17,105.16a2.8,2.8,0,0,1,2,.66,2.65,2.65,0,0,1,.69,2,4.71,4.71,0,0,1-.15,1.25,2.34,2.34,0,0,1-.49.91,2.13,2.13,0,0,1-.83.57,3.41,3.41,0,0,1-1.21.2H93.25v-5.59Zm.06,5a1.78,1.78,0,0,0,.31,0,1.7,1.7,0,0,0,.82-.31,1.22,1.22,0,0,0,.37-.38,2,2,0,0,0,.27-.61,3.15,3.15,0,0,0,.11-.88A3.46,3.46,0,0,0,97,107a1.61,1.61,0,0,0-.32-.67,1.44,1.44,0,0,0-.57-.43,2.48,2.48,0,0,0-.87-.14H94v4.33Z" transform="translate(-45.35 -104.88)"/><path class="cls-1" d="M102.77,105.16v.63H99.66v1.77h2.9v.63h-2.9v1.93h3.13v.63H98.92v-5.59Z" transform="translate(-45.35 -104.88)"/><path class="cls-1" d="M109.85,105.16v.63h-2.93v1.77h2.57v.63h-2.57v2.56h-.74v-5.59Z" transform="translate(-45.35 -104.88)"/><path class="cls-1" d="M113.46,105.16a1.82,1.82,0,0,1,1.24.39,1.35,1.35,0,0,1,.45,1.08,1.67,1.67,0,0,1-.23.89,1.18,1.18,0,0,1-.74.52v0a1,1,0,0,1,.4.15,1,1,0,0,1,.24.26,1.33,1.33,0,0,1,.13.35,3.91,3.91,0,0,1,.07.39c0,.13,0,.27,0,.41s0,.28,0,.42a2.34,2.34,0,0,0,.09.38,1,1,0,0,0,.18.33h-.83a.53.53,0,0,1-.11-.24,1.69,1.69,0,0,1,0-.33c0-.12,0-.25,0-.39a2.85,2.85,0,0,0,0-.42c0-.14,0-.26-.08-.39a.86.86,0,0,0-.15-.32.84.84,0,0,0-.27-.22,1,1,0,0,0-.44-.08h-1.81v2.39h-.74v-5.59Zm.15,2.54a1.25,1.25,0,0,0,.41-.15.84.84,0,0,0,.28-.31,1,1,0,0,0,.11-.5,1,1,0,0,0-.24-.69,1,1,0,0,0-.75-.26h-1.85v1.95h1.55A3.74,3.74,0,0,0,113.61,107.7Z" transform="translate(-45.35 -104.88)"/><path class="cls-1" d="M117.12,105.16v5.59h-.75v-5.59Z" transform="translate(-45.35 -104.88)"/><path class="cls-1" d="M120.55,105.16h.39l.41,0a2.32,2.32,0,0,1,.38.06,1,1,0,0,1,.3.12,1.51,1.51,0,0,1,.46.45,1.23,1.23,0,0,1,.19.71,1.36,1.36,0,0,1-.21.77,1.22,1.22,0,0,1-.61.48v0a1.25,1.25,0,0,1,.78.47,1.35,1.35,0,0,1,.28.87,1.73,1.73,0,0,1-.11.6,1.4,1.4,0,0,1-.33.51,1.55,1.55,0,0,1-.53.36,1.83,1.83,0,0,1-.73.14h-2.7v-5.59Zm.2,2.4a1.45,1.45,0,0,0,.91-.22.79.79,0,0,0,.28-.67,1,1,0,0,0-.09-.47.72.72,0,0,0-.26-.26.94.94,0,0,0-.38-.12,3.33,3.33,0,0,0-.46,0h-1.48v1.77Zm.38,2.56a1.1,1.1,0,0,0,.77-.26,1,1,0,0,0,.28-.74.88.88,0,0,0-.11-.45.69.69,0,0,0-.27-.29,1.16,1.16,0,0,0-.38-.15,2.32,2.32,0,0,0-.46,0h-1.69v1.93Z" transform="translate(-45.35 -104.88)"/><path class="cls-1" d="M123.89,106.86a2.6,2.6,0,0,1,.51-.94,2.43,2.43,0,0,1,.83-.65,2.72,2.72,0,0,1,1.17-.24,2.64,2.64,0,0,1,1.16.24,2.37,2.37,0,0,1,.84.65,2.76,2.76,0,0,1,.51.94,3.83,3.83,0,0,1,0,2.19,2.76,2.76,0,0,1-.51.94,2.35,2.35,0,0,1-.84.64,2.64,2.64,0,0,1-1.16.24,2.72,2.72,0,0,1-1.17-.24,2.4,2.4,0,0,1-.83-.64,2.6,2.6,0,0,1-.51-.94,3.61,3.61,0,0,1,0-2.19Zm.69,1.93a2.17,2.17,0,0,0,.34.74,1.75,1.75,0,0,0,1.48.72,1.78,1.78,0,0,0,1.48-.72,2.38,2.38,0,0,0,.34-.74,3.22,3.22,0,0,0,0-1.67,2.38,2.38,0,0,0-.34-.74,1.78,1.78,0,0,0-1.48-.72,1.75,1.75,0,0,0-1.48.72,2.17,2.17,0,0,0-.34.74,3.22,3.22,0,0,0,0,1.67Z" transform="translate(-45.35 -104.88)"/><path class="cls-1" d="M134,110.34a2.31,2.31,0,0,1-1.62.53,2.56,2.56,0,0,1-1.69-.51,2,2,0,0,1-.6-1.63v-3.57h.74v3.57a1.51,1.51,0,0,0,.4,1.14,1.57,1.57,0,0,0,1.15.38,1.42,1.42,0,0,0,1.08-.38,1.58,1.58,0,0,0,.37-1.14v-3.57h.75v3.57A2.12,2.12,0,0,1,134,110.34Z" transform="translate(-45.35 -104.88)"/><path class="cls-1" d="M138.57,105.16a1.85,1.85,0,0,1,1.25.39,1.35,1.35,0,0,1,.45,1.08,1.67,1.67,0,0,1-.24.89,1.18,1.18,0,0,1-.74.52v0a.84.84,0,0,1,.64.41,1.35,1.35,0,0,1,.14.35c0,.12.05.25.06.39l0,.41a2,2,0,0,0,0,.42,1.62,1.62,0,0,0,.09.38.8.8,0,0,0,.17.33h-.83a.44.44,0,0,1-.1-.24,3,3,0,0,1,0-.33c0-.12,0-.25,0-.39a2.85,2.85,0,0,0,0-.42c0-.14-.05-.26-.08-.39a.86.86,0,0,0-.15-.32.92.92,0,0,0-.26-.22,1.08,1.08,0,0,0-.44-.08h-1.82v2.39h-.74v-5.59Zm.15,2.54a1.17,1.17,0,0,0,.41-.15.86.86,0,0,0,.29-.31,1.21,1.21,0,0,0-.13-1.19,1,1,0,0,0-.76-.26h-1.85v1.95h1.55A3.74,3.74,0,0,0,138.72,107.7Z" transform="translate(-45.35 -104.88)"/><path class="cls-1" d="M144.82,110.68a2.63,2.63,0,0,1-1,.19,2.52,2.52,0,0,1-1.12-.23,2.48,2.48,0,0,1-.84-.62,2.69,2.69,0,0,1-.52-.9,3.15,3.15,0,0,1-.18-1.06,4.07,4.07,0,0,1,.17-1.16,2.83,2.83,0,0,1,.5-1,2.34,2.34,0,0,1,.83-.66,2.51,2.51,0,0,1,1.16-.25,3.43,3.43,0,0,1,.86.11,2.36,2.36,0,0,1,.72.33,2.07,2.07,0,0,1,.53.57,2.32,2.32,0,0,1,.29.84h-.74a1.58,1.58,0,0,0-.21-.55,1.31,1.31,0,0,0-.36-.38,1.62,1.62,0,0,0-.5-.22,2.27,2.27,0,0,0-.59-.07,1.72,1.72,0,0,0-1.47.73,2.76,2.76,0,0,0-.34.76,3.72,3.72,0,0,0-.11.88,2.63,2.63,0,0,0,.13.84,2.1,2.1,0,0,0,.37.71,1.86,1.86,0,0,0,.59.49,2.09,2.09,0,0,0,1.6,0,1.54,1.54,0,0,0,.57-.38,1.8,1.8,0,0,0,.35-.58,1.88,1.88,0,0,0,.1-.72h-1.78v-.62h2.44v2.94h-.46l-.2-.7A1.9,1.9,0,0,1,144.82,110.68Z" transform="translate(-45.35 -104.88)"/><path class="cls-1" d="M75.71,117.11a1.59,1.59,0,0,0-.95-.27,2.32,2.32,0,0,0-.46,0,1.25,1.25,0,0,0-.41.16.86.86,0,0,0-.28.29,1,1,0,0,0-.1.46.6.6,0,0,0,.15.42,1.11,1.11,0,0,0,.41.26,3.52,3.52,0,0,0,.57.17l.65.14L76,119a2.16,2.16,0,0,1,.57.28,1.3,1.3,0,0,1,.41.46,1.4,1.4,0,0,1,.15.68,1.45,1.45,0,0,1-.2.77,1.55,1.55,0,0,1-.51.51,2.07,2.07,0,0,1-.7.29,3.44,3.44,0,0,1-.77.09,3.68,3.68,0,0,1-.89-.11,2.17,2.17,0,0,1-.73-.36,1.57,1.57,0,0,1-.5-.61,1.87,1.87,0,0,1-.19-.88h.7a1.31,1.31,0,0,0,.14.61,1.19,1.19,0,0,0,.36.41,1.67,1.67,0,0,0,.52.25,2.48,2.48,0,0,0,.61.07,2.92,2.92,0,0,0,.51,0,1.5,1.5,0,0,0,.45-.16.9.9,0,0,0,.33-.31,1,1,0,0,0,.13-.5.65.65,0,0,0-.16-.47,1,1,0,0,0-.4-.29,2.82,2.82,0,0,0-.58-.19l-.65-.14c-.22,0-.44-.11-.65-.18a2.36,2.36,0,0,1-.58-.25,1.24,1.24,0,0,1-.4-.42,1.15,1.15,0,0,1-.16-.64,1.47,1.47,0,0,1,.63-1.23,1.84,1.84,0,0,1,.65-.3,2.66,2.66,0,0,1,.75-.1,2.92,2.92,0,0,1,.8.1,1.92,1.92,0,0,1,.64.32,1.58,1.58,0,0,1,.44.55,2,2,0,0,1,.18.8h-.71A1.15,1.15,0,0,0,75.71,117.11Z" transform="translate(-45.35 -104.88)"/><path class="cls-1" d="M77.23,117v-.63H81.7V117H79.83v5h-.74v-5Z" transform="translate(-45.35 -104.88)"/><path class="cls-1" d="M84.09,116.34l2.18,5.59h-.82l-.61-1.68H82.48l-.63,1.68h-.76l2.18-5.59Zm.51,3.28-.93-2.6h0l-1,2.6Z" transform="translate(-45.35 -104.88)"/><path class="cls-1" d="M89.31,116.34l2.18,5.59h-.82l-.61-1.68H87.7l-.62,1.68h-.76l2.17-5.59Zm.52,3.28L88.9,117h0l-.94,2.6Z" transform="translate(-45.35 -104.88)"/><path class="cls-1" d="M90.88,117v-.63h4.47V117H93.49v5h-.74v-5Z" transform="translate(-45.35 -104.88)"/><path class="cls-1" d="M102.12,116.34V117H99.2v1.77h2.56v.63H99.2v2.56h-.74v-5.59Z" transform="translate(-45.35 -104.88)"/><path class="cls-1" d="M105.73,116.34a1.85,1.85,0,0,1,1.25.39,1.37,1.37,0,0,1,.45,1.08,1.76,1.76,0,0,1-.23.89,1.23,1.23,0,0,1-.74.52v0a1,1,0,0,1,.39.15.88.88,0,0,1,.24.27,1.16,1.16,0,0,1,.14.34c0,.12,0,.25.06.39l0,.41a1.84,1.84,0,0,0,0,.41,2.23,2.23,0,0,0,.09.39.87.87,0,0,0,.17.33h-.83a.53.53,0,0,1-.1-.24,3,3,0,0,1,0-.33c0-.12,0-.25,0-.4a2.87,2.87,0,0,0,0-.41c0-.13,0-.26-.08-.39a.86.86,0,0,0-.15-.32.8.8,0,0,0-.26-.22,1.08,1.08,0,0,0-.44-.08h-1.82v2.39h-.74v-5.59Zm.15,2.54a1,1,0,0,0,.41-.16.76.76,0,0,0,.29-.3,1.21,1.21,0,0,0-.13-1.19,1,1,0,0,0-.76-.26h-1.85v2h1.55A3.74,3.74,0,0,0,105.88,118.88Z" transform="translate(-45.35 -104.88)"/><path class="cls-1" d="M112.47,116.34V117h-3.11v1.77h2.9v.63h-2.9v1.93h3.13v.63h-3.88v-5.59Z" transform="translate(-45.35 -104.88)"/><path class="cls-1" d="M114.32,116.34v5.59h-.74v-5.59Z" transform="translate(-45.35 -104.88)"/><path class="cls-1" d="M117.76,116.34h.38l.41,0a2,2,0,0,1,.38.06.82.82,0,0,1,.3.12,1.44,1.44,0,0,1,.47.45,1.23,1.23,0,0,1,.19.71,1.36,1.36,0,0,1-.21.77,1.25,1.25,0,0,1-.62.48v0a1.25,1.25,0,0,1,.79.47,1.35,1.35,0,0,1,.28.87,1.73,1.73,0,0,1-.11.6,1.57,1.57,0,0,1-.86.87,1.83,1.83,0,0,1-.73.14h-2.7v-5.59Zm.2,2.4a1.45,1.45,0,0,0,.91-.22.79.79,0,0,0,.28-.67.91.91,0,0,0-.1-.47.63.63,0,0,0-.25-.26.81.81,0,0,0-.38-.12,3.44,3.44,0,0,0-.46,0h-1.49v1.77Zm.38,2.56a1.12,1.12,0,0,0,.77-.26,1,1,0,0,0,.27-.74.88.88,0,0,0-.1-.45.84.84,0,0,0-.27-.29,1.16,1.16,0,0,0-.38-.15,2.32,2.32,0,0,0-.46,0h-1.7v1.93Z" transform="translate(-45.35 -104.88)"/><path class="cls-1" d="M125.13,121.52a2.32,2.32,0,0,1-1.63.53,2.53,2.53,0,0,1-1.68-.51,2,2,0,0,1-.61-1.63v-3.57H122v3.57a1.51,1.51,0,0,0,.4,1.14,1.54,1.54,0,0,0,1.14.38,1.43,1.43,0,0,0,1.09-.38,1.58,1.58,0,0,0,.37-1.14v-3.57h.74v3.57A2.12,2.12,0,0,1,125.13,121.52Z" transform="translate(-45.35 -104.88)"/><path class="cls-1" d="M129.68,116.34a1.82,1.82,0,0,1,1.24.39,1.37,1.37,0,0,1,.45,1.08,1.76,1.76,0,0,1-.23.89,1.18,1.18,0,0,1-.74.52v0a1,1,0,0,1,.4.15.88.88,0,0,1,.24.27,1.15,1.15,0,0,1,.13.34,3.91,3.91,0,0,1,.07.39c0,.13,0,.27,0,.41s0,.28,0,.41a2.23,2.23,0,0,0,.09.39,1.06,1.06,0,0,0,.18.33h-.83a.53.53,0,0,1-.11-.24,3.11,3.11,0,0,1,0-.33c0-.12,0-.25,0-.4a2.85,2.85,0,0,0,0-.41c0-.13,0-.26-.08-.39a.86.86,0,0,0-.15-.32.84.84,0,0,0-.27-.22,1,1,0,0,0-.43-.08h-1.82v2.39h-.74v-5.59Zm.15,2.54a1,1,0,0,0,.41-.16.74.74,0,0,0,.28-.3,1,1,0,0,0,.11-.5,1,1,0,0,0-.24-.69,1,1,0,0,0-.75-.26h-1.85v2h1.55A3.74,3.74,0,0,0,129.83,118.88Z" transform="translate(-45.35 -104.88)"/><path class="cls-1" d="M135.92,121.86a2.71,2.71,0,0,1-2.09,0,2.48,2.48,0,0,1-.84-.62,2.69,2.69,0,0,1-.52-.9,3.15,3.15,0,0,1-.18-1.06,3.75,3.75,0,0,1,.17-1.16,2.67,2.67,0,0,1,.5-1,2.34,2.34,0,0,1,.83-.66,2.48,2.48,0,0,1,1.16-.25,3.3,3.3,0,0,1,.85.11,2.16,2.16,0,0,1,.72.33,1.93,1.93,0,0,1,.53.57,2.21,2.21,0,0,1,.3.84h-.74a1.58,1.58,0,0,0-.21-.55,1.34,1.34,0,0,0-.37-.38,1.56,1.56,0,0,0-.49-.22,2.27,2.27,0,0,0-.59-.07,1.7,1.7,0,0,0-.87.2,1.56,1.56,0,0,0-.6.54,2.33,2.33,0,0,0-.34.75,3.72,3.72,0,0,0-.11.88,2.63,2.63,0,0,0,.13.84,2.27,2.27,0,0,0,.36.71,1.9,1.9,0,0,0,.6.49,1.81,1.81,0,0,0,.83.18,1.86,1.86,0,0,0,.77-.14,1.63,1.63,0,0,0,.57-.38,1.8,1.8,0,0,0,.35-.58,2.09,2.09,0,0,0,.1-.72H135V119h2.44v2.94h-.47l-.19-.7A1.87,1.87,0,0,1,135.92,121.86Z" transform="translate(-45.35 -104.88)"/><path class="cls-1" d="M75.47,135.9a3.35,3.35,0,0,1,.73.07,1.41,1.41,0,0,1,.56.23,1,1,0,0,1,.36.43,1.39,1.39,0,0,1,.13.65,1.23,1.23,0,0,1-.19.71,1.48,1.48,0,0,1-.57.46,1.32,1.32,0,0,1,.77.52,1.65,1.65,0,0,1,.09,1.62,1.36,1.36,0,0,1-.44.51,1.82,1.82,0,0,1-.63.29,3,3,0,0,1-.73.09H72.84V135.9Zm-.16,2.26a.85.85,0,0,0,.54-.16.58.58,0,0,0,.21-.51.63.63,0,0,0-.07-.32.47.47,0,0,0-.18-.19.79.79,0,0,0-.27-.1,1.73,1.73,0,0,0-.32,0H74.07v1.31Zm.07,2.37a1.34,1.34,0,0,0,.35,0,.92.92,0,0,0,.29-.11.64.64,0,0,0,.2-.23.74.74,0,0,0,.07-.36.72.72,0,0,0-.24-.61,1.06,1.06,0,0,0-.64-.19H74.07v1.54Z" transform="translate(-45.35 -104.88)"/><path class="cls-1" d="M78.26,136.81v-.91h1.11v.91Zm1.11.63v4H78.26v-4Z" transform="translate(-45.35 -104.88)"/><path class="cls-1" d="M81.36,135.9v2h0a1.21,1.21,0,0,1,.56-.46,2,2,0,0,1,.72-.14,1.61,1.61,0,0,1,.6.12,1.69,1.69,0,0,1,.54.39,1.91,1.91,0,0,1,.38.66,2.76,2.76,0,0,1,.15,1,2.67,2.67,0,0,1-.15.95,1.91,1.91,0,0,1-.38.66,1.43,1.43,0,0,1-.54.39,1.61,1.61,0,0,1-.6.12,2,2,0,0,1-.8-.14,1,1,0,0,1-.53-.48h0v.52h-1V135.9Zm1.8,3.07a1.28,1.28,0,0,0-.18-.41.81.81,0,0,0-.29-.29.82.82,0,0,0-.42-.1.83.83,0,0,0-.43.1.81.81,0,0,0-.29.29,1.28,1.28,0,0,0-.18.41,2.43,2.43,0,0,0,0,1,1.28,1.28,0,0,0,.18.41.81.81,0,0,0,.29.29.83.83,0,0,0,.43.1.82.82,0,0,0,.42-.1.81.81,0,0,0,.29-.29,1.28,1.28,0,0,0,.18-.41,2.43,2.43,0,0,0,0-1Z" transform="translate(-45.35 -104.88)"/><path class="cls-1" d="M86.17,135.9v5.58H85.06V135.9Z" transform="translate(-45.35 -104.88)"/><path class="cls-1" d="M87.07,136.81v-.91h1.12v.91Zm1.12.63v4H87.07v-4Z" transform="translate(-45.35 -104.88)"/><path class="cls-1" d="M89.08,138.58a1.88,1.88,0,0,1,.43-.67,1.94,1.94,0,0,1,.65-.43,2.57,2.57,0,0,1,1.73,0,1.89,1.89,0,0,1,.66.43,2,2,0,0,1,.42.67,2.5,2.5,0,0,1,.15.88,2.42,2.42,0,0,1-.15.88,2,2,0,0,1-.42.67,1.74,1.74,0,0,1-.66.42,2.57,2.57,0,0,1-1.73,0,1.78,1.78,0,0,1-.65-.42,1.88,1.88,0,0,1-.43-.67,2.66,2.66,0,0,1-.14-.88A2.75,2.75,0,0,1,89.08,138.58Zm1,1.36a1.67,1.67,0,0,0,.16.41.92.92,0,0,0,.3.29.88.88,0,0,0,.47.11.9.9,0,0,0,.48-.11.76.76,0,0,0,.3-.29,1.13,1.13,0,0,0,.16-.41,2.52,2.52,0,0,0,.05-.48A2.42,2.42,0,0,0,92,139a1.11,1.11,0,0,0-.16-.42.76.76,0,0,0-.3-.29.9.9,0,0,0-.48-.11.88.88,0,0,0-.47.11.92.92,0,0,0-.3.29,1.6,1.6,0,0,0-.16.42,2.42,2.42,0,0,0,0,.47A2.52,2.52,0,0,0,90.09,139.94Z" transform="translate(-45.35 -104.88)"/><path class="cls-1" d="M96.06,137.44v.74h-.81v2a.37.37,0,0,0,.47.47h.18l.16,0v.86a1.48,1.48,0,0,1-.31,0h-.34a3.91,3.91,0,0,1-.49,0,1.18,1.18,0,0,1-.4-.14.78.78,0,0,1-.28-.29,1,1,0,0,1-.1-.49v-2.39h-.68v-.74h.68v-1.21h1.11v1.21Z" transform="translate(-45.35 -104.88)"/><path class="cls-1" d="M97.7,135.9V138h0a1.32,1.32,0,0,1,.54-.51,1.38,1.38,0,0,1,.64-.16,1.89,1.89,0,0,1,.73.12,1,1,0,0,1,.45.34,1.31,1.31,0,0,1,.23.52,3.58,3.58,0,0,1,.06.68v2.49h-1.1V139.2a1.47,1.47,0,0,0-.16-.75.62.62,0,0,0-.56-.24.77.77,0,0,0-.65.26,1.47,1.47,0,0,0-.21.89v2.12H96.59V135.9Z" transform="translate(-45.35 -104.88)"/><path class="cls-1" d="M102.42,140.51a1,1,0,0,0,.72.24,1,1,0,0,0,.58-.16.67.67,0,0,0,.29-.36h1a1.82,1.82,0,0,1-.72,1,2.08,2.08,0,0,1-1.17.31,2.31,2.31,0,0,1-.86-.15,1.85,1.85,0,0,1-.65-.43,1.93,1.93,0,0,1-.41-.68,2.35,2.35,0,0,1-.15-.86,2.32,2.32,0,0,1,.15-.84,1.92,1.92,0,0,1,.43-.68,2,2,0,0,1,.65-.45,2.06,2.06,0,0,1,.84-.16,1.87,1.87,0,0,1,.9.2,1.9,1.9,0,0,1,.63.53,2.25,2.25,0,0,1,.35.77,2.7,2.7,0,0,1,.08.9h-2.92A1.12,1.12,0,0,0,102.42,140.51Zm.48-4.68.75,1.11h-.78l-1.2-1.11Zm.77,2.55a.78.78,0,0,0-.6-.21.93.93,0,0,0-.44.09.82.82,0,0,0-.29.22.67.67,0,0,0-.14.28,1.68,1.68,0,0,0-.06.27H104A1.22,1.22,0,0,0,103.67,138.38Z" transform="translate(-45.35 -104.88)"/><path class="cls-1" d="M108.55,142.9V141h0a1.14,1.14,0,0,1-.55.47,1.86,1.86,0,0,1-.73.14,1.73,1.73,0,0,1-.58-.1,1.47,1.47,0,0,1-.55-.35,1.92,1.92,0,0,1-.42-.65,2.63,2.63,0,0,1-.16-1,2.73,2.73,0,0,1,.11-.81A2,2,0,0,1,106,138a1.66,1.66,0,0,1,.57-.48,1.69,1.69,0,0,1,.8-.18,1.87,1.87,0,0,1,.71.14,1.15,1.15,0,0,1,.52.48h0v-.51h1v5.46Zm-1.84-3a1.13,1.13,0,0,0,.16.41.81.81,0,0,0,.29.29.85.85,0,0,0,.46.11.92.92,0,0,0,.46-.1,1,1,0,0,0,.3-.28,1.67,1.67,0,0,0,.16-.41,2.44,2.44,0,0,0,0-.48,2.5,2.5,0,0,0,0-.47,1.6,1.6,0,0,0-.16-.42,1,1,0,0,0-.29-.31.94.94,0,0,0-.45-.11.85.85,0,0,0-.46.11.92.92,0,0,0-.3.29,1.15,1.15,0,0,0-.17.41,2,2,0,0,0,0,.48A1.91,1.91,0,0,0,106.71,139.94Z" transform="translate(-45.35 -104.88)"/><path class="cls-1" d="M113.23,141.48v-.56h0a1.28,1.28,0,0,1-.55.51,1.64,1.64,0,0,1-.68.15,2.18,2.18,0,0,1-.74-.11,1,1,0,0,1-.45-.34,1.46,1.46,0,0,1-.23-.52,3.58,3.58,0,0,1-.06-.68v-2.49h1.11v2.28a1.48,1.48,0,0,0,.15.75.62.62,0,0,0,.56.24.78.78,0,0,0,.66-.26,1.56,1.56,0,0,0,.2-.89v-2.12h1.11v4Z" transform="translate(-45.35 -104.88)"/><path class="cls-1" d="M116.32,140.51a1,1,0,0,0,.72.24,1,1,0,0,0,.58-.16.75.75,0,0,0,.3-.36h1a1.91,1.91,0,0,1-.72,1,2.14,2.14,0,0,1-1.18.31,2.39,2.39,0,0,1-.86-.15,1.81,1.81,0,0,1-.64-.43,2,2,0,0,1-.42-.68,2.58,2.58,0,0,1-.14-.86,2.32,2.32,0,0,1,.15-.84,2,2,0,0,1,.42-.68,2,2,0,0,1,.65-.45,2.13,2.13,0,0,1,.84-.16,1.81,1.81,0,0,1,.9.2,1.72,1.72,0,0,1,.63.53,2.1,2.1,0,0,1,.36.77,3,3,0,0,1,.08.9h-2.92A1.17,1.17,0,0,0,116.32,140.51Zm1.26-2.13a.81.81,0,0,0-.61-.21,1,1,0,0,0-.44.09.78.78,0,0,0-.28.22.85.85,0,0,0-.15.28,1,1,0,0,0,0,.27h1.81A1.4,1.4,0,0,0,117.58,138.38Z" transform="translate(-45.35 -104.88)"/><path class="cls-1" d="M123.73,138.17a.74.74,0,0,0-.44.12.89.89,0,0,0-.3.31,1.52,1.52,0,0,0-.16.42,2.49,2.49,0,0,0,0,.46,2.38,2.38,0,0,0,0,.45,1.44,1.44,0,0,0,.15.41.92.92,0,0,0,.29.3.87.87,0,0,0,.44.11.8.8,0,0,0,.61-.22,1.11,1.11,0,0,0,.27-.6h1.07a1.83,1.83,0,0,1-.62,1.23,2.06,2.06,0,0,1-1.33.42,2.23,2.23,0,0,1-.83-.15,1.68,1.68,0,0,1-.64-.43,1.92,1.92,0,0,1-.42-.65,2.23,2.23,0,0,1-.15-.83,2.74,2.74,0,0,1,.14-.87,2.1,2.1,0,0,1,.4-.7,1.88,1.88,0,0,1,.65-.46,2.23,2.23,0,0,1,.88-.16,2.61,2.61,0,0,1,.69.09,1.86,1.86,0,0,1,.6.29,1.5,1.5,0,0,1,.42.48,1.55,1.55,0,0,1,.19.67h-1.09A.74.74,0,0,0,123.73,138.17Z" transform="translate(-45.35 -104.88)"/><path class="cls-1" d="M126.44,138a1.24,1.24,0,0,1,.44-.41,1.82,1.82,0,0,1,.59-.23,3.79,3.79,0,0,1,.67-.06,4.4,4.4,0,0,1,.62,0,2,2,0,0,1,.57.17,1.1,1.1,0,0,1,.42.35,1,1,0,0,1,.17.59v2.1a4.58,4.58,0,0,0,0,.53,1,1,0,0,0,.11.37h-1.13a1.05,1.05,0,0,1-.05-.19l0-.2a1.38,1.38,0,0,1-.62.38,2.33,2.33,0,0,1-.74.11,1.9,1.9,0,0,1-.54-.07,1.22,1.22,0,0,1-.44-.22,1,1,0,0,1-.29-.37,1.27,1.27,0,0,1-.1-.54,1.2,1.2,0,0,1,.12-.57,1,1,0,0,1,.31-.35,1.27,1.27,0,0,1,.44-.2,4.31,4.31,0,0,1,.49-.11l.5-.06.43-.07a.83.83,0,0,0,.3-.14.33.33,0,0,0,.1-.26.6.6,0,0,0-.06-.29.41.41,0,0,0-.16-.16.52.52,0,0,0-.23-.08l-.27,0a.89.89,0,0,0-.52.14.66.66,0,0,0-.22.47h-1.11A1.31,1.31,0,0,1,126.44,138Zm2.19,1.57-.23.06-.25,0-.27,0a1.05,1.05,0,0,0-.24.06.7.7,0,0,0-.21.11.57.57,0,0,0-.15.16.53.53,0,0,0,0,.26.49.49,0,0,0,0,.25.46.46,0,0,0,.15.16.53.53,0,0,0,.22.08,1.09,1.09,0,0,0,.26,0,1,1,0,0,0,.51-.11.72.72,0,0,0,.26-.26,1,1,0,0,0,.11-.31c0-.11,0-.19,0-.25v-.42A.4.4,0,0,1,128.63,139.6Z" transform="translate(-45.35 -104.88)"/><path class="cls-1" d="M131.83,137.44V138h0a1.32,1.32,0,0,1,.54-.51,1.58,1.58,0,0,1,.69-.16,1.89,1.89,0,0,1,.73.12,1,1,0,0,1,.45.34,1.18,1.18,0,0,1,.23.52,2.9,2.9,0,0,1,.07.68v2.49h-1.11V139.2a1.37,1.37,0,0,0-.16-.75.6.6,0,0,0-.55-.24.81.81,0,0,0-.66.26,1.56,1.56,0,0,0-.2.89v2.12h-1.11v-4Z" transform="translate(-45.35 -104.88)"/><path class="cls-1" d="M137.64,137.44v.74h-.82v2a.51.51,0,0,0,.1.38.53.53,0,0,0,.37.09h.18l.17,0v.86a1.58,1.58,0,0,1-.32,0H137a3.68,3.68,0,0,1-.49,0,1.24,1.24,0,0,1-.41-.14.78.78,0,0,1-.28-.29,1.15,1.15,0,0,1-.1-.49v-2.39H135v-.74h.67v-1.21h1.11v1.21Z" transform="translate(-45.35 -104.88)"/><path class="cls-1" d="M138.19,138.58a2,2,0,0,1,.42-.67,2.09,2.09,0,0,1,.66-.43,2.35,2.35,0,0,1,.86-.15,2.41,2.41,0,0,1,.87.15,2.09,2.09,0,0,1,.66.43,2,2,0,0,1,.42.67,2.5,2.5,0,0,1,.15.88,2.42,2.42,0,0,1-.15.88,2,2,0,0,1-.42.67,1.91,1.91,0,0,1-.66.42,2.41,2.41,0,0,1-.87.15,2.35,2.35,0,0,1-.86-.15,1.91,1.91,0,0,1-.66-.42,2,2,0,0,1-.42-.67,2.42,2.42,0,0,1-.15-.88A2.5,2.5,0,0,1,138.19,138.58Zm1,1.36a1.35,1.35,0,0,0,.16.41.92.92,0,0,0,.3.29.86.86,0,0,0,.47.11.84.84,0,0,0,.47-.11.86.86,0,0,0,.31-.29,1.35,1.35,0,0,0,.16-.41,2.52,2.52,0,0,0,.05-.48,2.42,2.42,0,0,0-.05-.47,1.31,1.31,0,0,0-.16-.42.86.86,0,0,0-.31-.29.84.84,0,0,0-.47-.11.86.86,0,0,0-.47.11.92.92,0,0,0-.3.29,1.31,1.31,0,0,0-.16.42,2.42,2.42,0,0,0,0,.47A2.52,2.52,0,0,0,139.2,139.94Z" transform="translate(-45.35 -104.88)"/><path class="cls-1" d="M144,137.44V138h0a1.32,1.32,0,0,1,.54-.51,1.58,1.58,0,0,1,.69-.16,1.89,1.89,0,0,1,.73.12,1,1,0,0,1,.45.34,1.18,1.18,0,0,1,.23.52,2.9,2.9,0,0,1,.07.68v2.49h-1.11V139.2a1.37,1.37,0,0,0-.16-.75.6.6,0,0,0-.55-.24.81.81,0,0,0-.66.26,1.56,1.56,0,0,0-.2.89v2.12H143v-4Z" transform="translate(-45.35 -104.88)"/><path class="cls-1" d="M147.73,138a1.33,1.33,0,0,1,.44-.41,2,2,0,0,1,.6-.23,3.71,3.71,0,0,1,.67-.06,4.17,4.17,0,0,1,.61,0,2.17,2.17,0,0,1,.58.17,1.1,1.1,0,0,1,.42.35,1,1,0,0,1,.16.59v2.1a4.58,4.58,0,0,0,0,.53,1,1,0,0,0,.11.37h-1.12a1.05,1.05,0,0,1,0-.19.69.69,0,0,1,0-.2,1.46,1.46,0,0,1-.63.38,2.27,2.27,0,0,1-.73.11,1.9,1.9,0,0,1-.54-.07,1.14,1.14,0,0,1-.44-.22,1,1,0,0,1-.29-.37,1.27,1.27,0,0,1-.11-.54,1.2,1.2,0,0,1,.12-.57,1,1,0,0,1,.32-.35,1.22,1.22,0,0,1,.43-.2,4.48,4.48,0,0,1,.5-.11l.49-.06a3.87,3.87,0,0,0,.43-.07.7.7,0,0,0,.3-.14.3.3,0,0,0,.1-.26.6.6,0,0,0-.06-.29.46.46,0,0,0-.15-.16.57.57,0,0,0-.23-.08l-.28,0a.84.84,0,0,0-.51.14.62.62,0,0,0-.22.47h-1.11A1.31,1.31,0,0,1,147.73,138Zm2.2,1.57-.23.06-.25,0-.27,0a1.14,1.14,0,0,0-.25.06.7.7,0,0,0-.21.11.43.43,0,0,0-.14.16.53.53,0,0,0-.06.26.49.49,0,0,0,.06.25.33.33,0,0,0,.15.16.48.48,0,0,0,.22.08,1.17,1.17,0,0,0,.76-.08.75.75,0,0,0,.27-.26.94.94,0,0,0,.1-.31,1.29,1.29,0,0,0,0-.25v-.42A.37.37,0,0,1,149.93,139.6Z" transform="translate(-45.35 -104.88)"/><path class="cls-1" d="M153.21,135.9v5.58H152.1V135.9Z" transform="translate(-45.35 -104.88)"/><path class="cls-1" d="M155.28,140.51a1.17,1.17,0,0,0,1.3.08.75.75,0,0,0,.3-.36h1a1.82,1.82,0,0,1-.72,1,2.08,2.08,0,0,1-1.17.31,2.35,2.35,0,0,1-.86-.15,1.85,1.85,0,0,1-.65-.43,1.93,1.93,0,0,1-.41-.68,2.35,2.35,0,0,1-.15-.86,2.55,2.55,0,0,1,.15-.84,1.92,1.92,0,0,1,.43-.68,2,2,0,0,1,.65-.45,2.06,2.06,0,0,1,.84-.16,1.87,1.87,0,0,1,.9.2,1.81,1.81,0,0,1,.63.53,2.25,2.25,0,0,1,.35.77,2.7,2.7,0,0,1,.08.9H155A1.07,1.07,0,0,0,155.28,140.51Zm1.26-2.13a.82.82,0,0,0-.61-.21.93.93,0,0,0-.44.09.78.78,0,0,0-.28.22.7.7,0,0,0-.15.28,1,1,0,0,0-.05.27h1.8A1.3,1.3,0,0,0,156.54,138.38Z" transform="translate(-45.35 -104.88)"/><path class="cls-1" d="M161.94,140.51a1,1,0,0,0,.72.24,1,1,0,0,0,.58-.16.75.75,0,0,0,.3-.36h1a1.91,1.91,0,0,1-.72,1,2.14,2.14,0,0,1-1.18.31,2.39,2.39,0,0,1-.86-.15,1.94,1.94,0,0,1-.65-.43,2.09,2.09,0,0,1-.41-.68,2.58,2.58,0,0,1-.14-.86,2.32,2.32,0,0,1,.15-.84,2,2,0,0,1,.42-.68,2,2,0,0,1,.65-.45,2.13,2.13,0,0,1,.84-.16,1.81,1.81,0,0,1,.9.2,1.72,1.72,0,0,1,.63.53,2.1,2.1,0,0,1,.36.77,3,3,0,0,1,.08.9h-2.92A1.17,1.17,0,0,0,161.94,140.51Zm1.26-2.13a.81.81,0,0,0-.61-.21,1,1,0,0,0-.44.09.78.78,0,0,0-.28.22.85.85,0,0,0-.15.28,1,1,0,0,0-.05.27h1.81A1.4,1.4,0,0,0,163.2,138.38Z" transform="translate(-45.35 -104.88)"/><path class="cls-1" d="M167.46,137.44v.74h-.81v2a.51.51,0,0,0,.1.38.53.53,0,0,0,.37.09h.18l.16,0v.86a1.42,1.42,0,0,1-.31,0h-.33a3.68,3.68,0,0,1-.49,0,1.24,1.24,0,0,1-.41-.14.78.78,0,0,1-.28-.29,1,1,0,0,1-.1-.49v-2.39h-.67v-.74h.67v-1.21h1.11v1.21Z" transform="translate(-45.35 -104.88)"/><path class="cls-1" d="M172.91,141.48v-.56h0a1.32,1.32,0,0,1-.54.51,1.72,1.72,0,0,1-.69.15,2.12,2.12,0,0,1-.73-.11,1,1,0,0,1-.45-.34,1.18,1.18,0,0,1-.23-.52,2.9,2.9,0,0,1-.07-.68v-2.49h1.11v2.28a1.37,1.37,0,0,0,.16.75.6.6,0,0,0,.55.24.78.78,0,0,0,.66-.26,1.48,1.48,0,0,0,.2-.89v-2.12H174v4Z" transform="translate(-45.35 -104.88)"/><path class="cls-1" d="M175.86,137.44V138h0a1.28,1.28,0,0,1,.55-.51,1.51,1.51,0,0,1,.68-.16,2,2,0,0,1,.74.12,1,1,0,0,1,.44.34,1.32,1.32,0,0,1,.24.52,3.58,3.58,0,0,1,.06.68v2.49h-1.11V139.2a1.37,1.37,0,0,0-.16-.75.6.6,0,0,0-.55-.24.81.81,0,0,0-.66.26,1.56,1.56,0,0,0-.2.89v2.12h-1.11v-4Z" transform="translate(-45.35 -104.88)"/><path class="cls-1" d="M179.48,136.81v-.91h1.11v.91Zm1.11.63v4h-1.11v-4Z" transform="translate(-45.35 -104.88)"/><path class="cls-1" d="M182.46,141.48l-1.38-4h1.17l.85,2.76h0l.86-2.76h1.1l-1.37,4Z" transform="translate(-45.35 -104.88)"/><path class="cls-1" d="M186.72,140.51a1.17,1.17,0,0,0,1.3.08.67.67,0,0,0,.29-.36h1a1.82,1.82,0,0,1-.72,1,2.08,2.08,0,0,1-1.17.31,2.31,2.31,0,0,1-.86-.15,1.85,1.85,0,0,1-.65-.43,1.93,1.93,0,0,1-.41-.68,2.35,2.35,0,0,1-.15-.86,2.32,2.32,0,0,1,.15-.84,1.92,1.92,0,0,1,.43-.68,2,2,0,0,1,.65-.45,2.06,2.06,0,0,1,.84-.16,1.87,1.87,0,0,1,.9.2,1.9,1.9,0,0,1,.63.53,2.48,2.48,0,0,1,.36.77,3,3,0,0,1,.07.9h-2.91A1.07,1.07,0,0,0,186.72,140.51Zm1.25-2.13a.78.78,0,0,0-.6-.21.93.93,0,0,0-.44.09.75.75,0,0,0-.43.5,1,1,0,0,0-.05.27h1.8A1.22,1.22,0,0,0,188,138.38Z" transform="translate(-45.35 -104.88)"/><path class="cls-1" d="M191.08,137.44v.75h0a1.25,1.25,0,0,1,.21-.35,1.14,1.14,0,0,1,.31-.27,1.22,1.22,0,0,1,.36-.18,1.45,1.45,0,0,1,.41-.06.77.77,0,0,1,.25,0v1l-.19,0h-.21a1.15,1.15,0,0,0-.52.1.93.93,0,0,0-.34.28,1,1,0,0,0-.18.41,2.1,2.1,0,0,0-.06.51v1.82H190v-4Z" transform="translate(-45.35 -104.88)"/><path class="cls-1" d="M194,140.48a.76.76,0,0,0,.19.21,1.11,1.11,0,0,0,.27.12,1.12,1.12,0,0,0,.32,0,1.05,1.05,0,0,0,.24,0,.85.85,0,0,0,.24-.09.49.49,0,0,0,.17-.15.41.41,0,0,0,.07-.25c0-.16-.11-.29-.33-.37a5.4,5.4,0,0,0-.93-.25l-.47-.13a1.74,1.74,0,0,1-.41-.2.92.92,0,0,1-.29-.3.94.94,0,0,1-.11-.45,1.21,1.21,0,0,1,.15-.64,1.12,1.12,0,0,1,.41-.4,1.62,1.62,0,0,1,.56-.2,3.44,3.44,0,0,1,1.28,0,1.66,1.66,0,0,1,.55.21,1.18,1.18,0,0,1,.4.4,1.26,1.26,0,0,1,.19.62h-1.05a.5.5,0,0,0-.24-.43,1.08,1.08,0,0,0-.52-.12h-.2l-.2,0a.61.61,0,0,0-.16.12.3.3,0,0,0-.06.2.3.3,0,0,0,.11.24.87.87,0,0,0,.29.15,2.83,2.83,0,0,0,.4.11l.46.1.47.13a1.32,1.32,0,0,1,.41.21,1,1,0,0,1,.29.32.88.88,0,0,1,.11.47,1.26,1.26,0,0,1-.16.67,1.18,1.18,0,0,1-.42.44,1.73,1.73,0,0,1-.59.23,3.71,3.71,0,0,1-.67.06,3.11,3.11,0,0,1-.69-.07,1.6,1.6,0,0,1-.6-.23,1.39,1.39,0,0,1-.43-.44,1.35,1.35,0,0,1-.18-.67h1A.62.62,0,0,0,194,140.48Z" transform="translate(-45.35 -104.88)"/><path class="cls-1" d="M197.29,136.81v-.91h1.11v.91Zm1.11.63v4h-1.11v-4Z" transform="translate(-45.35 -104.88)"/><path class="cls-1" d="M201.5,137.44v.74h-.81v2a.37.37,0,0,0,.47.47h.18l.16,0v.86a1.48,1.48,0,0,1-.31,0h-.34a3.91,3.91,0,0,1-.49,0,1.18,1.18,0,0,1-.4-.14.78.78,0,0,1-.28-.29,1,1,0,0,1-.1-.49v-2.39h-.68v-.74h.68v-1.21h1.11v1.21Z" transform="translate(-45.35 -104.88)"/><path class="cls-1" d="M202.18,138a1.24,1.24,0,0,1,.44-.41,2,2,0,0,1,.6-.23,3.71,3.71,0,0,1,.67-.06,4.26,4.26,0,0,1,.61,0,2,2,0,0,1,.57.17,1.06,1.06,0,0,1,.43.35,1,1,0,0,1,.16.59v2.1a4.58,4.58,0,0,0,0,.53,1,1,0,0,0,.11.37h-1.12a.59.59,0,0,1-.05-.19.69.69,0,0,1,0-.2,1.46,1.46,0,0,1-.63.38,2.27,2.27,0,0,1-.73.11,1.81,1.81,0,0,1-.54-.07,1.07,1.07,0,0,1-.44-.22.89.89,0,0,1-.29-.37,1.27,1.27,0,0,1-.11-.54,1.2,1.2,0,0,1,.12-.57,1.06,1.06,0,0,1,.31-.35,1.35,1.35,0,0,1,.44-.2,4.48,4.48,0,0,1,.5-.11l.49-.06a3.87,3.87,0,0,0,.43-.07.7.7,0,0,0,.3-.14.3.3,0,0,0,.1-.26.6.6,0,0,0-.06-.29.46.46,0,0,0-.15-.16.57.57,0,0,0-.23-.08l-.28,0a.89.89,0,0,0-.52.14.65.65,0,0,0-.21.47H202A1.31,1.31,0,0,1,202.18,138Zm2.2,1.57-.23.06-.26,0-.26,0a1,1,0,0,0-.25.06.7.7,0,0,0-.21.11.43.43,0,0,0-.14.16.53.53,0,0,0-.06.26.49.49,0,0,0,.06.25.36.36,0,0,0,.14.16.58.58,0,0,0,.22.08,1.15,1.15,0,0,0,.26,0,1,1,0,0,0,.51-.11.75.75,0,0,0,.27-.26.94.94,0,0,0,.1-.31c0-.11,0-.19,0-.25v-.42A.37.37,0,0,1,204.38,139.6Z" transform="translate(-45.35 -104.88)"/><path class="cls-1" d="M206.55,136.81v-.91h1.11v.91Zm1.11.63v4h-1.11v-4Z" transform="translate(-45.35 -104.88)"/><path class="cls-1" d="M209.59,137.44v.75h0a1.25,1.25,0,0,1,.21-.35,1.14,1.14,0,0,1,.31-.27,1.22,1.22,0,0,1,.36-.18,1.45,1.45,0,0,1,.41-.06.75.75,0,0,1,.24,0v1l-.18,0h-.22a1.13,1.13,0,0,0-.51.1.86.86,0,0,0-.34.28,1.11,1.11,0,0,0-.19.41,2.76,2.76,0,0,0,0,.51v1.82h-1.11v-4Z" transform="translate(-45.35 -104.88)"/><path class="cls-1" d="M212.63,140.51a1.17,1.17,0,0,0,1.3.08.67.67,0,0,0,.29-.36h1a1.82,1.82,0,0,1-.72,1,2.08,2.08,0,0,1-1.17.31,2.35,2.35,0,0,1-.86-.15,1.85,1.85,0,0,1-.65-.43,1.93,1.93,0,0,1-.41-.68,2.35,2.35,0,0,1-.15-.86,2.32,2.32,0,0,1,.15-.84,1.92,1.92,0,0,1,.43-.68,2,2,0,0,1,.65-.45,2.06,2.06,0,0,1,.84-.16,1.87,1.87,0,0,1,.9.2,1.9,1.9,0,0,1,.63.53,2.25,2.25,0,0,1,.35.77,2.7,2.7,0,0,1,.08.9h-2.91A1.07,1.07,0,0,0,212.63,140.51Zm1.25-2.13a.78.78,0,0,0-.6-.21.92.92,0,0,0-.73.31.82.82,0,0,0-.14.28,1,1,0,0,0,0,.27h1.8A1.22,1.22,0,0,0,213.88,138.38Z" transform="translate(-45.35 -104.88)"/><path class="cls-1" d="M220.31,135.9h.39l.41,0,.38.06a1,1,0,0,1,.3.12,1.44,1.44,0,0,1,.47.45,1.27,1.27,0,0,1,.19.72,1.34,1.34,0,0,1-.22.77,1.29,1.29,0,0,1-.61.48h0a1.32,1.32,0,0,1,.79.47,1.42,1.42,0,0,1,.27.88,1.7,1.7,0,0,1-.1.59,1.5,1.5,0,0,1-.33.51,1.55,1.55,0,0,1-.53.36,1.7,1.7,0,0,1-.73.14h-2.7V135.9Zm.21,2.4a1.54,1.54,0,0,0,.91-.22.84.84,0,0,0,.28-.67.89.89,0,0,0-.1-.47.66.66,0,0,0-.25-.27,1.13,1.13,0,0,0-.38-.12,3.44,3.44,0,0,0-.46,0H219v1.78Zm.37,2.56a1,1,0,0,0,.77-.27,1,1,0,0,0,.28-.74.88.88,0,0,0-.1-.45.81.81,0,0,0-.27-.28,1.13,1.13,0,0,0-.39-.15,2.14,2.14,0,0,0-.45-.05H219v1.94Z" transform="translate(-45.35 -104.88)"/><path class="cls-1" d="M227,136.69a1.7,1.7,0,0,0-1-.3,1.76,1.76,0,0,0-.86.19,1.65,1.65,0,0,0-.58.5,2,2,0,0,0-.34.73,2.94,2.94,0,0,0-.11.84,3.27,3.27,0,0,0,.11.9,2,2,0,0,0,.34.75,1.6,1.6,0,0,0,.59.5,1.76,1.76,0,0,0,.86.19,1.67,1.67,0,0,0,.65-.12,1.54,1.54,0,0,0,.49-.34,1.5,1.5,0,0,0,.33-.51,2.6,2.6,0,0,0,.14-.64h.74a2.53,2.53,0,0,1-.73,1.64,2.35,2.35,0,0,1-1.69.59,2.65,2.65,0,0,1-1.13-.23,2.34,2.34,0,0,1-.81-.61,2.78,2.78,0,0,1-.48-.92,4.24,4.24,0,0,1-.16-1.14,3.9,3.9,0,0,1,.17-1.15,2.79,2.79,0,0,1,.51-.93,2.26,2.26,0,0,1,.83-.63,2.58,2.58,0,0,1,1.14-.24,2.87,2.87,0,0,1,.83.12,2,2,0,0,1,.69.35,2.11,2.11,0,0,1,.51.56,2.17,2.17,0,0,1,.27.79h-.75A1.37,1.37,0,0,0,227,136.69Z" transform="translate(-45.35 -104.88)"/><path class="cls-1" d="M233.18,141.07a2.27,2.27,0,0,1-1.63.54,2.47,2.47,0,0,1-1.68-.52,2,2,0,0,1-.61-1.63V135.9H230v3.56a1.55,1.55,0,0,0,.4,1.14,1.59,1.59,0,0,0,1.15.39,1.44,1.44,0,0,0,1.09-.39,1.63,1.63,0,0,0,.37-1.14V135.9h.74v3.56A2.11,2.11,0,0,1,233.18,141.07Z" transform="translate(-45.35 -104.88)"/><path class="cls-1" d="M74.07,147.08v2.31l2.18-2.31h1.53l-2.18,2.2,2.4,3.38H76.46l-1.69-2.51-.7.71v1.8H72.84v-5.58Z" transform="translate(-45.35 -104.88)"/><path class="cls-1" d="M78.52,149.21a1.24,1.24,0,0,1,.44-.41,1.61,1.61,0,0,1,.59-.22,3.11,3.11,0,0,1,.67-.07,4.3,4.3,0,0,1,.62,0,2,2,0,0,1,.57.17,1.06,1.06,0,0,1,.43.35,1,1,0,0,1,.16.59v2.1a4.45,4.45,0,0,0,0,.53,1,1,0,0,0,.11.37H81c0-.06,0-.12-.05-.19a1.36,1.36,0,0,1,0-.2,1.46,1.46,0,0,1-.63.38,2.27,2.27,0,0,1-.73.11,1.81,1.81,0,0,1-.54-.07,1.07,1.07,0,0,1-.44-.22,1,1,0,0,1-.3-.37,1.27,1.27,0,0,1-.1-.54,1.2,1.2,0,0,1,.12-.57.88.88,0,0,1,.31-.35,1.35,1.35,0,0,1,.44-.2,4,4,0,0,1,.5-.11,4.1,4.1,0,0,1,.49-.06,3.87,3.87,0,0,0,.43-.07.76.76,0,0,0,.3-.14.33.33,0,0,0,.1-.26.6.6,0,0,0-.06-.29.41.41,0,0,0-.16-.16.53.53,0,0,0-.22-.08l-.28,0a.89.89,0,0,0-.52.14.7.7,0,0,0-.22.47H78.32A1.28,1.28,0,0,1,78.52,149.21Zm2.19,1.57-.22.06-.26,0-.26,0a1,1,0,0,0-.25.06.7.7,0,0,0-.21.11.57.57,0,0,0-.15.16.67.67,0,0,0,0,.26.62.62,0,0,0,0,.25.46.46,0,0,0,.15.16.58.58,0,0,0,.22.08,1.09,1.09,0,0,0,.26,0,1,1,0,0,0,.51-.11.65.65,0,0,0,.26-.26.83.83,0,0,0,.11-.31c0-.11,0-.19,0-.25v-.42A.52.52,0,0,1,80.71,150.78Z" transform="translate(-45.35 -104.88)"/><path class="cls-1" d="M83.92,148.62v.56h0a1.28,1.28,0,0,1,.55-.51,1.51,1.51,0,0,1,.68-.16,1.94,1.94,0,0,1,.74.12,1,1,0,0,1,.45.34,1.46,1.46,0,0,1,.23.52,3.58,3.58,0,0,1,.06.68v2.49H85.54v-2.28a1.45,1.45,0,0,0-.15-.75.63.63,0,0,0-.56-.25.78.78,0,0,0-.66.27,1.56,1.56,0,0,0-.2.89v2.12H82.86v-4Z" transform="translate(-45.35 -104.88)"/><path class="cls-1" d="M89.72,148.62v.74h-.81v2a.37.37,0,0,0,.47.47h.17l.17,0v.86a1.48,1.48,0,0,1-.31,0h-.34a3.79,3.79,0,0,1-.49,0,1.32,1.32,0,0,1-.41-.14.75.75,0,0,1-.27-.29,1,1,0,0,1-.11-.49v-2.39h-.67v-.74h.67v-1.21h1.12v1.21Z" transform="translate(-45.35 -104.88)"/><path class="cls-1" d="M90.27,149.76a1.88,1.88,0,0,1,.43-.67,1.94,1.94,0,0,1,.65-.43,2.57,2.57,0,0,1,1.73,0,1.89,1.89,0,0,1,.66.43,2,2,0,0,1,.42.67,2.5,2.5,0,0,1,.15.88,2.42,2.42,0,0,1-.15.88,2,2,0,0,1-.42.67,1.89,1.89,0,0,1-.66.43,2.74,2.74,0,0,1-1.73,0,1.94,1.94,0,0,1-.65-.43,1.88,1.88,0,0,1-.43-.67,2.43,2.43,0,0,1-.14-.88A2.5,2.5,0,0,1,90.27,149.76Zm1,1.36a1.35,1.35,0,0,0,.16.41.92.92,0,0,0,.3.29.88.88,0,0,0,.47.11.9.9,0,0,0,.48-.11.83.83,0,0,0,.3-.29,1.13,1.13,0,0,0,.16-.41,2.52,2.52,0,0,0,0-.48,2.42,2.42,0,0,0,0-.47,1.11,1.11,0,0,0-.16-.42.93.93,0,0,0-.3-.29.9.9,0,0,0-.48-.11.88.88,0,0,0-.47.11,1,1,0,0,0-.3.29,1.31,1.31,0,0,0-.16.42,2.42,2.42,0,0,0,0,.47A2.52,2.52,0,0,0,91.28,151.12Z" transform="translate(-45.35 -104.88)"/><path class="cls-1" d="M96.08,148.62v.56h0a1.28,1.28,0,0,1,.55-.51,1.51,1.51,0,0,1,.68-.16,2,2,0,0,1,.74.12,1,1,0,0,1,.44.34,1.32,1.32,0,0,1,.24.52,3.58,3.58,0,0,1,.06.68v2.49H97.71v-2.28a1.35,1.35,0,0,0-.16-.75.6.6,0,0,0-.55-.25.78.78,0,0,0-.66.27,1.56,1.56,0,0,0-.2.89v2.12H95v-4Z" transform="translate(-45.35 -104.88)"/><path class="cls-1" d="M100.6,151.66a.76.76,0,0,0,.19.21,1.11,1.11,0,0,0,.27.12,1.12,1.12,0,0,0,.32,0l.25,0a.92.92,0,0,0,.23-.09.52.52,0,0,0,.18-.15.49.49,0,0,0,.07-.25c0-.16-.11-.29-.34-.37a5.51,5.51,0,0,0-.92-.25l-.48-.13a1.74,1.74,0,0,1-.41-.2,1,1,0,0,1-.29-.3.94.94,0,0,1-.11-.45,1.21,1.21,0,0,1,.16-.64,1.1,1.1,0,0,1,.4-.4,1.7,1.7,0,0,1,.56-.2,3.47,3.47,0,0,1,.64-.06,3.31,3.31,0,0,1,.64.06,1.58,1.58,0,0,1,.55.21,1.3,1.3,0,0,1,.41.4,1.38,1.38,0,0,1,.19.62h-1.06a.46.46,0,0,0-.24-.43,1.08,1.08,0,0,0-.52-.12h-.2l-.2.05a.44.44,0,0,0-.15.12.3.3,0,0,0-.06.2.28.28,0,0,0,.11.24.82.82,0,0,0,.28.15,3.26,3.26,0,0,0,.4.11l.46.1.48.13a1.44,1.44,0,0,1,.41.21.91.91,0,0,1,.4.79,1.24,1.24,0,0,1-.58,1.11,1.82,1.82,0,0,1-.59.23,3.82,3.82,0,0,1-.68.06,3.23,3.23,0,0,1-.69-.07,1.62,1.62,0,0,1-.59-.23,1.42,1.42,0,0,1-.44-.44,1.35,1.35,0,0,1-.18-.67h1.06A.62.62,0,0,0,100.6,151.66Z" transform="translate(-45.35 -104.88)"/><path class="cls-1" d="M106.21,150.05V151h-2.35v-.95Z" transform="translate(-45.35 -104.88)"/><path class="cls-1" d="M112,152.66v-.56h0a1.34,1.34,0,0,1-.55.51,1.65,1.65,0,0,1-.69.15,2.12,2.12,0,0,1-.73-.11,1,1,0,0,1-.45-.34,1.18,1.18,0,0,1-.23-.52,3.55,3.55,0,0,1-.07-.68v-2.49h1.11v2.28a1.47,1.47,0,0,0,.16.75.61.61,0,0,0,.56.24.77.77,0,0,0,.65-.26,1.47,1.47,0,0,0,.21-.89v-2.12H113v4Z" transform="translate(-45.35 -104.88)"/><path class="cls-1" d="M114.92,148.62v.56h0a1.28,1.28,0,0,1,.55-.51,1.52,1.52,0,0,1,.69-.16,1.92,1.92,0,0,1,.73.12,1,1,0,0,1,.45.34,1.31,1.31,0,0,1,.23.52,3.58,3.58,0,0,1,.06.68v2.49h-1.11v-2.28a1.45,1.45,0,0,0-.15-.75.63.63,0,0,0-.56-.25.75.75,0,0,0-.65.27,1.47,1.47,0,0,0-.21.89v2.12h-1.11v-4Z" transform="translate(-45.35 -104.88)"/><path class="cls-1" d="M121.37,152.15a1.21,1.21,0,0,1-.51.47,1.81,1.81,0,0,1-.72.14,1.71,1.71,0,0,1-.8-.17,1.63,1.63,0,0,1-.56-.48,2.22,2.22,0,0,1-.34-.69,3.1,3.1,0,0,1-.11-.81,2.9,2.9,0,0,1,.11-.79,2.12,2.12,0,0,1,.34-.67,1.6,1.6,0,0,1,1.34-.64,1.57,1.57,0,0,1,.68.15,1.12,1.12,0,0,1,.51.45h0v-2h1.11v5.58h-1.06v-.51Zm-.05-2a1.07,1.07,0,0,0-.16-.41.78.78,0,0,0-.29-.28.81.81,0,0,0-.46-.11.85.85,0,0,0-.46.11,1,1,0,0,0-.3.28,1.31,1.31,0,0,0-.16.42,1.86,1.86,0,0,0,0,.48,2.59,2.59,0,0,0,0,.47,1.38,1.38,0,0,0,.18.41.86.86,0,0,0,.3.3,1,1,0,0,0,.9,0,.83.83,0,0,0,.3-.29,1.3,1.3,0,0,0,.15-.42,2.52,2.52,0,0,0,.05-.48A2.44,2.44,0,0,0,121.32,150.15Z" transform="translate(-45.35 -104.88)"/><path class="cls-1" d="M129.67,152.24a3.06,3.06,0,0,1-3.5,0,2.12,2.12,0,0,1-.63-1.69v-3.47h1.23v3.47a3.42,3.42,0,0,0,0,.45.87.87,0,0,0,.17.38.86.86,0,0,0,.34.28,1.44,1.44,0,0,0,.6.1,1.18,1.18,0,0,0,.91-.29,1.39,1.39,0,0,0,.25-.92v-3.47h1.23v3.47A2.1,2.1,0,0,1,129.67,152.24Z" transform="translate(-45.35 -104.88)"/><path class="cls-1" d="M132.3,148.62v.56h0a1.32,1.32,0,0,1,.54-.51,1.58,1.58,0,0,1,.69-.16,1.89,1.89,0,0,1,.73.12,1,1,0,0,1,.45.34,1.18,1.18,0,0,1,.23.52,2.9,2.9,0,0,1,.07.68v2.49h-1.11v-2.28a1.35,1.35,0,0,0-.16-.75.61.61,0,0,0-.55-.25.77.77,0,0,0-.66.27,1.48,1.48,0,0,0-.2.89v2.12h-1.11v-4Z" transform="translate(-45.35 -104.88)"/><path class="cls-1" d="M135.92,148v-.91H137V148Zm1.11.63v4h-1.11v-4Z" transform="translate(-45.35 -104.88)"/><path class="cls-1" d="M138.9,152.66l-1.38-4h1.16l.86,2.76h0l.85-2.76h1.11l-1.37,4Z" transform="translate(-45.35 -104.88)"/><path class="cls-1" d="M143.16,151.69a1,1,0,0,0,.72.24,1,1,0,0,0,.58-.16.67.67,0,0,0,.29-.36h1a1.91,1.91,0,0,1-.72,1,2.08,2.08,0,0,1-1.17.31,2.31,2.31,0,0,1-.86-.15,1.85,1.85,0,0,1-.65-.43,1.8,1.8,0,0,1-.41-.68,2.35,2.35,0,0,1-.15-.86,2.32,2.32,0,0,1,.15-.84,2,2,0,0,1,1.92-1.29,2,2,0,0,1,.9.2,1.9,1.9,0,0,1,.63.53,2.25,2.25,0,0,1,.35.77,3,3,0,0,1,.08.9h-2.92A1.12,1.12,0,0,0,143.16,151.69Zm1.25-2.13a.78.78,0,0,0-.6-.21.93.93,0,0,0-.44.09.82.82,0,0,0-.29.22.85.85,0,0,0-.15.28c0,.1,0,.19-.05.27h1.81A1.31,1.31,0,0,0,144.41,149.56Z" transform="translate(-45.35 -104.88)"/><path class="cls-1" d="M147.51,148.62v.75h0a1.25,1.25,0,0,1,.21-.35,1.27,1.27,0,0,1,.3-.27,1.35,1.35,0,0,1,.78-.24.75.75,0,0,1,.24,0v1l-.18,0h-.22a1.29,1.29,0,0,0-.51.1.86.86,0,0,0-.34.28,1.11,1.11,0,0,0-.19.41,2.76,2.76,0,0,0-.05.51v1.82h-1.11v-4Z" transform="translate(-45.35 -104.88)"/><path class="cls-1" d="M150.43,151.66a.8.8,0,0,0,.2.21,1,1,0,0,0,.27.12,1.06,1.06,0,0,0,.31,0l.25,0a.92.92,0,0,0,.23-.09.52.52,0,0,0,.18-.15.41.41,0,0,0,.07-.25c0-.16-.11-.29-.33-.37a5.4,5.4,0,0,0-.93-.25l-.47-.13a1.56,1.56,0,0,1-.41-.2.92.92,0,0,1-.29-.3.84.84,0,0,1-.11-.45,1.21,1.21,0,0,1,.15-.64,1.18,1.18,0,0,1,.4-.4,1.75,1.75,0,0,1,.57-.2,3.31,3.31,0,0,1,.64-.06,3.21,3.21,0,0,1,.63.06,1.63,1.63,0,0,1,.56.21,1.26,1.26,0,0,1,.59,1h-1.06a.46.46,0,0,0-.24-.43,1,1,0,0,0-.51-.12h-.21l-.2.05a.44.44,0,0,0-.15.12.3.3,0,0,0-.06.2.28.28,0,0,0,.11.24.92.92,0,0,0,.28.15,3.44,3.44,0,0,0,.41.11l.46.1.47.13a1.44,1.44,0,0,1,.41.21.91.91,0,0,1,.4.79,1.26,1.26,0,0,1-.16.67,1.36,1.36,0,0,1-.42.44,1.82,1.82,0,0,1-.59.23,3.79,3.79,0,0,1-.67.06,3.11,3.11,0,0,1-.69-.07,1.6,1.6,0,0,1-.6-.23,1.29,1.29,0,0,1-.43-.44,1.36,1.36,0,0,1-.19-.67h1.06A.62.62,0,0,0,150.43,151.66Z" transform="translate(-45.35 -104.88)"/><path class="cls-1" d="M153.73,148v-.91h1.11V148Zm1.11.63v4h-1.11v-4Z" transform="translate(-45.35 -104.88)"/><path class="cls-1" d="M157.94,148.62v.74h-.81v2a.57.57,0,0,0,.09.38.55.55,0,0,0,.37.09h.18l.17,0v.86a1.55,1.55,0,0,1-.31,0h-.34a3.79,3.79,0,0,1-.49,0,1.32,1.32,0,0,1-.41-.14.75.75,0,0,1-.27-.29,1,1,0,0,1-.11-.49v-2.39h-.67v-.74H156v-1.21h1.12v1.21Z" transform="translate(-45.35 -104.88)"/><path class="cls-1" d="M158.62,149.21a1.24,1.24,0,0,1,.44-.41,1.61,1.61,0,0,1,.59-.22,3.11,3.11,0,0,1,.67-.07,4.3,4.3,0,0,1,.62,0,2,2,0,0,1,.57.17,1,1,0,0,1,.42.35,1,1,0,0,1,.17.59v2.1a4.45,4.45,0,0,0,0,.53,1,1,0,0,0,.11.37h-1.13c0-.06,0-.12-.05-.19a1.36,1.36,0,0,1,0-.2,1.46,1.46,0,0,1-.63.38,2.33,2.33,0,0,1-.74.11,1.9,1.9,0,0,1-.54-.07,1.1,1.1,0,0,1-.43-.22.91.91,0,0,1-.3-.37,1.27,1.27,0,0,1-.1-.54,1.2,1.2,0,0,1,.12-.57.88.88,0,0,1,.31-.35,1.35,1.35,0,0,1,.44-.2,4,4,0,0,1,.5-.11,4.1,4.1,0,0,1,.49-.06l.43-.07a.83.83,0,0,0,.3-.14.33.33,0,0,0,.1-.26.6.6,0,0,0-.06-.29.41.41,0,0,0-.16-.16.53.53,0,0,0-.22-.08l-.28,0a.89.89,0,0,0-.52.14.66.66,0,0,0-.22.47h-1.11A1.28,1.28,0,0,1,158.62,149.21Zm1.4-2.13V148H159v-.91Zm.79,3.7-.22.06-.26,0-.26,0a1,1,0,0,0-.25.06.7.7,0,0,0-.21.11.57.57,0,0,0-.15.16.67.67,0,0,0-.05.26.62.62,0,0,0,.05.25.46.46,0,0,0,.15.16.53.53,0,0,0,.22.08,1.09,1.09,0,0,0,.26,0,1,1,0,0,0,.51-.11.65.65,0,0,0,.26-.26.83.83,0,0,0,.11-.31c0-.11,0-.19,0-.25v-.42A.52.52,0,0,1,160.81,150.78Zm.82-3.7V148h-1.06v-.91Z" transform="translate(-45.35 -104.88)"/><path class="cls-1" d="M165.18,148.62v.74h-.81v2a.37.37,0,0,0,.47.47H165l.16,0v.86a1.48,1.48,0,0,1-.31,0h-.34a3.91,3.91,0,0,1-.49,0,1.18,1.18,0,0,1-.4-.14.78.78,0,0,1-.28-.29,1,1,0,0,1-.1-.49v-2.39h-.68v-.74h.68v-1.21h1.11v1.21Z" transform="translate(-45.35 -104.88)"/><path class="cls-1" d="M166.65,151.66a.76.76,0,0,0,.19.21,1.11,1.11,0,0,0,.27.12,1.12,1.12,0,0,0,.32,0,1.05,1.05,0,0,0,.24,0,.85.85,0,0,0,.24-.09.43.43,0,0,0,.24-.4c0-.16-.11-.29-.33-.37a5.4,5.4,0,0,0-.93-.25l-.47-.13a1.74,1.74,0,0,1-.41-.2.92.92,0,0,1-.29-.3.94.94,0,0,1-.11-.45,1.1,1.1,0,0,1,.56-1,1.62,1.62,0,0,1,.56-.2,3.44,3.44,0,0,1,1.28,0,1.66,1.66,0,0,1,.55.21,1.18,1.18,0,0,1,.4.4,1.26,1.26,0,0,1,.19.62H168.1a.5.5,0,0,0-.24-.43,1.08,1.08,0,0,0-.52-.12h-.2l-.2.05a.61.61,0,0,0-.16.12.3.3,0,0,0-.06.2.3.3,0,0,0,.11.24.87.87,0,0,0,.29.15,2.83,2.83,0,0,0,.4.11l.46.1.47.13a1.32,1.32,0,0,1,.41.21,1,1,0,0,1,.29.32.88.88,0,0,1,.11.47,1.26,1.26,0,0,1-.16.67,1.18,1.18,0,0,1-.42.44,1.73,1.73,0,0,1-.59.23,3.71,3.71,0,0,1-.67.06,3.11,3.11,0,0,1-.69-.07,1.6,1.6,0,0,1-.6-.23,1.39,1.39,0,0,1-.43-.44,1.35,1.35,0,0,1-.18-.67h1A.62.62,0,0,0,166.65,151.66Z" transform="translate(-45.35 -104.88)"/><path class="cls-1" d="M171,147.08v2h0a1.18,1.18,0,0,1,.55-.46,2,2,0,0,1,.72-.14,1.62,1.62,0,0,1,.61.12,1.77,1.77,0,0,1,.53.39,1.92,1.92,0,0,1,.39.66,2.76,2.76,0,0,1,.15,1,2.67,2.67,0,0,1-.15,1,1.92,1.92,0,0,1-.39.66,1.47,1.47,0,0,1-1.14.51,2,2,0,0,1-.79-.14,1,1,0,0,1-.54-.47h0v.51h-1.06v-5.58Zm1.8,3.07a1.08,1.08,0,0,0-.17-.41,1,1,0,0,0-.29-.29.83.83,0,0,0-.43-.1.82.82,0,0,0-.42.1.92.92,0,0,0-.3.29,1.08,1.08,0,0,0-.17.41,2,2,0,0,0,0,1,1.08,1.08,0,0,0,.17.41.92.92,0,0,0,.3.29.82.82,0,0,0,.42.1.83.83,0,0,0,.43-.1,1,1,0,0,0,.29-.29,1.08,1.08,0,0,0,.17-.41,2,2,0,0,0,0-1Z" transform="translate(-45.35 -104.88)"/><path class="cls-1" d="M174.72,148v-.91h1.11V148Zm1.11.63v4h-1.11v-4Z" transform="translate(-45.35 -104.88)"/><path class="cls-1" d="M177.82,147.08v2h0a1.21,1.21,0,0,1,.56-.46,2,2,0,0,1,.72-.14,1.61,1.61,0,0,1,.6.12,1.69,1.69,0,0,1,.54.39,1.76,1.76,0,0,1,.38.66,2.76,2.76,0,0,1,.15,1,2.67,2.67,0,0,1-.15,1,1.76,1.76,0,0,1-.38.66,1.55,1.55,0,0,1-.54.39,1.61,1.61,0,0,1-.6.12,2,2,0,0,1-.8-.14,1,1,0,0,1-.53-.47h0v.51h-1v-5.58Zm1.8,3.07a1.53,1.53,0,0,0-.17-.41.92.92,0,0,0-.3-.29.79.79,0,0,0-.42-.1.83.83,0,0,0-.43.1.81.81,0,0,0-.29.29,1.28,1.28,0,0,0-.18.41,2.43,2.43,0,0,0,0,1,1.28,1.28,0,0,0,.18.41.81.81,0,0,0,.29.29.83.83,0,0,0,.43.1.79.79,0,0,0,.42-.1.92.92,0,0,0,.3-.29,1.53,1.53,0,0,0,.17-.41,2.43,2.43,0,0,0,0-1Z" transform="translate(-45.35 -104.88)"/><path class="cls-1" d="M182.63,147.08v5.58h-1.11v-5.58Z" transform="translate(-45.35 -104.88)"/><path class="cls-1" d="M183.54,148v-.91h1.11V148Zm1.11.63v4h-1.11v-4Z" transform="translate(-45.35 -104.88)"/><path class="cls-1" d="M185.54,149.76a2,2,0,0,1,.43-.67,1.94,1.94,0,0,1,.65-.43,2.57,2.57,0,0,1,1.73,0,1.89,1.89,0,0,1,.66.43,2,2,0,0,1,.42.67,2.5,2.5,0,0,1,.15.88,2.42,2.42,0,0,1-.15.88,2,2,0,0,1-.42.67,1.89,1.89,0,0,1-.66.43,2.74,2.74,0,0,1-1.73,0,1.94,1.94,0,0,1-.65-.43,2,2,0,0,1-.43-.67,2.66,2.66,0,0,1-.14-.88A2.75,2.75,0,0,1,185.54,149.76Zm1,1.36a1.35,1.35,0,0,0,.16.41.86.86,0,0,0,.31.29.83.83,0,0,0,.46.11.9.9,0,0,0,.48-.11.76.76,0,0,0,.3-.29,1.13,1.13,0,0,0,.16-.41,2.52,2.52,0,0,0,.05-.48,2.42,2.42,0,0,0-.05-.47,1.11,1.11,0,0,0-.16-.42.84.84,0,0,0-.3-.29.9.9,0,0,0-.48-.11.83.83,0,0,0-.46.11,1,1,0,0,0-.31.29,1.31,1.31,0,0,0-.16.42,2.42,2.42,0,0,0,0,.47A2.52,2.52,0,0,0,186.55,151.12Z" transform="translate(-45.35 -104.88)"/><path class="cls-1" d="M192.52,148.62v.74h-.81v2a.37.37,0,0,0,.47.47h.18l.16,0v.86a1.48,1.48,0,0,1-.31,0h-.34a3.91,3.91,0,0,1-.49,0,1.18,1.18,0,0,1-.4-.14.78.78,0,0,1-.28-.29,1,1,0,0,1-.1-.49v-2.39h-.68v-.74h.68v-1.21h1.11v1.21Z" transform="translate(-45.35 -104.88)"/><path class="cls-1" d="M194.16,147.08v2.1h0a1.32,1.32,0,0,1,.54-.51,1.41,1.41,0,0,1,.64-.16,1.89,1.89,0,0,1,.73.12,1,1,0,0,1,.45.34,1.31,1.31,0,0,1,.23.52,3.55,3.55,0,0,1,.07.68v2.49h-1.11v-2.28a1.44,1.44,0,0,0-.16-.75.63.63,0,0,0-.56-.25.75.75,0,0,0-.65.27,1.47,1.47,0,0,0-.21.89v2.12h-1.11v-5.58Z" transform="translate(-45.35 -104.88)"/><path class="cls-1" d="M198.88,151.69a1.17,1.17,0,0,0,1.3.08.67.67,0,0,0,.29-.36h1a1.82,1.82,0,0,1-.72,1,2.08,2.08,0,0,1-1.17.31,2.35,2.35,0,0,1-.86-.15,1.85,1.85,0,0,1-.65-.43,1.93,1.93,0,0,1-.41-.68,2.35,2.35,0,0,1-.15-.86,2.32,2.32,0,0,1,.15-.84,1.92,1.92,0,0,1,.43-.68,2,2,0,0,1,.65-.45,2.06,2.06,0,0,1,.84-.16,2,2,0,0,1,.9.2,1.9,1.9,0,0,1,.63.53,2.25,2.25,0,0,1,.35.77,2.7,2.7,0,0,1,.08.9h-2.91A1.07,1.07,0,0,0,198.88,151.69Zm1.25-2.13a.78.78,0,0,0-.6-.21.92.92,0,0,0-.73.31.82.82,0,0,0-.14.28,1,1,0,0,0,0,.27h1.8A1.22,1.22,0,0,0,200.13,149.56Z" transform="translate(-45.35 -104.88)"/><path class="cls-1" d="M203.39,147.08v3l1.4-1.45h1.32l-1.53,1.48,1.7,2.56h-1.35l-1.11-1.8-.43.41v1.39h-1.11v-5.58Z" transform="translate(-45.35 -104.88)"/><path class="cls-1" d="M209.77,147.08v2.78l2.83-2.78h1l-2.36,2.25,2.45,3.33h-.94l-2-2.82-.93.87v1.95H209v-5.58Z" transform="translate(-45.35 -104.88)"/><path class="cls-1" d="M218.13,152.25a2.26,2.26,0,0,1-1.62.54,2.49,2.49,0,0,1-1.69-.52,2,2,0,0,1-.61-1.63v-3.56H215v3.56a1.51,1.51,0,0,0,.4,1.14,1.57,1.57,0,0,0,1.15.39,1.43,1.43,0,0,0,1.08-.39,1.58,1.58,0,0,0,.37-1.14v-3.56h.74v3.56A2.11,2.11,0,0,1,218.13,152.25Z" transform="translate(-45.35 -104.88)"/><path class="cls-1" d="M221.92,147.08h.39l.41,0,.38,0a1.34,1.34,0,0,1,.3.12,1.51,1.51,0,0,1,.46.45,1.27,1.27,0,0,1,.19.72,1.41,1.41,0,0,1-.21.77,1.32,1.32,0,0,1-.62.48h0a1.29,1.29,0,0,1,.79.47,1.36,1.36,0,0,1,.28.88,1.71,1.71,0,0,1-.11.59,1.36,1.36,0,0,1-.33.52,1.9,1.9,0,0,1-.53.36,1.83,1.83,0,0,1-.73.13h-2.7v-5.58Zm.2,2.4a1.52,1.52,0,0,0,.91-.22.81.81,0,0,0,.28-.67,1,1,0,0,0-.09-.47.68.68,0,0,0-.26-.27,1.13,1.13,0,0,0-.38-.12,3.33,3.33,0,0,0-.46,0h-1.48v1.78Zm.38,2.56a1.06,1.06,0,0,0,.77-.27,1,1,0,0,0,.27-.73.9.9,0,0,0-.1-.46.66.66,0,0,0-.27-.28,1.16,1.16,0,0,0-.38-.15,2.31,2.31,0,0,0-.46-.05h-1.69V152Z" transform="translate(-45.35 -104.88)"/></svg>